<svg width="24" height="24" viewBox="0 0 24 24" fill="none" xmlns="http://www.w3.org/2000/svg">
<path d="M10 3.19998C8.43573 3.56262 6.99694 4.33718 5.8329 5.44332C4.66886 6.54946 3.82197 7.94689 3.38005 9.49066C2.93814 11.0344 2.91731 12.6683 3.31971 14.2229C3.72212 15.7774 4.53311 17.196 5.66857 18.3314C6.80403 19.4669 8.2226 20.2779 9.77714 20.6803C11.3317 21.0827 12.9656 21.0619 14.5093 20.62C16.0531 20.178 17.4506 19.3311 18.5567 18.1671C19.6628 17.0031 20.4374 15.5643 20.8 14C20.8 13.7348 20.6947 13.4804 20.5071 13.2929C20.3196 13.1053 20.0652 13 19.8 13H13C12.4696 13 11.9609 12.7893 11.5858 12.4142C11.2107 12.0391 11 11.5304 11 11V3.99998C10.9876 3.88151 10.9518 3.76668 10.8946 3.66215C10.8375 3.55763 10.7602 3.46548 10.6672 3.39107C10.5741 3.31665 10.4673 3.26144 10.3527 3.22864C10.2382 3.19584 10.1183 3.1861 10 3.19998Z" stroke="#9EAEC5" stroke-width="1.5" stroke-linecap="round" stroke-linejoin="round"/>
<path d="M15 3.5C16.2697 3.94708 17.423 4.6733 18.3748 5.62516C19.3267 6.57702 20.0529 7.73028 20.5 9H16C15.7348 9 15.4804 8.89464 15.2929 8.70711C15.1054 8.51957 15 8.26522 15 8V3.5Z" stroke="#9EAEC5" stroke-width="1.5" stroke-linecap="round" stroke-linejoin="round"/>
</svg>
