<svg width="24" height="24" viewBox="0 0 24 24" fill="none" xmlns="http://www.w3.org/2000/svg">
<path fill-rule="evenodd" clip-rule="evenodd" d="M20 2H4C2.89543 2 2 2.89543 2 4V20C2 21.1046 2.89543 22 4 22H20C21.1046 22 22 21.1046 22 20V4C22 2.89543 21.1046 2 20 2ZM4 1C2.34315 1 1 2.34315 1 4V20C1 21.6569 2.34315 23 4 23H20C21.6569 23 23 21.6569 23 20V4C23 2.34315 21.6569 1 20 1H4Z" fill="#9EAEC5"/>
<path fill-rule="evenodd" clip-rule="evenodd" d="M6.33333 12.6667H5.66667L5.66667 13.3333H6.33333V12.6667ZM5.66667 12C5.29848 12 5 12.2985 5 12.6667V13.3333C5 13.7015 5.29848 14 5.66667 14H6.33333C6.70152 14 7 13.7015 7 13.3333V12.6667C7 12.2985 6.70152 12 6.33333 12H5.66667Z" fill="#9EAEC5"/>
<path fill-rule="evenodd" clip-rule="evenodd" d="M6.33333 15.6667H5.66667L5.66667 16.3333H6.33333V15.6667ZM5.66667 15C5.29848 15 5 15.2985 5 15.6667V16.3333C5 16.7015 5.29848 17 5.66667 17H6.33333C6.70152 17 7 16.7015 7 16.3333V15.6667C7 15.2985 6.70152 15 6.33333 15H5.66667Z" fill="#9EAEC5"/>
<path fill-rule="evenodd" clip-rule="evenodd" d="M6.33333 18.6667H5.66667L5.66667 19.3333H6.33333V18.6667ZM5.66667 18C5.29848 18 5 18.2985 5 18.6667V19.3333C5 19.7015 5.29848 20 5.66667 20H6.33333C6.70152 20 7 19.7015 7 19.3333V18.6667C7 18.2985 6.70152 18 6.33333 18H5.66667Z" fill="#9EAEC5"/>
<path fill-rule="evenodd" clip-rule="evenodd" d="M10.3333 12.6667H9.66667L9.66667 13.3333H10.3333V12.6667ZM9.66667 12C9.29848 12 9 12.2985 9 12.6667V13.3333C9 13.7015 9.29848 14 9.66667 14H10.3333C10.7015 14 11 13.7015 11 13.3333V12.6667C11 12.2985 10.7015 12 10.3333 12H9.66667Z" fill="#9EAEC5"/>
<path fill-rule="evenodd" clip-rule="evenodd" d="M10.3333 15.6667H9.66667L9.66667 16.3333H10.3333V15.6667ZM9.66667 15C9.29848 15 9 15.2985 9 15.6667V16.3333C9 16.7015 9.29848 17 9.66667 17H10.3333C10.7015 17 11 16.7015 11 16.3333V15.6667C11 15.2985 10.7015 15 10.3333 15H9.66667Z" fill="#9EAEC5"/>
<path fill-rule="evenodd" clip-rule="evenodd" d="M10.3333 18.6667H9.66667L9.66667 19.3333H10.3333V18.6667ZM9.66667 18C9.29848 18 9 18.2985 9 18.6667V19.3333C9 19.7015 9.29848 20 9.66667 20H10.3333C10.7015 20 11 19.7015 11 19.3333V18.6667C11 18.2985 10.7015 18 10.3333 18H9.66667Z" fill="#9EAEC5"/>
<path fill-rule="evenodd" clip-rule="evenodd" d="M14.3333 12.6667H13.6667L13.6667 13.3333H14.3333V12.6667ZM13.6667 12C13.2985 12 13 12.2985 13 12.6667V13.3333C13 13.7015 13.2985 14 13.6667 14H14.3333C14.7015 14 15 13.7015 15 13.3333V12.6667C15 12.2985 14.7015 12 14.3333 12H13.6667Z" fill="#9EAEC5"/>
<path fill-rule="evenodd" clip-rule="evenodd" d="M14.3333 15.6667H13.6667L13.6667 16.3333H14.3333V15.6667ZM13.6667 15C13.2985 15 13 15.2985 13 15.6667V16.3333C13 16.7015 13.2985 17 13.6667 17H14.3333C14.7015 17 15 16.7015 15 16.3333V15.6667C15 15.2985 14.7015 15 14.3333 15H13.6667Z" fill="#9EAEC5"/>
<path fill-rule="evenodd" clip-rule="evenodd" d="M14.3333 18.6667H13.6667L13.6667 19.3333H14.3333V18.6667ZM13.6667 18C13.2985 18 13 18.2985 13 18.6667V19.3333C13 19.7015 13.2985 20 13.6667 20H14.3333C14.7015 20 15 19.7015 15 19.3333V18.6667C15 18.2985 14.7015 18 14.3333 18H13.6667Z" fill="#9EAEC5"/>
<rect x="4.5" y="4.5" width="15" height="5" rx="0.5" stroke="#9EAEC5"/>
<g clip-path="url(#clip0_309_1226)">
<path d="M18.4977 17.857C18.4795 17.857 18.4617 17.851 18.4472 17.84C18.4327 17.8289 18.4223 17.8135 18.4174 17.7959C18.4125 17.7783 18.4135 17.7597 18.4203 17.7428C18.427 17.7258 18.4391 17.7116 18.4547 17.7022C18.75 17.5249 18.75 17.144 18.75 16.9165C18.75 16.8502 18.7763 16.7867 18.8232 16.7398C18.8701 16.6929 18.9337 16.6665 19 16.6665C19.0663 16.6665 19.1299 16.6929 19.1768 16.7398C19.2237 16.7867 19.25 16.8502 19.25 16.9165C19.25 16.9387 19.2412 16.9598 19.2256 16.9755C19.21 16.9911 19.1888 16.9999 19.1667 16.9999C19.1446 16.9999 19.1234 16.9911 19.1077 16.9755C19.0921 16.9598 19.0833 16.9387 19.0833 16.9165C19.0833 16.8944 19.0746 16.8733 19.0589 16.8576C19.0433 16.842 19.0221 16.8332 19 16.8332C18.9779 16.8332 18.9567 16.842 18.9411 16.8576C18.9254 16.8733 18.9167 16.8944 18.9167 16.9165C18.9167 17.1621 18.9167 17.6194 18.5405 17.8451C18.5276 17.8529 18.5128 17.857 18.4977 17.857ZM18.9112 17.9754C19.1014 17.7837 19.2125 17.5142 19.2413 17.1736C19.2423 17.1627 19.2411 17.1517 19.2378 17.1412C19.2345 17.1308 19.2292 17.1211 19.2221 17.1127C19.2151 17.1043 19.2065 17.0973 19.1967 17.0923C19.187 17.0872 19.1763 17.0841 19.1654 17.0832C19.1545 17.0821 19.1434 17.0832 19.1329 17.0864C19.1224 17.0897 19.1127 17.095 19.1043 17.1021C19.0959 17.1091 19.089 17.1179 19.084 17.1277C19.079 17.1375 19.0761 17.1482 19.0753 17.1591C19.0494 17.4639 18.9571 17.6925 18.793 17.8575C18.7774 17.8732 18.7687 17.8945 18.7688 17.9166C18.7688 17.9387 18.7777 17.9598 18.7934 17.9754C18.8091 17.991 18.8303 17.9997 18.8524 17.9996C18.8745 17.9996 18.8957 17.9907 18.9112 17.975V17.9754ZM19.3446 17.9599C19.3951 17.8759 19.4372 17.7871 19.4702 17.6948C19.4772 17.6742 19.4757 17.6516 19.4662 17.632C19.4567 17.6125 19.44 17.5974 19.4195 17.59C19.399 17.5826 19.3764 17.5835 19.3566 17.5925C19.3368 17.6016 19.3214 17.618 19.3135 17.6383C19.2842 17.7201 19.2468 17.7989 19.202 17.8734C19.1963 17.8827 19.1925 17.8931 19.1909 17.904C19.1892 17.9148 19.1897 17.9258 19.1923 17.9365C19.1949 17.9471 19.1996 17.9571 19.2061 17.9659C19.2125 17.9748 19.2207 17.9822 19.23 17.9879C19.2489 17.9994 19.2716 18.0029 19.2931 17.9976C19.3038 17.995 19.3138 17.9903 19.3226 17.9839C19.3314 17.9774 19.3389 17.9692 19.3446 17.9599ZM19.5417 17.4325C19.5725 17.2623 19.5865 17.0895 19.5833 16.9165C19.5833 16.7985 19.5474 16.6832 19.4804 16.586C19.4134 16.4888 19.3185 16.4142 19.2082 16.372C19.0979 16.3299 18.9775 16.3222 18.8627 16.35C18.748 16.3778 18.6444 16.4397 18.5656 16.5276C18.5579 16.5357 18.5519 16.5453 18.548 16.5557C18.5441 16.5661 18.5423 16.5772 18.5428 16.5884C18.5432 16.5995 18.5459 16.6104 18.5506 16.6205C18.5554 16.6306 18.5621 16.6396 18.5704 16.6471C18.5787 16.6545 18.5884 16.6602 18.599 16.6638C18.6095 16.6674 18.6207 16.6689 18.6318 16.6681C18.6429 16.6674 18.6538 16.6644 18.6637 16.6593C18.6736 16.6543 18.6825 16.6473 18.6897 16.6388C18.7459 16.576 18.8199 16.5317 18.9019 16.5119C18.9839 16.492 19.0699 16.4975 19.1487 16.5276C19.2275 16.5577 19.2953 16.611 19.3431 16.6804C19.391 16.7499 19.4166 16.8322 19.4167 16.9165C19.4197 17.0788 19.4068 17.2409 19.3782 17.4006C19.374 17.4223 19.3785 17.4448 19.3909 17.4631C19.4032 17.4814 19.4223 17.4941 19.444 17.4983C19.4493 17.4994 19.4547 17.4999 19.4601 17.4999C19.4794 17.4998 19.4981 17.4931 19.513 17.4808C19.5278 17.4685 19.538 17.4514 19.5417 17.4325ZM18.5833 16.9165C18.5833 16.8933 18.5852 16.8701 18.5891 16.8471C18.5916 16.8361 18.5918 16.8247 18.5897 16.8135C18.5876 16.8024 18.5833 16.7918 18.577 16.7824C18.5707 16.773 18.5626 16.765 18.553 16.7588C18.5435 16.7527 18.5329 16.7485 18.5217 16.7467C18.5106 16.7448 18.4991 16.7452 18.4881 16.7478C18.4771 16.7505 18.4668 16.7554 18.4577 16.7622C18.4487 16.769 18.4411 16.7775 18.4355 16.7874C18.4299 16.7972 18.4263 16.8081 18.425 16.8193C18.4195 16.8514 18.4167 16.884 18.4167 16.9165C18.4167 17.3036 18.3045 17.4999 18.0833 17.4999C18.0612 17.4999 18.04 17.5087 18.0244 17.5243C18.0088 17.5399 18 17.5611 18 17.5832C18 17.6053 18.0088 17.6265 18.0244 17.6421C18.04 17.6578 18.0612 17.6665 18.0833 17.6665C18.4057 17.6665 18.5833 17.3999 18.5833 16.9165ZM19.725 17.951C19.8621 17.6239 19.9275 17.2711 19.9167 16.9165C19.9171 16.7781 19.8857 16.6415 19.825 16.517C19.8202 16.5072 19.8135 16.4984 19.8053 16.4911C19.7971 16.4839 19.7876 16.4783 19.7773 16.4747C19.7669 16.4711 19.7559 16.4696 19.745 16.4703C19.7341 16.4709 19.7234 16.4737 19.7135 16.4785C19.7037 16.4833 19.6949 16.49 19.6876 16.4982C19.6803 16.5064 19.6748 16.5159 19.6712 16.5263C19.6676 16.5366 19.6661 16.5476 19.6668 16.5585C19.6674 16.5694 19.6702 16.5801 19.675 16.59C19.7246 16.6917 19.7502 16.8034 19.75 16.9165C19.7605 17.2473 19.7003 17.5764 19.5734 17.882C19.5689 17.892 19.5664 17.9028 19.566 17.9137C19.5657 17.9247 19.5675 17.9356 19.5714 17.9459C19.5752 17.9561 19.5811 17.9655 19.5886 17.9735C19.5961 17.9815 19.6051 17.9879 19.6151 17.9924C19.6259 17.9973 19.6376 17.9999 19.6495 17.9999C19.6654 17.9998 19.681 17.9952 19.6944 17.9865C19.7078 17.9779 19.7184 17.9656 19.725 17.951ZM18.25 17.1665V16.9165C18.2502 16.7177 18.3293 16.5271 18.4699 16.3865C18.6105 16.2459 18.8012 16.1668 19 16.1665C19.1624 16.166 19.3204 16.2187 19.45 16.3165C19.4677 16.3298 19.4899 16.3355 19.5118 16.3324C19.5337 16.3293 19.5534 16.3176 19.5667 16.2999C19.5799 16.2822 19.5856 16.26 19.5825 16.2381C19.5794 16.2162 19.5677 16.1965 19.55 16.1832C19.3916 16.0637 19.1984 15.9993 19 15.9999C18.757 16.0002 18.524 16.0968 18.3521 16.2687C18.1803 16.4405 18.0836 16.6735 18.0833 16.9165V17.1665C18.0833 17.1887 18.0921 17.2098 18.1077 17.2255C18.1234 17.2411 18.1446 17.2499 18.1667 17.2499C18.1888 17.2499 18.21 17.2411 18.2256 17.2255C18.2412 17.2098 18.25 17.1887 18.25 17.1665Z" fill="#9EAEC5"/>
</g>
<rect x="17.15" y="14.15" width="3.7" height="5.7" rx="0.85" stroke="#9EAEC5" stroke-width="0.3"/>
<defs>
<clipPath id="clip0_309_1226">
<rect width="2" height="2" fill="white" transform="translate(18 16)"/>
</clipPath>
</defs>
</svg>
