<svg width="24" height="24" viewBox="0 0 24 24" fill="none" xmlns="http://www.w3.org/2000/svg">
<path d="M23 5V3C23 1.89543 22.1046 1 21 1H19M23 19V21C23 22.1046 22.1046 23 21 23H19M5 1H3C1.89543 1 1 1.89543 1 3V5M1 19V21C1 22.1046 1.89543 23 3 23H5" stroke="#9EAEC5"/>
<path fill-rule="evenodd" clip-rule="evenodd" d="M12.2846 5H11.7154C9.86324 5 8.45354 6.66183 8.75559 8.48923L9.28592 11.6977C9.50544 13.0258 10.6539 14 12 14C13.3461 14 14.4946 13.0258 14.7141 11.6977L15.2444 8.48923C15.5465 6.66183 14.1368 5 12.2846 5ZM11.7154 4C9.24584 4 7.36624 6.21578 7.76898 8.6523L8.2993 11.8608C8.44333 12.7321 8.88058 13.4917 9.5 14.0454V17.1556L5.72962 19.5794C5.49734 19.7287 5.43008 20.0381 5.57941 20.2704C5.72874 20.5027 6.03809 20.5699 6.27038 20.4206L10.2704 17.8492L10.5 17.7015V17.4286V14.6875C10.9614 14.889 11.4694 15 12 15C12.5306 15 13.0386 14.889 13.5 14.6875V17.5V17.7771L13.735 17.924L17.735 20.424C17.9692 20.5704 18.2776 20.4992 18.424 20.265C18.5704 20.0308 18.4992 19.7224 18.265 19.576L14.5 17.2229V14.0454C15.1194 13.4917 15.5567 12.7321 15.7007 11.8608L16.231 8.65231C16.6338 6.21578 14.7542 4 12.2846 4H11.7154Z" fill="#9EAEC5"/>
</svg>
