<svg width="27" height="25" viewBox="0 0 27 25" fill="none" xmlns="http://www.w3.org/2000/svg">
<path fill-rule="evenodd" clip-rule="evenodd" d="M6.5 11C7.29834 11 8.04834 10.792 8.69849 10.4272L6.92163 8.65088L4.87476 10.6978C5.37891 10.8931 5.927 11 6.5 11ZM11 6.5C11 7.29834 10.792 8.04834 10.4275 8.69824L8.65063 6.92188L10.6975 4.875C10.8928 5.37891 11 5.92676 11 6.5ZM6.92163 5.19287L9.20825 2.90576C8.45483 2.3374 7.51685 2 6.5 2C5.70166 2 4.95166 2.20801 4.30151 2.57275L6.92163 5.19287ZM2 6.5C2 5.70166 2.20801 4.95166 2.57251 4.30176L5.19263 6.92188L2.90601 9.2085C2.33716 8.45508 2 7.5166 2 6.5ZM12.9199 7.52344C12.6768 9.06104 11.8943 10.4194 10.7722 11.3989H22.7314L21.4023 7.52344H12.9199ZM4.37988 12.6465C1.83105 11.7676 0 9.34766 0 6.5C0 2.91016 2.91016 0 6.5 0C9.58472 0 12.1675 2.14893 12.8333 5.03125H21.8452C22.6575 5.03125 23.3467 5.55469 23.593 6.29004L26.1528 13.7539V23.7227C26.1528 24.4082 25.5989 24.9688 24.9221 24.9688H23.6914C23.0144 24.9688 22.4607 24.4082 22.4607 23.7227V22.4766H7.69214V23.7227C7.69214 24.4082 7.13843 24.9688 6.46143 24.9688H5.23071C4.55371 24.9688 4 24.4082 4 23.7227V13.7539L4.37988 12.6465ZM6.46143 19.9844H23.6914V13.7539H6.46143V19.9844ZM11.0764 15H8.07642V18H11.0764V15ZM22.0764 15H19.0764V18H22.0764V15Z" fill="black"/>
</svg>
