<svg width="242" height="58" viewBox="0 0 242 58" fill="none" xmlns="http://www.w3.org/2000/svg">
<path d="M12.7665 0L21.2443 8.47778H34.6093V0H12.7665ZM34.1605 20.5461L34.0109 20.1971C34.0109 20.1472 34.0109 20.0973 34.0109 20.0475L33.8612 19.5986L33.8114 19.4989C33.7116 19.2994 33.6119 19.0999 33.5122 18.9005L33.4623 18.8506C33.3127 18.5514 33.1631 18.2522 33.0135 17.9529L32.9636 17.8532C32.9137 17.8033 32.8639 17.7535 32.814 17.7036C32.7641 17.6537 32.7143 17.6039 32.6644 17.554C32.6145 17.4543 32.5646 17.3545 32.5148 17.2548L32.4649 17.2049C32.415 17.155 32.3652 17.1052 32.3153 17.0553C32.3153 17.0054 32.3153 16.9556 32.3153 16.9057L32.2156 16.8059C32.1657 16.7561 32.1158 16.7062 32.066 16.6563C31.9163 16.5067 31.7667 16.3571 31.6171 16.2075C31.5673 16.1576 31.5174 16.1078 31.4675 16.0579C31.4177 16.008 31.3678 16.008 31.3179 16.008L31.2182 15.9083C31.1683 15.8584 31.1184 15.8086 31.0686 15.7587C30.9688 15.659 30.8691 15.6091 30.8192 15.5592C30.6197 15.4096 30.4203 15.26 30.2208 15.1104L30.1709 15.0605C30.0712 15.0107 29.9714 14.9608 29.8717 14.9109C29.772 14.861 29.6722 14.8112 29.5725 14.7613L29.3231 14.6117C29.1735 14.512 29.0239 14.4122 28.8743 14.3125C28.7746 14.2626 28.6748 14.2127 28.5751 14.1629C28.5252 14.1629 28.4754 14.1629 28.4255 14.1629C28.2759 14.113 28.1263 14.0631 27.9767 14.0133H27.9268C27.8271 13.9634 27.7273 13.9135 27.6276 13.8637H27.5777C27.3782 13.8138 27.1788 13.7639 26.9793 13.7141H26.9294C26.8297 13.6642 26.7299 13.6143 26.6302 13.5644C26.5803 13.5644 26.5305 13.5644 26.4806 13.5644L26.3809 13.5146H26.331C26.2312 13.4647 26.1315 13.4148 26.0318 13.4148H25.9819C25.8822 13.4148 25.7824 13.4148 25.6827 13.4148H25.5331C25.4333 13.4148 25.3336 13.4148 25.2339 13.4148H25.184C25.1341 13.4148 25.0843 13.4148 25.0344 13.4148C24.9346 13.4148 24.8349 13.4148 24.7352 13.4148C24.6853 13.4148 24.6354 13.4148 24.5856 13.4148H24.5357C24.4858 13.4148 24.436 13.4148 24.3861 13.4148C24.2863 13.4148 24.1866 13.4148 24.0869 13.4148H23.9871C23.9373 13.4148 23.8874 13.4148 23.8375 13.4148H23.7877C23.7378 13.4148 23.6879 13.4148 23.638 13.4148H10.7219C9.52503 13.4148 8.52765 12.4175 8.52765 11.2206C8.52765 10.0237 9.52503 9.02634 10.7219 9.02634H17.0553L8.72713 0.69817L8.37804 0.79791C8.12869 0.847779 7.87935 0.897647 7.63 0.997385C5.93444 1.49608 4.3885 2.4436 3.14177 3.69033C1.89503 4.93706 0.947516 6.48301 0.448823 8.17856C0.149608 9.17595 0 10.2232 0 11.2705C0 12.3177 0.149608 13.365 0.448823 14.3624C0.947516 16.0579 1.89503 17.6039 3.14177 18.8506C4.3885 20.0973 5.93444 21.0448 7.63 21.5435C8.62739 21.8427 9.67464 21.9924 10.7219 21.9924H23.638C24.8349 21.9924 25.8323 22.9897 25.8323 24.1866C25.8323 25.3835 24.8349 26.3809 23.638 26.3809H0.0498694V34.8586H23.638C25.9819 34.8586 28.226 34.1106 30.0712 32.7143C31.8665 31.3678 33.2129 29.4229 33.8612 27.2785C34.1605 26.2811 34.3101 25.2339 34.3101 24.1866C34.3101 23.1393 34.1605 22.0921 33.8612 21.0947L34.1605 20.5461Z" fill="#29B85D"/>
<path d="M57.714 13.6642C55.42 11.3702 52.3779 10.1235 49.1364 10.1235C46.4435 10.1235 43.9002 11.0211 41.7558 12.6668L41.307 13.0159L45.5957 17.3046L45.9448 17.1052C46.8923 16.5067 48.0393 16.2075 49.1863 16.2075C50.832 16.2075 52.3779 16.8558 53.5249 18.0028C54.6719 19.1498 55.3202 20.6958 55.3202 22.3414C55.3202 23.4884 55.021 24.6354 54.4226 25.5829L54.2231 25.932L58.5119 30.2208L58.861 29.772C60.5066 27.6276 61.4043 25.0842 61.4043 22.3913C61.4043 19.1498 60.1576 16.1078 57.8636 13.8138L57.714 13.6642ZM52.5774 27.478C51.6299 28.0764 50.4829 28.3756 49.3359 28.3756C47.6902 28.3756 46.1443 27.7273 44.9973 26.5803C43.8503 25.4333 43.202 23.8874 43.202 22.2417C43.202 21.0947 43.5012 19.9477 44.0996 19.0002L44.2991 18.6511L40.0104 14.3624L39.6613 14.8112C38.0156 16.9556 37.1179 19.4989 37.1179 22.1918C37.1179 25.4333 38.3647 28.4754 40.6587 30.7693C42.9526 33.0633 45.9947 34.3101 49.2362 34.3101C51.9291 34.3101 54.4725 33.4124 56.6168 31.7667L57.0657 31.4176L52.7769 27.1289L52.5774 27.478Z" fill="#29B85D"/>
<path d="M66.2408 13.5644V34.2602H72.2251V25.184H80.4536V19.1997H71.8761L66.2408 13.5644ZM66.2408 10.1235V10.8216L72.2251 16.8059V16.1078H87.0862V10.1235H66.2408Z" fill="#29B85D"/>
<path d="M101.128 34.2602H107.113V27.7273L101.128 21.743V34.2602ZM92.0521 10.1235V16.1078H101.128V19.0002L107.113 24.9845V16.1078H116.189V10.1235H92.0521Z" fill="#29B85D"/>
<path d="M152.615 7.38065C149.424 2.79268 144.187 0.0498657 138.602 0.0498657H121.547V9.77438L130.074 18.302V8.62738H138.602C141.395 8.62738 143.988 10.0237 145.584 12.3177C146.581 13.7639 147.08 15.4595 147.08 17.2049C147.08 18.9503 146.581 20.6459 145.633 22.0921C145.633 22.0921 145.633 22.0921 145.633 22.142C144.137 24.2863 141.794 25.6328 139.2 25.7824C139.001 25.7824 138.801 25.7824 138.602 25.7824H130.074V22.142L121.547 13.6143V34.3101H138.602C144.187 34.3101 149.424 31.5673 152.615 26.9793C152.665 26.9294 152.715 26.8795 152.765 26.8297C154.71 23.9871 155.757 20.6459 155.757 17.2049C155.757 13.7141 154.71 10.3728 152.765 7.53026L152.615 7.38065Z" fill="black"/>
<path d="M158.121 34.2602H165.102L171.934 23.0396L168.444 17.2548L158.121 34.2602ZM173.032 9.67464L169.541 15.4096L179.515 31.9163L180.961 34.3101H187.942L173.032 9.67464Z" fill="black"/>
<path d="M196.612 34.2602H202.596V27.7273L196.612 21.743V34.2602ZM187.536 10.1235V16.1078H196.612V19.0002L202.596 24.9845V16.1078H211.672V10.1235H187.536Z" fill="black"/>
<path d="M212.178 34.2602H219.16L225.992 23.0396L222.501 17.2548L212.178 34.2602ZM227.089 9.67464L223.598 15.4096L233.572 31.9163L235.018 34.3101H242L227.089 9.67464Z" fill="black"/>
<path d="M7.15123 52.3921C7.15123 51.5559 6.68882 50.8524 5.764 50.2818C5.62626 50.2031 5.09499 49.9374 4.17017 49.4849C3.32406 49.0618 2.7977 48.6486 2.59109 48.2452C2.48287 48.0288 2.42876 47.8074 2.42876 47.5811C2.42876 46.9908 2.71407 46.5874 3.28471 46.371C3.51099 46.2824 3.75203 46.2382 4.00783 46.2382C4.81459 46.2382 5.42457 46.5284 5.83779 47.1089C6.11327 47.5024 6.25101 47.9697 6.25101 48.5108H6.78228V45.8692C6.50681 45.8692 6.34939 45.9627 6.31004 46.1496C6.3002 46.2185 6.29528 46.2972 6.29528 46.3857C5.51804 46.002 4.68177 45.8102 3.78647 45.8102C2.6452 45.8102 1.7745 46.1152 1.17435 46.7252C0.780812 47.1285 0.584042 47.6057 0.584042 48.1567C0.584042 48.9831 1.04645 49.6767 1.97127 50.2375C2.11885 50.3162 2.65996 50.5868 3.59462 51.0492C4.4604 51.4722 4.9966 51.8904 5.20321 52.3036C5.31143 52.5102 5.36554 52.7266 5.36554 52.9529C5.36554 53.6416 5.04579 54.1139 4.40629 54.3697C4.15049 54.4779 3.86518 54.532 3.55034 54.532C2.37956 54.532 1.60724 53.9564 1.23338 52.8053C1.135 52.4807 1.07105 52.1265 1.04153 51.7428H0.510254V54.8419C0.756216 54.8419 0.903793 54.7681 0.952985 54.6205C0.972662 54.532 0.982501 54.3943 0.982501 54.2073C1.7499 54.7091 2.65012 54.96 3.68316 54.96C4.8933 54.96 5.82303 54.6451 6.47237 54.0155C6.92494 53.5727 7.15123 53.0316 7.15123 52.3921Z" fill="black"/>
<path d="M15.1357 51.6247C15.1357 50.1293 15.4014 49.2094 15.9327 48.865C16.1491 48.7371 16.4 48.6732 16.6853 48.6732C17.433 48.6732 17.9053 49.0962 18.102 49.9423C18.2004 50.3556 18.2496 50.8967 18.2496 51.5657C18.2496 53.1497 17.9495 54.104 17.3494 54.4287C17.1526 54.5271 16.9313 54.5763 16.6853 54.5763C15.9474 54.5763 15.4801 54.1532 15.2833 53.3071C15.1849 52.8841 15.1357 52.3233 15.1357 51.6247ZM16.7443 48.2895C15.6227 48.2895 14.7373 48.6732 14.0879 49.4406C13.596 50.0309 13.3501 50.7393 13.3501 51.5657C13.3501 52.707 13.7534 53.6023 14.5602 54.2516C15.1505 54.7238 15.8441 54.96 16.641 54.96C17.7331 54.96 18.6038 54.5664 19.2531 53.7794C19.7647 53.1595 20.0205 52.4216 20.0205 51.5657C20.0205 50.4146 19.6073 49.534 18.7809 48.9241C18.2103 48.501 17.5314 48.2895 16.7443 48.2895Z" fill="black"/>
<path d="M29.7612 54.4287H28.7134V48.8798H30.3958V48.4961H28.7134V48.4075C28.7134 46.8727 28.8659 45.9627 29.1709 45.6774C29.2988 45.579 29.4464 45.5298 29.6137 45.5298C29.8695 45.5298 30.0859 45.7167 30.263 46.0906C30.4598 46.5038 30.5975 46.7498 30.6762 46.8285C30.8041 46.9662 30.9566 47.0351 31.1337 47.0351C31.5174 47.0351 31.7584 46.8826 31.8568 46.5776C31.8765 46.5087 31.8863 46.4398 31.8863 46.371C31.8863 45.9578 31.6355 45.6282 31.1337 45.3822C30.7894 45.2248 30.3811 45.1461 29.9088 45.1461C28.8069 45.1461 28.0149 45.5642 27.5328 46.4005C27.2377 46.9121 27.0901 47.5418 27.0901 48.2895V48.4961H25.939V48.8798H27.0901V53.6318C27.0901 54.0745 26.8687 54.3303 26.426 54.3992C26.2981 54.4189 26.1456 54.4287 25.9685 54.4287V54.8124H30.1154C30.1154 54.5861 30.0416 54.4631 29.8941 54.4435C29.8547 54.4336 29.8104 54.4287 29.7612 54.4287Z" fill="black"/>
<path d="M35.7977 48.9241H36.816V52.7611C36.9046 54.1877 37.5687 54.9255 38.8083 54.9747C39.5855 54.9747 40.1119 54.6648 40.3874 54.045C40.4858 53.8285 40.5645 53.5678 40.6235 53.2628L40.225 53.2038C40.0086 54.0794 39.6593 54.5222 39.1772 54.532C38.764 54.532 38.523 54.2516 38.4541 53.6908C38.4443 53.5924 38.4394 53.494 38.4394 53.3957V48.9241H40.5054V48.5404H38.4394V46.8285L36.816 47.1384V48.5404H35.7977V48.9241Z" fill="black"/>
<path d="M49.095 48.865V48.4961H45.8336V48.865H46.4682L48.2243 53.8236C48.4211 54.3943 48.6277 54.7288 48.8441 54.8272C48.9425 54.8665 49.0704 54.8862 49.2278 54.8862H49.6558L50.984 50.754L52.0613 53.8236C52.2483 54.3844 52.4155 54.7091 52.5631 54.7976C52.6713 54.8567 52.8189 54.8862 53.0058 54.8862H53.419L55.249 49.3373C55.3375 49.0618 55.4704 48.9093 55.6475 48.8798C55.6966 48.87 55.7458 48.865 55.795 48.865C55.982 48.865 56.0853 48.7962 56.1049 48.6584C56.1148 48.6092 56.1197 48.5551 56.1197 48.4961H53.9946V48.865H54.9391L53.4928 53.4252L51.9433 48.865H52.873V48.4961H50.2019L50.7626 50.1047L49.7148 53.4399L48.1358 48.865H49.095Z" fill="black"/>
<path d="M66.9229 54.96C67.6215 54.96 68.0544 54.6845 68.2216 54.1335C68.2708 53.9368 68.3052 53.7006 68.3249 53.4252L67.9412 53.4104C67.8822 54.0991 67.7051 54.4484 67.4099 54.4582C67.1837 54.4385 67.0705 54.1926 67.0705 53.7203V50.6212C67.0705 49.352 66.4704 48.5994 65.2701 48.3633C65.0241 48.3141 64.7634 48.2895 64.4879 48.2895C63.2483 48.2895 62.4464 48.565 62.0824 49.1159C61.9742 49.2733 61.9201 49.4406 61.9201 49.6177C61.9201 49.9522 62.0775 50.1686 62.3923 50.267C62.4809 50.2965 62.5694 50.3113 62.658 50.3113C63.0121 50.3113 63.2581 50.1293 63.3958 49.7653C63.4155 49.7161 63.445 49.6324 63.4844 49.5144C63.6025 49.111 63.7549 48.8601 63.9419 48.7617C64.0698 48.7027 64.2124 48.6732 64.3699 48.6732C64.9602 48.6732 65.3045 49.0224 65.4029 49.721C65.4226 49.8784 65.4324 50.0506 65.4324 50.2375V51.182C62.8547 51.2213 61.561 51.8953 61.5511 53.2038C61.5511 54.0499 61.9201 54.5959 62.658 54.8419C62.8941 54.9206 63.1499 54.96 63.4254 54.96C64.2026 54.96 64.8077 54.6845 65.2406 54.1335C65.3586 53.9663 65.4521 53.7941 65.521 53.617C65.6784 54.5025 66.1457 54.9501 66.9229 54.96ZM64.1042 54.3401C63.5533 54.3401 63.2581 53.9466 63.2188 53.1595C63.2188 53.1103 63.2188 53.0611 63.2188 53.012C63.2188 52.3429 63.5533 51.9199 64.2223 51.7428C64.5371 51.6542 64.9405 51.605 65.4324 51.5952V52.9382C65.2652 53.6072 64.9503 54.045 64.4879 54.2516C64.3502 54.3106 64.2223 54.3401 64.1042 54.3401Z" fill="black"/>
<path d="M77.4605 54.4287H76.3832V51.2263C76.4521 50.2818 76.7177 49.6472 77.1801 49.3225C77.2884 49.2537 77.3818 49.2192 77.4605 49.2192C77.5884 49.2192 77.7163 49.3324 77.8442 49.5586C78.0115 49.8735 78.1886 50.0604 78.3755 50.1194C78.4641 50.149 78.5575 50.1637 78.6559 50.1637C79.0101 50.1637 79.261 49.9915 79.4086 49.6472C79.4578 49.539 79.4823 49.4258 79.4823 49.3078C79.4823 48.8355 79.2511 48.5404 78.7887 48.4223C78.6707 48.3928 78.5526 48.378 78.4345 48.378C77.8344 48.378 77.2982 48.624 76.826 49.1159C76.6194 49.3422 76.457 49.598 76.339 49.8833L76.2504 48.4961H73.8154V48.865H74.7451V53.6318C74.7451 54.0548 74.5975 54.3057 74.3024 54.3844C74.1745 54.4139 74.0122 54.4287 73.8154 54.4287V54.8124H77.8147C77.8147 54.5861 77.7409 54.4631 77.5934 54.4435C77.554 54.4336 77.5097 54.4287 77.4605 54.4287Z" fill="black"/>
<path d="M88.3376 48.6732C88.9476 48.6732 89.3116 49.0323 89.4296 49.7505C89.4592 49.9079 89.4739 50.0702 89.4739 50.2375C89.4739 50.6999 89.3067 50.9901 88.9722 51.1082C88.7557 51.1672 88.4409 51.1918 88.0277 51.182L86.8913 51.1377C86.9307 49.7407 87.2996 48.9339 87.9981 48.7175C88.1162 48.6879 88.2293 48.6732 88.3376 48.6732ZM91.0382 53.3219L90.684 53.2038C90.3987 53.8236 89.9462 54.2319 89.3263 54.4287C89.1197 54.4976 88.9082 54.532 88.6918 54.532C87.5407 54.532 86.9405 53.5531 86.8913 51.5952C86.8913 51.5854 86.8913 51.5755 86.8913 51.5657L88.3818 51.5952C89.8576 51.6247 90.7431 51.4132 91.0382 50.9606C91.1366 50.8032 91.1858 50.6163 91.1858 50.3998C91.1858 49.6226 90.7923 49.0372 90.0052 48.6437C89.5133 48.4075 88.9574 48.2895 88.3376 48.2895C87.2061 48.2895 86.3404 48.6978 85.7402 49.5144C85.3172 50.0948 85.1056 50.7983 85.1056 51.6247C85.1056 52.9726 85.6025 53.9368 86.5962 54.5172C87.1274 54.8124 87.7227 54.96 88.3818 54.96C89.5034 54.96 90.3151 54.5615 90.8169 53.7646C90.9054 53.617 90.9792 53.4694 91.0382 53.3219Z" fill="black"/>
<path d="M104.971 45.9578V46.3562H106.151V54.4139H104.971V54.8124H109.265C110.613 54.8124 111.725 54.3992 112.6 53.5727C113.466 52.7562 113.899 51.6985 113.899 50.3998C113.899 48.747 113.284 47.5221 112.054 46.7252C111.257 46.2136 110.323 45.9578 109.25 45.9578H104.971ZM109.265 46.3562C110.465 46.3562 111.248 46.9367 111.612 48.0976C111.789 48.6879 111.877 49.4357 111.877 50.3408C111.877 52.5938 111.302 53.9073 110.151 54.2811C109.885 54.3697 109.59 54.4139 109.265 54.4139H107.967V46.3562H109.265Z" fill="black"/>
<path d="M123.3 48.6732C123.91 48.6732 124.274 49.0323 124.392 49.7505C124.422 49.9079 124.437 50.0702 124.437 50.2375C124.437 50.6999 124.269 50.9901 123.935 51.1082C123.719 51.1672 123.404 51.1918 122.99 51.182L121.854 51.1377C121.893 49.7407 122.262 48.9339 122.961 48.7175C123.079 48.6879 123.192 48.6732 123.3 48.6732ZM126.001 53.3219L125.647 53.2038C125.362 53.8236 124.909 54.2319 124.289 54.4287C124.083 54.4976 123.871 54.532 123.655 54.532C122.503 54.532 121.903 53.5531 121.854 51.5952C121.854 51.5854 121.854 51.5755 121.854 51.5657L123.345 51.5952C124.82 51.6247 125.706 51.4132 126.001 50.9606C126.099 50.8032 126.149 50.6163 126.149 50.3998C126.149 49.6226 125.755 49.0372 124.968 48.6437C124.476 48.4075 123.92 48.2895 123.3 48.2895C122.169 48.2895 121.303 48.6978 120.703 49.5144C120.28 50.0948 120.068 50.7983 120.068 51.6247C120.068 52.9726 120.565 53.9368 121.559 54.5172C122.09 54.8124 122.685 54.96 123.345 54.96C124.466 54.96 125.278 54.5615 125.78 53.7646C125.868 53.617 125.942 53.4694 126.001 53.3219Z" fill="black"/>
<path d="M134.871 48.865V48.4961H131.639V48.865H132.244L134.089 53.8236C134.295 54.3746 134.482 54.6993 134.65 54.7976C134.758 54.8567 134.91 54.8862 135.107 54.8862H135.535L137.66 49.3225C137.759 49.0569 137.887 48.9093 138.044 48.8798C138.103 48.87 138.162 48.865 138.221 48.865C138.388 48.865 138.482 48.8355 138.501 48.7765C138.521 48.7175 138.531 48.624 138.531 48.4961H136.184V48.865H137.35L135.579 53.499L133.867 48.865H134.871Z" fill="black"/>
<path d="M147.342 48.6732C147.952 48.6732 148.316 49.0323 148.434 49.7505C148.463 49.9079 148.478 50.0702 148.478 50.2375C148.478 50.6999 148.311 50.9901 147.976 51.1082C147.76 51.1672 147.445 51.1918 147.032 51.182L145.896 51.1377C145.935 49.7407 146.304 48.9339 147.002 48.7175C147.121 48.6879 147.234 48.6732 147.342 48.6732ZM150.043 53.3219L149.688 53.2038C149.403 53.8236 148.95 54.2319 148.331 54.4287C148.124 54.4976 147.913 54.532 147.696 54.532C146.545 54.532 145.945 53.5531 145.896 51.5952C145.896 51.5854 145.896 51.5755 145.896 51.5657L147.386 51.5952C148.862 51.6247 149.747 51.4132 150.043 50.9606C150.141 50.8032 150.19 50.6163 150.19 50.3998C150.19 49.6226 149.797 49.0372 149.01 48.6437C148.518 48.4075 147.962 48.2895 147.342 48.2895C146.21 48.2895 145.345 48.6978 144.745 49.5144C144.321 50.0948 144.11 50.7983 144.11 51.6247C144.11 52.9726 144.607 53.9368 145.6 54.5172C146.132 54.8124 146.727 54.96 147.386 54.96C148.508 54.96 149.319 54.5615 149.821 53.7646C149.91 53.617 149.984 53.4694 150.043 53.3219Z" fill="black"/>
<path d="M159.473 54.4287H158.721V45.2199H155.961V45.6036H157.097V53.6023C157.097 54.0253 156.95 54.2811 156.655 54.3697C156.507 54.409 156.276 54.4287 155.961 54.4287V54.8124H159.842C159.842 54.5959 159.778 54.473 159.65 54.4435C159.591 54.4336 159.532 54.4287 159.473 54.4287Z" fill="black"/>
<path d="M167.487 51.6247C167.487 50.1293 167.753 49.2094 168.284 48.865C168.501 48.7371 168.752 48.6732 169.037 48.6732C169.785 48.6732 170.257 49.0962 170.454 49.9423C170.552 50.3556 170.601 50.8967 170.601 51.5657C170.601 53.1497 170.301 54.104 169.701 54.4287C169.504 54.5271 169.283 54.5763 169.037 54.5763C168.299 54.5763 167.832 54.1532 167.635 53.3071C167.537 52.8841 167.487 52.3233 167.487 51.6247ZM169.096 48.2895C167.974 48.2895 167.089 48.6732 166.44 49.4406C165.948 50.0309 165.702 50.7393 165.702 51.5657C165.702 52.707 166.105 53.6023 166.912 54.2516C167.502 54.7238 168.196 54.96 168.993 54.96C170.085 54.96 170.955 54.5664 171.605 53.7794C172.116 53.1595 172.372 52.4216 172.372 51.5657C172.372 50.4146 171.959 49.534 171.133 48.9241C170.562 48.501 169.883 48.2895 169.096 48.2895Z" fill="black"/>
<path d="M180.799 57.2327V54.2516C181.213 54.714 181.813 54.9501 182.6 54.96C183.534 54.96 184.297 54.6009 184.887 53.8827C185.409 53.2432 185.669 52.4364 185.669 51.4624C185.669 50.2621 185.32 49.3766 184.622 48.806C184.199 48.4617 183.712 48.2895 183.161 48.2895C182.344 48.2895 181.69 48.5945 181.198 49.2045C181.011 49.4406 180.868 49.6964 180.77 49.9719L180.696 48.4961H178.246V48.865H179.176V56.4357C179.176 56.849 179.038 57.0949 178.763 57.1736C178.635 57.213 178.463 57.2327 178.246 57.2327V57.6164H182.01C182.01 57.3999 181.946 57.2769 181.818 57.2474C181.759 57.2376 181.7 57.2327 181.641 57.2327H180.799ZM182.482 48.9683C183.416 48.988 183.889 49.8833 183.899 51.6542C183.899 53.3366 183.5 54.2959 182.703 54.532C182.595 54.5615 182.477 54.5763 182.349 54.5763C181.749 54.5763 181.311 54.227 181.036 53.5285C180.868 53.0857 180.785 52.5545 180.785 51.9346C180.785 50.6852 181.07 49.8046 181.641 49.293C181.896 49.0766 182.177 48.9683 182.482 48.9683Z" fill="black"/>
<path d="M194.51 54.4287H194.111L194.126 50.7835C194.195 49.9768 194.48 49.4307 194.982 49.1454C195.14 49.0569 195.297 49.0126 195.454 49.0126C195.858 49.0126 196.143 49.2537 196.31 49.7357C196.379 49.9522 196.414 50.1981 196.414 50.4736V53.6318C196.414 54.0352 196.32 54.2762 196.133 54.3549C196.025 54.4041 195.863 54.4287 195.646 54.4287V54.8124H198.79C198.79 54.5959 198.726 54.473 198.598 54.4435C198.539 54.4336 198.48 54.4287 198.421 54.4287H198.037V50.695V50.5031C198.145 49.7751 198.435 49.2979 198.908 49.0716C199.036 49.0126 199.164 48.9831 199.291 48.9831C199.744 48.9831 200.059 49.234 200.236 49.7357C200.305 49.962 200.339 50.208 200.339 50.4736V53.6318C200.339 54.0352 200.246 54.2762 200.059 54.3549C199.951 54.4041 199.788 54.4287 199.572 54.4287V54.8124H202.892C202.892 54.5959 202.828 54.473 202.7 54.4435C202.641 54.4336 202.582 54.4287 202.523 54.4287H201.963V50.636C201.963 49.6619 201.638 48.9733 200.989 48.5699C200.693 48.3829 200.374 48.2895 200.029 48.2895C199.104 48.2895 198.411 48.7371 197.948 49.6324C197.929 49.6718 197.914 49.7062 197.904 49.7357C197.688 49.0077 197.275 48.5502 196.665 48.3633C196.507 48.3141 196.345 48.2895 196.178 48.2895C195.312 48.2895 194.657 48.6732 194.215 49.4406C194.175 49.5193 194.136 49.598 194.097 49.6767L194.023 48.4961H191.544V48.865H192.488V53.6318C192.488 54.0647 192.326 54.3156 192.001 54.3844C191.873 54.4139 191.721 54.4287 191.544 54.4287V54.8124H194.864C194.864 54.5861 194.79 54.4631 194.643 54.4435C194.603 54.4336 194.559 54.4287 194.51 54.4287Z" fill="black"/>
<path d="M211.954 48.6732C212.564 48.6732 212.928 49.0323 213.046 49.7505C213.076 49.9079 213.09 50.0702 213.09 50.2375C213.09 50.6999 212.923 50.9901 212.589 51.1082C212.372 51.1672 212.057 51.1918 211.644 51.182L210.508 51.1377C210.547 49.7407 210.916 48.9339 211.615 48.7175C211.733 48.6879 211.846 48.6732 211.954 48.6732ZM214.655 53.3219L214.301 53.2038C214.015 53.8236 213.563 54.2319 212.943 54.4287C212.736 54.4976 212.525 54.532 212.308 54.532C211.157 54.532 210.557 53.5531 210.508 51.5952C210.508 51.5854 210.508 51.5755 210.508 51.5657L211.998 51.5952C213.474 51.6247 214.36 51.4132 214.655 50.9606C214.753 50.8032 214.802 50.6163 214.802 50.3998C214.802 49.6226 214.409 49.0372 213.622 48.6437C213.13 48.4075 212.574 48.2895 211.954 48.2895C210.823 48.2895 209.957 48.6978 209.357 49.5144C208.934 50.0948 208.722 50.7983 208.722 51.6247C208.722 52.9726 209.219 53.9368 210.213 54.5172C210.744 54.8124 211.339 54.96 211.998 54.96C213.12 54.96 213.932 54.5615 214.433 53.7646C214.522 53.617 214.596 53.4694 214.655 53.3219Z" fill="black"/>
<path d="M223.628 54.4287H223.171L223.185 50.7835C223.254 49.9965 223.549 49.4553 224.071 49.1602C224.258 49.0618 224.445 49.0126 224.632 49.0126C225.183 49.0126 225.532 49.3028 225.679 49.8833C225.729 50.0604 225.753 50.2572 225.753 50.4736V53.6318C225.753 54.045 225.64 54.291 225.414 54.3697C225.306 54.409 225.148 54.4287 224.942 54.4287V54.8124H228.321C228.321 54.5959 228.257 54.473 228.129 54.4435C228.07 54.4336 228.011 54.4287 227.952 54.4287H227.377V50.695C227.377 49.534 226.973 48.7863 226.166 48.4518C225.911 48.3436 225.635 48.2895 225.34 48.2895C224.632 48.2895 224.031 48.5699 223.54 49.1307C223.382 49.3176 223.254 49.5144 223.156 49.721L223.082 48.4961H220.603V48.865H221.547V53.6318C221.547 54.0647 221.385 54.3156 221.06 54.3844C220.932 54.4139 220.78 54.4287 220.603 54.4287V54.8124H223.997C223.997 54.5959 223.933 54.473 223.805 54.4435C223.746 54.4336 223.687 54.4287 223.628 54.4287Z" fill="black"/>
<path d="M233.9 48.9241H234.918V52.7611C235.007 54.1877 235.671 54.9255 236.911 54.9747C237.688 54.9747 238.214 54.6648 238.49 54.045C238.588 53.8285 238.667 53.5678 238.726 53.2628L238.327 53.2038C238.111 54.0794 237.762 54.5222 237.28 54.532C236.866 54.532 236.625 54.2516 236.556 53.6908C236.547 53.5924 236.542 53.494 236.542 53.3957V48.9241H238.608V48.5404H236.542V46.8285L234.918 47.1384V48.5404H233.9V48.9241Z" fill="black"/>
</svg>
