<svg width="24" height="24" viewBox="0 0 24 24" fill="none" xmlns="http://www.w3.org/2000/svg">
<path d="M23.5 2.50019H14V1.00019C14 0.925039 13.983 0.850862 13.9503 0.783177C13.9176 0.715492 13.8701 0.65604 13.8113 0.609244C13.7525 0.562448 13.6839 0.529511 13.6106 0.512882C13.5373 0.496252 13.4612 0.496359 13.388 0.513194L0.388 3.51319C0.277783 3.53853 0.179409 3.60047 0.10894 3.68893C0.0384697 3.77738 6.66312e-05 3.8871 0 4.00019L0 21.0002C4.54341e-05 21.1196 0.0428206 21.235 0.120589 21.3257C0.198357 21.4163 0.305983 21.476 0.424 21.4942L13.424 23.4942C13.4953 23.5053 13.5681 23.5009 13.6375 23.4812C13.7068 23.4614 13.7711 23.4269 13.8259 23.3799C13.8806 23.333 13.9245 23.2747 13.9546 23.2092C13.9846 23.1436 14.0001 23.0723 14 23.0002V21.5002H23.5C23.6326 21.5002 23.7598 21.4475 23.8536 21.3537C23.9473 21.26 24 21.1328 24 21.0002V3.00019C24 2.86759 23.9473 2.74041 23.8536 2.64664C23.7598 2.55287 23.6326 2.50019 23.5 2.50019ZM14 9.50019H17V11.5002H14V9.50019ZM4.076 15.7352L6.245 12.2652C6.29501 12.1859 6.32154 12.094 6.32154 12.0002C6.32154 11.9064 6.29501 11.8145 6.245 11.7352L4.077 8.26519C4.03893 8.20958 4.0125 8.14685 3.99929 8.08077C3.98608 8.01468 3.98637 7.94661 4.00013 7.88064C4.0139 7.81467 4.04086 7.75216 4.07939 7.69687C4.11793 7.64158 4.16724 7.59465 4.22437 7.55891C4.2815 7.52316 4.34526 7.49933 4.41184 7.48885C4.47841 7.47837 4.54641 7.48145 4.61176 7.49792C4.67711 7.51438 4.73846 7.54389 4.79211 7.58467C4.84577 7.62544 4.89063 7.67664 4.924 7.73519L6.576 10.3782C6.759 10.6702 7.241 10.6702 7.424 10.3782L9.076 7.73519C9.11063 7.67933 9.15595 7.63086 9.20936 7.59256C9.26278 7.55426 9.32323 7.52689 9.38725 7.51203C9.45128 7.49716 9.5176 7.49509 9.58243 7.50593C9.64725 7.51677 9.7093 7.54031 9.765 7.57519C9.82076 7.60991 9.86914 7.65528 9.90736 7.7087C9.94558 7.76213 9.9729 7.82256 9.98776 7.88654C10.0026 7.95053 10.0047 8.01681 9.99396 8.08161C9.98319 8.14641 9.95976 8.20845 9.925 8.26419L7.756 11.7342C7.70599 11.8135 7.67946 11.9054 7.67946 11.9992C7.67946 12.093 7.70599 12.1849 7.756 12.2642L9.924 15.7342C9.9588 15.7899 9.98229 15.8519 9.99314 15.9166C10.004 15.9814 10.002 16.0476 9.9872 16.1116C9.97243 16.1756 9.94521 16.236 9.90709 16.2895C9.86896 16.343 9.82068 16.3884 9.765 16.4232C9.65156 16.49 9.51677 16.5107 9.38852 16.4809C9.26026 16.4511 9.14837 16.3732 9.076 16.2632L7.424 13.6202C7.37862 13.5488 7.31593 13.49 7.24176 13.4493C7.16758 13.4086 7.08433 13.3873 6.99972 13.3874C6.91512 13.3875 6.83192 13.409 6.75784 13.4499C6.68376 13.4908 6.62121 13.5497 6.576 13.6212L4.924 16.2642C4.85147 16.374 4.73958 16.4518 4.6114 16.4816C4.48321 16.5113 4.3485 16.4908 4.235 16.4242C4.17932 16.3894 4.13104 16.344 4.09291 16.2905C4.05479 16.237 4.02757 16.1766 4.0128 16.1126C3.99804 16.0486 3.99602 15.9824 4.00686 15.9176C4.01771 15.8529 4.0412 15.7909 4.076 15.7352V15.7352ZM14 12.5002H17V14.5002H14V12.5002ZM18 12.5002H23V14.5002H18V12.5002ZM18 11.5002V9.50019H23V11.5002H18ZM18 8.50019V6.50019H23V8.50019H18ZM17 8.50019H14V6.50019H17V8.50019ZM14 15.5002H17V17.5002H14V15.5002ZM18 15.5002H23V17.5002H18V15.5002ZM23 5.50019H18V3.50019H23V5.50019ZM17 3.50019V5.50019H14V3.50019H17ZM14 18.5002H17V20.5002H14V18.5002ZM18 20.5002V18.5002H23V20.5002H18Z" fill="#29B85D"/>
</svg>
