<svg width="20" height="22" viewBox="0 0 20 22" fill="none" xmlns="http://www.w3.org/2000/svg">
<path d="M16.2937 2.84246C16.207 2.84246 16.1203 2.82079 16.0445 2.77746C13.9645 1.70496 12.1662 1.24996 10.0103 1.24996C7.86535 1.24996 5.82868 1.75913 3.97618 2.77746C3.71618 2.91829 3.39118 2.82079 3.23952 2.56079C3.09868 2.30079 3.19618 1.96496 3.45618 1.82413C5.47118 0.729959 7.68118 0.166626 10.0103 0.166626C12.3179 0.166626 14.3329 0.675793 16.5429 1.81329C16.8137 1.95413 16.9112 2.27913 16.7703 2.53913C16.6728 2.73413 16.4887 2.84246 16.2937 2.84246ZM0.791182 8.52996C0.682849 8.52996 0.574516 8.49746 0.477016 8.43246C0.227849 8.25913 0.173682 7.92329 0.347016 7.67413C1.41952 6.15746 2.78452 4.96579 4.40952 4.13163C7.81118 2.37663 12.1662 2.36579 15.5787 4.12079C17.2037 4.95496 18.5687 6.13579 19.6412 7.64163C19.8145 7.87996 19.7604 8.22663 19.5112 8.39996C19.262 8.57329 18.9262 8.51913 18.7528 8.26996C17.7778 6.90496 16.5429 5.83246 15.0803 5.08496C11.9712 3.49246 7.99535 3.49246 4.89702 5.09579C3.42368 5.85413 2.18868 6.93746 1.21368 8.30246C1.12702 8.45413 0.964516 8.52996 0.791182 8.52996ZM7.56202 21.6058C7.42118 21.6058 7.28035 21.5516 7.18285 21.4433C6.24035 20.5008 5.73118 19.8941 5.00535 18.5833C4.25785 17.2508 3.86785 15.6258 3.86785 13.8816C3.86785 10.6641 6.61952 8.04246 9.99952 8.04246C13.3795 8.04246 16.1312 10.6641 16.1312 13.8816C16.1312 14.185 15.8928 14.4233 15.5895 14.4233C15.2862 14.4233 15.0478 14.185 15.0478 13.8816C15.0478 11.26 12.7837 9.12579 9.99952 9.12579C7.21535 9.12579 4.95118 11.26 4.95118 13.8816C4.95118 15.4416 5.29785 16.8825 5.95868 18.0525C6.65202 19.2983 7.12868 19.8291 7.96285 20.6741C8.16868 20.8908 8.16868 21.2266 7.96285 21.4433C7.84368 21.5516 7.70285 21.6058 7.56202 21.6058ZM15.3295 19.6016C14.0403 19.6016 12.9028 19.2766 11.9712 18.6375C10.357 17.5433 9.39285 15.7666 9.39285 13.8816C9.39285 13.5783 9.63118 13.34 9.93451 13.34C10.2378 13.34 10.4762 13.5783 10.4762 13.8816C10.4762 15.4091 11.2562 16.85 12.5778 17.7383C13.347 18.2583 14.2462 18.5075 15.3295 18.5075C15.5895 18.5075 16.0228 18.475 16.4562 18.3991C16.7487 18.345 17.0303 18.54 17.0845 18.8433C17.1387 19.1358 16.9437 19.4175 16.6403 19.4716C16.0228 19.5908 15.4812 19.6016 15.3295 19.6016ZM13.152 21.8333C13.1087 21.8333 13.0545 21.8225 13.0112 21.8116C11.2887 21.335 10.162 20.6958 8.98118 19.5366C7.46452 18.0308 6.63035 16.0266 6.63035 13.8816C6.63035 12.1266 8.12535 10.6966 9.96702 10.6966C11.8087 10.6966 13.3037 12.1266 13.3037 13.8816C13.3037 15.0408 14.3112 15.9833 15.557 15.9833C16.8028 15.9833 17.8103 15.0408 17.8103 13.8816C17.8103 9.79746 14.2895 6.48246 9.95618 6.48246C6.87952 6.48246 4.06285 8.19413 2.79535 10.8483C2.37285 11.7258 2.15618 12.755 2.15618 13.8816C2.15618 14.7266 2.23202 16.0591 2.88202 17.7925C2.99035 18.0741 2.84952 18.3883 2.56785 18.4858C2.28618 18.5941 1.97202 18.4425 1.87452 18.1716C1.34368 16.7525 1.08368 15.3441 1.08368 13.8816C1.08368 12.5816 1.33285 11.4008 1.82035 10.3716C3.26118 7.34913 6.45702 5.38829 9.95618 5.38829C14.8853 5.38829 18.8937 9.19079 18.8937 13.8708C18.8937 15.6258 17.3987 17.0558 15.557 17.0558C13.7153 17.0558 12.2203 15.6258 12.2203 13.8708C12.2203 12.7116 11.2128 11.7691 9.96702 11.7691C8.72118 11.7691 7.71368 12.7116 7.71368 13.8708C7.71368 15.7233 8.42868 17.4566 9.73952 18.7566C10.7687 19.775 11.7545 20.3383 13.282 20.7608C13.5745 20.8366 13.737 21.14 13.6612 21.4216C13.607 21.6708 13.3795 21.8333 13.152 21.8333Z" fill="white"/>
</svg>
