<svg width="20" height="22" viewBox="0 0 20 22" fill="none" xmlns="http://www.w3.org/2000/svg">
<path d="M16.2937 2.84258C16.207 2.84258 16.1203 2.82091 16.0445 2.77758C13.9645 1.70508 12.1662 1.25008 10.0103 1.25008C7.86535 1.25008 5.82868 1.75925 3.97618 2.77758C3.71618 2.91841 3.39118 2.82091 3.23952 2.56091C3.09868 2.30091 3.19618 1.96508 3.45618 1.82425C5.47118 0.730081 7.68118 0.166748 10.0103 0.166748C12.3179 0.166748 14.3329 0.675915 16.5429 1.81341C16.8137 1.95425 16.9112 2.27925 16.7703 2.53925C16.6728 2.73425 16.4887 2.84258 16.2937 2.84258ZM0.791182 8.53008C0.682849 8.53008 0.574516 8.49758 0.477016 8.43258C0.227849 8.25925 0.173682 7.92342 0.347016 7.67425C1.41952 6.15758 2.78452 4.96591 4.40952 4.13175C7.81118 2.37675 12.1662 2.36591 15.5787 4.12091C17.2037 4.95508 18.5687 6.13591 19.6412 7.64175C19.8145 7.88008 19.7604 8.22675 19.5112 8.40008C19.262 8.57342 18.9262 8.51925 18.7528 8.27008C17.7778 6.90508 16.5429 5.83258 15.0803 5.08508C11.9712 3.49258 7.99535 3.49258 4.89702 5.09592C3.42368 5.85425 2.18868 6.93758 1.21368 8.30258C1.12702 8.45425 0.964516 8.53008 0.791182 8.53008ZM7.56202 21.6059C7.42118 21.6059 7.28035 21.5517 7.18285 21.4434C6.24035 20.5009 5.73118 19.8942 5.00535 18.5834C4.25785 17.2509 3.86785 15.6259 3.86785 13.8817C3.86785 10.6642 6.61952 8.04258 9.99952 8.04258C13.3795 8.04258 16.1312 10.6642 16.1312 13.8817C16.1312 14.1851 15.8928 14.4234 15.5895 14.4234C15.2862 14.4234 15.0478 14.1851 15.0478 13.8817C15.0478 11.2601 12.7837 9.12592 9.99952 9.12592C7.21535 9.12592 4.95118 11.2601 4.95118 13.8817C4.95118 15.4417 5.29785 16.8826 5.95868 18.0526C6.65202 19.2984 7.12868 19.8292 7.96285 20.6742C8.16868 20.8909 8.16868 21.2267 7.96285 21.4434C7.84368 21.5517 7.70285 21.6059 7.56202 21.6059ZM15.3295 19.6017C14.0403 19.6017 12.9028 19.2767 11.9712 18.6376C10.357 17.5434 9.39285 15.7667 9.39285 13.8817C9.39285 13.5784 9.63118 13.3401 9.93451 13.3401C10.2378 13.3401 10.4762 13.5784 10.4762 13.8817C10.4762 15.4092 11.2562 16.8501 12.5778 17.7384C13.347 18.2584 14.2462 18.5076 15.3295 18.5076C15.5895 18.5076 16.0228 18.4751 16.4562 18.3992C16.7487 18.3451 17.0303 18.5401 17.0845 18.8434C17.1387 19.1359 16.9437 19.4176 16.6403 19.4717C16.0228 19.5909 15.4812 19.6017 15.3295 19.6017ZM13.152 21.8334C13.1087 21.8334 13.0545 21.8226 13.0112 21.8117C11.2887 21.3351 10.162 20.6959 8.98118 19.5367C7.46452 18.0309 6.63035 16.0267 6.63035 13.8817C6.63035 12.1267 8.12535 10.6967 9.96702 10.6967C11.8087 10.6967 13.3037 12.1267 13.3037 13.8817C13.3037 15.0409 14.3112 15.9834 15.557 15.9834C16.8028 15.9834 17.8103 15.0409 17.8103 13.8817C17.8103 9.79758 14.2895 6.48258 9.95618 6.48258C6.87952 6.48258 4.06285 8.19425 2.79535 10.8484C2.37285 11.7259 2.15618 12.7551 2.15618 13.8817C2.15618 14.7267 2.23202 16.0592 2.88202 17.7926C2.99035 18.0742 2.84952 18.3884 2.56785 18.4859C2.28618 18.5942 1.97202 18.4426 1.87452 18.1717C1.34368 16.7526 1.08368 15.3442 1.08368 13.8817C1.08368 12.5817 1.33285 11.4009 1.82035 10.3717C3.26118 7.34925 6.45702 5.38841 9.95618 5.38841C14.8853 5.38841 18.8937 9.19091 18.8937 13.8709C18.8937 15.6259 17.3987 17.0559 15.557 17.0559C13.7153 17.0559 12.2203 15.6259 12.2203 13.8709C12.2203 12.7117 11.2128 11.7692 9.96702 11.7692C8.72118 11.7692 7.71368 12.7117 7.71368 13.8709C7.71368 15.7234 8.42868 17.4567 9.73952 18.7567C10.7687 19.7751 11.7545 20.3384 13.282 20.7609C13.5745 20.8367 13.737 21.1401 13.6612 21.4217C13.607 21.6709 13.3795 21.8334 13.152 21.8334Z" fill="#9EAEC5"/>
</svg>
