<svg width="22" height="22" viewBox="0 0 22 22" fill="none" xmlns="http://www.w3.org/2000/svg">
<path fill-rule="evenodd" clip-rule="evenodd" d="M11 0C4.92487 0 0 4.92487 0 11C0 17.0751 4.92487 22 11 22C17.0751 22 22 17.0751 22 11C22 4.92487 17.0751 0 11 0ZM11 5C10.4477 5 10 5.44771 10 6C10 6.55228 10.4477 7 11 7H11.01C11.5623 7 12.01 6.55228 12.01 6C12.01 5.44771 11.5623 5 11.01 5H11ZM12 10C12 9.44771 11.5523 9 11 9C10.4477 9 10 9.44771 10 10V16C10 16.5523 10.4477 17 11 17C11.5523 17 12 16.5523 12 16V10Z" fill="#069CDF"/>
</svg>
