<svg width="260" height="260" viewBox="0 0 260 260" fill="none" xmlns="http://www.w3.org/2000/svg">
<path d="M131.869 140.009C125.282 147.936 115.981 153.129 105.777 154.579C95.5721 156.028 85.1934 153.629 76.6596 147.85C35.9637 173.797 -9.9712 123.08 20.2312 85.1651C26.2437 78.5432 24.9437 69.7682 24.3343 61.6026C27.0164 -7.18412 128.328 -2.74925 129.025 61.6038C128.415 69.7686 127.115 78.5434 133.088 85.1654C139.584 92.8938 143.043 102.723 142.819 112.817C142.594 122.91 138.702 132.577 131.869 140.009Z" fill="#29B85D"/>
<path opacity="0.1" d="M111.592 68.6607V82.6288C109.014 128.271 37.0694 123.854 41.751 76.4211C58.6176 79.4948 84.0265 70.9598 96.0719 57.0208L111.592 68.6607Z" fill="black"/>
<path d="M137.394 163.815V177.993C137.391 179.548 136.876 181.059 135.929 182.293C134.981 183.526 133.655 184.414 132.153 184.818C96.5068 194.169 59.0531 194.183 23.4 184.859C21.8767 184.467 20.527 183.58 19.5635 182.337C18.6 181.094 18.0774 179.566 18.0781 177.993V163.815C17.6922 137.279 38.7301 112.676 65.8127 112.871L89.6594 112.871C116.638 112.659 137.811 137.251 137.394 163.815Z" fill="#146732"/>
<path opacity="0.1" d="M63.5048 96.9379V116.353C63.7183 119.64 65.2225 122.709 67.6893 124.891C70.1561 127.073 73.3855 128.192 76.6736 128.003C79.9616 128.192 83.191 127.073 85.6577 124.891C88.1245 122.709 89.6286 119.64 89.8422 116.353V96.9379H63.5048Z" fill="black"/>
<path d="M63.5048 93.4106V112.826C63.7183 116.113 65.2225 119.181 67.6893 121.364C70.1561 123.546 73.3855 124.664 76.6736 124.475C79.9616 124.664 83.191 123.546 85.6577 121.364C88.1245 119.181 89.6286 116.113 89.8422 112.826V93.4106H63.5048Z" fill="#F9DABF"/>
<path opacity="0.1" d="M63.245 102.94H89.8422V107.672H63.245V102.94Z" fill="black"/>
<path d="M111.592 61.6061V75.5742C109.014 121.217 37.0694 116.799 41.751 69.3665C58.6176 72.4401 84.0265 63.9051 96.0719 49.9661L111.592 61.6061Z" fill="#F9DABF"/>
<path opacity="0.1" d="M41.751 69.3665C61.942 68.7847 81.1592 60.5588 95.5179 46.3517C95.5179 46.3517 110.554 56.1468 111.592 61.6061L96.0719 49.9662C89.0464 57.0587 80.5184 62.4839 71.1169 65.8416C61.7154 69.1993 51.6801 70.4038 41.751 69.3665Z" fill="black"/>
<path opacity="0.1" d="M131.869 140.009C137.867 150.557 137.638 165.811 137.393 177.993C137.39 179.548 136.876 181.059 135.929 182.293C134.982 183.526 133.655 184.414 132.153 184.818C117.054 188.793 101.564 191.095 85.9625 191.684C90.9025 185.649 97.0676 180.732 104.05 177.259C111.032 173.785 118.673 171.834 126.466 171.534V160.362C120.438 158.273 115.208 154.365 111.496 149.177C107.785 143.988 105.776 137.775 105.747 131.396V124.571C102.631 124.566 99.61 123.496 97.1861 121.537C94.7623 119.579 93.0812 116.85 92.4218 113.804C91.7624 110.759 92.1645 107.579 93.5612 104.794C94.958 102.008 97.2654 99.7837 100.1 98.4902C98.6459 89.8557 98.4678 81.0545 99.5721 72.3683C100.913 63.6339 110.988 54.9402 120.006 53.9652C121.713 53.8027 124.597 53.5183 128.172 53.2745C130.704 63.8183 124.938 76.2136 133.088 85.1652C139.584 92.8936 143.043 102.723 142.819 112.817C142.594 122.91 138.702 132.577 131.869 140.009Z" fill="black"/>
<path d="M78.3303 236.71C78.3251 237.626 78.6241 238.519 79.1803 239.248C79.7365 239.977 80.5186 240.5 81.4042 240.737C101.904 246.3 123.074 249 144.314 248.761C165.518 248.537 186.624 245.842 207.204 240.73C208.094 240.497 208.881 239.974 209.441 239.244C210.002 238.514 210.303 237.619 210.298 236.699V224.5C210.095 210.218 204.228 196.602 193.988 186.644C183.748 176.687 169.972 171.204 155.69 171.401H132.937C118.655 171.204 104.88 176.687 94.6397 186.644C84.3995 196.602 78.533 210.218 78.3303 224.5V236.71Z" fill="#29B85D"/>
<path opacity="0.1" d="M130.517 179.672C130.517 180.442 130.729 181.198 131.131 181.855C131.533 182.512 132.109 183.045 132.795 183.395C136.327 185.281 140.268 186.27 144.272 186.277C148.276 186.284 152.221 185.308 155.759 183.434C156.46 183.083 157.05 182.546 157.465 181.881C157.879 181.217 158.103 180.45 158.111 179.667V157.071H130.517V179.672Z" fill="black"/>
<path d="M130.517 175.504C130.517 176.274 130.729 177.03 131.131 177.687C131.533 178.344 132.109 178.877 132.795 179.227C136.327 181.113 140.268 182.102 144.272 182.109C148.276 182.116 152.221 181.14 155.759 179.266C156.46 178.915 157.05 178.378 157.465 177.713C157.879 177.048 158.103 176.282 158.111 175.499V157.071H130.517V175.504Z" fill="#F9DABF"/>
<path opacity="0.1" d="M130.613 159.555H158.112V162.13H130.613V159.555Z" fill="black"/>
<path d="M96.0253 110.917C96.034 112.72 96.3979 114.503 97.0961 116.165C97.7943 117.827 98.8131 119.336 100.094 120.604C101.376 121.872 102.894 122.875 104.563 123.557C106.232 124.238 108.019 124.583 109.822 124.574V131.402C109.865 139.593 113.159 147.431 118.98 153.194C124.802 158.956 132.674 162.17 140.865 162.129H147.763C155.954 162.17 163.826 158.956 169.647 153.194C175.468 147.431 178.763 139.593 178.806 131.402V124.574C181.925 124.574 184.95 123.506 187.378 121.549C189.806 119.591 191.49 116.861 192.151 113.813C192.812 110.764 192.41 107.582 191.011 104.794C189.612 102.006 187.301 99.7817 184.462 98.4898C183.876 102.075 175.011 76.7761 171.907 76.7761H116.72C113.616 76.7761 104.752 102.075 104.165 98.4898C101.75 99.5498 99.6953 101.289 98.2501 103.495C96.805 105.701 96.032 108.28 96.0253 110.917Z" fill="#F9DABF"/>
<path opacity="0.1" d="M144.314 101.608C127.068 101.608 123.619 90.3627 120.17 90.3627C115.993 90.3627 114.256 98.2893 110.72 105.152C110.325 105.876 109.688 106.437 108.921 106.738C108.154 107.039 107.305 107.061 106.524 106.799C105.742 106.538 105.078 106.009 104.647 105.307C104.216 104.605 104.045 103.773 104.166 102.958C102.718 93.4645 102.544 83.8205 103.648 74.2813C104.703 69.2857 107.199 64.709 110.829 61.1178C114.458 57.5266 119.061 55.0786 124.067 54.077C127.439 53.7302 135.876 52.8774 144.314 52.8774C152.751 52.8774 161.189 53.7302 164.561 54.077C169.567 55.0786 174.17 57.5266 177.799 61.1178C181.429 64.709 183.925 69.2857 184.98 74.2813C186.084 83.8206 185.91 93.4645 184.462 102.958C184.534 106.797 179.848 108.766 177.908 105.152C174.372 98.2893 172.634 90.3627 168.458 90.3627C165.009 90.3627 161.56 101.608 144.314 101.608Z" fill="black"/>
<path d="M144.314 97.2608C127.068 97.2608 123.619 87.0185 120.17 87.0185C115.993 87.0185 114.256 94.2378 110.72 100.489C110.312 101.16 109.692 101.677 108.958 101.957C108.224 102.237 107.418 102.265 106.666 102.036C105.914 101.807 105.261 101.334 104.808 100.692C104.355 100.049 104.129 99.2748 104.166 98.4899C102.718 89.8559 102.544 81.0565 103.648 72.3721C104.959 63.632 115.03 54.9602 124.067 53.9702C127.439 53.6544 135.876 52.8776 144.314 52.8776C152.751 52.8776 161.189 53.6544 164.561 53.9702C173.597 54.9602 183.669 63.632 184.98 72.3721C186.084 81.0566 185.91 89.8561 184.462 98.4901C184.499 99.275 184.273 100.05 183.82 100.692C183.367 101.334 182.713 101.807 181.962 102.036C181.21 102.265 180.404 102.238 179.67 101.958C178.935 101.677 178.316 101.161 177.908 100.489C174.372 94.2381 172.634 87.0188 168.458 87.0188C165.009 87.0185 161.56 97.2608 144.314 97.2608Z" fill="#146732"/>
<path d="M249.519 208.137C249.519 218.912 245.239 229.245 237.62 236.863C230.001 244.482 219.668 248.762 208.894 248.762C155.005 246.622 155.021 169.644 208.894 167.512C219.668 167.512 230.002 171.792 237.62 179.411C245.239 187.03 249.519 197.363 249.519 208.137Z" fill="black"/>
<path d="M229.206 204.075H212.956V187.825C212.956 186.747 212.528 185.714 211.766 184.952C211.005 184.19 209.971 183.762 208.894 183.762C207.816 183.762 206.783 184.19 206.021 184.952C205.259 185.714 204.831 186.747 204.831 187.825V204.075H188.581C187.504 204.075 186.471 204.503 185.709 205.264C184.947 206.026 184.519 207.06 184.519 208.137C184.519 209.215 184.947 210.248 185.709 211.01C186.471 211.772 187.504 212.2 188.581 212.2H204.831V228.45C204.831 229.527 205.259 230.56 206.021 231.322C206.783 232.084 207.816 232.512 208.894 232.512C209.971 232.512 211.005 232.084 211.766 231.322C212.528 230.56 212.956 229.527 212.956 228.45V212.2H229.206C230.27 212.179 231.283 211.742 232.028 210.982C232.773 210.222 233.19 209.201 233.19 208.137C233.19 207.073 232.773 206.052 232.028 205.292C231.283 204.532 230.27 204.095 229.206 204.075Z" fill="white"/>
</svg>
