<svg width="1084" height="808" viewBox="0 0 1084 808" fill="none" xmlns="http://www.w3.org/2000/svg">
<path d="M1084 710.071H0V710.613H1084V710.071Z" fill="#EBEBEB"/>
<path d="M975.383 744.962H903.579V745.504H975.383V744.962Z" fill="#EBEBEB"/>
<path d="M718.085 750.86H699.245V751.403H718.085V750.86Z" fill="#EBEBEB"/>
<path d="M901.411 724.839H859.807V725.381H901.411V724.839Z" fill="#EBEBEB"/>
<path d="M207.369 728.482H113.733V729.024H207.369V728.482Z" fill="#EBEBEB"/>
<path d="M240.409 728.482H226.686V729.024H240.409V728.482Z" fill="#EBEBEB"/>
<path d="M488.125 737.633H285.027V738.175H488.125V737.633Z" fill="#EBEBEB"/>
<path d="M513.816 613.357H95.197C91.9175 613.351 88.7744 612.044 86.4575 609.722C84.1406 607.401 82.8394 604.255 82.8394 600.975V12.3821C82.8394 9.10189 84.1406 5.95575 86.4575 3.63428C88.7744 1.31282 91.9175 0.00574461 95.197 0L513.816 0C517.099 0 520.248 1.30454 522.57 3.62662C524.891 5.94871 526.195 9.09814 526.195 12.3821V600.975C526.195 602.601 525.875 604.211 525.253 605.713C524.631 607.215 523.719 608.58 522.57 609.73C521.42 610.88 520.055 611.792 518.553 612.414C517.052 613.036 515.442 613.357 513.816 613.357V613.357ZM95.197 0.542122C92.0613 0.547866 89.056 1.79782 86.8407 4.01762C84.6255 6.23742 83.3814 9.24567 83.3814 12.3821V600.975C83.3814 604.111 84.6255 607.119 86.8407 609.339C89.056 611.559 92.0613 612.809 95.197 612.815H513.816C516.954 612.809 519.961 611.56 522.18 609.34C524.399 607.121 525.648 604.113 525.653 600.975V12.3821C525.648 9.24368 524.399 6.23547 522.18 4.01629C519.961 1.79711 516.954 0.547854 513.816 0.542122H95.197Z" fill="#EBEBEB"/>
<path d="M982.776 613.357H564.135C560.854 613.351 557.708 612.045 555.388 609.724C553.068 607.403 551.762 604.257 551.756 600.975V12.3821C551.762 9.0999 553.068 5.9538 555.388 3.63296C557.708 1.31211 560.854 0.00573306 564.135 0L982.776 0C986.052 0.0114761 989.189 1.32108 991.501 3.64192C993.814 5.96277 995.112 9.10564 995.112 12.3821V600.975C995.112 604.251 993.814 607.394 991.501 609.715C989.189 612.036 986.052 613.345 982.776 613.357V613.357ZM564.135 0.542122C560.997 0.547854 557.99 1.79711 555.771 4.01629C553.553 6.23547 552.304 9.24368 552.298 12.3821V600.975C552.304 604.113 553.553 607.121 555.771 609.34C557.99 611.56 560.997 612.809 564.135 612.815H982.776C985.914 612.809 988.921 611.56 991.14 609.34C993.358 607.121 994.607 604.113 994.613 600.975V12.3821C994.607 9.24368 993.358 6.23547 991.14 4.01629C988.921 1.79711 985.914 0.547854 982.776 0.542122H564.135Z" fill="#EBEBEB"/>
<path d="M428.462 75.0297H118.156V395.749H428.462V75.0297Z" fill="#EBEBEB"/>
<path d="M439.302 75.0297H128.996V395.749H439.302V75.0297Z" fill="#F0F0F0"/>
<path d="M431.085 82.6411H136.823V388.289H431.085V82.6411Z" fill="#E0E0E0"/>
<path d="M423.736 82.6194H136.823V388.268H423.736V82.6194Z" fill="#F5F5F5"/>
<path d="M283.249 82.6411H277.417V388.289H283.249V82.6411Z" fill="#EBEBEB"/>
<path d="M243.878 82.6194L162.101 388.289H154.253L236.03 82.6194H243.878Z" fill="white"/>
<path d="M285.721 77.9137H280.734V394.144H285.721V77.9137Z" fill="#F0F0F0"/>
<path d="M214.198 82.6194L136.823 371.896V212.88L171.662 82.6194H214.198Z" fill="white"/>
<path d="M423.736 110.376V139.694L357.221 388.289H349.373L423.736 110.376Z" fill="white"/>
<path d="M423.736 169.619V328.591L407.779 388.289H365.243L423.736 169.619Z" fill="white"/>
<path d="M661.435 493.656H921.899C921.892 498.258 920.113 502.68 916.932 506.003C913.75 509.327 909.41 511.296 904.815 511.503C876.826 512.761 833.769 517.206 820.111 532.689C794.659 561.573 797.108 662.993 827.612 686.5C837.173 693.916 865.032 708.488 865.032 708.488H718.28C718.28 708.488 744.296 693.569 753.38 686.5C783.732 662.82 784.577 561.421 758.995 532.689C745.987 517.943 705.51 513.173 678.432 511.676C673.835 511.411 669.513 509.396 666.353 506.045C663.192 502.695 661.433 498.262 661.435 493.656V493.656Z" fill="#F5F5F5"/>
<path d="M889.617 512.457C863.167 514.625 831.471 519.808 820.111 532.689C816.405 537.141 813.473 542.184 811.439 547.608H767.754C765.713 542.187 762.782 537.145 759.082 532.689C747.678 519.873 715.722 514.604 689.706 512.457H889.617Z" fill="#E6E6E6"/>
<path d="M772.372 493.786L775.927 453.279H724.567L721.033 493.786H772.372Z" fill="#EBEBEB"/>
<path d="M772.372 493.786L775.927 453.279H778.68L775.147 493.786H772.372Z" fill="#E0E0E0"/>
<path d="M767.494 489.644L770.312 457.421H729.445L726.627 489.644H767.494Z" fill="#F0F0F0"/>
<path d="M764.372 486.999L766.713 460.066H732.589L730.226 486.999H764.372Z" fill="#FAFAFA"/>
<path d="M789.022 493.656H840.599L834.875 428.233H783.298L789.022 493.656Z" fill="#E6E6E6"/>
<path d="M789.022 493.656H786.572L780.849 428.233H783.298L789.022 493.656Z" fill="#E0E0E0"/>
<path d="M793.705 486.977H834.767L830.214 434.912H789.152L793.705 486.977Z" fill="#F0F0F0"/>
<path d="M796.718 482.705H831.016L827.2 439.184H792.903L796.718 482.705Z" fill="#FAFAFA"/>
<path d="M814.041 458.765C812.92 459.879 811.404 460.504 809.824 460.504C808.244 460.504 806.728 459.879 805.607 458.765V458.765C805.051 458.213 804.609 457.556 804.307 456.832C804.006 456.108 803.851 455.332 803.851 454.547C803.851 453.763 804.006 452.987 804.307 452.263C804.609 451.539 805.051 450.882 805.607 450.33C806.159 449.773 806.816 449.331 807.54 449.03C808.264 448.728 809.04 448.573 809.824 448.573C810.608 448.573 811.384 448.728 812.108 449.03C812.832 449.331 813.488 449.773 814.041 450.33C815.154 451.451 815.779 452.967 815.779 454.547C815.779 456.128 815.154 457.644 814.041 458.765V458.765Z" fill="#EBEBEB"/>
<path d="M811.504 466.073C811.908 465.663 812.389 465.338 812.919 465.116C813.449 464.893 814.019 464.779 814.594 464.779C815.169 464.779 815.738 464.893 816.268 465.116C816.799 465.338 817.28 465.663 817.683 466.073V466.073C818.31 466.677 818.74 467.456 818.919 468.308C819.097 469.16 819.015 470.046 818.683 470.851C818.35 471.656 817.784 472.342 817.057 472.82C816.329 473.298 815.475 473.547 814.604 473.533C813.732 473.551 812.875 473.306 812.144 472.83C811.413 472.353 810.843 471.667 810.508 470.861C810.174 470.056 810.089 469.168 810.267 468.313C810.445 467.459 810.876 466.678 811.504 466.073V466.073Z" fill="#F0F0F0"/>
<path d="M374.392 695.109H424.625L398.218 479.973C397.584 475.482 395.377 471.361 391.991 468.343C388.605 465.326 384.259 463.607 379.725 463.492H160.432L192.649 695.109H374.392Z" fill="#F5F5F5"/>
<path d="M215.087 695.108H164.768L138.427 479.973C138.105 477.905 138.242 475.791 138.827 473.782C139.413 471.772 140.432 469.916 141.813 468.344C143.195 466.772 144.905 465.522 146.822 464.684C148.739 463.846 150.817 463.439 152.909 463.492H170.253C174.789 463.606 179.138 465.324 182.528 468.341C185.917 471.359 188.128 475.48 188.768 479.973L215.087 695.108Z" fill="#F0F0F0"/>
<path d="M233.58 694.848L224.496 590.761C224.291 588.5 223.32 586.376 221.742 584.743C220.165 583.11 218.077 582.066 215.824 581.783L212.074 581.306C209.065 580.918 206.279 579.513 204.177 577.324C202.076 575.135 200.785 572.294 200.518 569.271L198.849 550.297C198.686 548.459 198.908 546.608 199.5 544.86C200.092 543.113 201.041 541.508 202.287 540.147C203.533 538.787 205.049 537.7 206.737 536.958C208.426 536.215 210.251 535.832 212.095 535.833H128.194C126.342 535.825 124.508 536.205 122.811 536.948C121.114 537.69 119.591 538.78 118.34 540.146C117.088 541.512 116.136 543.124 115.545 544.88C114.953 546.635 114.735 548.495 114.904 550.34L116.552 569.315C116.823 572.339 118.118 575.181 120.223 577.369C122.329 579.558 125.117 580.962 128.129 581.35L131.858 581.827C134.112 582.106 136.202 583.149 137.78 584.782C139.358 586.416 140.329 588.542 140.53 590.804L149.635 694.892C149.96 698.55 151.642 701.954 154.351 704.435C157.059 706.915 160.597 708.291 164.269 708.293H248.214C244.535 708.29 240.991 706.908 238.282 704.419C235.573 701.929 233.895 698.514 233.58 694.848V694.848Z" fill="#E6E6E6"/>
<path d="M464.624 564.761C465.308 556.876 468.923 549.535 474.755 544.187C480.587 538.84 488.213 535.874 496.125 535.877H423.042C415.127 535.874 407.499 538.838 401.663 544.186C395.828 549.533 392.208 556.875 391.519 564.761L384.321 647.163H457.448L464.624 564.761Z" fill="#E6E6E6"/>
<path d="M528.58 535.877H496.06C488.148 535.874 480.523 538.84 474.69 544.188C468.858 549.535 465.243 556.876 464.559 564.761L457.34 647.163H283.336L276.117 564.761C275.428 556.878 271.811 549.54 265.98 544.193C260.149 538.846 252.526 535.879 244.616 535.877H212.096C210.251 535.875 208.426 536.258 206.738 537.001C205.049 537.744 203.533 538.83 202.287 540.19C201.041 541.551 200.092 543.156 199.5 544.903C198.908 546.651 198.687 548.502 198.849 550.34L200.518 569.315C200.785 572.338 202.076 575.179 204.177 577.367C206.279 579.556 209.065 580.961 212.074 581.35L215.824 581.827C218.08 582.102 220.173 583.144 221.751 584.778C223.33 586.413 224.299 588.54 224.496 590.804L233.602 694.892C233.927 698.55 235.609 701.954 238.317 704.435C241.026 706.915 244.564 708.291 248.236 708.293H492.526C496.197 708.296 499.736 706.92 502.442 704.439C505.147 701.957 506.824 698.55 507.139 694.892L516.244 590.804C516.445 588.542 517.416 586.416 518.994 584.782C520.572 583.149 522.662 582.106 524.916 581.827L528.645 581.35C531.658 580.966 534.449 579.563 536.555 577.374C538.661 575.184 539.955 572.341 540.222 569.315L541.892 550.34C542.051 548.498 541.825 546.642 541.228 544.892C540.631 543.141 539.676 541.534 538.424 540.173C537.171 538.813 535.649 537.728 533.954 536.988C532.259 536.248 530.429 535.87 528.58 535.877V535.877Z" fill="#F0F0F0"/>
<path d="M542 808C774.155 808 962.354 797.01 962.354 783.453C962.354 769.896 774.155 758.905 542 758.905C309.845 758.905 121.646 769.896 121.646 783.453C121.646 797.01 309.845 808 542 808Z" fill="#F5F5F5"/>
<path d="M856.36 641.027C856.36 641.027 870.127 629.555 881.921 641.027C893.715 652.498 896.013 723.581 896.013 723.581" stroke="#29B85D" stroke-miterlimit="10"/>
<path d="M896.88 737.286C896.88 737.286 888.88 653.886 919.232 618.821" stroke="#29B85D" stroke-miterlimit="10"/>
<path d="M893.975 728.612C893.975 728.612 900.219 633.632 877.303 612.554" stroke="#29B85D" stroke-miterlimit="10"/>
<path d="M896.88 728.612C896.88 728.612 897.4 665.856 914.419 656.097C931.438 646.339 940.131 678.151 940.131 678.151" stroke="#29B85D" stroke-miterlimit="10"/>
<path d="M890.159 728.612C890.159 728.612 892.934 680.428 879.731 663.21C866.528 645.992 852.674 670.583 852.674 670.583" stroke="#29B85D" stroke-miterlimit="10"/>
<path d="M894.755 734.987C894.755 734.987 886.213 622.226 900.327 603.208" stroke="#29B85D" stroke-miterlimit="10"/>
<path d="M929.01 665.14C929.01 665.14 920.511 668.284 923.048 675.679C925.584 683.073 952.402 695.195 952.402 695.195C952.402 695.195 963.654 684.895 953.313 668.133C942.972 651.37 929.227 659.871 929.01 665.14Z" fill="#29B85D"/>
<path opacity="0.2" d="M929.01 665.14C929.01 665.14 920.511 668.284 923.048 675.679C925.584 683.073 952.402 695.195 952.402 695.195C952.402 695.195 963.654 684.895 953.313 668.133C942.972 651.37 929.227 659.871 929.01 665.14Z" fill="white"/>
<path d="M892.11 651.088C892.11 651.088 901.151 650.698 901.649 658.505C902.148 666.311 882.137 687.844 882.137 687.844C882.137 687.844 867.807 682.661 870.886 663.21C873.964 643.759 889.856 646.209 892.11 651.088Z" fill="#29B85D"/>
<path opacity="0.2" d="M892.11 651.088C892.11 651.088 901.151 650.698 901.649 658.505C902.148 666.311 882.137 687.844 882.137 687.844C882.137 687.844 867.807 682.661 870.886 663.21C873.964 643.759 889.856 646.209 892.11 651.088Z" fill="white"/>
<path d="M884.544 613.79C884.544 613.79 890.571 613.14 890.094 609.453C889.617 605.767 866.658 596.334 853.238 611.622C853.238 611.622 861.91 626.519 874.419 626.801C886.929 627.083 884.544 613.79 884.544 613.79Z" fill="#29B85D"/>
<path opacity="0.2" d="M884.544 613.79C884.544 613.79 890.571 613.14 890.094 609.453C889.617 605.767 866.658 596.334 853.238 611.622C853.238 611.622 861.91 626.519 874.419 626.801C886.929 627.083 884.544 613.79 884.544 613.79Z" fill="white"/>
<path d="M895.688 604.878C895.688 604.878 890.224 607.523 888.707 604.141C887.189 600.758 901.715 580.612 921.227 586.424C921.227 586.424 921.747 603.642 911.21 610.429C900.674 617.216 895.688 604.878 895.688 604.878Z" fill="#29B85D"/>
<path opacity="0.2" d="M895.688 604.878C895.688 604.878 890.224 607.523 888.707 604.141C887.189 600.758 901.715 580.612 921.227 586.424C921.227 586.424 921.747 603.642 911.21 610.429C900.674 617.216 895.688 604.878 895.688 604.878Z" fill="white"/>
<path d="M867.2 662.191C867.2 662.191 871.362 658.83 866.875 657.182C862.387 655.534 840.36 656.011 840.122 677.826C840.122 677.826 865.769 682.163 868.956 673.771C872.143 665.379 867.2 662.191 867.2 662.191Z" fill="#29B85D"/>
<path opacity="0.2" d="M867.2 662.191C867.2 662.191 871.362 658.83 866.875 657.182C862.387 655.534 840.36 656.011 840.122 677.826C840.122 677.826 865.769 682.163 868.956 673.771C872.143 665.379 867.2 662.191 867.2 662.191Z" fill="white"/>
<path d="M919.449 613.248C919.449 613.248 915.308 609.887 919.796 608.239C924.283 606.591 946.289 607.068 946.527 628.883C946.527 628.883 920.88 633.22 917.693 624.85C914.506 616.479 919.449 613.248 919.449 613.248Z" fill="#29B85D"/>
<path opacity="0.2" d="M919.449 613.248C919.449 613.248 915.308 609.887 919.796 608.239C924.283 606.591 946.289 607.068 946.527 628.883C946.527 628.883 920.88 633.22 917.693 624.85C914.506 616.479 919.449 613.248 919.449 613.248Z" fill="white"/>
<path d="M905.899 630.813C905.899 630.813 905.53 626.736 908.826 628.341C912.121 629.946 923.611 642.328 911.709 654.081C911.709 654.081 895.688 642.219 898.571 636.039C901.454 629.859 905.899 630.813 905.899 630.813Z" fill="#29B85D"/>
<path opacity="0.2" d="M905.899 630.813C905.899 630.813 905.53 626.736 908.826 628.341C912.121 629.946 923.611 642.328 911.709 654.081C911.709 654.081 895.688 642.219 898.571 636.039C901.454 629.859 905.899 630.813 905.899 630.813Z" fill="white"/>
<path d="M863.428 636.646C863.428 636.646 865.921 633.372 862.279 632.981C858.636 632.591 842.333 636.928 846.127 653.213C846.127 653.213 866.008 651.717 866.853 644.951C867.699 638.186 863.428 636.646 863.428 636.646Z" fill="#29B85D"/>
<path opacity="0.2" d="M863.428 636.646C863.428 636.646 865.921 633.372 862.279 632.981C858.636 632.591 842.333 636.928 846.127 653.213C846.127 653.213 866.008 651.717 866.853 644.951C867.699 638.186 863.428 636.646 863.428 636.646Z" fill="white"/>
<path d="M930.592 789.004H862.387L855.038 714.321H937.942L930.592 789.004Z" fill="#29B85D"/>
<path opacity="0.5" d="M930.592 789.004H862.387L855.038 714.321H937.942L930.592 789.004Z" fill="white"/>
<path d="M941.606 706.081H851.395V722.562H941.606V706.081Z" fill="#29B85D"/>
<path opacity="0.2" d="M941.606 706.081H851.395V722.562H941.606V706.081Z" fill="white"/>
<path d="M848.339 66.2473H670.021V200.975H848.339V66.2473Z" fill="white"/>
<path d="M848.338 195.532V200.954H842.918" stroke="#29B85D" stroke-width="2" stroke-miterlimit="10"/>
<path d="M831.753 200.954H681.012" stroke="#29B85D" stroke-width="2" stroke-miterlimit="10" stroke-dasharray="5.15 5.15"/>
<path d="M675.44 200.954H670.021V195.532" stroke="#29B85D" stroke-width="2" stroke-miterlimit="10"/>
<path d="M670.021 184.278V77.2849" stroke="#29B85D" stroke-width="2" stroke-miterlimit="10" stroke-dasharray="5.19 5.19"/>
<path d="M670.021 71.6685V66.2473H675.44" stroke="#29B85D" stroke-width="2" stroke-miterlimit="10"/>
<path d="M686.606 66.2473H837.325" stroke="#29B85D" stroke-width="2" stroke-miterlimit="10" stroke-dasharray="5.15 5.15"/>
<path d="M842.918 66.2473H848.338V71.6685" stroke="#29B85D" stroke-width="2" stroke-miterlimit="10"/>
<path d="M848.338 82.923V189.916" stroke="#29B85D" stroke-width="2" stroke-miterlimit="10" stroke-dasharray="5.19 5.19"/>
<path opacity="0.2" d="M837.499 190.133V77.0897L680.86 77.0897V190.133H837.499Z" fill="#29B85D"/>
<g opacity="0.4">
<path opacity="0.4" d="M741.933 149.626L746.117 143.792C744.47 140.648 743.615 137.15 743.624 133.6C743.624 123.148 750.54 114.67 759.082 114.67C761.37 114.687 763.614 115.308 765.586 116.469L768.469 112.479C765.548 111.006 762.331 110.212 759.06 110.159C742.215 110.159 728.448 133.6 728.448 133.6C732.119 139.585 736.665 144.986 741.933 149.626V149.626Z" fill="#29B85D"/>
<path opacity="0.4" d="M774.214 115.927L787.764 97.0831C787.993 96.7561 788.112 96.3649 788.105 95.9659C788.097 95.5669 787.963 95.1805 787.722 94.8623C787.482 94.5442 787.146 94.3107 786.764 94.1954C786.382 94.0801 785.973 94.089 785.596 94.2207C785.674 94.4921 785.689 94.7775 785.64 95.0555C785.591 95.3334 785.48 95.5967 785.315 95.8254L731.115 171.05C730.909 171.342 730.623 171.568 730.291 171.701C730.403 172.125 730.655 172.5 731.006 172.763C731.416 173.053 731.923 173.17 732.418 173.089C732.913 173.008 733.356 172.735 733.651 172.33L747.266 153.399C750.836 155.654 754.948 156.905 759.169 157.02C776.122 157.02 789.867 133.6 789.867 133.6C785.72 126.842 780.422 120.861 774.214 115.927V115.927ZM759.169 152.51C755.918 152.472 752.788 151.272 750.345 149.127L752.513 146.004C754.347 147.518 756.639 148.366 759.017 148.411C765.694 148.411 771.114 141.776 771.114 133.6C771.148 130.194 770.142 126.857 768.231 124.037L770.399 120.936C773.058 124.619 774.465 129.058 774.41 133.6C774.626 144.053 767.71 152.51 759.169 152.51Z" fill="#29B85D"/>
<path opacity="0.4" d="M759.169 118.79C752.491 118.79 747.071 125.425 747.071 133.6C747.072 135.954 747.544 138.284 748.459 140.453L763.375 119.722C762.057 119.11 760.622 118.792 759.169 118.79V118.79Z" fill="#29B85D"/>
</g>
<path d="M933.411 213.704V404.098L905.4 433.481H769.878V213.704H933.411Z" fill="white"/>
<path d="M927.991 213.704H933.411V219.126" stroke="#29B85D" stroke-width="2" stroke-miterlimit="10"/>
<path d="M933.411 229.599V404.098L912.75 425.761" stroke="#29B85D" stroke-width="2" stroke-miterlimit="10" stroke-dasharray="4.83 4.83"/>
<path d="M909.129 429.556L905.4 433.481H899.98" stroke="#29B85D" stroke-width="2" stroke-miterlimit="10"/>
<path d="M888.642 433.481H780.957" stroke="#29B85D" stroke-width="2" stroke-miterlimit="10" stroke-dasharray="5.23 5.23"/>
<path d="M775.277 433.481H769.857V428.059" stroke="#29B85D" stroke-width="2" stroke-miterlimit="10"/>
<path d="M769.857 417.065V224.612" stroke="#29B85D" stroke-width="2" stroke-miterlimit="10" stroke-dasharray="5.07 5.07"/>
<path d="M769.857 219.126V213.704H775.277" stroke="#29B85D" stroke-width="2" stroke-miterlimit="10"/>
<path d="M785.466 213.704H922.896" stroke="#29B85D" stroke-width="2" stroke-miterlimit="10" stroke-dasharray="4.7 4.7"/>
<path d="M905.4 433.481V404.098H933.411" fill="#29B85D"/>
<path opacity="0.7" d="M905.4 433.481V404.098H933.411" fill="white"/>
<path d="M905.4 433.481V404.098H933.411" stroke="#29B85D" stroke-width="2" stroke-miterlimit="10" stroke-dasharray="5 5"/>
<g opacity="0.4">
<path opacity="0.4" d="M830.626 342.99L835.742 335.877C833.798 332.072 832.794 327.855 832.816 323.582C832.816 310.853 841.227 300.531 851.634 300.531C854.431 300.541 857.175 301.289 859.59 302.699L863.102 297.82C859.534 296.049 855.617 295.093 851.634 295.023C830.973 295.023 814.236 323.56 814.236 323.56C818.704 330.815 824.228 337.364 830.626 342.99V342.99Z" fill="#29B85D"/>
<path opacity="0.4" d="M869.975 302.049L886.474 279.106C886.774 278.702 886.933 278.21 886.927 277.706C886.921 277.203 886.749 276.715 886.439 276.319C886.128 275.922 885.696 275.638 885.209 275.511C884.722 275.384 884.207 275.42 883.742 275.615C883.83 275.946 883.845 276.292 883.785 276.629C883.725 276.966 883.592 277.286 883.395 277.566L817.466 369.228C817.213 369.585 816.858 369.858 816.447 370.009C816.58 370.529 816.886 370.987 817.314 371.31C817.709 371.586 818.177 371.737 818.659 371.744C819.028 371.743 819.392 371.654 819.72 371.484C820.048 371.315 820.331 371.069 820.545 370.768L837.13 347.695C841.484 350.425 846.496 351.924 851.634 352.032C872.273 352.032 889.032 323.473 889.032 323.473C883.967 315.283 877.519 308.034 869.975 302.049V302.049ZM851.634 346.633C847.639 346.607 843.789 345.135 840.794 342.491L843.526 338.718C845.786 340.581 848.619 341.607 851.547 341.623C859.677 341.623 866.29 333.557 866.29 323.582C866.331 319.433 865.106 315.371 862.777 311.937L865.509 308.142C868.728 312.641 870.429 318.05 870.365 323.582C870.452 336.311 862.04 346.633 851.634 346.633Z" fill="#29B85D"/>
<path opacity="0.4" d="M851.634 305.54C843.504 305.54 836.891 313.628 836.891 323.582C836.888 326.45 837.463 329.289 838.582 331.93L856.75 306.667C855.144 305.934 853.4 305.55 851.634 305.54V305.54Z" fill="#29B85D"/>
</g>
<path d="M774.345 407.264L770.117 390.263H719.559L715.332 407.264H641.598V540.43H791.038V407.264H774.345Z" fill="white"/>
<path opacity="0.2" d="M774.345 407.264L770.117 390.263H719.559L715.332 407.264H641.598V540.43H791.038V407.264H774.345Z" fill="#29B85D"/>
<path d="M774.345 407.264L770.117 390.263H719.559L715.332 407.264H641.598V540.43H791.038V407.264H774.345Z" stroke="#29B85D" stroke-width="2" stroke-miterlimit="10" stroke-dasharray="5 5"/>
<path d="M785.011 540.43H636.373L621.197 430.857H769.835L785.011 540.43Z" fill="white"/>
<path d="M784.252 535.053L785.011 540.43H779.591" stroke="#29B85D" stroke-width="2" stroke-miterlimit="10"/>
<path d="M768.99 540.43H647.105" stroke="#29B85D" stroke-width="2" stroke-miterlimit="10" stroke-dasharray="4.89 4.89"/>
<path d="M641.793 540.43H636.373L635.636 535.053" stroke="#29B85D" stroke-width="2" stroke-miterlimit="10"/>
<path d="M634.118 524.08L622.715 441.721" stroke="#29B85D" stroke-width="2" stroke-miterlimit="10" stroke-dasharray="5.11 5.11"/>
<path d="M621.934 436.235L621.197 430.857H626.617" stroke="#29B85D" stroke-width="2" stroke-miterlimit="10"/>
<path d="M637.219 430.857H759.103" stroke="#29B85D" stroke-width="2" stroke-miterlimit="10" stroke-dasharray="4.89 4.89"/>
<path d="M764.415 430.857H769.835L770.572 436.235" stroke="#29B85D" stroke-width="2" stroke-miterlimit="10"/>
<path d="M772.09 447.207L783.494 529.566" stroke="#29B85D" stroke-width="2" stroke-miterlimit="10" stroke-dasharray="5.11 5.11"/>
<g opacity="0.4">
<path opacity="0.4" d="M681.793 501.463L685.999 495.629C684.399 492.51 683.573 489.052 683.592 485.546C683.592 475.094 690.508 466.615 699.028 466.615C701.317 466.632 703.56 467.253 705.532 468.415L708.394 464.425C705.473 462.951 702.256 462.158 698.985 462.105C682.053 462.105 668.308 485.546 668.308 485.546C671.988 491.492 676.533 496.856 681.793 501.463V501.463Z" fill="#29B85D"/>
<path opacity="0.4" d="M714.096 467.873L727.624 449.029C727.853 448.702 727.972 448.31 727.964 447.911C727.957 447.512 727.823 447.126 727.582 446.808C727.341 446.49 727.005 446.256 726.623 446.141C726.241 446.026 725.833 446.034 725.456 446.166C725.527 446.438 725.539 446.722 725.491 446.999C725.442 447.276 725.334 447.54 725.174 447.771L670.974 522.996C670.76 523.289 670.467 523.514 670.129 523.646C670.218 523.994 670.405 524.309 670.667 524.554C670.929 524.8 671.256 524.965 671.609 525.031C671.961 525.097 672.326 525.061 672.659 524.927C672.992 524.793 673.28 524.567 673.489 524.275L687.256 505.258C690.817 507.513 694.922 508.765 699.137 508.879C716.09 508.879 729.835 485.459 729.835 485.459C725.651 478.727 720.324 472.775 714.096 467.873V467.873ZM699.028 504.455C695.773 504.419 692.64 503.21 690.204 501.051L692.372 497.95C694.207 499.463 696.499 500.311 698.876 500.357C705.554 500.357 710.974 493.721 710.974 485.546C711.008 482.136 710.01 478.795 708.112 475.961L710.28 472.882C712.922 476.572 714.32 481.008 714.269 485.546C714.486 495.998 707.57 504.455 699.028 504.455Z" fill="#29B85D"/>
<path opacity="0.4" d="M699.028 470.735C692.351 470.735 686.931 477.371 686.931 485.546C686.932 487.9 687.403 490.23 688.318 492.398L703.234 471.668C701.917 471.053 700.481 470.734 699.028 470.735Z" fill="#29B85D"/>
</g>
<path d="M539.832 153.659L549.068 142.361C550.672 140.344 552.699 138.704 555.007 137.557C557.315 136.41 559.846 135.785 562.423 135.726H620.048C622.375 135.663 624.672 136.251 626.683 137.423C628.694 138.595 630.338 140.306 631.43 142.361L637.392 153.659C638.477 155.716 640.116 157.428 642.124 158.601C644.132 159.774 646.428 160.361 648.752 160.295H683.137C685.009 160.24 686.869 160.608 688.58 161.371C690.291 162.133 691.808 163.271 693.02 164.699C694.232 166.128 695.107 167.811 695.58 169.623C696.053 171.436 696.113 173.332 695.755 175.17L667.072 366.474C666.382 370.547 664.303 374.254 661.188 376.967C658.074 379.679 654.116 381.228 649.988 381.35H377.232C375.358 381.408 373.495 381.042 371.782 380.281C370.068 379.52 368.548 378.383 367.334 376.954C366.12 375.525 365.243 373.841 364.768 372.027C364.294 370.213 364.234 368.315 364.593 366.474L393.275 175.127C393.973 171.058 396.054 167.355 399.167 164.644C402.28 161.934 406.234 160.382 410.359 160.251H526.542C529.103 160.184 531.619 159.56 533.914 158.422C536.209 157.283 538.229 155.658 539.832 153.659V153.659Z" fill="#29B85D"/>
<path opacity="0.5" d="M539.832 153.659L549.068 142.361C550.672 140.344 552.699 138.704 555.007 137.557C557.315 136.41 559.846 135.785 562.423 135.726H620.048C622.375 135.663 624.672 136.251 626.683 137.423C628.694 138.595 630.338 140.306 631.43 142.361L637.392 153.659C638.477 155.716 640.116 157.428 642.124 158.601C644.132 159.774 646.428 160.361 648.752 160.295H683.137C685.009 160.24 686.869 160.608 688.58 161.371C690.291 162.133 691.808 163.271 693.02 164.699C694.232 166.128 695.107 167.811 695.58 169.623C696.053 171.436 696.113 173.332 695.755 175.17L667.072 366.474C666.382 370.547 664.303 374.254 661.188 376.967C658.074 379.679 654.116 381.228 649.988 381.35H377.232C375.358 381.408 373.495 381.042 371.782 380.281C370.068 379.52 368.548 378.383 367.334 376.954C366.12 375.525 365.243 373.841 364.768 372.027C364.294 370.213 364.234 368.315 364.593 366.474L393.275 175.127C393.973 171.058 396.054 167.355 399.167 164.644C402.28 161.934 406.234 160.382 410.359 160.251H526.542C529.103 160.184 531.619 159.56 533.914 158.422C536.209 157.283 538.229 155.658 539.832 153.659V153.659Z" fill="white"/>
<path d="M381.416 178.532H631.322C633.78 178.512 636.217 178.977 638.495 179.9C640.773 180.824 642.846 182.188 644.596 183.914C646.346 185.641 647.738 187.695 648.694 189.96C649.649 192.226 650.147 194.657 650.162 197.116L650.01 362.81C649.99 365.27 649.486 367.703 648.526 369.968C647.566 372.234 646.17 374.288 644.416 376.014C642.663 377.739 640.587 379.103 638.306 380.026C636.026 380.949 633.586 381.414 631.127 381.394H381.221C378.762 381.414 376.324 380.949 374.045 380.025C371.766 379.102 369.691 377.738 367.939 376.012C366.187 374.286 364.793 372.232 363.836 369.966C362.878 367.701 362.377 365.269 362.36 362.81L362.533 197.116C362.553 194.655 363.057 192.223 364.017 189.957C364.977 187.692 366.373 185.637 368.127 183.912C369.88 182.186 371.956 180.823 374.236 179.9C376.517 178.976 378.956 178.512 381.416 178.532V178.532Z" fill="#29B85D"/>
<path opacity="0.7" d="M381.416 178.532H631.322C633.78 178.512 636.217 178.977 638.495 179.9C640.773 180.824 642.846 182.188 644.596 183.914C646.346 185.641 647.738 187.695 648.694 189.96C649.649 192.226 650.147 194.657 650.162 197.116L650.01 362.81C649.99 365.27 649.486 367.703 648.526 369.968C647.566 372.234 646.17 374.288 644.416 376.014C642.663 377.739 640.587 379.103 638.306 380.026C636.026 380.949 633.586 381.414 631.127 381.394H381.221C378.762 381.414 376.324 380.949 374.045 380.025C371.766 379.102 369.691 377.738 367.939 376.012C366.187 374.286 364.793 372.232 363.836 369.966C362.878 367.701 362.377 365.269 362.36 362.81L362.533 197.116C362.553 194.655 363.057 192.223 364.017 189.957C364.977 187.692 366.373 185.637 368.127 183.912C369.88 182.186 371.956 180.823 374.236 179.9C376.517 178.976 378.956 178.512 381.416 178.532V178.532Z" fill="white"/>
<path d="M464.494 222.075H392.69C389.84 222.075 387.53 224.385 387.53 227.236V348.628C387.53 351.478 389.84 353.789 392.69 353.789H464.494C467.344 353.789 469.654 351.478 469.654 348.628V227.236C469.654 224.385 467.344 222.075 464.494 222.075Z" fill="#29B85D"/>
<path d="M457.99 222.075H386.186C383.336 222.075 381.026 224.385 381.026 227.236V348.628C381.026 351.478 383.336 353.789 386.186 353.789H457.99C460.84 353.789 463.15 351.478 463.15 348.628V227.236C463.15 224.385 460.84 222.075 457.99 222.075Z" fill="#29B85D"/>
<path opacity="0.2" d="M457.99 222.075H386.186C383.336 222.075 381.026 224.385 381.026 227.236V348.628C381.026 351.478 383.336 353.789 386.186 353.789H457.99C460.84 353.789 463.15 351.478 463.15 348.628V227.236C463.15 224.385 460.84 222.075 457.99 222.075Z" fill="white"/>
<path d="M404.939 260.565H391.844C390.659 260.565 389.698 261.527 389.698 262.712V276.33C389.698 277.516 390.659 278.477 391.844 278.477H404.939C406.124 278.477 407.085 277.516 407.085 276.33V262.712C407.085 261.527 406.124 260.565 404.939 260.565Z" fill="#29B85D"/>
<path d="M427.985 260.565H414.89C413.705 260.565 412.744 261.527 412.744 262.712V276.33C412.744 277.516 413.705 278.477 414.89 278.477H427.985C429.17 278.477 430.131 277.516 430.131 276.33V262.712C430.131 261.527 429.17 260.565 427.985 260.565Z" fill="#29B85D"/>
<path d="M451.031 260.565H437.936C436.751 260.565 435.79 261.527 435.79 262.712V276.33C435.79 277.516 436.751 278.477 437.936 278.477H451.031C452.216 278.477 453.177 277.516 453.177 276.33V262.712C453.177 261.527 452.216 260.565 451.031 260.565Z" fill="#29B85D"/>
<path d="M404.939 282.315H391.844C390.659 282.315 389.698 283.277 389.698 284.462V298.08C389.698 299.266 390.659 300.227 391.844 300.227H404.939C406.124 300.227 407.085 299.266 407.085 298.08V284.462C407.085 283.277 406.124 282.315 404.939 282.315Z" fill="#29B85D"/>
<path d="M427.985 282.315H414.89C413.705 282.315 412.744 283.277 412.744 284.462V298.08C412.744 299.266 413.705 300.227 414.89 300.227H427.985C429.17 300.227 430.131 299.266 430.131 298.08V284.462C430.131 283.277 429.17 282.315 427.985 282.315Z" fill="#29B85D"/>
<path d="M451.031 282.315H437.936C436.751 282.315 435.79 283.277 435.79 284.462V298.08C435.79 299.266 436.751 300.227 437.936 300.227H451.031C452.216 300.227 453.177 299.266 453.177 298.08V284.462C453.177 283.277 452.216 282.315 451.031 282.315Z" fill="#29B85D"/>
<path d="M404.939 304.087H391.844C390.659 304.087 389.698 305.048 389.698 306.234V319.852C389.698 321.037 390.659 321.999 391.844 321.999H404.939C406.124 321.999 407.085 321.037 407.085 319.852V306.234C407.085 305.048 406.124 304.087 404.939 304.087Z" fill="#29B85D"/>
<path d="M427.985 304.087H414.89C413.705 304.087 412.744 305.048 412.744 306.234V319.852C412.744 321.037 413.705 321.999 414.89 321.999H427.985C429.17 321.999 430.131 321.037 430.131 319.852V306.234C430.131 305.048 429.17 304.087 427.985 304.087Z" fill="#29B85D"/>
<path d="M451.031 304.087H437.936C436.751 304.087 435.79 305.048 435.79 306.234V319.852C435.79 321.037 436.751 321.999 437.936 321.999H451.031C452.216 321.999 453.177 321.037 453.177 319.852V306.234C453.177 305.048 452.216 304.087 451.031 304.087Z" fill="#29B85D"/>
<path d="M427.985 325.837H414.89C413.705 325.837 412.744 326.798 412.744 327.984V341.602C412.744 342.787 413.705 343.749 414.89 343.749H427.985C429.17 343.749 430.131 342.787 430.131 341.602V327.984C430.131 326.798 429.17 325.837 427.985 325.837Z" fill="#29B85D"/>
<path d="M402.771 260.565H389.676C388.491 260.565 387.53 261.527 387.53 262.712V276.33C387.53 277.516 388.491 278.477 389.676 278.477H402.771C403.956 278.477 404.917 277.516 404.917 276.33V262.712C404.917 261.527 403.956 260.565 402.771 260.565Z" fill="#29B85D"/>
<path d="M425.817 260.565H412.722C411.537 260.565 410.576 261.527 410.576 262.712V276.33C410.576 277.516 411.537 278.477 412.722 278.477H425.817C427.002 278.477 427.963 277.516 427.963 276.33V262.712C427.963 261.527 427.002 260.565 425.817 260.565Z" fill="#29B85D"/>
<path d="M448.863 260.565H435.768C434.583 260.565 433.622 261.527 433.622 262.712V276.33C433.622 277.516 434.583 278.477 435.768 278.477H448.863C450.048 278.477 451.009 277.516 451.009 276.33V262.712C451.009 261.527 450.048 260.565 448.863 260.565Z" fill="#29B85D"/>
<path d="M402.771 282.315H389.676C388.491 282.315 387.53 283.277 387.53 284.462V298.08C387.53 299.266 388.491 300.227 389.676 300.227H402.771C403.956 300.227 404.917 299.266 404.917 298.08V284.462C404.917 283.277 403.956 282.315 402.771 282.315Z" fill="#29B85D"/>
<path d="M425.817 282.315H412.722C411.537 282.315 410.576 283.277 410.576 284.462V298.08C410.576 299.266 411.537 300.227 412.722 300.227H425.817C427.002 300.227 427.963 299.266 427.963 298.08V284.462C427.963 283.277 427.002 282.315 425.817 282.315Z" fill="#29B85D"/>
<path d="M448.863 282.315H435.768C434.583 282.315 433.622 283.277 433.622 284.462V298.08C433.622 299.266 434.583 300.227 435.768 300.227H448.863C450.048 300.227 451.009 299.266 451.009 298.08V284.462C451.009 283.277 450.048 282.315 448.863 282.315Z" fill="#29B85D"/>
<path d="M402.771 304.087H389.676C388.491 304.087 387.53 305.048 387.53 306.234V319.852C387.53 321.037 388.491 321.999 389.676 321.999H402.771C403.956 321.999 404.917 321.037 404.917 319.852V306.234C404.917 305.048 403.956 304.087 402.771 304.087Z" fill="#29B85D"/>
<path d="M425.817 304.087H412.722C411.537 304.087 410.576 305.048 410.576 306.234V319.852C410.576 321.037 411.537 321.999 412.722 321.999H425.817C427.002 321.999 427.963 321.037 427.963 319.852V306.234C427.963 305.048 427.002 304.087 425.817 304.087Z" fill="#29B85D"/>
<path d="M448.863 304.087H435.768C434.583 304.087 433.622 305.048 433.622 306.234V319.852C433.622 321.037 434.583 321.999 435.768 321.999H448.863C450.048 321.999 451.009 321.037 451.009 319.852V306.234C451.009 305.048 450.048 304.087 448.863 304.087Z" fill="#29B85D"/>
<path d="M425.817 325.837H412.722C411.537 325.837 410.576 326.798 410.576 327.984V341.602C410.576 342.787 411.537 343.749 412.722 343.749H425.817C427.002 343.749 427.963 342.787 427.963 341.602V327.984C427.963 326.798 427.002 325.837 425.817 325.837Z" fill="#29B85D"/>
<g opacity="0.5">
<path opacity="0.5" d="M402.771 260.565H389.676C388.491 260.565 387.53 261.527 387.53 262.712V276.33C387.53 277.516 388.491 278.477 389.676 278.477H402.771C403.956 278.477 404.917 277.516 404.917 276.33V262.712C404.917 261.527 403.956 260.565 402.771 260.565Z" fill="white"/>
<path opacity="0.5" d="M425.817 260.565H412.722C411.537 260.565 410.576 261.527 410.576 262.712V276.33C410.576 277.516 411.537 278.477 412.722 278.477H425.817C427.002 278.477 427.963 277.516 427.963 276.33V262.712C427.963 261.527 427.002 260.565 425.817 260.565Z" fill="white"/>
<path opacity="0.5" d="M448.863 260.565H435.768C434.583 260.565 433.622 261.527 433.622 262.712V276.33C433.622 277.516 434.583 278.477 435.768 278.477H448.863C450.048 278.477 451.009 277.516 451.009 276.33V262.712C451.009 261.527 450.048 260.565 448.863 260.565Z" fill="white"/>
<path opacity="0.5" d="M402.771 282.315H389.676C388.491 282.315 387.53 283.277 387.53 284.462V298.08C387.53 299.266 388.491 300.227 389.676 300.227H402.771C403.956 300.227 404.917 299.266 404.917 298.08V284.462C404.917 283.277 403.956 282.315 402.771 282.315Z" fill="white"/>
<path opacity="0.5" d="M425.817 282.315H412.722C411.537 282.315 410.576 283.277 410.576 284.462V298.08C410.576 299.266 411.537 300.227 412.722 300.227H425.817C427.002 300.227 427.963 299.266 427.963 298.08V284.462C427.963 283.277 427.002 282.315 425.817 282.315Z" fill="white"/>
<path opacity="0.5" d="M448.863 282.315H435.768C434.583 282.315 433.622 283.277 433.622 284.462V298.08C433.622 299.266 434.583 300.227 435.768 300.227H448.863C450.048 300.227 451.009 299.266 451.009 298.08V284.462C451.009 283.277 450.048 282.315 448.863 282.315Z" fill="white"/>
<path opacity="0.5" d="M402.771 304.087H389.676C388.491 304.087 387.53 305.048 387.53 306.234V319.852C387.53 321.037 388.491 321.999 389.676 321.999H402.771C403.956 321.999 404.917 321.037 404.917 319.852V306.234C404.917 305.048 403.956 304.087 402.771 304.087Z" fill="white"/>
<path opacity="0.5" d="M425.817 304.087H412.722C411.537 304.087 410.576 305.048 410.576 306.234V319.852C410.576 321.037 411.537 321.999 412.722 321.999H425.817C427.002 321.999 427.963 321.037 427.963 319.852V306.234C427.963 305.048 427.002 304.087 425.817 304.087Z" fill="white"/>
<path opacity="0.5" d="M448.863 304.087H435.768C434.583 304.087 433.622 305.048 433.622 306.234V319.852C433.622 321.037 434.583 321.999 435.768 321.999H448.863C450.048 321.999 451.009 321.037 451.009 319.852V306.234C451.009 305.048 450.048 304.087 448.863 304.087Z" fill="white"/>
<path opacity="0.5" d="M425.817 325.837H412.722C411.537 325.837 410.576 326.798 410.576 327.984V341.602C410.576 342.787 411.537 343.749 412.722 343.749H425.817C427.002 343.749 427.963 342.787 427.963 341.602V327.984C427.963 326.798 427.002 325.837 425.817 325.837Z" fill="white"/>
</g>
<path d="M453.155 234.175H389.698V250.482H453.155V234.175Z" fill="#29B85D"/>
<g opacity="0.2">
<path opacity="0.2" d="M403.248 242.328L406.457 244.15L405.871 245.234L402.619 243.348V247.034H401.427V243.348L398.175 245.234L397.546 244.15L400.798 242.328L397.546 240.507L398.175 239.401L401.427 241.309V237.623H402.619V241.309L405.871 239.401L406.457 240.507L403.248 242.328Z" fill="white"/>
</g>
<g opacity="0.2">
<path opacity="0.2" d="M416.126 242.328L419.356 244.15L418.771 245.234L415.519 243.348V247.034H414.305V243.348L411.053 245.234L410.424 244.15L413.676 242.328L410.424 240.507L411.053 239.401L414.305 241.309V237.623H415.519V241.309L418.771 239.401L419.356 240.507L416.126 242.328Z" fill="white"/>
</g>
<g opacity="0.2">
<path opacity="0.2" d="M429.069 242.328L432.299 244.15L431.692 245.234L428.44 243.348V247.034H427.248V243.348L423.996 245.234L423.389 244.15L426.641 242.328L423.389 240.507L423.996 239.401L427.248 241.309V237.623H428.44V241.309L431.692 239.401L432.299 240.507L429.069 242.328Z" fill="white"/>
</g>
<g opacity="0.2">
<path opacity="0.2" d="M442.012 242.328L445.221 244.15L444.635 245.234L441.383 243.348V247.034H440.104V243.348L436.852 245.234L436.223 244.15L439.475 242.328L436.223 240.507L436.852 239.401L440.104 241.309V237.623H441.296V241.309L444.548 239.401L445.134 240.507L442.012 242.328Z" fill="white"/>
</g>
<g opacity="0.4">
<path opacity="0.4" d="M527.561 308.12L534.737 298.145C531.988 292.779 530.575 286.827 530.618 280.797C530.618 262.907 542.455 248.422 557.068 248.422C561 248.441 564.859 249.496 568.255 251.48L573.176 244.627C568.197 242.154 562.734 240.814 557.176 240.702C528.168 240.702 504.646 280.797 504.646 280.797C510.884 290.993 518.608 300.202 527.561 308.12V308.12Z" fill="black"/>
<path opacity="0.4" d="M582.824 250.612L606.021 218.367C606.523 217.667 606.727 216.798 606.589 215.948C606.451 215.099 605.981 214.339 605.284 213.835C604.84 213.508 604.319 213.303 603.772 213.238C603.225 213.174 602.67 213.252 602.162 213.466C602.294 213.928 602.319 214.414 602.236 214.887C602.154 215.36 601.965 215.808 601.685 216.198L509.047 344.985C508.69 345.487 508.192 345.872 507.616 346.091C507.813 346.813 508.248 347.447 508.851 347.89C509.196 348.145 509.587 348.327 510.003 348.428C510.418 348.528 510.85 348.545 511.272 348.476C511.694 348.407 512.099 348.255 512.461 348.028C512.823 347.801 513.137 347.503 513.383 347.153L536.689 314.756C542.831 318.636 549.913 320.772 557.176 320.936C586.184 320.936 609.707 280.841 609.707 280.841C609.707 280.841 598.802 262.387 582.824 250.612ZM557.176 313.238C551.582 313.198 546.191 311.134 542 307.426L545.838 302.114C549.016 304.729 552.995 306.176 557.111 306.212C568.537 306.212 577.816 294.871 577.816 280.863C577.867 275.026 576.152 269.311 572.894 264.469L576.71 259.178C581.244 265.492 583.645 273.089 583.561 280.863C583.517 298.753 571.68 313.238 557.176 313.238Z" fill="black"/>
<path opacity="0.4" d="M557.176 255.513C545.729 255.513 536.472 266.854 536.472 280.862C536.463 284.892 537.267 288.882 538.835 292.594L564.352 257.096C562.102 256.056 559.654 255.516 557.176 255.513V255.513Z" fill="black"/>
</g>
<path d="M171.771 257.768C171.771 257.768 146.037 302.873 144.129 313.672C142.221 324.471 166.047 393.58 166.047 393.58C166.047 393.58 160.801 411.774 166.524 414.832C172.248 417.889 182.242 424.069 183.673 418.822C185.104 413.574 183.673 396.291 183.673 396.291L179.337 392.626C179.337 392.626 164.161 320.416 164.161 317.922C164.161 315.428 191.825 272.839 191.825 272.839L171.771 257.768Z" fill="#E4897B"/>
<path d="M194.816 281.513L193.819 282.901L177.256 305.865L175.088 308.749L149.354 286.826C149.354 286.826 163.077 252.607 179.077 243.738L190.264 270.606L192.952 277.003L194.816 281.513Z" fill="#29B85D"/>
<path opacity="0.2" d="M193.819 282.901L177.256 305.865C175.088 284.18 186.101 273.772 190.264 270.606C190.761 270.212 191.282 269.85 191.825 269.521L192.93 277.003L193.819 282.901Z" fill="black"/>
<path d="M268.29 772.849L285.873 774.692L286.761 764.5L289.168 736.765L271.585 734.9L268.919 765.541L268.29 772.849Z" fill="#E4897B"/>
<path d="M180.53 770.615H197.57L197.722 766.755L197.743 766.278L198.611 741.558L198.632 741.059L198.979 731.583H181.917L180.53 770.615Z" fill="#E4897B"/>
<path opacity="0.2" d="M271.586 734.9L268.919 765.541L286.762 764.5L289.168 736.765L271.586 734.9Z" fill="black"/>
<path opacity="0.2" d="M180.638 768.447H180.66L197.722 766.278H197.743L198.632 742.425H198.611L181.527 743.791L180.66 767.71L180.638 768.447Z" fill="black"/>
<path d="M199.933 769.596H179.229C178.89 769.598 178.561 769.715 178.298 769.927C178.034 770.14 177.85 770.436 177.776 770.767L174.416 785.946C174.281 786.602 174.41 787.284 174.775 787.844C175.141 788.405 175.713 788.798 176.367 788.939H176.909C183.608 788.939 188.486 788.419 196.898 788.419C202.079 788.419 217.711 788.961 224.865 788.961C232.019 788.961 232.952 781.891 230.025 781.241C216.8 778.487 207.001 774.454 202.795 770.68C202.017 769.963 200.991 769.574 199.933 769.596V769.596Z" fill="#263238"/>
<path d="M287.737 769.054H267.033C266.694 769.056 266.365 769.173 266.102 769.385C265.838 769.598 265.654 769.894 265.58 770.225L262.22 785.404C262.085 786.06 262.214 786.742 262.579 787.302C262.945 787.863 263.517 788.256 264.171 788.397H264.713C271.412 788.397 276.29 787.876 284.702 787.876C289.883 787.876 305.515 788.419 312.669 788.419C319.823 788.419 320.756 781.349 317.829 780.699C304.691 777.836 294.805 773.868 290.599 770.095C289.814 769.393 288.789 769.02 287.737 769.054V769.054Z" fill="#263238"/>
<path d="M290.794 761.941H265.797C265.797 761.941 267.835 546.719 240.8 474.031C238.892 498.058 236.746 522.996 234.643 543.77C233.32 556.629 232.02 567.623 230.784 576.08C222.914 630.293 203.055 764.11 203.055 764.11H178.362C178.362 764.11 181.288 635.887 184.215 582.607C187.446 524.774 188.833 397.635 188.963 386.793H279.412C288.019 432.331 310.024 614.484 290.794 761.941Z" fill="#263238"/>
<path opacity="0.2" d="M240.8 473.923C238.892 497.95 236.746 522.931 234.643 543.705C231.564 513.715 227.792 492.333 227.792 492.333C227.792 492.333 224.258 489.428 214.545 473.923C204.833 458.418 214.545 429.469 214.545 429.469C214.242 456.358 240.8 473.923 240.8 473.923Z" fill="black"/>
<path d="M293.591 754.894L292.376 761.941H262.827V755.436L293.591 754.894Z" fill="#29B85D"/>
<path d="M205.873 757.604L203.055 764.11H178.275L176.649 757.604H205.873Z" fill="#29B85D"/>
<path d="M238.133 180.852C238.133 180.852 262.111 174.563 266.187 168.6C270.263 162.637 251.25 161.834 238.437 167.169C225.624 172.503 238.133 180.852 238.133 180.852Z" fill="#263238"/>
<path opacity="0.2" d="M238.133 180.852C238.133 180.852 262.111 174.563 266.187 168.6C270.263 162.637 251.25 161.834 238.437 167.169C225.624 172.503 238.133 180.852 238.133 180.852Z" fill="white"/>
<path d="M246.567 208.717C246.35 209.541 246.111 210.343 245.83 211.124C243.787 216.807 239.665 221.503 234.296 224.265C230.187 226.469 225.469 227.265 220.865 226.533C216.261 225.8 212.023 223.58 208.8 220.21C200.258 211.579 200.475 201.669 199.456 184.755C199.161 180.819 199.879 176.873 201.542 173.294C203.206 169.714 205.758 166.621 208.957 164.309C212.155 161.997 215.893 160.544 219.813 160.088C223.732 159.632 227.704 160.188 231.347 161.704C247.954 168.448 250.209 193.538 246.567 208.717Z" fill="#E4897B"/>
<path opacity="0.2" d="M237.396 222.357C236.413 223.071 235.376 223.709 234.296 224.265C231.475 225.766 228.356 226.618 225.164 226.761C221.972 226.903 218.789 226.332 215.846 225.089C216.589 223.054 217.602 221.128 218.86 219.364C225.198 218.558 231.634 219.597 237.396 222.357V222.357Z" fill="black"/>
<path d="M203.467 244.215C211.77 251.761 232.106 248.986 232.106 248.986C232.106 248.986 244.811 245.494 242.144 241.526C234.664 240.29 231.044 236.799 229.548 232.332C228.729 229.563 228.471 226.658 228.789 223.788C228.913 222.188 229.123 220.595 229.418 219.017L204.269 200.39C207.564 212.685 211.597 235.303 203.467 244.215Z" fill="#E4897B"/>
<path d="M226.621 154.44C226.621 154.44 230.957 151.707 238.675 158.777C245.179 164.827 238.675 169.619 242.513 177.426C246.35 185.232 241.169 192.822 241.169 192.822C241.169 192.822 237.461 200.802 231.022 200.281C231.022 200.281 225.776 206.657 226.686 213.292C227.597 219.928 218.014 225.067 205.223 224.894C192.432 224.72 197.44 216.849 197.44 216.849C193.736 212.512 190.757 207.606 188.616 202.32C185.975 195.932 184.69 189.064 184.844 182.153C184.733 178.57 185.333 175 186.609 171.65C187.885 168.3 189.813 165.237 192.28 162.637C200.865 153.008 221.331 148.129 226.621 154.44Z" fill="#263238"/>
<path d="M227.813 196.725C228.129 198.316 228.797 199.816 229.769 201.115C230.74 202.413 231.991 203.477 233.429 204.228C236.854 205.681 239.109 200.845 238.61 195.771C238.133 191.282 235.813 184.929 232.106 185.796C228.399 186.663 226.621 192.193 227.813 196.725Z" fill="#E4897B"/>
<path d="M185.299 192.995C185.299 192.995 210.946 196.357 247.759 176.038C247.759 176.038 239.716 148.758 228.702 147.847C217.689 146.937 185.906 159.449 183.912 164.61C181.592 170.552 185.299 192.995 185.299 192.995Z" fill="#29B85D"/>
<path d="M186.817 187.964C186.817 187.964 186.296 179.616 188.117 178.532C189.939 177.447 198.567 175.712 200.02 177.014C201.472 178.315 203.293 186.078 203.293 186.078C203.293 186.078 193.667 189.352 186.817 187.964Z" fill="#263238"/>
<path d="M238.133 180.852C238.133 180.852 246.307 175.712 246.068 170.92L266.187 168.6C266.187 168.6 264.149 174.91 238.133 180.852Z" fill="#263238"/>
<path opacity="0.2" d="M238.133 180.852C238.133 180.852 246.307 175.712 246.068 170.92L266.187 168.6C266.187 168.6 264.149 174.91 238.133 180.852Z" fill="white"/>
<path d="M186.708 392.843C186.708 392.843 190.199 353.507 185.017 293.678C183.673 278.282 181.765 261.541 179.077 243.803C179.077 243.803 228.269 232.961 262.567 243.803C262.567 243.803 264.735 255.122 267.445 273.533C268.203 278.802 269.027 284.636 269.829 290.881C270.328 294.784 270.913 298.969 271.52 303.393C275.054 328.504 279.997 361.053 280.561 391.282L186.708 392.843Z" fill="#29B85D"/>
<path opacity="0.7" d="M186.708 392.843C186.708 392.843 190.199 353.507 185.017 293.678C189.787 255.079 203.467 244.237 203.467 244.237L230.394 243.738C254.849 279.952 260.399 287.932 269.829 290.881C273.19 316.903 279.911 355.719 280.561 391.26L186.708 392.843Z" fill="white"/>
<path opacity="0.2" d="M271.542 303.415C254.415 285.633 262.133 269.521 262.133 269.521L267.445 273.468C268.203 278.737 269.027 284.571 269.829 290.816C270.35 294.914 271 298.991 271.542 303.415Z" fill="black"/>
<path d="M270.371 282.337C270.371 282.337 301.591 303.089 313.601 306.667C325.612 310.245 376.842 276.829 376.842 276.829L396.852 279.431C396.852 279.431 401.188 265.488 396.852 262.083C392.516 258.679 375.584 264.122 373.004 265.987C370.425 267.852 321.84 284.505 319.26 285.503C316.68 286.501 280.236 259.937 280.236 259.937L270.371 282.337Z" fill="#E4897B"/>
<path d="M262.567 243.738C262.567 243.738 247.976 261.867 262.567 286.826L292.68 303.588L308.962 272.752C308.962 272.752 286.588 253.713 262.567 243.738Z" fill="#29B85D"/>
</svg>
