<svg width="195" height="41" viewBox="0 0 195 41" fill="none" xmlns="http://www.w3.org/2000/svg">
<path fill-rule="evenodd" clip-rule="evenodd" d="M27.4401 40.7503C35.7769 38.0044 41.7949 30.1537 41.7949 20.8975C41.7949 9.35611 32.4388 0 20.8975 0C9.35611 0 0 9.35611 0 20.8975C0 29.0372 4.65378 36.09 11.4458 39.5403C11.5311 39.4736 11.6156 39.4102 11.6936 39.3556C12.0869 39.0805 12.7498 38.7269 12.7498 38.7269C12.7498 38.7269 14.8873 40.6633 19.1373 40.7136C23.3872 40.7639 25.5247 39.0036 25.5247 39.0036C25.5247 39.0036 26.5945 39.7865 27.1593 40.4118C27.2504 40.5128 27.3455 40.6286 27.4401 40.7503ZM23.0943 31.9011L23.3649 30.9309C23.381 30.8731 23.4434 30.842 23.4991 30.8642C23.714 30.9499 24.2166 31.1484 24.5726 31.2751C24.9167 31.3976 25.4155 31.5568 25.6242 31.6227C25.6778 31.6396 25.7071 31.6971 25.6893 31.7505L25.3966 32.6316C25.3792 32.6839 25.3231 32.7125 25.2706 32.6958L23.1607 32.024C23.1091 32.0076 23.0798 31.9533 23.0943 31.9011ZM23.3871 32.9934L21.501 39.2299L22.8087 38.6767L24.4433 33.2951L23.3871 32.9934ZM21.5511 8.74027V17.075C21.5511 17.1583 21.6187 17.2259 21.702 17.2259H25.3492C25.9298 17.2259 26.4883 17.0027 26.909 16.6025L27.8195 15.7365C28.1095 15.4606 28.1693 15.0203 27.9634 14.6771L25.3209 10.2729C24.867 9.51651 24.1656 8.94037 23.3354 8.64216L22.3107 8.27406C22.1329 8.21018 21.9355 8.23182 21.7757 8.33273C21.6359 8.42105 21.5511 8.57488 21.5511 8.74027ZM21.3251 4.77802V6.62815C21.3251 6.9505 21.5299 7.23725 21.8348 7.34179L23.4435 7.89333C24.3499 8.20411 25.1199 8.82083 25.621 9.63756L28.6269 14.5359C28.8063 14.8283 29.1355 14.9942 29.4772 14.9643L31.7203 14.7685C31.9284 14.7503 32.0851 14.5759 32.0636 14.3681C31.9581 13.3475 31.3995 10.3864 28.4418 7.79571C24.9966 4.77802 21.3251 4.77802 21.3251 4.77802ZM31.7569 17.5952L32.239 16.0441V16.7985L32.6413 17.1506L35.2541 20.3645C35.3648 20.5007 35.3055 20.7057 35.139 20.7615L32.5776 21.6216C32.3015 21.7143 32.011 21.5259 31.9829 21.2361L31.6918 18.2279C31.6712 18.0148 31.6933 17.7997 31.7569 17.5952ZM25.5784 18.5542L27.7304 24.8517C27.7518 24.9144 27.7814 24.974 27.8184 25.0289L29.3327 27.2794C29.428 27.4211 29.6455 27.387 29.6929 27.2229L31.1215 22.2776C31.1786 22.0799 31.2006 21.8737 31.1865 21.6683L30.9827 18.7047C30.9537 18.2827 30.6029 17.9552 30.1799 17.9552H26.0067C25.6963 17.9552 25.478 18.2605 25.5784 18.5542ZM30.2655 28.289L30.89 25.7909C30.8999 25.7515 30.9325 25.7219 30.9727 25.7159L32.3256 25.5139C32.4893 25.4895 32.6533 25.5564 32.7533 25.6883L32.9664 25.9696C33.1094 26.1583 33.0827 26.4253 32.9053 26.5821L32.3394 27.0822C32.2067 27.1995 32.0525 27.2896 31.8852 27.3476L30.9063 27.6873L32.2277 28.0817C32.4524 28.1488 32.6241 28.3312 32.6774 28.5596L32.8638 29.3586C32.9154 29.5797 32.8943 29.8115 32.8038 30.0197L32.7706 30.096C32.7227 30.2062 32.614 30.2774 32.4939 30.2774H31.7811C31.5625 30.2774 31.3563 30.1759 31.223 30.0026L30.3994 28.932C30.2589 28.7493 30.2096 28.5125 30.2655 28.289ZM16.3962 24.1666V24.745C16.6812 24.8372 17.4323 25.0518 18.1565 25.1725C18.8808 25.2932 19.3301 25.3234 19.4642 25.3234V24.393C19.2211 24.46 18.5841 24.5187 17.8799 24.4936C17.2309 24.4704 16.673 24.2673 16.4357 24.181L16.3962 24.1666ZM17.7288 28.7434L17.9048 26.8071L20.3692 27.5867L20.2183 29.0201L17.7288 28.7434ZM18.3073 30.1516L18.2067 31.4844H19.1372V30.1516H18.3073ZM18.6594 34.1502L18.2822 32.1636H19.1875C19.1959 32.3145 19.2278 32.7018 19.2881 33.0438C19.3485 33.3858 19.5144 33.9239 19.5899 34.1502H18.6594ZM18.8606 34.8039C18.936 35.0554 19.0416 35.6036 19.0617 35.8853C19.0659 35.9437 19.0709 36.0086 19.0761 36.0762C19.0958 36.3344 19.1187 36.6326 19.112 36.7654H20.0173C20.0173 36.4888 19.9318 35.9054 19.8916 35.6841C19.8514 35.4628 19.724 35.0051 19.6653 34.8039H18.8606ZM19.5395 38.4754C19.4992 38.0731 19.3551 37.5869 19.288 37.3941H20.1179C20.1765 37.5785 20.309 38.0127 20.3693 38.2742C20.4297 38.5358 20.4951 39.0873 20.5202 39.3304H19.5898C19.5898 39.2131 19.5797 38.8778 19.5395 38.4754ZM13.3028 27.486L13.9818 32.6413L15.2643 32.4652L14.5854 27.2094C14.5854 27.2094 14.2584 27.4358 13.9818 27.4609C13.7177 27.4849 13.3028 27.486 13.3028 27.486ZM15.164 38.2239L14.5102 33.7728L15.164 33.6722L15.8178 38.4754L15.164 38.2239ZM14.4848 24.6193C14.4848 25.1887 14.0232 25.6503 13.4537 25.6503C12.8843 25.6503 12.4227 25.1887 12.4227 24.6193C12.4227 24.0498 12.8843 23.5882 13.4537 23.5882C14.0232 23.5882 14.4848 24.0498 14.4848 24.6193ZM15.2895 24.6193C15.2895 25.6331 14.4676 26.455 13.4537 26.455C12.4399 26.455 11.618 25.6331 11.618 24.6193C11.618 23.6054 12.4399 22.7835 13.4537 22.7835C14.4676 22.7835 15.2895 23.6054 15.2895 24.6193ZM10.059 21.8782L9.35487 20.8723L9.73208 20.3442L10.6374 21.6267L10.059 21.8782ZM18.3827 17.1002C18.7706 17.1002 19.1199 17.2659 19.3635 17.5305V19.3355C19.1199 19.6001 18.7706 19.7658 18.3827 19.7658C17.6466 19.7658 17.0499 19.1691 17.0499 18.433C17.0499 17.6969 17.6466 17.1002 18.3827 17.1002ZM19.3635 15.4687C19.0415 15.3528 18.6944 15.2896 18.3325 15.2896C16.6519 15.2896 15.2896 16.6519 15.2896 18.3324C15.2896 20.013 16.6519 21.3753 18.3325 21.3753C18.6944 21.3753 19.0415 21.3121 19.3635 21.1961V20.6631C19.0555 20.7977 18.7153 20.8723 18.3576 20.8723C16.9688 20.8723 15.8429 19.7464 15.8429 18.3576C15.8429 16.9687 16.9688 15.8429 18.3576 15.8429C18.7153 15.8429 19.0555 15.9175 19.3635 16.0521V15.4687ZM18.3324 13.2778C18.6859 13.2778 19.0308 13.3149 19.3634 13.3853V14.2045C19.0412 14.1248 18.7043 14.0825 18.3575 14.0825C16.052 14.0825 14.1831 15.9515 14.1831 18.257C14.1831 20.5625 16.052 22.4315 18.3575 22.4315C18.7043 22.4315 19.0412 22.3892 19.3634 22.3095V23.0784C19.0308 23.1488 18.6859 23.1859 18.3324 23.1859C15.5963 23.1859 13.3783 20.9679 13.3783 18.2319C13.3783 15.4958 15.5963 13.2778 18.3324 13.2778ZM19.4389 12.3222V8.90211C19.4389 8.90211 18.4194 9.03519 17.8295 9.17873C16.2673 9.5589 15.2471 10.1343 14.2586 10.8385C12.753 11.9109 11.4289 13.4523 10.6876 14.7866C10.0589 15.9182 9.32967 18.433 9.55601 18.8605C9.60373 18.9506 9.64762 19.034 9.68874 19.1122C9.99335 19.691 10.1464 19.9819 10.587 20.5956C11.0698 21.2681 11.9199 22.1548 11.9199 22.1548C11.9199 22.1548 12.2212 21.9138 12.448 21.8279C12.7077 21.7294 13.1521 21.7273 13.1521 21.7273L12.7497 20.9728C12.7497 20.9728 12.488 20.4535 12.3725 19.967C11.6708 17.0096 13.1431 13.8812 15.9434 12.6994C17.2434 12.1507 19.4389 12.3222 19.4389 12.3222ZM10.8134 18.5336C10.8134 18.8252 10.5769 19.0616 10.2853 19.0616C9.9936 19.0616 9.75717 18.8252 9.75717 18.5336C9.75717 18.2419 9.9936 18.0055 10.2853 18.0055C10.5769 18.0055 10.8134 18.2419 10.8134 18.5336ZM11.4923 15.7925C11.784 15.7925 12.0204 15.5561 12.0204 15.2644C12.0204 14.9727 11.784 14.7363 11.4923 14.7363C11.2007 14.7363 10.9642 14.9727 10.9642 15.2644C10.9642 15.5561 11.2007 15.7925 11.4923 15.7925ZM14.4849 12.1964C14.4849 12.4881 14.2484 12.7245 13.9568 12.7245C13.6651 12.7245 13.4287 12.4881 13.4287 12.1964C13.4287 11.9048 13.6651 11.6683 13.9568 11.6683C14.2484 11.6683 14.4849 11.9048 14.4849 12.1964ZM17.7792 11.0648C18.0708 11.0648 18.3073 10.8283 18.3073 10.5367C18.3073 10.245 18.0708 10.0086 17.7792 10.0086C17.4875 10.0086 17.2511 10.245 17.2511 10.5367C17.2511 10.8283 17.4875 11.0648 17.7792 11.0648ZM19.4389 8.22325V6.28691C19.4389 6.28691 16.0269 6.22223 14.0071 7.49398C11.997 8.75965 10.8888 9.98357 9.78231 12.0708C8.98676 13.5715 8.70043 15.6417 8.80156 16.6979C8.84049 17.1045 8.95248 17.5278 8.95248 17.5278C8.95248 17.5278 9.65842 15.2755 10.3607 14.0574C11.2652 12.4887 12.0506 11.5995 13.479 10.4865C14.7615 9.48717 16.0754 8.88037 18.0307 8.42443C18.603 8.29097 19.4389 8.22325 19.4389 8.22325ZM9.90806 13.8311C10.1303 13.8311 10.3104 13.651 10.3104 13.4288C10.3104 13.2065 10.1303 13.0264 9.90806 13.0264C9.68584 13.0264 9.5057 13.2065 9.5057 13.4288C9.5057 13.651 9.68584 13.8311 9.90806 13.8311ZM12.0707 11.0901C12.0707 11.3817 11.8343 11.6182 11.5426 11.6182C11.251 11.6182 11.0145 11.3817 11.0145 11.0901C11.0145 10.7984 11.251 10.562 11.5426 10.562C11.8343 10.562 12.0707 10.7984 12.0707 11.0901ZM14.3089 9.2543C14.6005 9.2543 14.8369 9.01786 14.8369 8.7262C14.8369 8.43455 14.6005 8.19811 14.3089 8.19811C14.0172 8.19811 13.7808 8.43455 13.7808 8.7262C13.7808 9.01786 14.0172 9.2543 14.3089 9.2543ZM18.2067 7.51913C18.2067 7.81079 17.9703 8.04723 17.6786 8.04723C17.3869 8.04723 17.1505 7.81079 17.1505 7.51913C17.1505 7.22747 17.3869 6.99104 17.6786 6.99104C17.9703 6.99104 18.2067 7.22747 18.2067 7.51913ZM21.6266 25.776L21.5511 18.0306L23.9904 18.0055H24.2419C24.4697 18.0055 24.6746 18.1442 24.7592 18.3557L24.8203 18.5084L27.0558 25.0936C27.1076 25.246 27.18 25.3907 27.2711 25.5234L29.8246 29.2463C30.0744 29.5909 29.76 30.0602 29.3463 29.9601L28.9947 29.875L24.4934 28.7937L24.2403 28.7323C22.8359 28.3914 21.7928 27.2115 21.6266 25.776ZM31.8243 22.3411L31.02 25.268C30.9963 25.354 31.0881 25.4259 31.166 25.3824L33.2679 24.2098C33.3122 24.1851 33.3311 24.1313 33.3121 24.0843L32.8287 22.8871C32.8212 22.8687 32.8086 22.8529 32.7922 22.8417L31.9781 22.2847C31.9211 22.2457 31.8426 22.2745 31.8243 22.3411Z" fill="#29B85D"/>
<path d="M65.8721 17.7027C65.8721 18.2922 65.7955 18.8243 65.6424 19.299C65.4969 19.766 65.3017 20.1794 65.0567 20.5393C64.8117 20.8991 64.5246 21.2053 64.1954 21.458C63.8662 21.7106 63.5255 21.9173 63.1733 22.0781C62.8211 22.2389 62.4613 22.3575 62.0938 22.4341C61.734 22.5107 61.3933 22.5489 61.0718 22.5489H49.5533V19.5631H61.0718C61.646 19.5631 62.09 19.3947 62.4039 19.0578C62.7254 18.721 62.8862 18.2693 62.8862 17.7027C62.8862 17.4271 62.8441 17.1744 62.7599 16.9448C62.6757 16.7151 62.5532 16.516 62.3924 16.3476C62.2393 16.1792 62.0479 16.049 61.8182 15.9571C61.5962 15.8653 61.3474 15.8193 61.0718 15.8193H54.2043C53.722 15.8193 53.2014 15.7351 52.6425 15.5667C52.0836 15.3906 51.563 15.1112 51.0807 14.7284C50.606 14.3456 50.2079 13.8441 49.8864 13.224C49.5725 12.6038 49.4155 11.8459 49.4155 10.9501C49.4155 10.0544 49.5725 9.30028 49.8864 8.6878C50.2079 8.06766 50.606 7.5662 51.0807 7.1834C51.563 6.79294 52.0836 6.5135 52.6425 6.34507C53.2014 6.16898 53.722 6.08094 54.2043 6.08094H64.3677V9.06677H54.2043C53.6378 9.06677 53.1938 9.23903 52.8722 9.58355C52.5583 9.92807 52.4014 10.3836 52.4014 10.9501C52.4014 11.5243 52.5583 11.9799 52.8722 12.3167C53.1938 12.6459 53.6378 12.8105 54.2043 12.8105H61.0718H61.0947C61.4163 12.8182 61.757 12.8641 62.1168 12.9483C62.4766 13.0249 62.8326 13.1474 63.1848 13.3158C63.5446 13.4843 63.8853 13.6986 64.2069 13.9589C64.5284 14.2116 64.8117 14.5178 65.0567 14.8777C65.3093 15.2375 65.5084 15.6509 65.6539 16.1179C65.7993 16.5849 65.8721 17.1132 65.8721 17.7027Z" fill="black"/>
<path d="M85.636 15.8882C85.636 16.8912 85.4637 17.8137 85.1192 18.6559C84.7747 19.498 84.2962 20.2254 83.6837 20.8378C83.0712 21.4503 82.3439 21.9288 81.5017 22.2733C80.6672 22.6102 79.7562 22.7786 78.7685 22.7786H74.7262C73.7386 22.7786 72.8237 22.6102 71.9815 22.2733C71.1394 21.9288 70.412 21.4503 69.7996 20.8378C69.1871 20.2254 68.7048 19.498 68.3526 18.6559C68.0081 17.8137 67.8358 16.8912 67.8358 15.8882V12.7416C67.8358 11.7464 68.0081 10.8276 68.3526 9.98549C68.7048 9.13567 69.1871 8.40835 69.7996 7.80353C70.412 7.19105 71.1394 6.71255 71.9815 6.36804C72.8237 6.02352 73.7386 5.85126 74.7262 5.85126H78.7685C79.7562 5.85126 80.6672 6.02352 81.5017 6.36804C82.3439 6.71255 83.0712 7.19105 83.6837 7.80353C84.2962 8.40835 84.7747 9.13567 85.1192 9.98549C85.4637 10.8276 85.636 11.7464 85.636 12.7416V15.8882ZM82.6501 12.7416C82.6501 12.1521 82.5544 11.62 82.363 11.1454C82.1793 10.663 81.9152 10.2534 81.5706 9.91658C81.2338 9.57206 80.8242 9.30793 80.3419 9.12419C79.8672 8.93279 79.3427 8.83709 78.7685 8.83709H74.7262C74.1443 8.83709 73.6122 8.93279 73.1299 9.12419C72.6552 9.30793 72.2457 9.57206 71.9011 9.91658C71.5566 10.2534 71.2887 10.663 71.0973 11.1454C70.9135 11.62 70.8216 12.1521 70.8216 12.7416V15.8882C70.8216 16.4778 70.9135 17.0137 71.0973 17.496C71.2887 17.9707 71.5566 18.3803 71.9011 18.7248C72.2457 19.0616 72.6552 19.3258 73.1299 19.5172C73.6122 19.7009 74.1443 19.7928 74.7262 19.7928H78.7456C79.3274 19.7928 79.8557 19.7009 80.3304 19.5172C80.8127 19.3258 81.2261 19.0616 81.5706 18.7248C81.9152 18.3803 82.1793 17.9707 82.363 17.496C82.5544 17.0137 82.6501 16.4778 82.6501 15.8882V12.7416Z" fill="black"/>
<path d="M102.207 15.8193H92.7675V12.8105H102.207V15.8193ZM103.539 9.06677H91.5732V22.5489H88.5873V7.58534C88.5873 7.37862 88.6256 7.1834 88.7022 6.99965C88.7787 6.81591 88.8821 6.65513 89.0122 6.51733C89.1501 6.37952 89.3108 6.27234 89.4946 6.19578C89.6783 6.11922 89.8774 6.08094 90.0917 6.08094H103.539V9.06677Z" fill="black"/>
<path d="M120.834 9.06677H114.254V22.5489H111.268V9.06677H104.676V6.08094H120.834V9.06677Z" fill="black"/>
<path d="M139.473 15.6586C139.473 16.6615 139.297 17.584 138.945 18.4262C138.6 19.2684 138.122 19.9957 137.509 20.6082C136.897 21.213 136.169 21.6876 135.327 22.0322C134.485 22.3767 133.57 22.5489 132.582 22.5489H124.521C124.306 22.5489 124.107 22.5107 123.924 22.4341C123.74 22.3575 123.579 22.2542 123.441 22.124C123.311 21.9862 123.208 21.8255 123.131 21.6417C123.055 21.458 123.016 21.2589 123.016 21.0445V7.58534C123.016 7.37862 123.055 7.1834 123.131 6.99965C123.208 6.81591 123.311 6.65513 123.441 6.51733C123.579 6.37952 123.74 6.27234 123.924 6.19578C124.107 6.11922 124.306 6.08094 124.521 6.08094H132.582C133.57 6.08094 134.485 6.2532 135.327 6.59772C136.169 6.94223 136.897 7.42073 137.509 8.03321C138.122 8.63803 138.6 9.36535 138.945 10.2152C139.297 11.0573 139.473 11.976 139.473 12.9713V15.6586ZM136.487 12.9713C136.487 12.3895 136.391 11.8574 136.2 11.375C136.016 10.8927 135.752 10.4831 135.407 10.1463C135.063 9.80174 134.65 9.53761 134.167 9.35387C133.693 9.16247 133.164 9.06677 132.582 9.06677H126.002V19.5631H132.582C133.164 19.5631 133.693 19.4712 134.167 19.2875C134.65 19.0961 135.063 18.832 135.407 18.4951C135.752 18.1506 136.016 17.741 136.2 17.2663C136.391 16.784 136.487 16.2481 136.487 15.6586V12.9713Z" fill="black"/>
<path d="M158.559 22.5489H155.573V18.5066H145.077V22.5489H142.091V14.3149C142.091 13.113 142.298 12.0067 142.711 10.9961C143.125 9.98549 143.699 9.11653 144.434 8.38921C145.169 7.6619 146.038 7.09535 147.041 6.68959C148.044 6.28382 149.138 6.08094 150.325 6.08094H157.055C157.261 6.08094 157.457 6.11922 157.64 6.19578C157.824 6.27234 157.985 6.37952 158.123 6.51733C158.261 6.65513 158.368 6.81591 158.444 6.99965C158.521 7.1834 158.559 7.37862 158.559 7.58534V22.5489ZM145.077 15.5208H155.573V9.06677H150.325C150.233 9.06677 150.038 9.08208 149.739 9.1127C149.449 9.13567 149.108 9.20075 148.717 9.30793C148.335 9.41511 147.929 9.57972 147.5 9.80174C147.071 10.0238 146.677 10.33 146.317 10.7205C145.957 11.1109 145.659 11.6009 145.421 12.1904C145.192 12.7723 145.077 13.4804 145.077 14.3149V15.5208Z" fill="black"/>
<path d="M176.922 9.06677H170.342V22.5489H167.356V9.06677H160.764V6.08094H176.922V9.06677Z" fill="black"/>
<path d="M194.711 22.5489H191.725V18.5066H181.229V22.5489H178.243V14.3149C178.243 13.113 178.449 12.0067 178.863 10.9961C179.276 9.98549 179.85 9.11653 180.585 8.38921C181.32 7.6619 182.189 7.09535 183.192 6.68959C184.195 6.28382 185.29 6.08094 186.477 6.08094H193.206C193.413 6.08094 193.608 6.11922 193.792 6.19578C193.976 6.27234 194.136 6.37952 194.274 6.51733C194.412 6.65513 194.519 6.81591 194.596 6.99965C194.672 7.1834 194.711 7.37862 194.711 7.58534V22.5489ZM181.229 15.5208H191.725V9.06677H186.477C186.385 9.06677 186.19 9.08208 185.891 9.1127C185.6 9.13567 185.259 9.20075 184.869 9.30793C184.486 9.41511 184.08 9.57972 183.652 9.80174C183.223 10.0238 182.829 10.33 182.469 10.7205C182.109 11.1109 181.81 11.6009 181.573 12.1904C181.343 12.7723 181.229 13.4804 181.229 14.3149V15.5208Z" fill="black"/>
<path d="M51.0004 32.063L53.3638 37.1309H52.8194L52.0236 35.4635H49.8393L49.0469 37.1309H48.4819L50.8763 32.063H51.0004ZM50.9384 33.1379L50.0667 34.9742H51.7997L50.9384 33.1379Z" fill="black"/>
<path d="M55.6548 33.3826H56.1475V33.9303C56.2945 33.7144 56.4495 33.5537 56.6126 33.448C56.7757 33.3401 56.9456 33.2861 57.1225 33.2861C57.2557 33.2861 57.3981 33.3286 57.5497 33.4136L57.2982 33.8201C57.1971 33.7765 57.1121 33.7546 57.0432 33.7546C56.8825 33.7546 56.7274 33.8212 56.5781 33.9545C56.4288 34.0854 56.3151 34.2898 56.2371 34.5677C56.1773 34.7813 56.1475 35.2131 56.1475 35.8631V37.1309H55.6548V33.3826Z" fill="black"/>
<path d="M60.1439 31.9907H60.6297V33.3826H61.3945V33.796H60.6297V37.1309H60.1439V33.796H59.4859V33.3826H60.1439V31.9907Z" fill="black"/>
<path d="M64.0473 31.8391C64.1575 31.8391 64.2517 31.8782 64.3298 31.9562C64.4079 32.0343 64.4469 32.1285 64.4469 32.2388C64.4469 32.3467 64.4079 32.4397 64.3298 32.5178C64.2517 32.5959 64.1575 32.635 64.0473 32.635C63.9394 32.635 63.8463 32.5959 63.7682 32.5178C63.6902 32.4397 63.6511 32.3467 63.6511 32.2388C63.6511 32.1285 63.6902 32.0343 63.7682 31.9562C63.8463 31.8782 63.9394 31.8391 64.0473 31.8391ZM63.8061 33.3826H64.2919V37.1309H63.8061V33.3826Z" fill="black"/>
<path d="M68.5984 31.9356V32.4076C68.4215 32.3318 68.27 32.2939 68.1436 32.2939C68.0495 32.2939 67.9714 32.3134 67.9094 32.3524C67.8473 32.3892 67.8083 32.4328 67.7922 32.4834C67.7761 32.5316 67.7681 32.6625 67.7681 32.8761V33.3826H68.5502V33.796H67.7647V37.1309H67.2823V33.796H66.7897V33.3826H67.2823V32.7969C67.2823 32.5281 67.3065 32.3364 67.3547 32.2215C67.4052 32.1067 67.489 32.0148 67.6062 31.9459C67.7256 31.8747 67.8692 31.8391 68.0368 31.8391C68.193 31.8391 68.3802 31.8713 68.5984 31.9356Z" fill="black"/>
<path d="M71.2064 31.8391C71.3167 31.8391 71.4108 31.8782 71.4889 31.9562C71.567 32.0343 71.6061 32.1285 71.6061 32.2388C71.6061 32.3467 71.567 32.4397 71.4889 32.5178C71.4108 32.5959 71.3167 32.635 71.2064 32.635C71.0985 32.635 71.0054 32.5959 70.9273 32.5178C70.8493 32.4397 70.8102 32.3467 70.8102 32.2388C70.8102 32.1285 70.8493 32.0343 70.9273 31.9562C71.0054 31.8782 71.0985 31.8391 71.2064 31.8391ZM70.9652 33.3826H71.451V37.1309H70.9652V33.3826Z" fill="black"/>
<path d="M77.8522 34.1612L77.4698 34.3989C77.139 33.9602 76.6877 33.7409 76.1158 33.7409C75.6587 33.7409 75.2786 33.8879 74.9754 34.1818C74.6746 34.4758 74.5241 34.833 74.5241 35.2533C74.5241 35.5266 74.593 35.7839 74.7308 36.025C74.8709 36.2662 75.0616 36.4534 75.3027 36.5866C75.5462 36.7198 75.8184 36.7864 76.1192 36.7864C76.6705 36.7864 77.1207 36.5671 77.4698 36.1284L77.8522 36.3799C77.673 36.6486 77.4319 36.8576 77.1287 37.0069C76.8278 37.1539 76.4844 37.2274 76.0986 37.2274C75.506 37.2274 75.0145 37.0391 74.624 36.6624C74.2336 36.2857 74.0384 35.8275 74.0384 35.2877C74.0384 34.9249 74.1291 34.5884 74.3105 34.2783C74.4943 33.9659 74.7458 33.7225 75.065 33.5479C75.3843 33.3734 75.7414 33.2861 76.1365 33.2861C76.3845 33.2861 76.6234 33.324 76.8531 33.3998C77.0851 33.4756 77.2814 33.5743 77.4422 33.6961C77.603 33.8178 77.7396 33.9728 77.8522 34.1612Z" fill="black"/>
<path d="M80.7151 31.8391C80.8254 31.8391 80.9195 31.8782 80.9976 31.9562C81.0757 32.0343 81.1148 32.1285 81.1148 32.2388C81.1148 32.3467 81.0757 32.4397 80.9976 32.5178C80.9195 32.5959 80.8254 32.635 80.7151 32.635C80.6072 32.635 80.5142 32.5959 80.4361 32.5178C80.358 32.4397 80.3189 32.3467 80.3189 32.2388C80.3189 32.1285 80.358 32.0343 80.4361 31.9562C80.5142 31.8782 80.6072 31.8391 80.7151 31.8391ZM80.474 33.3826H80.9597V37.1309H80.474V33.3826Z" fill="black"/>
<path d="M87.4574 33.3826V37.1309H86.9819V36.4867C86.7798 36.7324 86.5524 36.9173 86.2998 37.0413C86.0494 37.1654 85.775 37.2274 85.4764 37.2274C84.9458 37.2274 84.4922 37.0356 84.1155 36.652C83.7412 36.2662 83.554 35.7976 83.554 35.2464C83.554 34.7067 83.7435 34.245 84.1224 33.8614C84.5014 33.4779 84.9573 33.2861 85.4902 33.2861C85.7979 33.2861 86.0759 33.3515 86.3239 33.4825C86.5743 33.6134 86.7936 33.8098 86.9819 34.0716V33.3826H87.4574ZM85.5281 33.7512C85.2593 33.7512 85.0113 33.8178 84.7839 33.951C84.5565 34.0819 84.3751 34.2668 84.2396 34.5057C84.1063 34.7446 84.0397 34.9972 84.0397 35.2636C84.0397 35.5278 84.1075 35.7804 84.243 36.0216C84.3785 36.2627 84.56 36.4511 84.7873 36.5866C85.017 36.7198 85.2628 36.7864 85.5246 36.7864C85.7887 36.7864 86.0391 36.7198 86.2757 36.5866C86.5122 36.4534 86.6937 36.2731 86.82 36.0457C86.9486 35.8183 87.0129 35.5622 87.0129 35.2774C87.0129 34.8433 86.8694 34.4804 86.5823 34.1887C86.2975 33.897 85.9461 33.7512 85.5281 33.7512Z" fill="black"/>
<path d="M90.2376 31.9356H90.72V37.1309H90.2376V31.9356Z" fill="black"/>
<path d="M97.2141 32.063H97.7206V37.1309H97.2141V32.063Z" fill="black"/>
<path d="M100.57 33.3826H101.052V34.0544C101.245 33.7971 101.459 33.6053 101.693 33.479C101.927 33.3504 102.182 33.2861 102.458 33.2861C102.738 33.2861 102.986 33.3573 103.202 33.4997C103.42 33.6421 103.581 33.8339 103.684 34.075C103.788 34.3162 103.839 34.6917 103.839 35.2016V37.1309H103.36V35.3429C103.36 34.9111 103.342 34.6228 103.305 34.4781C103.248 34.2301 103.14 34.044 102.981 33.92C102.823 33.7937 102.616 33.7305 102.361 33.7305C102.07 33.7305 101.808 33.827 101.576 34.0199C101.346 34.2128 101.194 34.4517 101.121 34.7365C101.075 34.9226 101.052 35.2625 101.052 35.7563V37.1309H100.57V33.3826Z" fill="black"/>
<path d="M107.061 31.9907H107.546V33.3826H108.311V33.796H107.546V37.1309H107.061V33.796H106.402V33.3826H107.061V31.9907Z" fill="black"/>
<path d="M113.951 35.8872L114.357 36.1008C114.224 36.3626 114.07 36.574 113.896 36.7347C113.721 36.8955 113.525 37.0184 113.307 37.1034C113.088 37.186 112.842 37.2274 112.566 37.2274C111.955 37.2274 111.477 37.0276 111.133 36.6279C110.788 36.226 110.616 35.7724 110.616 35.2671C110.616 34.7916 110.762 34.3679 111.053 33.9958C111.423 33.5227 111.918 33.2861 112.538 33.2861C113.177 33.2861 113.687 33.5284 114.068 34.013C114.339 34.3552 114.477 34.7825 114.481 35.2946H111.112C111.121 35.731 111.26 36.0893 111.529 36.3695C111.798 36.6474 112.13 36.7864 112.525 36.7864C112.715 36.7864 112.9 36.7531 113.079 36.6865C113.261 36.6199 113.415 36.5315 113.541 36.4212C113.667 36.311 113.804 36.133 113.951 35.8872ZM113.951 34.8778C113.887 34.6205 113.792 34.415 113.668 34.2611C113.547 34.1072 113.385 33.9832 113.183 33.889C112.98 33.7948 112.768 33.7477 112.545 33.7477C112.178 33.7477 111.862 33.866 111.598 34.1026C111.405 34.2749 111.259 34.5333 111.16 34.8778H113.951Z" fill="black"/>
<path d="M117.076 31.9356H117.558V37.1309H117.076V31.9356Z" fill="black"/>
<path d="M120.252 31.9356H120.734V37.1309H120.252V31.9356Z" fill="black"/>
<path d="M123.67 31.8391C123.78 31.8391 123.874 31.8782 123.952 31.9562C124.03 32.0343 124.069 32.1285 124.069 32.2388C124.069 32.3467 124.03 32.4397 123.952 32.5178C123.874 32.5959 123.78 32.635 123.67 32.635C123.562 32.635 123.469 32.5959 123.391 32.5178C123.313 32.4397 123.274 32.3467 123.274 32.2388C123.274 32.1285 123.313 32.0343 123.391 31.9562C123.469 31.8782 123.562 31.8391 123.67 31.8391ZM123.429 33.3826H123.914V37.1309H123.429V33.3826Z" fill="black"/>
<path d="M129.906 33.3826H130.391V36.3695C130.391 36.8955 130.345 37.2802 130.254 37.5237C130.127 37.8682 129.908 38.1335 129.595 38.3195C129.283 38.5056 128.908 38.5986 128.469 38.5986C128.147 38.5986 127.858 38.5526 127.601 38.4608C127.346 38.3712 127.138 38.2495 126.977 38.0956C126.816 37.944 126.668 37.7212 126.533 37.4272H127.056C127.199 37.6753 127.383 37.859 127.608 37.9784C127.833 38.0979 128.112 38.1576 128.445 38.1576C128.773 38.1576 129.05 38.0956 129.275 37.9715C129.502 37.8498 129.664 37.6959 129.761 37.5099C129.857 37.3239 129.906 37.0241 129.906 36.6107V36.4178C129.724 36.6474 129.502 36.8243 129.241 36.9483C128.979 37.0701 128.701 37.1309 128.407 37.1309C128.062 37.1309 127.739 37.0459 127.435 36.876C127.132 36.7037 126.898 36.4729 126.733 36.1835C126.567 35.8941 126.484 35.576 126.484 35.2292C126.484 34.8824 126.571 34.5597 126.743 34.2611C126.915 33.9602 127.153 33.7225 127.456 33.5479C127.762 33.3734 128.083 33.2861 128.421 33.2861C128.701 33.2861 128.962 33.3447 129.203 33.4618C129.446 33.5766 129.68 33.7673 129.906 34.0337V33.3826ZM128.483 33.7512C128.209 33.7512 127.956 33.8178 127.721 33.951C127.487 34.0819 127.303 34.2645 127.17 34.4988C127.037 34.7308 126.97 34.9823 126.97 35.2533C126.97 35.6644 127.108 36.0043 127.384 36.2731C127.659 36.5418 128.016 36.6762 128.455 36.6762C128.898 36.6762 129.254 36.5429 129.523 36.2765C129.794 36.0101 129.93 35.6598 129.93 35.2257C129.93 34.9432 129.868 34.6917 129.744 34.4712C129.62 34.2484 129.444 34.0727 129.217 33.9441C128.989 33.8155 128.745 33.7512 128.483 33.7512Z" fill="black"/>
<path d="M136.345 35.8872L136.751 36.1008C136.618 36.3626 136.464 36.574 136.289 36.7347C136.115 36.8955 135.919 37.0184 135.7 37.1034C135.482 37.186 135.235 37.2274 134.96 37.2274C134.349 37.2274 133.871 37.0276 133.526 36.6279C133.182 36.226 133.01 35.7724 133.01 35.2671C133.01 34.7916 133.156 34.3679 133.447 33.9958C133.817 33.5227 134.312 33.2861 134.932 33.2861C135.571 33.2861 136.08 33.5284 136.462 34.013C136.733 34.3552 136.871 34.7825 136.875 35.2946H133.506C133.515 35.731 133.654 36.0893 133.923 36.3695C134.191 36.6474 134.523 36.7864 134.918 36.7864C135.109 36.7864 135.294 36.7531 135.473 36.6865C135.654 36.6199 135.808 36.5315 135.935 36.4212C136.061 36.311 136.198 36.133 136.345 35.8872ZM136.345 34.8778C136.28 34.6205 136.186 34.415 136.062 34.2611C135.94 34.1072 135.778 33.9832 135.576 33.889C135.374 33.7948 135.162 33.7477 134.939 33.7477C134.571 33.7477 134.256 33.866 133.992 34.1026C133.799 34.2749 133.653 34.5333 133.554 34.8778H136.345Z" fill="black"/>
<path d="M139.542 33.3826H140.024V34.0544C140.217 33.7971 140.431 33.6053 140.665 33.479C140.899 33.3504 141.154 33.2861 141.43 33.2861C141.71 33.2861 141.958 33.3573 142.174 33.4997C142.392 33.6421 142.553 33.8339 142.656 34.075C142.76 34.3162 142.811 34.6917 142.811 35.2016V37.1309H142.332V35.3429C142.332 34.9111 142.314 34.6228 142.277 34.4781C142.22 34.2301 142.112 34.044 141.953 33.92C141.795 33.7937 141.588 33.7305 141.333 33.7305C141.042 33.7305 140.78 33.827 140.548 34.0199C140.318 34.2128 140.166 34.4517 140.093 34.7365C140.047 34.9226 140.024 35.2625 140.024 35.7563V37.1309H139.542V33.3826Z" fill="black"/>
<path d="M149.25 34.1612L148.868 34.3989C148.537 33.9602 148.086 33.7409 147.514 33.7409C147.057 33.7409 146.677 33.8879 146.374 34.1818C146.073 34.4758 145.922 34.833 145.922 35.2533C145.922 35.5266 145.991 35.7839 146.129 36.025C146.269 36.2662 146.46 36.4534 146.701 36.5866C146.944 36.7198 147.216 36.7864 147.517 36.7864C148.069 36.7864 148.519 36.5671 148.868 36.1284L149.25 36.3799C149.071 36.6486 148.83 36.8576 148.527 37.0069C148.226 37.1539 147.883 37.2274 147.497 37.2274C146.904 37.2274 146.413 37.0391 146.022 36.6624C145.632 36.2857 145.436 35.8275 145.436 35.2877C145.436 34.9249 145.527 34.5884 145.709 34.2783C145.892 33.9659 146.144 33.7225 146.463 33.5479C146.782 33.3734 147.14 33.2861 147.535 33.2861C147.783 33.2861 148.022 33.324 148.251 33.3998C148.483 33.4756 148.68 33.5743 148.84 33.6961C149.001 33.8178 149.138 33.9728 149.25 34.1612Z" fill="black"/>
<path d="M155.1 35.8872L155.507 36.1008C155.374 36.3626 155.22 36.574 155.045 36.7347C154.871 36.8955 154.674 37.0184 154.456 37.1034C154.238 37.186 153.991 37.2274 153.715 37.2274C153.104 37.2274 152.627 37.0276 152.282 36.6279C151.938 36.226 151.765 35.7724 151.765 35.2671C151.765 34.7916 151.911 34.3679 152.203 33.9958C152.573 33.5227 153.068 33.2861 153.688 33.2861C154.326 33.2861 154.836 33.5284 155.217 34.013C155.488 34.3552 155.626 34.7825 155.631 35.2946H152.261C152.271 35.731 152.41 36.0893 152.678 36.3695C152.947 36.6474 153.279 36.7864 153.674 36.7864C153.865 36.7864 154.049 36.7531 154.229 36.6865C154.41 36.6199 154.564 36.5315 154.69 36.4212C154.817 36.311 154.953 36.133 155.1 35.8872ZM155.1 34.8778C155.036 34.6205 154.942 34.415 154.818 34.2611C154.696 34.1072 154.534 33.9832 154.332 33.889C154.13 33.7948 153.917 33.7477 153.695 33.7477C153.327 33.7477 153.011 33.866 152.747 34.1026C152.554 34.2749 152.408 34.5333 152.31 34.8778H155.1Z" fill="black"/>
<path d="M161.574 36.1869L162.004 35.9286C162.308 36.4867 162.658 36.7657 163.055 36.7657C163.225 36.7657 163.385 36.7267 163.534 36.6486C163.683 36.5682 163.797 36.4614 163.875 36.3282C163.953 36.195 163.992 36.0537 163.992 35.9044C163.992 35.7345 163.935 35.568 163.82 35.4049C163.662 35.1798 163.372 34.9088 162.952 34.5918C162.529 34.2726 162.266 34.0417 162.163 33.8993C161.984 33.6605 161.894 33.4021 161.894 33.1242C161.894 32.9037 161.947 32.7027 162.053 32.5213C162.158 32.3398 162.306 32.1974 162.497 32.0941C162.69 31.9884 162.899 31.9356 163.124 31.9356C163.363 31.9356 163.586 31.9953 163.792 32.1147C164.001 32.2319 164.222 32.4489 164.454 32.7659L164.041 33.0794C163.85 32.8267 163.687 32.6602 163.551 32.5798C163.418 32.4994 163.272 32.4592 163.114 32.4592C162.909 32.4592 162.742 32.5213 162.611 32.6453C162.482 32.7693 162.418 32.922 162.418 33.1035C162.418 33.2137 162.441 33.3205 162.487 33.4239C162.533 33.5273 162.616 33.6398 162.738 33.7615C162.805 33.8258 163.023 33.9947 163.393 34.268C163.831 34.5918 164.132 34.8801 164.295 35.1327C164.459 35.3854 164.54 35.6392 164.54 35.8941C164.54 36.2616 164.4 36.5808 164.12 36.8519C163.842 37.1229 163.503 37.2584 163.103 37.2584C162.796 37.2584 162.517 37.1769 162.266 37.0138C162.016 36.8484 161.785 36.5728 161.574 36.1869Z" fill="black"/>
<path d="M166.893 33.3826H167.403L168.692 36.2696L169.942 33.3826H170.455L168.22 38.5021H167.71L168.433 36.8484L166.893 33.3826Z" fill="black"/>
<path d="M174.727 33.7925L174.417 34.1129C174.16 33.8626 173.909 33.7374 173.663 33.7374C173.507 33.7374 173.372 33.7891 173.26 33.8924C173.15 33.9958 173.094 34.1164 173.094 34.2542C173.094 34.3759 173.14 34.4919 173.232 34.6022C173.324 34.7147 173.517 34.8468 173.811 34.9984C174.169 35.1844 174.413 35.3635 174.541 35.5358C174.668 35.7104 174.731 35.9067 174.731 36.1249C174.731 36.4327 174.623 36.6934 174.407 36.907C174.191 37.1206 173.921 37.2274 173.597 37.2274C173.382 37.2274 173.175 37.1803 172.977 37.0861C172.782 36.992 172.62 36.8622 172.492 36.6968L172.795 36.3523C173.04 36.6302 173.301 36.7692 173.577 36.7692C173.77 36.7692 173.934 36.7072 174.069 36.5831C174.205 36.4591 174.273 36.3133 174.273 36.1456C174.273 36.0078 174.228 35.8849 174.138 35.777C174.049 35.6713 173.847 35.5381 173.532 35.3773C173.194 35.2028 172.965 35.0305 172.843 34.8605C172.721 34.6906 172.66 34.4965 172.66 34.2783C172.66 33.9935 172.757 33.7569 172.95 33.5686C173.145 33.3803 173.391 33.2861 173.687 33.2861C174.032 33.2861 174.378 33.4549 174.727 33.7925Z" fill="black"/>
<path d="M177.77 31.9907H178.255V33.3826H179.02V33.796H178.255V37.1309H177.77V33.796H177.112V33.3826H177.77V31.9907Z" fill="black"/>
<path d="M184.66 35.8872L185.066 36.1008C184.933 36.3626 184.779 36.574 184.605 36.7347C184.43 36.8955 184.234 37.0184 184.016 37.1034C183.798 37.186 183.551 37.2274 183.275 37.2274C182.664 37.2274 182.186 37.0276 181.842 36.6279C181.497 36.226 181.325 35.7724 181.325 35.2671C181.325 34.7916 181.471 34.3679 181.763 33.9958C182.132 33.5227 182.627 33.2861 183.247 33.2861C183.886 33.2861 184.396 33.5284 184.777 34.013C185.048 34.3552 185.186 34.7825 185.191 35.2946H181.821C181.83 35.731 181.969 36.0893 182.238 36.3695C182.507 36.6474 182.839 36.7864 183.234 36.7864C183.424 36.7864 183.609 36.7531 183.788 36.6865C183.97 36.6199 184.124 36.5315 184.25 36.4212C184.376 36.311 184.513 36.133 184.66 35.8872ZM184.66 34.8778C184.596 34.6205 184.501 34.415 184.377 34.2611C184.256 34.1072 184.094 33.9832 183.892 33.889C183.69 33.7948 183.477 33.7477 183.254 33.7477C182.887 33.7477 182.571 33.866 182.307 34.1026C182.114 34.2749 181.968 34.5333 181.869 34.8778H184.66Z" fill="black"/>
<path d="M187.854 33.3826H188.333V34.0303C188.5 33.7914 188.672 33.6168 188.849 33.5066C189.093 33.3596 189.349 33.2861 189.618 33.2861C189.799 33.2861 189.971 33.3217 190.134 33.3929C190.297 33.4641 190.431 33.5594 190.534 33.6788C190.637 33.796 190.727 33.9648 190.803 34.1853C190.964 33.8913 191.164 33.6685 191.406 33.5169C191.647 33.363 191.906 33.2861 192.184 33.2861C192.444 33.2861 192.672 33.3515 192.87 33.4825C193.07 33.6134 193.218 33.796 193.314 34.0303C193.411 34.2645 193.459 34.6159 193.459 35.0845V37.1309H192.966V35.0845C192.966 34.6825 192.938 34.4069 192.88 34.2576C192.823 34.106 192.724 33.9843 192.584 33.8924C192.446 33.8006 192.281 33.7546 192.088 33.7546C191.854 33.7546 191.639 33.8235 191.444 33.9613C191.251 34.0992 191.109 34.2829 191.02 34.5126C190.93 34.7423 190.885 35.1258 190.885 35.6633V37.1309H190.407V35.212C190.407 34.7595 190.378 34.4529 190.32 34.2921C190.265 34.129 190.168 33.9992 190.028 33.9028C189.887 33.804 189.721 33.7546 189.528 33.7546C189.305 33.7546 189.096 33.8224 188.901 33.9579C188.708 34.0911 188.565 34.2714 188.47 34.4988C188.378 34.7262 188.333 35.0741 188.333 35.5427V37.1309H187.854V33.3826Z" fill="black"/>
</svg>
