<svg width="289" height="85" viewBox="0 0 289 85" fill="none" xmlns="http://www.w3.org/2000/svg">
<path fill-rule="evenodd" clip-rule="evenodd" d="M51.4401 61.7503C59.7769 59.0044 65.7949 51.1537 65.7949 41.8975C65.7949 30.3561 56.4388 21 44.8975 21C33.3561 21 24 30.3561 24 41.8975C24 50.0372 28.6538 57.09 35.4458 60.5403C35.5311 60.4736 35.6156 60.4102 35.6936 60.3556C36.0869 60.0805 36.7498 59.7269 36.7498 59.7269C36.7498 59.7269 38.8873 61.6633 43.1373 61.7136C47.3872 61.7639 49.5247 60.0036 49.5247 60.0036C49.5247 60.0036 50.5945 60.7865 51.1593 61.4118C51.2504 61.5128 51.3455 61.6286 51.4401 61.7503ZM47.0943 52.9011L47.3649 51.9309C47.381 51.8731 47.4434 51.842 47.4991 51.8642C47.714 51.9499 48.2166 52.1484 48.5726 52.2751C48.9167 52.3976 49.4155 52.5568 49.6242 52.6227C49.6778 52.6396 49.7071 52.6971 49.6893 52.7505L49.3966 53.6316C49.3792 53.6839 49.3231 53.7125 49.2706 53.6958L47.1607 53.024C47.1091 53.0076 47.0798 52.9533 47.0943 52.9011ZM47.3871 53.9934L45.501 60.2299L46.8087 59.6767L48.4433 54.2951L47.3871 53.9934ZM45.5511 29.7403V38.075C45.5511 38.1583 45.6187 38.2259 45.702 38.2259H49.3492C49.9298 38.2259 50.4883 38.0027 50.909 37.6025L51.8195 36.7365C52.1095 36.4606 52.1693 36.0203 51.9634 35.6771L49.3209 31.2729C48.867 30.5165 48.1656 29.9404 47.3354 29.6422L46.3107 29.2741C46.1329 29.2102 45.9355 29.2318 45.7757 29.3327C45.6359 29.421 45.5511 29.5749 45.5511 29.7403ZM45.3251 25.778V27.6282C45.3251 27.9505 45.5299 28.2372 45.8348 28.3418L47.4435 28.8933C48.3499 29.2041 49.1199 29.8208 49.621 30.6376L52.6269 35.5359C52.8063 35.8283 53.1355 35.9942 53.4772 35.9643L55.7203 35.7685C55.9284 35.7503 56.0851 35.5759 56.0636 35.3681C55.9581 34.3475 55.3995 31.3864 52.4418 28.7957C48.9966 25.778 45.3251 25.778 45.3251 25.778ZM55.7569 38.5952L56.239 37.0441V37.7985L56.6413 38.1506L59.2541 41.3645C59.3648 41.5007 59.3055 41.7057 59.139 41.7615L56.5776 42.6216C56.3015 42.7143 56.011 42.5259 55.9829 42.2361L55.6918 39.2279C55.6712 39.0148 55.6933 38.7997 55.7569 38.5952ZM49.5784 39.5542L51.7304 45.8517C51.7518 45.9144 51.7814 45.974 51.8184 46.0289L53.3327 48.2794C53.428 48.4211 53.6455 48.387 53.6929 48.2229L55.1215 43.2776C55.1786 43.0799 55.2006 42.8737 55.1865 42.6683L54.9827 39.7047C54.9537 39.2827 54.6029 38.9552 54.1799 38.9552H50.0067C49.6963 38.9552 49.478 39.2605 49.5784 39.5542ZM54.2655 49.289L54.89 46.7909C54.8999 46.7515 54.9325 46.7219 54.9727 46.7159L56.3256 46.5139C56.4893 46.4895 56.6533 46.5564 56.7533 46.6883L56.9664 46.9696C57.1094 47.1583 57.0827 47.4253 56.9053 47.5821L56.3394 48.0822C56.2067 48.1995 56.0525 48.2896 55.8852 48.3476L54.9063 48.6873L56.2277 49.0817C56.4524 49.1488 56.6241 49.3312 56.6774 49.5596L56.8638 50.3586C56.9154 50.5797 56.8943 50.8115 56.8038 51.0197L56.7706 51.096C56.7227 51.2062 56.614 51.2774 56.4939 51.2774H55.7811C55.5625 51.2774 55.3563 51.1759 55.223 51.0026L54.3994 49.932C54.2589 49.7493 54.2096 49.5125 54.2655 49.289ZM40.3962 45.1666V45.745C40.6812 45.8372 41.4323 46.0518 42.1565 46.1725C42.8808 46.2932 43.3301 46.3234 43.4642 46.3234V45.393C43.2211 45.46 42.5841 45.5187 41.8799 45.4936C41.2309 45.4704 40.673 45.2673 40.4357 45.181L40.3962 45.1666ZM41.7288 49.7434L41.9048 47.8071L44.3692 48.5867L44.2183 50.0201L41.7288 49.7434ZM42.3073 51.1516L42.2067 52.4844H43.1372V51.1516H42.3073ZM42.6594 55.1502L42.2822 53.1636H43.1875C43.1959 53.3145 43.2278 53.7018 43.2881 54.0438C43.3485 54.3858 43.5144 54.9239 43.5899 55.1502H42.6594ZM42.8606 55.8039C42.936 56.0554 43.0416 56.6036 43.0617 56.8853C43.0659 56.9437 43.0709 57.0086 43.0761 57.0762C43.0958 57.3344 43.1187 57.6326 43.112 57.7654H44.0173C44.0173 57.4888 43.9318 56.9054 43.8916 56.6841C43.8514 56.4628 43.724 56.0051 43.6653 55.8039H42.8606ZM43.5395 59.4754C43.4992 59.0731 43.3551 58.5869 43.288 58.3941H44.1179C44.1765 58.5785 44.309 59.0127 44.3693 59.2742C44.4297 59.5358 44.4951 60.0873 44.5202 60.3304H43.5898C43.5898 60.2131 43.5797 59.8778 43.5395 59.4754ZM37.3028 48.486L37.9818 53.6413L39.2643 53.4652L38.5854 48.2094C38.5854 48.2094 38.2584 48.4358 37.9818 48.4609C37.7177 48.4849 37.3028 48.486 37.3028 48.486ZM39.164 59.2239L38.5102 54.7728L39.164 54.6722L39.8178 59.4754L39.164 59.2239ZM38.4848 45.6193C38.4848 46.1887 38.0232 46.6503 37.4537 46.6503C36.8843 46.6503 36.4227 46.1887 36.4227 45.6193C36.4227 45.0498 36.8843 44.5882 37.4537 44.5882C38.0232 44.5882 38.4848 45.0498 38.4848 45.6193ZM39.2895 45.6193C39.2895 46.6331 38.4676 47.455 37.4537 47.455C36.4399 47.455 35.618 46.6331 35.618 45.6193C35.618 44.6054 36.4399 43.7835 37.4537 43.7835C38.4676 43.7835 39.2895 44.6054 39.2895 45.6193ZM34.059 42.8782L33.3549 41.8723L33.7321 41.3442L34.6374 42.6267L34.059 42.8782ZM42.3827 38.1002C42.7706 38.1002 43.1199 38.2659 43.3635 38.5305V40.3355C43.1199 40.6001 42.7706 40.7658 42.3827 40.7658C41.6466 40.7658 41.0499 40.1691 41.0499 39.433C41.0499 38.6969 41.6466 38.1002 42.3827 38.1002ZM43.3635 36.4687C43.0415 36.3528 42.6944 36.2896 42.3325 36.2896C40.6519 36.2896 39.2896 37.6519 39.2896 39.3324C39.2896 41.013 40.6519 42.3753 42.3325 42.3753C42.6944 42.3753 43.0415 42.3121 43.3635 42.1961V41.6631C43.0555 41.7977 42.7153 41.8723 42.3576 41.8723C40.9688 41.8723 39.8429 40.7464 39.8429 39.3576C39.8429 37.9687 40.9688 36.8429 42.3576 36.8429C42.7153 36.8429 43.0555 36.9175 43.3635 37.0521V36.4687ZM42.3324 34.2778C42.6859 34.2778 43.0308 34.3149 43.3634 34.3853V35.2045C43.0412 35.1248 42.7043 35.0825 42.3575 35.0825C40.052 35.0825 38.1831 36.9515 38.1831 39.257C38.1831 41.5625 40.052 43.4315 42.3575 43.4315C42.7043 43.4315 43.0412 43.3892 43.3634 43.3095V44.0784C43.0308 44.1488 42.6859 44.1859 42.3324 44.1859C39.5963 44.1859 37.3783 41.9679 37.3783 39.2319C37.3783 36.4958 39.5963 34.2778 42.3324 34.2778ZM43.4389 33.3222V29.9021C43.4389 29.9021 42.4194 30.0352 41.8295 30.1787C40.2673 30.5589 39.2471 31.1343 38.2586 31.8385C36.753 32.9109 35.4289 34.4523 34.6876 35.7866C34.0589 36.9182 33.3297 39.433 33.556 39.8605C33.6037 39.9506 33.6476 40.034 33.6887 40.1122C33.9933 40.691 34.1464 40.9819 34.587 41.5956C35.0698 42.2681 35.9199 43.1548 35.9199 43.1548C35.9199 43.1548 36.2212 42.9138 36.448 42.8279C36.7077 42.7294 37.1521 42.7273 37.1521 42.7273L36.7497 41.9728C36.7497 41.9728 36.488 41.4535 36.3725 40.967C35.6708 38.0096 37.1431 34.8812 39.9434 33.6994C41.2434 33.1507 43.4389 33.3222 43.4389 33.3222ZM34.8134 39.5336C34.8134 39.8252 34.5769 40.0616 34.2853 40.0616C33.9936 40.0616 33.7572 39.8252 33.7572 39.5336C33.7572 39.2419 33.9936 39.0055 34.2853 39.0055C34.5769 39.0055 34.8134 39.2419 34.8134 39.5336ZM35.4923 36.7925C35.784 36.7925 36.0204 36.5561 36.0204 36.2644C36.0204 35.9727 35.784 35.7363 35.4923 35.7363C35.2007 35.7363 34.9642 35.9727 34.9642 36.2644C34.9642 36.5561 35.2007 36.7925 35.4923 36.7925ZM38.4849 33.1964C38.4849 33.4881 38.2484 33.7245 37.9568 33.7245C37.6651 33.7245 37.4287 33.4881 37.4287 33.1964C37.4287 32.9048 37.6651 32.6683 37.9568 32.6683C38.2484 32.6683 38.4849 32.9048 38.4849 33.1964ZM41.7792 32.0648C42.0708 32.0648 42.3073 31.8283 42.3073 31.5367C42.3073 31.245 42.0708 31.0086 41.7792 31.0086C41.4875 31.0086 41.2511 31.245 41.2511 31.5367C41.2511 31.8283 41.4875 32.0648 41.7792 32.0648ZM43.4389 29.2233V27.2869C43.4389 27.2869 40.0269 27.2222 38.0071 28.494C35.997 29.7596 34.8888 30.9836 33.7823 33.0708C32.9868 34.5715 32.7004 36.6417 32.8016 37.6979C32.8405 38.1045 32.9525 38.5278 32.9525 38.5278C32.9525 38.5278 33.6584 36.2755 34.3607 35.0574C35.2652 33.4887 36.0506 32.5995 37.479 31.4865C38.7615 30.4872 40.0754 29.8804 42.0307 29.4244C42.603 29.291 43.4389 29.2233 43.4389 29.2233ZM33.9081 34.8311C34.1303 34.8311 34.3104 34.651 34.3104 34.4288C34.3104 34.2065 34.1303 34.0264 33.9081 34.0264C33.6858 34.0264 33.5057 34.2065 33.5057 34.4288C33.5057 34.651 33.6858 34.8311 33.9081 34.8311ZM36.0707 32.0901C36.0707 32.3817 35.8343 32.6182 35.5426 32.6182C35.251 32.6182 35.0145 32.3817 35.0145 32.0901C35.0145 31.7984 35.251 31.562 35.5426 31.562C35.8343 31.562 36.0707 31.7984 36.0707 32.0901ZM38.3089 30.2543C38.6005 30.2543 38.8369 30.0179 38.8369 29.7262C38.8369 29.4345 38.6005 29.1981 38.3089 29.1981C38.0172 29.1981 37.7808 29.4345 37.7808 29.7262C37.7808 30.0179 38.0172 30.2543 38.3089 30.2543ZM42.2067 28.5191C42.2067 28.8108 41.9703 29.0472 41.6786 29.0472C41.3869 29.0472 41.1505 28.8108 41.1505 28.5191C41.1505 28.2275 41.3869 27.991 41.6786 27.991C41.9703 27.991 42.2067 28.2275 42.2067 28.5191ZM45.6266 46.776L45.5511 39.0306L47.9904 39.0055H48.2419C48.4697 39.0055 48.6746 39.1442 48.7592 39.3557L48.8203 39.5084L51.0558 46.0936C51.1076 46.246 51.18 46.3907 51.2711 46.5234L53.8246 50.2463C54.0744 50.5909 53.76 51.0602 53.3463 50.9601L52.9947 50.875L48.4934 49.7937L48.2403 49.7323C46.8359 49.3914 45.7928 48.2115 45.6266 46.776ZM55.8243 43.3411L55.02 46.268C54.9963 46.354 55.0881 46.4259 55.166 46.3824L57.2679 45.2098C57.3122 45.1851 57.3311 45.1313 57.3121 45.0843L56.8287 43.8871C56.8212 43.8687 56.8086 43.8529 56.7922 43.8417L55.9781 43.2847C55.9211 43.2457 55.8426 43.2745 55.8243 43.3411Z" fill="#29B85D"/>
<path d="M89.8722 38.7028C89.8722 39.2923 89.7956 39.8244 89.6425 40.299C89.497 40.7661 89.3018 41.1795 89.0568 41.5393C88.8118 41.8991 88.5247 42.2054 88.1955 42.458C87.8663 42.7107 87.5256 42.9174 87.1734 43.0782C86.8213 43.2389 86.4614 43.3576 86.0939 43.4342C85.7341 43.5107 85.3934 43.549 85.0719 43.549H73.5535V40.5632H85.0719C85.6461 40.5632 86.0901 40.3947 86.404 40.0579C86.7256 39.721 86.8863 39.2693 86.8863 38.7028C86.8863 38.4272 86.8442 38.1745 86.76 37.9448C86.6758 37.7152 86.5533 37.5161 86.3925 37.3477C86.2394 37.1792 86.048 37.0491 85.8183 36.9572C85.5963 36.8653 85.3475 36.8194 85.0719 36.8194H78.2045C77.7221 36.8194 77.2015 36.7352 76.6426 36.5668C76.0838 36.3907 75.5632 36.1112 75.0808 35.7284C74.6062 35.3456 74.208 34.8442 73.8865 34.224C73.5726 33.6039 73.4156 32.8459 73.4156 31.9502C73.4156 31.0545 73.5726 30.3003 73.8865 29.6879C74.208 29.0677 74.6062 28.5663 75.0808 28.1835C75.5632 27.793 76.0838 27.5136 76.6426 27.3451C77.2015 27.169 77.7221 27.081 78.2045 27.081H88.3678V30.0668H78.2045C77.6379 30.0668 77.1939 30.2391 76.8723 30.5836C76.5584 30.9281 76.4015 31.3837 76.4015 31.9502C76.4015 32.5244 76.5584 32.9799 76.8723 33.3168C77.1939 33.646 77.6379 33.8106 78.2045 33.8106H85.0719H85.0948C85.4164 33.8183 85.7571 33.8642 86.1169 33.9484C86.4767 34.025 86.8328 34.1475 87.1849 34.3159C87.5448 34.4843 87.8854 34.6987 88.207 34.959C88.5286 35.2116 88.8118 35.5179 89.0568 35.8777C89.3095 36.2375 89.5085 36.651 89.654 37.118C89.7994 37.585 89.8722 38.1133 89.8722 38.7028Z" fill="white"/>
<path d="M109.636 36.8883C109.636 37.8912 109.464 38.8138 109.119 39.6559C108.775 40.4981 108.296 41.2254 107.684 41.8379C107.071 42.4504 106.344 42.9289 105.502 43.2734C104.667 43.6103 103.756 43.7787 102.769 43.7787H98.7263C97.7387 43.7787 96.8238 43.6103 95.9816 43.2734C95.1395 42.9289 94.4122 42.4504 93.7997 41.8379C93.1872 41.2254 92.7049 40.4981 92.3527 39.6559C92.0082 38.8138 91.8359 37.8912 91.8359 36.8883V33.7417C91.8359 32.7464 92.0082 31.8277 92.3527 30.9855C92.7049 30.1357 93.1872 29.4084 93.7997 28.8036C94.4122 28.1911 95.1395 27.7126 95.9816 27.3681C96.8238 27.0236 97.7387 26.8513 98.7263 26.8513H102.769C103.756 26.8513 104.667 27.0236 105.502 27.3681C106.344 27.7126 107.071 28.1911 107.684 28.8036C108.296 29.4084 108.775 30.1357 109.119 30.9855C109.464 31.8277 109.636 32.7464 109.636 33.7417V36.8883ZM106.65 33.7417C106.65 33.1522 106.555 32.6201 106.363 32.1454C106.179 31.6631 105.915 31.2535 105.571 30.9166C105.234 30.5721 104.824 30.308 104.342 30.1242C103.867 29.9328 103.343 29.8371 102.769 29.8371H98.7263C98.1445 29.8371 97.6124 29.9328 97.13 30.1242C96.6554 30.308 96.2458 30.5721 95.9013 30.9166C95.5567 31.2535 95.2888 31.6631 95.0974 32.1454C94.9136 32.6201 94.8218 33.1522 94.8218 33.7417V36.8883C94.8218 37.4778 94.9136 38.0137 95.0974 38.4961C95.2888 38.9707 95.5567 39.3803 95.9013 39.7248C96.2458 40.0617 96.6554 40.3258 97.13 40.5172C97.6124 40.701 98.1445 40.7929 98.7263 40.7929H102.746C103.328 40.7929 103.856 40.701 104.33 40.5172C104.813 40.3258 105.226 40.0617 105.571 39.7248C105.915 39.3803 106.179 38.9707 106.363 38.4961C106.555 38.0137 106.65 37.4778 106.65 36.8883V33.7417Z" fill="white"/>
<path d="M126.207 36.8194H116.768V33.8106H126.207V36.8194ZM127.54 30.0668H115.573V43.549H112.587V28.5854C112.587 28.3787 112.626 28.1835 112.702 27.9997C112.779 27.816 112.882 27.6552 113.012 27.5174C113.15 27.3796 113.311 27.2724 113.495 27.1958C113.678 27.1193 113.877 27.081 114.092 27.081H127.54V30.0668Z" fill="white"/>
<path d="M144.834 30.0668H138.254V43.549H135.268V30.0668H128.676V27.081H144.834V30.0668Z" fill="white"/>
<path d="M163.473 36.6586C163.473 37.6616 163.297 38.5841 162.945 39.4263C162.6 40.2684 162.122 40.9957 161.509 41.6082C160.897 42.213 160.169 42.6877 159.327 43.0322C158.485 43.3767 157.57 43.549 156.583 43.549H148.521C148.306 43.549 148.107 43.5107 147.924 43.4342C147.74 43.3576 147.579 43.2542 147.441 43.1241C147.311 42.9863 147.208 42.8255 147.131 42.6418C147.055 42.458 147.016 42.259 147.016 42.0446V28.5854C147.016 28.3787 147.055 28.1835 147.131 27.9997C147.208 27.816 147.311 27.6552 147.441 27.5174C147.579 27.3796 147.74 27.2724 147.924 27.1958C148.107 27.1193 148.306 27.081 148.521 27.081H156.583C157.57 27.081 158.485 27.2533 159.327 27.5978C160.169 27.9423 160.897 28.4208 161.509 29.0333C162.122 29.6381 162.6 30.3654 162.945 31.2152C163.297 32.0574 163.473 32.9761 163.473 33.9714V36.6586ZM160.487 33.9714C160.487 33.3895 160.391 32.8574 160.2 32.3751C160.016 31.8928 159.752 31.4832 159.408 31.1463C159.063 30.8018 158.65 30.5377 158.167 30.3539C157.693 30.1625 157.164 30.0668 156.583 30.0668H150.002V40.5632H156.583C157.164 40.5632 157.693 40.4713 158.167 40.2876C158.65 40.0962 159.063 39.832 159.408 39.4952C159.752 39.1506 160.016 38.7411 160.2 38.2664C160.391 37.7841 160.487 37.2481 160.487 36.6586V33.9714Z" fill="white"/>
<path d="M182.559 43.549H179.573V39.5066H169.077V43.549H166.091V35.315C166.091 34.113 166.298 33.0067 166.711 31.9961C167.125 30.9855 167.699 30.1166 168.434 29.3893C169.169 28.662 170.038 28.0954 171.041 27.6896C172.044 27.2839 173.139 27.081 174.325 27.081H181.055C181.262 27.081 181.457 27.1193 181.641 27.1958C181.824 27.2724 181.985 27.3796 182.123 27.5174C182.261 27.6552 182.368 27.816 182.444 27.9997C182.521 28.1835 182.559 28.3787 182.559 28.5854V43.549ZM169.077 36.5208H179.573V30.0668H174.325C174.233 30.0668 174.038 30.0821 173.74 30.1128C173.449 30.1357 173.108 30.2008 172.718 30.308C172.335 30.4152 171.929 30.5798 171.5 30.8018C171.071 31.0238 170.677 31.3301 170.317 31.7205C169.958 32.111 169.659 32.601 169.422 33.1905C169.192 33.7723 169.077 34.4805 169.077 35.315V36.5208Z" fill="white"/>
<path d="M200.922 30.0668H194.342V43.549H191.356V30.0668H184.764V27.081H200.922V30.0668Z" fill="white"/>
<path d="M218.711 43.549H215.725V39.5066H205.229V43.549H202.243V35.315C202.243 34.113 202.45 33.0067 202.863 31.9961C203.276 30.9855 203.851 30.1166 204.586 29.3893C205.32 28.662 206.189 28.0954 207.192 27.6896C208.195 27.2839 209.29 27.081 210.477 27.081H217.206C217.413 27.081 217.608 27.1193 217.792 27.1958C217.976 27.2724 218.137 27.3796 218.274 27.5174C218.412 27.6552 218.519 27.816 218.596 27.9997C218.673 28.1835 218.711 28.3787 218.711 28.5854V43.549ZM205.229 36.5208H215.725V30.0668H210.477C210.385 30.0668 210.19 30.0821 209.891 30.1128C209.6 30.1357 209.259 30.2008 208.869 30.308C208.486 30.4152 208.08 30.5798 207.652 30.8018C207.223 31.0238 206.829 31.3301 206.469 31.7205C206.109 32.111 205.81 32.601 205.573 33.1905C205.343 33.7723 205.229 34.4805 205.229 35.315V36.5208Z" fill="white"/>
<path d="M75.0005 53.063L77.3639 58.1309H76.8196L76.0237 56.4635H73.8395L73.0471 58.1309H72.4821L74.8765 53.063H75.0005ZM74.9385 54.1379L74.0668 55.9742H75.7998L74.9385 54.1379Z" fill="white"/>
<path d="M79.6549 54.3826H80.1476V54.9303C80.2946 54.7144 80.4496 54.5537 80.6127 54.448C80.7758 54.3401 80.9457 54.2861 81.1226 54.2861C81.2558 54.2861 81.3982 54.3286 81.5498 54.4136L81.2983 54.8201C81.1972 54.7765 81.1123 54.7546 81.0434 54.7546C80.8826 54.7546 80.7275 54.8212 80.5783 54.9545C80.429 55.0854 80.3153 55.2898 80.2372 55.5677C80.1775 55.7813 80.1476 56.2131 80.1476 56.8631V58.1309H79.6549V54.3826Z" fill="white"/>
<path d="M84.144 52.9907H84.6298V54.3826H85.3946V54.796H84.6298V58.1309H84.144V54.796H83.486V54.3826H84.144V52.9907Z" fill="white"/>
<path d="M88.0474 52.8391C88.1577 52.8391 88.2518 52.8782 88.3299 52.9562C88.408 53.0343 88.4471 53.1285 88.4471 53.2388C88.4471 53.3467 88.408 53.4397 88.3299 53.5178C88.2518 53.5959 88.1577 53.635 88.0474 53.635C87.9395 53.635 87.8465 53.5959 87.7684 53.5178C87.6903 53.4397 87.6512 53.3467 87.6512 53.2388C87.6512 53.1285 87.6903 53.0343 87.7684 52.9562C87.8465 52.8782 87.9395 52.8391 88.0474 52.8391ZM87.8063 54.3826H88.292V58.1309H87.8063V54.3826Z" fill="white"/>
<path d="M92.5985 52.9356V53.4076C92.4217 53.3318 92.2701 53.2939 92.1438 53.2939C92.0496 53.2939 91.9715 53.3134 91.9095 53.3524C91.8475 53.3892 91.8084 53.4328 91.7923 53.4834C91.7763 53.5316 91.7682 53.6625 91.7682 53.8761V54.3826H92.5503V54.796H91.7648V58.1309H91.2825V54.796H90.7898V54.3826H91.2825V53.7969C91.2825 53.5281 91.3066 53.3364 91.3548 53.2215C91.4053 53.1067 91.4892 53.0148 91.6063 52.9459C91.7257 52.8747 91.8693 52.8391 92.037 52.8391C92.1931 52.8391 92.3803 52.8713 92.5985 52.9356Z" fill="white"/>
<path d="M95.2065 52.8391C95.3168 52.8391 95.4109 52.8782 95.489 52.9562C95.5671 53.0343 95.6062 53.1285 95.6062 53.2388C95.6062 53.3467 95.5671 53.4397 95.489 53.5178C95.4109 53.5959 95.3168 53.635 95.2065 53.635C95.0986 53.635 95.0056 53.5959 94.9275 53.5178C94.8494 53.4397 94.8103 53.3467 94.8103 53.2388C94.8103 53.1285 94.8494 53.0343 94.9275 52.9562C95.0056 52.8782 95.0986 52.8391 95.2065 52.8391ZM94.9654 54.3826H95.4511V58.1309H94.9654V54.3826Z" fill="white"/>
<path d="M101.852 55.1612L101.47 55.3989C101.139 54.9602 100.688 54.7409 100.116 54.7409C99.6589 54.7409 99.2787 54.8879 98.9756 55.1818C98.6747 55.4758 98.5243 55.833 98.5243 56.2533C98.5243 56.5266 98.5932 56.7839 98.731 57.025C98.8711 57.2662 99.0617 57.4534 99.3029 57.5866C99.5463 57.7198 99.8185 57.7864 100.119 57.7864C100.671 57.7864 101.121 57.5671 101.47 57.1284L101.852 57.3799C101.673 57.6486 101.432 57.8576 101.129 58.0069C100.828 58.1539 100.485 58.2274 100.099 58.2274C99.5061 58.2274 99.0146 58.0391 98.6242 57.6624C98.2337 57.2857 98.0385 56.8275 98.0385 56.2877C98.0385 55.9249 98.1292 55.5884 98.3106 55.2783C98.4944 54.9659 98.7459 54.7225 99.0651 54.5479C99.3844 54.3734 99.7416 54.2861 100.137 54.2861C100.385 54.2861 100.624 54.324 100.853 54.3998C101.085 54.4756 101.282 54.5743 101.442 54.6961C101.603 54.8178 101.74 54.9728 101.852 55.1612Z" fill="white"/>
<path d="M104.715 52.8391C104.826 52.8391 104.92 52.8782 104.998 52.9562C105.076 53.0343 105.115 53.1285 105.115 53.2388C105.115 53.3467 105.076 53.4397 104.998 53.5178C104.92 53.5959 104.826 53.635 104.715 53.635C104.607 53.635 104.514 53.5959 104.436 53.5178C104.358 53.4397 104.319 53.3467 104.319 53.2388C104.319 53.1285 104.358 53.0343 104.436 52.9562C104.514 52.8782 104.607 52.8391 104.715 52.8391ZM104.474 54.3826H104.96V58.1309H104.474V54.3826Z" fill="white"/>
<path d="M111.457 54.3826V58.1309H110.982V57.4867C110.78 57.7324 110.553 57.9173 110.3 58.0413C110.05 58.1654 109.775 58.2274 109.477 58.2274C108.946 58.2274 108.492 58.0356 108.116 57.652C107.741 57.2662 107.554 56.7976 107.554 56.2464C107.554 55.7067 107.744 55.245 108.123 54.8614C108.502 54.4779 108.957 54.2861 109.49 54.2861C109.798 54.2861 110.076 54.3515 110.324 54.4825C110.574 54.6134 110.794 54.8098 110.982 55.0716V54.3826H111.457ZM109.528 54.7512C109.259 54.7512 109.011 54.8178 108.784 54.951C108.557 55.0819 108.375 55.2668 108.24 55.5057C108.106 55.7446 108.04 55.9972 108.04 56.2636C108.04 56.5278 108.108 56.7804 108.243 57.0216C108.379 57.2627 108.56 57.4511 108.787 57.5866C109.017 57.7198 109.263 57.7864 109.525 57.7864C109.789 57.7864 110.039 57.7198 110.276 57.5866C110.512 57.4534 110.694 57.2731 110.82 57.0457C110.949 56.8183 111.013 56.5622 111.013 56.2774C111.013 55.8433 110.87 55.4804 110.582 55.1887C110.298 54.897 109.946 54.7512 109.528 54.7512Z" fill="white"/>
<path d="M114.238 52.9356H114.72V58.1309H114.238V52.9356Z" fill="white"/>
<path d="M121.214 53.063H121.721V58.1309H121.214V53.063Z" fill="white"/>
<path d="M124.57 54.3826H125.052V55.0544C125.245 54.7971 125.459 54.6053 125.693 54.479C125.927 54.3504 126.182 54.2861 126.458 54.2861C126.738 54.2861 126.986 54.3573 127.202 54.4997C127.42 54.6421 127.581 54.8339 127.684 55.075C127.788 55.3162 127.839 55.6917 127.839 56.2016V58.1309H127.36V56.3429C127.36 55.9111 127.342 55.6228 127.305 55.4781C127.248 55.2301 127.14 55.044 126.982 54.92C126.823 54.7937 126.616 54.7305 126.361 54.7305C126.07 54.7305 125.808 54.827 125.576 55.0199C125.346 55.2128 125.195 55.4517 125.121 55.7365C125.075 55.9226 125.052 56.2625 125.052 56.7563V58.1309H124.57V54.3826Z" fill="white"/>
<path d="M131.061 52.9907H131.546V54.3826H132.311V54.796H131.546V58.1309H131.061V54.796H130.403V54.3826H131.061V52.9907Z" fill="white"/>
<path d="M137.951 56.8872L138.358 57.1008C138.224 57.3626 138.07 57.574 137.896 57.7347C137.721 57.8955 137.525 58.0184 137.307 58.1034C137.089 58.186 136.842 58.2274 136.566 58.2274C135.955 58.2274 135.477 58.0276 135.133 57.6279C134.788 57.226 134.616 56.7724 134.616 56.2671C134.616 55.7916 134.762 55.3679 135.054 54.9958C135.423 54.5227 135.918 54.2861 136.538 54.2861C137.177 54.2861 137.687 54.5284 138.068 55.013C138.339 55.3552 138.477 55.7825 138.482 56.2946H135.112C135.121 56.731 135.26 57.0893 135.529 57.3695C135.798 57.6474 136.13 57.7864 136.525 57.7864C136.715 57.7864 136.9 57.7531 137.079 57.6865C137.261 57.6199 137.415 57.5315 137.541 57.4212C137.667 57.311 137.804 57.133 137.951 56.8872ZM137.951 55.8778C137.887 55.6205 137.793 55.415 137.669 55.2611C137.547 55.1072 137.385 54.9832 137.183 54.889C136.981 54.7948 136.768 54.7477 136.545 54.7477C136.178 54.7477 135.862 54.866 135.598 55.1026C135.405 55.2749 135.259 55.5333 135.16 55.8778H137.951Z" fill="white"/>
<path d="M141.076 52.9356H141.558V58.1309H141.076V52.9356Z" fill="white"/>
<path d="M144.252 52.9356H144.735V58.1309H144.252V52.9356Z" fill="white"/>
<path d="M147.67 52.8391C147.78 52.8391 147.874 52.8782 147.952 52.9562C148.03 53.0343 148.07 53.1285 148.07 53.2388C148.07 53.3467 148.03 53.4397 147.952 53.5178C147.874 53.5959 147.78 53.635 147.67 53.635C147.562 53.635 147.469 53.5959 147.391 53.5178C147.313 53.4397 147.274 53.3467 147.274 53.2388C147.274 53.1285 147.313 53.0343 147.391 52.9562C147.469 52.8782 147.562 52.8391 147.67 52.8391ZM147.429 54.3826H147.914V58.1309H147.429V54.3826Z" fill="white"/>
<path d="M153.906 54.3826H154.391V57.3695C154.391 57.8955 154.346 58.2802 154.254 58.5237C154.127 58.8682 153.908 59.1335 153.596 59.3195C153.283 59.5056 152.908 59.5986 152.469 59.5986C152.147 59.5986 151.858 59.5526 151.601 59.4608C151.346 59.3712 151.138 59.2495 150.977 59.0956C150.816 58.944 150.668 58.7212 150.533 58.4272H151.057C151.199 58.6753 151.383 58.859 151.608 58.9784C151.833 59.0979 152.112 59.1576 152.445 59.1576C152.773 59.1576 153.05 59.0956 153.275 58.9715C153.503 58.8498 153.665 58.6959 153.761 58.5099C153.857 58.3239 153.906 58.0241 153.906 57.6107V57.4178C153.724 57.6474 153.503 57.8243 153.241 57.9483C152.979 58.0701 152.701 58.1309 152.407 58.1309C152.063 58.1309 151.739 58.0459 151.435 57.876C151.132 57.7037 150.898 57.4729 150.733 57.1835C150.567 56.8941 150.485 56.576 150.485 56.2292C150.485 55.8824 150.571 55.5597 150.743 55.2611C150.915 54.9602 151.153 54.7225 151.456 54.5479C151.762 54.3734 152.083 54.2861 152.421 54.2861C152.701 54.2861 152.962 54.3447 153.203 54.4618C153.446 54.5766 153.681 54.7673 153.906 55.0337V54.3826ZM152.483 54.7512C152.21 54.7512 151.956 54.8178 151.721 54.951C151.487 55.0819 151.303 55.2645 151.17 55.4988C151.037 55.7308 150.97 55.9823 150.97 56.2533C150.97 56.6644 151.108 57.0043 151.384 57.2731C151.659 57.5418 152.017 57.6762 152.455 57.6762C152.899 57.6762 153.255 57.5429 153.523 57.2765C153.794 57.0101 153.93 56.6598 153.93 56.2257C153.93 55.9432 153.868 55.6917 153.744 55.4712C153.62 55.2484 153.444 55.0727 153.217 54.9441C152.989 54.8155 152.745 54.7512 152.483 54.7512Z" fill="white"/>
<path d="M160.345 56.8872L160.751 57.1008C160.618 57.3626 160.464 57.574 160.29 57.7347C160.115 57.8955 159.919 58.0184 159.7 58.1034C159.482 58.186 159.235 58.2274 158.96 58.2274C158.349 58.2274 157.871 58.0276 157.527 57.6279C157.182 57.226 157.01 56.7724 157.01 56.2671C157.01 55.7916 157.156 55.3679 157.447 54.9958C157.817 54.5227 158.312 54.2861 158.932 54.2861C159.571 54.2861 160.081 54.5284 160.462 55.013C160.733 55.3552 160.871 55.7825 160.875 56.2946H157.506C157.515 56.731 157.654 57.0893 157.923 57.3695C158.191 57.6474 158.523 57.7864 158.918 57.7864C159.109 57.7864 159.294 57.7531 159.473 57.6865C159.655 57.6199 159.808 57.5315 159.935 57.4212C160.061 57.311 160.198 57.133 160.345 56.8872ZM160.345 55.8778C160.28 55.6205 160.186 55.415 160.062 55.2611C159.941 55.1072 159.779 54.9832 159.576 54.889C159.374 54.7948 159.162 54.7477 158.939 54.7477C158.572 54.7477 158.256 54.866 157.992 55.1026C157.799 55.2749 157.653 55.5333 157.554 55.8778H160.345Z" fill="white"/>
<path d="M163.542 54.3826H164.024V55.0544C164.217 54.7971 164.431 54.6053 164.665 54.479C164.899 54.3504 165.154 54.2861 165.43 54.2861C165.71 54.2861 165.958 54.3573 166.174 54.4997C166.392 54.6421 166.553 54.8339 166.656 55.075C166.76 55.3162 166.811 55.6917 166.811 56.2016V58.1309H166.332V56.3429C166.332 55.9111 166.314 55.6228 166.277 55.4781C166.22 55.2301 166.112 55.044 165.954 54.92C165.795 54.7937 165.588 54.7305 165.333 54.7305C165.042 54.7305 164.78 54.827 164.548 55.0199C164.318 55.2128 164.167 55.4517 164.093 55.7365C164.047 55.9226 164.024 56.2625 164.024 56.7563V58.1309H163.542V54.3826Z" fill="white"/>
<path d="M173.25 55.1612L172.868 55.3989C172.537 54.9602 172.086 54.7409 171.514 54.7409C171.057 54.7409 170.677 54.8879 170.374 55.1818C170.073 55.4758 169.922 55.833 169.922 56.2533C169.922 56.5266 169.991 56.7839 170.129 57.025C170.269 57.2662 170.46 57.4534 170.701 57.5866C170.944 57.7198 171.217 57.7864 171.517 57.7864C172.069 57.7864 172.519 57.5671 172.868 57.1284L173.25 57.3799C173.071 57.6486 172.83 57.8576 172.527 58.0069C172.226 58.1539 171.883 58.2274 171.497 58.2274C170.904 58.2274 170.413 58.0391 170.022 57.6624C169.632 57.2857 169.437 56.8275 169.437 56.2877C169.437 55.9249 169.527 55.5884 169.709 55.2783C169.893 54.9659 170.144 54.7225 170.463 54.5479C170.783 54.3734 171.14 54.2861 171.535 54.2861C171.783 54.2861 172.022 54.324 172.251 54.3998C172.483 54.4756 172.68 54.5743 172.84 54.6961C173.001 54.8178 173.138 54.9728 173.25 55.1612Z" fill="white"/>
<path d="M179.1 56.8872L179.507 57.1008C179.374 57.3626 179.22 57.574 179.045 57.7347C178.871 57.8955 178.674 58.0184 178.456 58.1034C178.238 58.186 177.991 58.2274 177.715 58.2274C177.104 58.2274 176.627 58.0276 176.282 57.6279C175.938 57.226 175.765 56.7724 175.765 56.2671C175.765 55.7916 175.911 55.3679 176.203 54.9958C176.573 54.5227 177.068 54.2861 177.688 54.2861C178.326 54.2861 178.836 54.5284 179.217 55.013C179.489 55.3552 179.626 55.7825 179.631 56.2946H176.262C176.271 56.731 176.41 57.0893 176.678 57.3695C176.947 57.6474 177.279 57.7864 177.674 57.7864C177.865 57.7864 178.05 57.7531 178.229 57.6865C178.41 57.6199 178.564 57.5315 178.69 57.4212C178.817 57.311 178.953 57.133 179.1 56.8872ZM179.1 55.8778C179.036 55.6205 178.942 55.415 178.818 55.2611C178.696 55.1072 178.534 54.9832 178.332 54.889C178.13 54.7948 177.918 54.7477 177.695 54.7477C177.327 54.7477 177.011 54.866 176.747 55.1026C176.554 55.2749 176.409 55.5333 176.31 55.8778H179.1Z" fill="white"/>
<path d="M185.574 57.1869L186.005 56.9286C186.308 57.4867 186.658 57.7657 187.055 57.7657C187.225 57.7657 187.385 57.7267 187.534 57.6486C187.683 57.5682 187.797 57.4614 187.875 57.3282C187.953 57.195 187.992 57.0537 187.992 56.9044C187.992 56.7345 187.935 56.568 187.82 56.4049C187.662 56.1798 187.372 55.9088 186.952 55.5918C186.529 55.2726 186.266 55.0417 186.163 54.8993C185.984 54.6605 185.894 54.4021 185.894 54.1242C185.894 53.9037 185.947 53.7027 186.053 53.5213C186.158 53.3398 186.307 53.1974 186.497 53.0941C186.69 52.9884 186.899 52.9356 187.124 52.9356C187.363 52.9356 187.586 52.9953 187.793 53.1147C188.002 53.2319 188.222 53.4489 188.454 53.7659L188.041 54.0794C187.85 53.8267 187.687 53.6602 187.551 53.5798C187.418 53.4994 187.272 53.4592 187.114 53.4592C186.909 53.4592 186.742 53.5213 186.611 53.6453C186.482 53.7693 186.418 53.922 186.418 54.1035C186.418 54.2137 186.441 54.3205 186.487 54.4239C186.533 54.5273 186.617 54.6398 186.738 54.7615C186.805 54.8258 187.023 54.9947 187.393 55.268C187.832 55.5918 188.132 55.8801 188.296 56.1327C188.459 56.3854 188.54 56.6392 188.54 56.8941C188.54 57.2616 188.4 57.5808 188.12 57.8519C187.842 58.1229 187.503 58.2584 187.104 58.2584C186.796 58.2584 186.517 58.1769 186.266 58.0138C186.016 57.8484 185.785 57.5728 185.574 57.1869Z" fill="white"/>
<path d="M190.893 54.3826H191.403L192.692 57.2696L193.942 54.3826H194.456L192.22 59.5021H191.71L192.433 57.8484L190.893 54.3826Z" fill="white"/>
<path d="M198.728 54.7925L198.418 55.1129C198.16 54.8626 197.909 54.7374 197.663 54.7374C197.507 54.7374 197.372 54.7891 197.26 54.8924C197.15 54.9958 197.095 55.1164 197.095 55.2542C197.095 55.3759 197.141 55.4919 197.232 55.6022C197.324 55.7147 197.517 55.8468 197.811 55.9984C198.169 56.1844 198.413 56.3635 198.542 56.5358C198.668 56.7104 198.731 56.9067 198.731 57.1249C198.731 57.4327 198.623 57.6934 198.407 57.907C198.191 58.1206 197.921 58.2274 197.598 58.2274C197.382 58.2274 197.175 58.1803 196.977 58.0861C196.782 57.992 196.62 57.8622 196.492 57.6968L196.795 57.3523C197.041 57.6302 197.301 57.7692 197.577 57.7692C197.77 57.7692 197.934 57.7072 198.07 57.5831C198.205 57.4591 198.273 57.3133 198.273 57.1456C198.273 57.0078 198.228 56.8849 198.138 56.777C198.049 56.6713 197.847 56.5381 197.532 56.3773C197.194 56.2028 196.965 56.0305 196.843 55.8605C196.721 55.6906 196.66 55.4965 196.66 55.2783C196.66 54.9935 196.757 54.7569 196.95 54.5686C197.145 54.3803 197.391 54.2861 197.687 54.2861C198.032 54.2861 198.378 54.4549 198.728 54.7925Z" fill="white"/>
<path d="M201.77 52.9907H202.255V54.3826H203.02V54.796H202.255V58.1309H201.77V54.796H201.112V54.3826H201.77V52.9907Z" fill="white"/>
<path d="M208.66 56.8872L209.067 57.1008C208.933 57.3626 208.78 57.574 208.605 57.7347C208.43 57.8955 208.234 58.0184 208.016 58.1034C207.798 58.186 207.551 58.2274 207.275 58.2274C206.664 58.2274 206.186 58.0276 205.842 57.6279C205.497 57.226 205.325 56.7724 205.325 56.2671C205.325 55.7916 205.471 55.3679 205.763 54.9958C206.132 54.5227 206.627 54.2861 207.248 54.2861C207.886 54.2861 208.396 54.5284 208.777 55.013C209.048 55.3552 209.186 55.7825 209.191 56.2946H205.821C205.83 56.731 205.969 57.0893 206.238 57.3695C206.507 57.6474 206.839 57.7864 207.234 57.7864C207.424 57.7864 207.609 57.7531 207.788 57.6865C207.97 57.6199 208.124 57.5315 208.25 57.4212C208.376 57.311 208.513 57.133 208.66 56.8872ZM208.66 55.8778C208.596 55.6205 208.502 55.415 208.378 55.2611C208.256 55.1072 208.094 54.9832 207.892 54.889C207.69 54.7948 207.477 54.7477 207.254 54.7477C206.887 54.7477 206.571 54.866 206.307 55.1026C206.114 55.2749 205.968 55.5333 205.869 55.8778H208.66Z" fill="white"/>
<path d="M211.854 54.3826H212.333V55.0303C212.5 54.7914 212.673 54.6168 212.849 54.5066C213.093 54.3596 213.349 54.2861 213.618 54.2861C213.799 54.2861 213.971 54.3217 214.135 54.3929C214.298 54.4641 214.431 54.5594 214.534 54.6788C214.637 54.796 214.727 54.9648 214.803 55.1853C214.964 54.8913 215.165 54.6685 215.406 54.5169C215.647 54.363 215.906 54.2861 216.184 54.2861C216.444 54.2861 216.672 54.3515 216.87 54.4825C217.07 54.6134 217.218 54.796 217.314 55.0303C217.411 55.2645 217.459 55.6159 217.459 56.0845V58.1309H216.966V56.0845C216.966 55.6825 216.938 55.4069 216.88 55.2576C216.823 55.106 216.724 54.9843 216.584 54.8924C216.446 54.8006 216.281 54.7546 216.088 54.7546C215.854 54.7546 215.639 54.8235 215.444 54.9613C215.251 55.0992 215.109 55.2829 215.02 55.5126C214.93 55.7423 214.886 56.1258 214.886 56.6633V58.1309H214.407V56.212C214.407 55.7595 214.378 55.4529 214.321 55.2921C214.265 55.129 214.168 54.9992 214.028 54.9028C213.888 54.804 213.721 54.7546 213.528 54.7546C213.305 54.7546 213.096 54.8224 212.901 54.9579C212.708 55.0911 212.565 55.2714 212.47 55.4988C212.379 55.7262 212.333 56.0741 212.333 56.5427V58.1309H211.854V54.3826Z" fill="white"/>
<path d="M289 84H0V86H289V84Z" fill="#262626" mask="url(#path-1-inside-1_844_6512)"/>
</svg>
