<svg width="260" height="63" viewBox="0 0 260 63" fill="none" xmlns="http://www.w3.org/2000/svg">
<path fill-rule="evenodd" clip-rule="evenodd" d="M30.3418 2.83744C30.9004 2.83744 31.3532 2.38374 31.3532 1.82407C31.3532 1.2644 30.9004 0.810698 30.3418 0.810698C29.7832 0.810698 29.3304 1.2644 29.3304 1.82407C29.3304 2.38374 29.7832 2.83744 30.3418 2.83744ZM32.1623 1.82407C32.1623 2.61828 31.6557 3.29394 30.9486 3.54435V16.0144C31.5307 16.0262 32.1045 16.072 32.668 16.1499V5.87756V5.26954H33.2748H49.508C49.7779 4.67195 50.3781 4.25616 51.0753 4.25616C52.0249 4.25616 52.7947 5.02746 52.7947 5.9789C52.7947 6.93034 52.0249 7.70163 51.0753 7.70163C50.3017 7.70163 49.6475 7.18974 49.4315 6.48558H33.8817V16.3703C34.7933 16.576 35.6727 16.8668 36.5113 17.2339V10.3364V9.72838H37.1181H43.97C44.186 9.02422 44.8402 8.51233 45.6138 8.51233C46.5634 8.51233 47.3332 9.28362 47.3332 10.2351C47.3332 11.1865 46.5634 11.9578 45.6138 11.9578C44.9166 11.9578 44.3163 11.542 44.0465 10.9444H37.7249V17.8338C39.9145 19.0455 41.762 20.8017 43.0853 22.9203V22.9022H50.5696V16.3409C49.8669 16.1245 49.356 15.469 49.356 14.6939C49.356 13.7425 50.1258 12.9712 51.0753 12.9712C52.0249 12.9712 52.7947 13.7425 52.7947 14.6939C52.7947 15.3925 52.3797 15.9939 51.7833 16.2643V23.5102V24.1183H51.1765H43.7579C44.2383 25.0764 44.6171 26.0945 44.8803 27.1584H54.4129V11.8821C53.7101 11.6657 53.1993 11.0102 53.1993 10.2351C53.1993 9.28362 53.969 8.51233 54.9186 8.51233C55.8682 8.51233 56.638 9.28362 56.638 10.2351C56.638 10.9336 56.223 11.5351 55.6266 11.8054V27.7664V28.3744H55.0198H45.1269C45.2477 29.1335 45.3104 29.912 45.3104 30.7052C45.3104 30.8748 45.3075 31.0437 45.3018 31.2119H57.8014C58.0713 30.6143 58.6716 30.1985 59.3687 30.1985C60.3183 30.1985 61.0881 30.9698 61.0881 31.9212C61.0881 32.8727 60.3183 33.644 59.3687 33.644C58.5952 33.644 57.9409 33.1321 57.725 32.4279H45.2107C45.1383 33.0486 45.0274 33.6574 44.8803 34.252H54.9186H55.5255V34.86V50.779C56.1756 51.0248 56.638 51.6539 56.638 52.3914C56.638 53.3428 55.8682 54.1141 54.9186 54.1141C53.969 54.1141 53.1993 53.3428 53.1993 52.3914C53.1993 51.6539 53.6617 51.0248 54.3118 50.779V35.468H44.5228C44.1554 36.5431 43.6671 37.5619 43.074 38.5082H50.9742H51.581V39.1162V46.6908C52.2838 46.9072 52.7947 47.5628 52.7947 48.3379C52.7947 49.2893 52.0249 50.0606 51.0753 50.0606C50.1257 50.0606 49.356 49.2893 49.356 48.3379C49.356 47.6393 49.7709 47.0379 50.3674 46.7675V39.7242H42.2237C41.1961 41.0467 39.9477 42.1886 38.5341 43.0942V51.074H44.4511C44.7209 50.4764 45.3212 50.0606 46.0184 50.0606C46.9679 50.0606 47.7377 50.8319 47.7377 51.7833C47.7377 52.7348 46.9679 53.5061 46.0184 53.5061C45.2448 53.5061 44.5905 52.9942 44.3746 52.29H37.9272H37.3204V51.682V43.7922C36.4563 44.2355 35.5425 44.5955 34.5896 44.8615V55.5328H49.4315C49.6475 54.8286 50.3017 54.3168 51.0753 54.3168C52.0249 54.3168 52.7947 55.0881 52.7947 56.0395C52.7947 56.9909 52.0249 57.7622 51.0753 57.7622C50.3781 57.7622 49.7779 57.3464 49.508 56.7489H33.9828H33.376V56.1408V45.1448C32.781 45.2571 32.1734 45.3333 31.5555 45.3712V58.474C32.2625 58.7244 32.7691 59.4001 32.7691 60.1943C32.7691 61.2017 31.9541 62.0184 30.9486 62.0184C29.9432 62.0184 29.1281 61.2017 29.1281 60.1943C29.1281 59.4001 29.6347 58.7244 30.3418 58.474V45.396C29.7597 45.3842 29.1859 45.3383 28.6224 45.2604V56.1408V56.7489H28.0156H11.7824C11.5125 57.3464 10.9123 57.7622 10.2151 57.7622C9.26548 57.7622 8.4957 56.9909 8.4957 56.0395C8.4957 55.0881 9.26548 54.3168 10.2151 54.3168C10.9887 54.3168 11.6429 54.8286 11.8589 55.5328H27.4087V45.0401C26.4971 44.8343 25.6177 44.5435 24.7791 44.1764V51.682V52.29H24.1723H17.3204C17.1044 52.9942 16.4502 53.5061 15.6766 53.5061C14.727 53.5061 13.9572 52.7348 13.9572 51.7833C13.9572 50.8319 14.727 50.0606 15.6766 50.0606C16.3738 50.0606 16.9741 50.4764 17.2439 51.074H23.5655V43.5765C21.8167 42.6088 20.2862 41.2938 19.0667 39.7242H10.5185V46.2855C11.2213 46.5019 11.7322 47.1574 11.7322 47.9325C11.7322 48.884 10.9624 49.6552 10.0128 49.6552C9.06321 49.6552 8.29342 48.884 8.29342 47.9325C8.29342 47.234 8.70839 46.6325 9.30481 46.3621V39.1162V38.5082H9.91165H18.2164C17.6233 37.5619 17.135 36.5431 16.7676 35.468H6.67519V50.7443C7.37797 50.9607 7.88886 51.6162 7.88886 52.3914C7.88886 53.3428 7.11908 54.1141 6.1695 54.1141C5.21991 54.1141 4.45013 53.3428 4.45013 52.3914C4.45013 51.6928 4.8651 51.0913 5.46152 50.821V34.86V34.252H6.06836H16.4101C16.1837 33.337 16.043 32.3882 15.9968 31.4145H3.28667C3.01684 32.0121 2.41656 32.4279 1.71937 32.4279C0.769787 32.4279 0 31.6566 0 30.7052C0 29.7537 0.769787 28.9825 1.71937 28.9825C2.49295 28.9825 3.14722 29.4943 3.36316 30.1985H15.9886C16.0095 29.58 16.0685 28.9712 16.1635 28.3744H6.1695H5.56266V27.7664V11.8474C4.91253 11.6017 4.45013 10.9725 4.45013 10.2351C4.45013 9.28362 5.21991 8.51233 6.1695 8.51233C7.11908 8.51233 7.88886 9.28362 7.88886 10.2351C7.88886 10.9725 7.42646 11.6017 6.77633 11.8474V27.1584H16.4101C16.6732 26.0945 17.0521 25.0764 17.5325 24.1183H10.1139H9.50709V23.5102V15.9356C8.80431 15.7192 8.29342 15.0637 8.29342 14.2886C8.29342 13.3371 9.06321 12.5658 10.0128 12.5658C10.9624 12.5658 11.7322 13.3371 11.7322 14.2886C11.7322 14.9871 11.3172 15.5886 10.7208 15.8589V22.9022H18.2164C19.3722 21.0578 20.9257 19.4889 22.7563 18.3162V10.9444H16.8393C16.5695 11.542 15.9692 11.9578 15.272 11.9578C14.3224 11.9578 13.5527 11.1865 13.5527 10.2351C13.5527 9.28362 14.3224 8.51233 15.272 8.51233C16.0456 8.51233 16.6999 9.02422 16.9158 9.72838H23.3632H23.97V10.3364V17.6182C24.8341 17.1748 25.7479 16.8149 26.7008 16.5489V6.48558H11.8589C11.6429 7.18974 10.9887 7.70163 10.2151 7.70163C9.26549 7.70163 8.4957 6.93034 8.4957 5.9789C8.4957 5.02746 9.26549 4.25616 10.2151 4.25616C10.9123 4.25616 11.5125 4.67195 11.7824 5.26954H27.3076H27.9144V5.87756V16.2656C28.5094 16.1533 29.117 16.077 29.7349 16.0391V3.54435C29.0279 3.29394 28.5213 2.61828 28.5213 1.82407C28.5213 0.816664 29.3363 0 30.3418 0C31.3472 0 32.1623 0.816664 32.1623 1.82407ZM46.5241 10.2351C46.5241 10.7388 46.1165 11.1471 45.6138 11.1471C45.1111 11.1471 44.7036 10.7388 44.7036 10.2351C44.7036 9.73136 45.1111 9.32303 45.6138 9.32303C46.1165 9.32303 46.5241 9.73136 46.5241 10.2351ZM15.272 11.1471C15.7747 11.1471 16.1823 10.7388 16.1823 10.2351C16.1823 9.73136 15.7747 9.32303 15.272 9.32303C14.7693 9.32303 14.3618 9.73136 14.3618 10.2351C14.3618 10.7388 14.7693 11.1471 15.272 11.1471ZM11.1253 5.9789C11.1253 6.4826 10.7178 6.89093 10.2151 6.89093C9.71235 6.89093 9.30481 6.4826 9.30481 5.9789C9.30481 5.47519 9.71235 5.06686 10.2151 5.06686C10.7178 5.06686 11.1253 5.47519 11.1253 5.9789ZM51.0753 6.89093C51.578 6.89093 51.9856 6.4826 51.9856 5.9789C51.9856 5.47519 51.578 5.06686 51.0753 5.06686C50.5726 5.06686 50.1651 5.47519 50.1651 5.9789C50.1651 6.4826 50.5726 6.89093 51.0753 6.89093ZM30.9486 59.181C30.39 59.181 29.9372 59.6347 29.9372 60.1943C29.9372 60.754 30.39 61.2077 30.9486 61.2077C31.5072 61.2077 31.96 60.754 31.96 60.1943C31.96 59.6347 31.5072 59.181 30.9486 59.181ZM14.7663 51.7833C14.7663 51.2796 15.1739 50.8713 15.6766 50.8713C16.1793 50.8713 16.5868 51.2796 16.5868 51.7833C16.5868 52.287 16.1793 52.6954 15.6766 52.6954C15.1739 52.6954 14.7663 52.287 14.7663 51.7833ZM46.0184 50.8713C45.5156 50.8713 45.1081 51.2796 45.1081 51.7833C45.1081 52.287 45.5156 52.6954 46.0184 52.6954C46.5211 52.6954 46.9286 52.287 46.9286 51.7833C46.9286 51.2796 46.5211 50.8713 46.0184 50.8713ZM50.1651 56.0395C50.1651 55.5358 50.5726 55.1275 51.0753 55.1275C51.578 55.1275 51.9856 55.5358 51.9856 56.0395C51.9856 56.5432 51.578 56.9515 51.0753 56.9515C50.5726 56.9515 50.1651 56.5432 50.1651 56.0395ZM10.2151 55.1275C9.71235 55.1275 9.30481 55.5358 9.30481 56.0395C9.30481 56.5432 9.71235 56.9515 10.2151 56.9515C10.7178 56.9515 11.1253 56.5432 11.1253 56.0395C11.1253 55.5358 10.7178 55.1275 10.2151 55.1275ZM6.1695 11.1471C6.67221 11.1471 7.07975 10.7388 7.07975 10.2351C7.07975 9.73136 6.67221 9.32303 6.1695 9.32303C5.66678 9.32303 5.25924 9.73136 5.25924 10.2351C5.25924 10.7388 5.66678 11.1471 6.1695 11.1471ZM10.923 14.2886C10.923 14.7923 10.5155 15.2006 10.0128 15.2006C9.51007 15.2006 9.10253 14.7923 9.10253 14.2886C9.10253 13.7848 9.51007 13.3765 10.0128 13.3765C10.5155 13.3765 10.923 13.7848 10.923 14.2886ZM2.62962 30.7052C2.62962 31.2089 2.22209 31.6172 1.71937 31.6172C1.21665 31.6172 0.809114 31.2089 0.809114 30.7052C0.809114 30.2015 1.21665 29.7931 1.71937 29.7931C2.22209 29.7931 2.62962 30.2015 2.62962 30.7052ZM9.10253 47.9325C9.10253 47.4288 9.51007 47.0205 10.0128 47.0205C10.5155 47.0205 10.923 47.4288 10.923 47.9325C10.923 48.4362 10.5155 48.8445 10.0128 48.8445C9.51007 48.8445 9.10253 48.4362 9.10253 47.9325ZM7.07975 52.3914C7.07975 51.8876 6.67221 51.4793 6.1695 51.4793C5.66678 51.4793 5.25924 51.8876 5.25924 52.3914C5.25924 52.8951 5.66678 53.3034 6.1695 53.3034C6.67221 53.3034 7.07975 52.8951 7.07975 52.3914ZM54.0084 52.3914C54.0084 51.8876 54.4159 51.4793 54.9186 51.4793C55.4213 51.4793 55.8289 51.8876 55.8289 52.3914C55.8289 52.8951 55.4213 53.3034 54.9186 53.3034C54.4159 53.3034 54.0084 52.8951 54.0084 52.3914ZM51.0753 47.4258C50.5726 47.4258 50.1651 47.8342 50.1651 48.3379C50.1651 48.8416 50.5726 49.2499 51.0753 49.2499C51.5781 49.2499 51.9856 48.8416 51.9856 48.3379C51.9856 47.8342 51.5781 47.4258 51.0753 47.4258ZM59.3687 31.0092C58.866 31.0092 58.4585 31.4175 58.4585 31.9212C58.4585 32.4249 58.866 32.8333 59.3687 32.8333C59.8715 32.8333 60.279 32.4249 60.279 31.9212C60.279 31.4175 59.8715 31.0092 59.3687 31.0092ZM51.0753 15.6059C51.5781 15.6059 51.9856 15.1976 51.9856 14.6939C51.9856 14.1902 51.5781 13.7819 51.0753 13.7819C50.5726 13.7819 50.1651 14.1902 50.1651 14.6939C50.1651 15.1976 50.5726 15.6059 51.0753 15.6059ZM54.9186 11.1471C54.4159 11.1471 54.0084 10.7388 54.0084 10.2351C54.0084 9.73136 54.4159 9.32303 54.9186 9.32303C55.4213 9.32303 55.8289 9.73136 55.8289 10.2351C55.8289 10.7388 55.4213 11.1471 54.9186 11.1471ZM30.6452 43.9804C37.9626 43.9804 43.8944 38.0369 43.8944 30.7052C43.8944 23.3735 37.9626 17.43 30.6452 17.43C23.3278 17.43 17.396 23.3735 17.396 30.7052C17.396 38.0369 23.3278 43.9804 30.6452 43.9804ZM35.3987 26.753C35.3987 28.8169 34.0601 30.5676 32.2052 31.1808L35.3987 38.9135H26.3974L29.3206 31.1916C27.4486 30.5884 26.0939 28.8292 26.0939 26.753C26.0939 24.1785 28.1769 22.0915 30.7463 22.0915C33.3158 22.0915 35.3987 24.1785 35.3987 26.753Z" fill="url(#paint0_linear_1395_7179)"/>
<path d="M90.1308 27.7205C90.1308 28.4977 90.0298 29.1992 89.8279 29.8251C89.6361 30.4408 89.3787 30.9859 89.0557 31.4603C88.7327 31.9348 88.3542 32.3385 87.9201 32.6716C87.4861 33.0047 87.0369 33.2773 86.5726 33.4893C86.1082 33.7012 85.6338 33.8577 85.1493 33.9586C84.6749 34.0596 84.2257 34.11 83.8017 34.11H68.6151V30.1733H83.8017C84.5588 30.1733 85.1443 29.9513 85.5581 29.5071C85.9821 29.063 86.194 28.4674 86.194 27.7205C86.194 27.3571 86.1385 27.024 86.0275 26.7211C85.9165 26.4183 85.755 26.1559 85.543 25.9338C85.3411 25.7117 85.0887 25.5401 84.7859 25.419C84.4932 25.2979 84.1651 25.2373 83.8017 25.2373H74.7473C74.1114 25.2373 73.425 25.1263 72.6881 24.9042C71.9512 24.672 71.2648 24.3036 70.6289 23.7989C70.003 23.2942 69.4782 22.633 69.0542 21.8154C68.6403 20.9978 68.4334 19.9984 68.4334 18.8174C68.4334 17.6364 68.6403 16.6421 69.0542 15.8346C69.4782 15.017 70.003 14.3558 70.6289 13.8511C71.2648 13.3363 71.9512 12.9679 72.6881 12.7458C73.425 12.5136 74.1114 12.3976 74.7473 12.3976H88.1473V16.3343H74.7473C74.0003 16.3343 73.4149 16.5614 72.9909 17.0156C72.5771 17.4699 72.3701 18.0705 72.3701 18.8174C72.3701 19.5745 72.5771 20.1751 72.9909 20.6192C73.4149 21.0533 74.0003 21.2703 74.7473 21.2703H83.8017H83.832C84.256 21.2804 84.7052 21.341 85.1796 21.452C85.654 21.5529 86.1234 21.7144 86.5877 21.9365C87.0621 22.1586 87.5113 22.4412 87.9353 22.7844C88.3592 23.1175 88.7327 23.5213 89.0557 23.9957C89.3888 24.4701 89.6513 25.0152 89.8431 25.631C90.0349 26.2467 90.1308 26.9432 90.1308 27.7205Z" fill="black"/>
<path d="M116.189 25.3281C116.189 26.6505 115.962 27.8668 115.507 28.9772C115.053 30.0875 114.422 31.0465 113.615 31.854C112.807 32.6615 111.848 33.2924 110.738 33.7467C109.638 34.1908 108.436 34.4129 107.134 34.4129H101.805C100.502 34.4129 99.2962 34.1908 98.1859 33.7467C97.0755 33.2924 96.1166 32.6615 95.3091 31.854C94.5015 31.0465 93.8656 30.0875 93.4013 28.9772C92.947 27.8668 92.7199 26.6505 92.7199 25.3281V21.1795C92.7199 19.8672 92.947 18.6559 93.4013 17.5456C93.8656 16.4251 94.5015 15.4662 95.3091 14.6687C96.1166 13.8612 97.0755 13.2303 98.1859 12.7761C99.2962 12.3218 100.502 12.0947 101.805 12.0947H107.134C108.436 12.0947 109.638 12.3218 110.738 12.7761C111.848 13.2303 112.807 13.8612 113.615 14.6687C114.422 15.4662 115.053 16.4251 115.507 17.5456C115.962 18.6559 116.189 19.8672 116.189 21.1795V25.3281ZM112.252 21.1795C112.252 20.4022 112.126 19.7007 111.874 19.0748C111.631 18.4389 111.283 17.8989 110.829 17.4547C110.385 17.0005 109.845 16.6522 109.209 16.41C108.583 16.1576 107.891 16.0314 107.134 16.0314H101.805C101.037 16.0314 100.336 16.1576 99.7 16.41C99.0742 16.6522 98.5341 17.0005 98.0799 17.4547C97.6257 17.8989 97.2724 18.4389 97.02 19.0748C96.7778 19.7007 96.6566 20.4022 96.6566 21.1795V25.3281C96.6566 26.1054 96.7778 26.812 97.02 27.4479C97.2724 28.0737 97.6257 28.6138 98.0799 29.068C98.5341 29.5122 99.0742 29.8604 99.7 30.1128C100.336 30.355 101.037 30.4762 101.805 30.4762H107.104C107.871 30.4762 108.568 30.355 109.194 30.1128C109.829 29.8604 110.375 29.5122 110.829 29.068C111.283 28.6138 111.631 28.0737 111.874 27.4479C112.126 26.812 112.252 26.1054 112.252 25.3281V21.1795Z" fill="black"/>
<path d="M138.038 25.2373H125.591V21.2703H138.038V25.2373ZM139.794 16.3343H124.017V34.11H120.08V14.381C120.08 14.1085 120.131 13.8511 120.231 13.6088C120.332 13.3666 120.469 13.1546 120.64 12.9729C120.822 12.7912 121.034 12.6499 121.276 12.549C121.518 12.448 121.781 12.3976 122.064 12.3976H139.794V16.3343Z" fill="black"/>
<path d="M162.597 16.3343H153.921V34.11H149.984V16.3343H141.293V12.3976H162.597V16.3343Z" fill="black"/>
<path d="M187.171 25.0253C187.171 26.3477 186.939 27.564 186.474 28.6744C186.02 29.7847 185.389 30.7437 184.582 31.5512C183.774 32.3486 182.815 32.9745 181.705 33.4287C180.594 33.8829 179.388 34.11 178.086 34.11H167.457C167.174 34.11 166.912 34.0596 166.67 33.9586C166.427 33.8577 166.215 33.7214 166.034 33.5498C165.862 33.3681 165.726 33.1561 165.625 32.9139C165.524 32.6716 165.473 32.4092 165.473 32.1265V14.381C165.473 14.1085 165.524 13.8511 165.625 13.6088C165.726 13.3666 165.862 13.1546 166.034 12.9729C166.215 12.7912 166.427 12.6499 166.67 12.549C166.912 12.448 167.174 12.3976 167.457 12.3976H178.086C179.388 12.3976 180.594 12.6247 181.705 13.0789C182.815 13.5331 183.774 14.164 184.582 14.9716C185.389 15.769 186.02 16.7279 186.474 17.8484C186.939 18.9587 187.171 20.17 187.171 21.4823V25.0253ZM183.234 21.4823C183.234 20.7151 183.108 20.0136 182.856 19.3776C182.613 18.7417 182.265 18.2017 181.811 17.7575C181.357 17.3033 180.811 16.9551 180.176 16.7128C179.55 16.4604 178.853 16.3343 178.086 16.3343H169.41V30.1733H178.086C178.853 30.1733 179.55 30.0522 180.176 29.8099C180.811 29.5576 181.357 29.2093 181.811 28.7652C182.265 28.311 182.613 27.7709 182.856 27.1451C183.108 26.5092 183.234 25.8026 183.234 25.0253V21.4823Z" fill="black"/>
<path d="M212.335 34.11H208.399V28.7803H194.56V34.11H190.623V23.2538C190.623 21.669 190.896 20.2104 191.441 18.878C191.986 17.5456 192.743 16.3999 193.712 15.4409C194.681 14.482 195.826 13.735 197.149 13.2C198.471 12.665 199.915 12.3976 201.479 12.3976H210.352C210.624 12.3976 210.882 12.448 211.124 12.549C211.366 12.6499 211.578 12.7912 211.76 12.9729C211.942 13.1546 212.083 13.3666 212.184 13.6088C212.285 13.8511 212.335 14.1085 212.335 14.381V34.11ZM194.56 24.8436H208.399V16.3343H201.479C201.358 16.3343 201.101 16.3545 200.707 16.3948C200.323 16.4251 199.874 16.5109 199.359 16.6522C198.855 16.7935 198.32 17.0106 197.754 17.3033C197.189 17.596 196.669 17.9998 196.195 18.5146C195.72 19.0294 195.327 19.6754 195.014 20.4527C194.711 21.2198 194.56 22.1535 194.56 23.2538V24.8436Z" fill="black"/>
<path d="M236.546 16.3343H227.87V34.11H223.934V16.3343H215.243V12.3976H236.546V16.3343Z" fill="black"/>
<path d="M260 34.11H256.063V28.7803H242.224V34.11H238.287V23.2538C238.287 21.669 238.56 20.2104 239.105 18.878C239.65 17.5456 240.407 16.3999 241.376 15.4409C242.345 14.482 243.491 13.735 244.813 13.2C246.136 12.665 247.579 12.3976 249.144 12.3976H258.016C258.289 12.3976 258.546 12.448 258.789 12.549C259.031 12.6499 259.243 12.7912 259.425 12.9729C259.606 13.1546 259.748 13.3666 259.849 13.6088C259.95 13.8511 260 14.1085 260 14.381V34.11ZM242.224 24.8436H256.063V16.3343H249.144C249.023 16.3343 248.765 16.3545 248.372 16.3948C247.988 16.4251 247.539 16.5109 247.024 16.6522C246.519 16.7935 245.984 17.0106 245.419 17.3033C244.854 17.596 244.334 17.9998 243.859 18.5146C243.385 19.0294 242.991 19.6754 242.678 20.4527C242.376 21.2198 242.224 22.1535 242.224 23.2538V24.8436Z" fill="black"/>
<path d="M70.5229 46.654L73.6389 53.3358H72.9212L71.8719 51.1373H68.9921L67.9473 53.3358H67.2024L70.3593 46.654H70.5229ZM70.4411 48.0712L69.2919 50.4923H71.5767L70.4411 48.0712Z" fill="black"/>
<path d="M76.6596 48.3937H77.3091V49.116C77.503 48.8313 77.7074 48.6193 77.9224 48.48C78.1374 48.3377 78.3615 48.2666 78.5946 48.2666C78.7703 48.2666 78.958 48.3226 79.1579 48.4346L78.8263 48.9706C78.6931 48.9131 78.581 48.8843 78.4902 48.8843C78.2782 48.8843 78.0738 48.9721 77.8769 49.1478C77.6801 49.3204 77.5302 49.5899 77.4273 49.9563C77.3485 50.2379 77.3091 50.8073 77.3091 51.6642V53.3358H76.6596V48.3937Z" fill="black"/>
<path d="M82.5783 46.5586H83.2188V48.3937H84.2272V48.9388H83.2188V53.3358H82.5783V48.9388H81.7107V48.3937H82.5783V46.5586Z" fill="black"/>
<path d="M87.7248 46.3588C87.8701 46.3588 87.9943 46.4102 88.0973 46.5132C88.2002 46.6162 88.2517 46.7403 88.2517 46.8857C88.2517 47.028 88.2002 47.1506 88.0973 47.2536C87.9943 47.3566 87.8701 47.4081 87.7248 47.4081C87.5825 47.4081 87.4598 47.3566 87.3569 47.2536C87.2539 47.1506 87.2024 47.028 87.2024 46.8857C87.2024 46.7403 87.2539 46.6162 87.3569 46.5132C87.4598 46.4102 87.5825 46.3588 87.7248 46.3588ZM87.4068 48.3937H88.0473V53.3358H87.4068V48.3937Z" fill="black"/>
<path d="M93.7253 46.486V47.1083C93.4921 47.0083 93.2922 46.9584 93.1257 46.9584C93.0015 46.9584 92.8985 46.9841 92.8168 47.0356C92.735 47.084 92.6835 47.1416 92.6623 47.2082C92.6411 47.2718 92.6305 47.4444 92.6305 47.726V48.3937H93.6617V48.9388H92.626V53.3358H91.9901V48.9388H91.3405V48.3937H91.9901V47.6215C91.9901 47.2672 92.0219 47.0144 92.0855 46.863C92.1521 46.7116 92.2626 46.5904 92.417 46.4996C92.5745 46.4057 92.7638 46.3588 92.9848 46.3588C93.1908 46.3588 93.4376 46.4012 93.7253 46.486Z" fill="black"/>
<path d="M97.1638 46.3588C97.3092 46.3588 97.4333 46.4102 97.5363 46.5132C97.6393 46.6162 97.6907 46.7403 97.6907 46.8857C97.6907 47.028 97.6393 47.1506 97.5363 47.2536C97.4333 47.3566 97.3092 47.4081 97.1638 47.4081C97.0215 47.4081 96.8988 47.3566 96.7959 47.2536C96.6929 47.1506 96.6414 47.028 96.6414 46.8857C96.6414 46.7403 96.6929 46.6162 96.7959 46.5132C96.8988 46.4102 97.0215 46.3588 97.1638 46.3588ZM96.8459 48.3937H97.4863V53.3358H96.8459V48.3937Z" fill="black"/>
<path d="M105.926 49.4203L105.422 49.7337C104.986 49.1553 104.391 48.8661 103.637 48.8661C103.034 48.8661 102.533 49.06 102.133 49.4476C101.736 49.8352 101.538 50.3061 101.538 50.8602C101.538 51.2206 101.629 51.5598 101.811 51.8777C101.995 52.1957 102.247 52.4425 102.565 52.6181C102.886 52.7938 103.245 52.8816 103.641 52.8816C104.368 52.8816 104.962 52.5924 105.422 52.014L105.926 52.3456C105.69 52.6999 105.372 52.9755 104.972 53.1723C104.575 53.3661 104.123 53.463 103.614 53.463C102.833 53.463 102.185 53.2147 101.67 52.7181C101.155 52.2214 100.898 51.6173 100.898 50.9057C100.898 50.4272 101.017 49.9836 101.256 49.5748C101.499 49.1629 101.83 48.8419 102.251 48.6118C102.672 48.3816 103.143 48.2666 103.664 48.2666C103.991 48.2666 104.306 48.3165 104.609 48.4165C104.915 48.5164 105.174 48.6466 105.385 48.8071C105.597 48.9676 105.778 49.172 105.926 49.4203Z" fill="black"/>
<path d="M109.701 46.3588C109.846 46.3588 109.97 46.4102 110.073 46.5132C110.176 46.6162 110.228 46.7403 110.228 46.8857C110.228 47.028 110.176 47.1506 110.073 47.2536C109.97 47.3566 109.846 47.4081 109.701 47.4081C109.558 47.4081 109.436 47.3566 109.333 47.2536C109.23 47.1506 109.178 47.028 109.178 46.8857C109.178 46.7403 109.23 46.6162 109.333 46.5132C109.436 46.4102 109.558 46.3588 109.701 46.3588ZM109.383 48.3937H110.023V53.3358H109.383V48.3937Z" fill="black"/>
<path d="M118.59 48.3937V53.3358H117.963V52.4864C117.697 52.8104 117.397 53.0542 117.064 53.2177C116.734 53.3813 116.372 53.463 115.978 53.463C115.279 53.463 114.681 53.2102 114.184 52.7044C113.69 52.1957 113.444 51.5779 113.444 50.8512C113.444 50.1395 113.693 49.5308 114.193 49.0251C114.693 48.5194 115.294 48.2666 115.996 48.2666C116.402 48.2666 116.769 48.3529 117.096 48.5255C117.426 48.6981 117.715 48.957 117.963 49.3022V48.3937H118.59ZM116.046 48.8798C115.692 48.8798 115.365 48.9676 115.065 49.1432C114.765 49.3158 114.526 49.5596 114.348 49.8746C114.172 50.1895 114.084 50.5226 114.084 50.8739C114.084 51.2221 114.173 51.5552 114.352 51.8732C114.531 52.1912 114.77 52.4395 115.07 52.6181C115.373 52.7938 115.697 52.8816 116.042 52.8816C116.39 52.8816 116.72 52.7938 117.032 52.6181C117.344 52.4425 117.583 52.2048 117.75 51.905C117.919 51.6052 118.004 51.2675 118.004 50.892C118.004 50.3197 117.815 49.8412 117.436 49.4567C117.061 49.0721 116.598 48.8798 116.046 48.8798Z" fill="black"/>
<path d="M122.256 46.486H122.892V53.3358H122.256V46.486Z" fill="black"/>
<path d="M131.454 46.654H132.122V53.3358H131.454V46.654Z" fill="black"/>
<path d="M135.878 48.3937H136.514V49.2795C136.769 48.9403 137.05 48.6875 137.359 48.5209C137.668 48.3513 138.004 48.2666 138.368 48.2666C138.737 48.2666 139.064 48.3604 139.349 48.5482C139.636 48.7359 139.848 48.9888 139.985 49.3068C140.121 49.6247 140.189 50.1198 140.189 50.7921V53.3358H139.558V50.9783C139.558 50.409 139.533 50.029 139.485 49.8382C139.409 49.5112 139.267 49.2659 139.058 49.1024C138.849 48.9358 138.577 48.8525 138.24 48.8525C137.856 48.8525 137.511 48.9797 137.205 49.2341C136.902 49.4885 136.702 49.8034 136.605 50.1789C136.545 50.4242 136.514 50.8724 136.514 51.5234V53.3358H135.878V48.3937Z" fill="black"/>
<path d="M144.436 46.5586H145.077V48.3937H146.085V48.9388H145.077V53.3358H144.436V48.9388H143.569V48.3937H144.436V46.5586Z" fill="black"/>
<path d="M153.521 51.696L154.057 51.9777C153.881 52.3229 153.678 52.6015 153.448 52.8135C153.218 53.0254 152.959 53.1874 152.671 53.2995C152.384 53.4085 152.058 53.463 151.695 53.463C150.889 53.463 150.259 53.1996 149.805 52.6726C149.351 52.1427 149.124 51.5446 149.124 50.8784C149.124 50.2516 149.316 49.6929 149.701 49.2023C150.188 48.5785 150.841 48.2666 151.659 48.2666C152.5 48.2666 153.173 48.586 153.675 49.225C154.033 49.6762 154.214 50.2395 154.22 50.9148H149.778C149.79 51.4901 149.973 51.9625 150.328 52.332C150.682 52.6984 151.12 52.8816 151.64 52.8816C151.892 52.8816 152.135 52.8377 152.372 52.7499C152.611 52.662 152.814 52.5455 152.98 52.4001C153.147 52.2548 153.327 52.0201 153.521 51.696ZM153.521 50.3651C153.436 50.026 153.312 49.7549 153.148 49.552C152.988 49.3492 152.774 49.1856 152.508 49.0615C152.241 48.9373 151.961 48.8752 151.668 48.8752C151.183 48.8752 150.767 49.0312 150.418 49.3431C150.164 49.5702 149.972 49.9109 149.842 50.3651H153.521Z" fill="black"/>
<path d="M157.641 46.486H158.277V53.3358H157.641V46.486Z" fill="black"/>
<path d="M161.829 46.486H162.465V53.3358H161.829V46.486Z" fill="black"/>
<path d="M166.335 46.3588C166.48 46.3588 166.604 46.4102 166.707 46.5132C166.81 46.6162 166.862 46.7403 166.862 46.8857C166.862 47.028 166.81 47.1506 166.707 47.2536C166.604 47.3566 166.48 47.4081 166.335 47.4081C166.193 47.4081 166.07 47.3566 165.967 47.2536C165.864 47.1506 165.813 47.028 165.813 46.8857C165.813 46.7403 165.864 46.6162 165.967 46.5132C166.07 46.4102 166.193 46.3588 166.335 46.3588ZM166.017 48.3937H166.657V53.3358H166.017V48.3937Z" fill="black"/>
<path d="M174.557 48.3937H175.197V52.332C175.197 53.0254 175.137 53.5327 175.015 53.8537C174.849 54.3079 174.56 54.6577 174.148 54.9029C173.736 55.1482 173.241 55.2709 172.662 55.2709C172.238 55.2709 171.857 55.2103 171.518 55.0892C171.182 54.9711 170.908 54.8106 170.696 54.6077C170.484 54.4078 170.288 54.1141 170.11 53.7265H170.8C170.988 54.0535 171.23 54.2958 171.527 54.4533C171.824 54.6107 172.192 54.6895 172.631 54.6895C173.064 54.6895 173.429 54.6077 173.725 54.4442C174.025 54.2837 174.239 54.0808 174.366 53.8355C174.493 53.5902 174.557 53.195 174.557 52.6499V52.3956C174.317 52.6984 174.025 52.9316 173.68 53.0951C173.335 53.2556 172.968 53.3358 172.581 53.3358C172.126 53.3358 171.699 53.2238 171.3 52.9997C170.9 52.7726 170.591 52.4682 170.373 52.0867C170.155 51.7051 170.046 51.2857 170.046 50.8284C170.046 50.3712 170.16 49.9457 170.387 49.552C170.614 49.1553 170.927 48.8419 171.327 48.6118C171.73 48.3816 172.154 48.2666 172.599 48.2666C172.968 48.2666 173.312 48.3438 173.63 48.4982C173.951 48.6496 174.26 48.901 174.557 49.2522V48.3937ZM172.681 48.8798C172.32 48.8798 171.986 48.9676 171.677 49.1432C171.368 49.3158 171.126 49.5566 170.95 49.8655C170.774 50.1713 170.687 50.5029 170.687 50.8602C170.687 51.4023 170.868 51.8505 171.232 52.2048C171.595 52.5591 172.066 52.7362 172.644 52.7362C173.229 52.7362 173.698 52.5606 174.052 52.2093C174.41 51.8581 174.588 51.3962 174.588 50.8239C174.588 50.4514 174.507 50.1198 174.343 49.8291C174.18 49.5354 173.948 49.3037 173.648 49.1341C173.348 48.9646 173.026 48.8798 172.681 48.8798Z" fill="black"/>
<path d="M183.046 51.696L183.582 51.9777C183.407 52.3229 183.204 52.6015 182.974 52.8135C182.743 53.0254 182.485 53.1874 182.197 53.2995C181.909 53.4085 181.584 53.463 181.22 53.463C180.415 53.463 179.785 53.1996 179.331 52.6726C178.876 52.1427 178.649 51.5446 178.649 50.8784C178.649 50.2516 178.842 49.6929 179.226 49.2023C179.714 48.5785 180.366 48.2666 181.184 48.2666C182.026 48.2666 182.698 48.586 183.201 49.225C183.558 49.6762 183.74 50.2395 183.746 50.9148H179.303C179.315 51.4901 179.499 51.9625 179.853 52.332C180.207 52.6984 180.645 52.8816 181.166 52.8816C181.417 52.8816 181.661 52.8377 181.897 52.7499C182.136 52.662 182.339 52.5455 182.506 52.4001C182.672 52.2548 182.852 52.0201 183.046 51.696ZM183.046 50.3651C182.961 50.026 182.837 49.7549 182.674 49.552C182.513 49.3492 182.3 49.1856 182.033 49.0615C181.767 48.9373 181.487 48.8752 181.193 48.8752C180.708 48.8752 180.292 49.0312 179.944 49.3431C179.689 49.5702 179.497 49.9109 179.367 50.3651H183.046Z" fill="black"/>
<path d="M187.262 48.3937H187.898V49.2795C188.152 48.9403 188.434 48.6875 188.742 48.5209C189.051 48.3513 189.387 48.2666 189.751 48.2666C190.12 48.2666 190.447 48.3604 190.732 48.5482C191.02 48.7359 191.232 48.9888 191.368 49.3068C191.504 49.6247 191.572 50.1198 191.572 50.7921V53.3358H190.941V50.9783C190.941 50.409 190.917 50.029 190.868 49.8382C190.793 49.5112 190.65 49.2659 190.441 49.1024C190.232 48.9358 189.96 48.8525 189.624 48.8525C189.239 48.8525 188.894 48.9797 188.588 49.2341C188.285 49.4885 188.085 49.8034 187.988 50.1789C187.928 50.4242 187.898 50.8724 187.898 51.5234V53.3358H187.262V48.3937Z" fill="black"/>
<path d="M200.062 49.4203L199.558 49.7337C199.122 49.1553 198.527 48.8661 197.773 48.8661C197.17 48.8661 196.669 49.06 196.269 49.4476C195.872 49.8352 195.674 50.3061 195.674 50.8602C195.674 51.2206 195.765 51.5598 195.947 51.8777C196.131 52.1957 196.383 52.4425 196.701 52.6181C197.022 52.7938 197.38 52.8816 197.777 52.8816C198.504 52.8816 199.097 52.5924 199.558 52.014L200.062 52.3456C199.826 52.6999 199.508 52.9755 199.108 53.1723C198.711 53.3661 198.259 53.463 197.75 53.463C196.969 53.463 196.321 53.2147 195.806 52.7181C195.291 52.2214 195.034 51.6173 195.034 50.9057C195.034 50.4272 195.153 49.9836 195.392 49.5748C195.635 49.1629 195.966 48.8419 196.387 48.6118C196.808 48.3816 197.279 48.2666 197.8 48.2666C198.127 48.2666 198.442 48.3165 198.745 48.4165C199.051 48.5164 199.309 48.6466 199.521 48.8071C199.733 48.9676 199.914 49.172 200.062 49.4203Z" fill="black"/>
<path d="M207.775 51.696L208.311 51.9777C208.135 52.3229 207.932 52.6015 207.702 52.8135C207.472 53.0254 207.213 53.1874 206.925 53.2995C206.638 53.4085 206.312 53.463 205.949 53.463C205.143 53.463 204.513 53.1996 204.059 52.6726C203.605 52.1427 203.378 51.5446 203.378 50.8784C203.378 50.2516 203.57 49.6929 203.955 49.2023C204.442 48.5785 205.095 48.2666 205.913 48.2666C206.754 48.2666 207.427 48.586 207.929 49.225C208.287 49.6762 208.468 50.2395 208.474 50.9148H204.032C204.044 51.4901 204.227 51.9625 204.582 52.332C204.936 52.6984 205.374 52.8816 205.894 52.8816C206.146 52.8816 206.389 52.8377 206.626 52.7499C206.865 52.662 207.068 52.5455 207.234 52.4001C207.401 52.2548 207.581 52.0201 207.775 51.696ZM207.775 50.3651C207.69 50.026 207.566 49.7549 207.402 49.552C207.242 49.3492 207.028 49.1856 206.762 49.0615C206.495 48.9373 206.215 48.8752 205.922 48.8752C205.437 48.8752 205.021 49.0312 204.672 49.3431C204.418 49.5702 204.226 49.9109 204.096 50.3651H207.775Z" fill="black"/>
<path d="M216.31 52.0912L216.878 51.7505C217.278 52.4864 217.739 52.8543 218.263 52.8543C218.487 52.8543 218.698 52.8029 218.895 52.6999C219.091 52.5939 219.241 52.4531 219.344 52.2775C219.447 52.1018 219.499 51.9156 219.499 51.7188C219.499 51.4947 219.423 51.2751 219.272 51.0601C219.063 50.7633 218.681 50.406 218.127 49.9881C217.57 49.5672 217.223 49.2628 217.087 49.0751C216.851 48.7602 216.732 48.4195 216.732 48.0531C216.732 47.7624 216.802 47.4974 216.941 47.2582C217.081 47.0189 217.276 46.8312 217.527 46.6949C217.782 46.5556 218.057 46.486 218.354 46.486C218.669 46.486 218.963 46.5647 219.235 46.7222C219.511 46.8766 219.802 47.1628 220.107 47.5807L219.562 47.994C219.311 47.6609 219.096 47.4414 218.917 47.3354C218.742 47.2294 218.549 47.1764 218.34 47.1764C218.071 47.1764 217.85 47.2582 217.677 47.4217C217.508 47.5852 217.423 47.7866 217.423 48.0258C217.423 48.1712 217.453 48.312 217.514 48.4483C217.574 48.5845 217.685 48.7329 217.845 48.8934C217.933 48.9782 218.221 49.2008 218.708 49.5611C219.287 49.9881 219.683 50.3682 219.898 50.7013C220.113 51.0344 220.221 51.369 220.221 51.7051C220.221 52.1896 220.036 52.6106 219.667 52.9679C219.3 53.3252 218.854 53.5039 218.327 53.5039C217.921 53.5039 217.553 53.3964 217.223 53.1814C216.893 52.9634 216.589 52.6 216.31 52.0912Z" fill="black"/>
<path d="M223.323 48.3937H223.996L225.695 52.2002L227.343 48.3937H228.02L225.072 55.1437H224.4L225.354 52.9634L223.323 48.3937Z" fill="black"/>
<path d="M233.653 48.9343L233.244 49.3567C232.905 49.0266 232.573 48.8616 232.249 48.8616C232.043 48.8616 231.866 48.9297 231.718 49.066C231.572 49.2023 231.5 49.3613 231.5 49.543C231.5 49.7035 231.56 49.8564 231.681 50.0017C231.802 50.1501 232.057 50.3242 232.444 50.5241C232.917 50.7694 233.238 51.0056 233.407 51.2327C233.574 51.4629 233.657 51.7218 233.657 52.0095C233.657 52.4152 233.515 52.759 233.23 53.0406C232.946 53.3222 232.59 53.463 232.163 53.463C231.878 53.463 231.606 53.4009 231.345 53.2768C231.088 53.1526 230.874 52.9815 230.705 52.7635L231.104 52.3093C231.428 52.6757 231.772 52.8589 232.136 52.8589C232.39 52.8589 232.606 52.7771 232.785 52.6136C232.964 52.4501 233.053 52.2578 233.053 52.0367C233.053 51.855 232.994 51.693 232.876 51.5507C232.758 51.4114 232.491 51.2357 232.077 51.0238C231.631 50.7936 231.329 50.5665 231.168 50.3424C231.008 50.1183 230.927 49.8624 230.927 49.5748C230.927 49.1993 231.055 48.8873 231.309 48.639C231.566 48.3907 231.89 48.2666 232.281 48.2666C232.735 48.2666 233.192 48.4891 233.653 48.9343Z" fill="black"/>
<path d="M237.664 46.5586H238.304V48.3937H239.313V48.9388H238.304V53.3358H237.664V48.9388H236.796V48.3937H237.664V46.5586Z" fill="black"/>
<path d="M246.748 51.696L247.284 51.9777C247.109 52.3229 246.906 52.6015 246.676 52.8135C246.446 53.0254 246.187 53.1874 245.899 53.2995C245.611 53.4085 245.286 53.463 244.922 53.463C244.117 53.463 243.487 53.1996 243.033 52.6726C242.578 52.1427 242.351 51.5446 242.351 50.8784C242.351 50.2516 242.544 49.6929 242.928 49.2023C243.416 48.5785 244.068 48.2666 244.886 48.2666C245.728 48.2666 246.4 48.586 246.903 49.225C247.26 49.6762 247.442 50.2395 247.448 50.9148H243.005C243.018 51.4901 243.201 51.9625 243.555 52.332C243.909 52.6984 244.347 52.8816 244.868 52.8816C245.119 52.8816 245.363 52.8377 245.599 52.7499C245.838 52.662 246.041 52.5455 246.208 52.4001C246.374 52.2548 246.555 52.0201 246.748 51.696ZM246.748 50.3651C246.664 50.026 246.539 49.7549 246.376 49.552C246.215 49.3492 246.002 49.1856 245.735 49.0615C245.469 48.9373 245.189 48.8752 244.895 48.8752C244.411 48.8752 243.994 49.0312 243.646 49.3431C243.392 49.5702 243.199 49.9109 243.069 50.3651H246.748Z" fill="black"/>
<path d="M250.959 48.3937H251.591V49.2477C251.812 48.9328 252.039 48.7026 252.272 48.5573C252.593 48.3635 252.931 48.2666 253.285 48.2666C253.524 48.2666 253.751 48.3135 253.966 48.4074C254.181 48.5012 254.357 48.6269 254.493 48.7844C254.629 48.9388 254.747 49.1614 254.847 49.4521C255.059 49.0645 255.324 48.7708 255.642 48.5709C255.96 48.368 256.302 48.2666 256.669 48.2666C257.011 48.2666 257.312 48.3529 257.573 48.5255C257.836 48.6981 258.032 48.9388 258.159 49.2477C258.286 49.5566 258.35 50.0199 258.35 50.6377V53.3358H257.7V50.6377C257.7 50.1077 257.662 49.7443 257.586 49.5475C257.511 49.3476 257.381 49.1871 257.196 49.066C257.014 48.9449 256.796 48.8843 256.542 48.8843C256.233 48.8843 255.95 48.9752 255.692 49.1569C255.438 49.3386 255.252 49.5808 255.134 49.8836C255.015 50.1865 254.956 50.6922 254.956 51.4008V53.3358H254.325V50.8057C254.325 50.2092 254.287 49.8049 254.211 49.5929C254.139 49.3779 254.01 49.2068 253.825 49.0796C253.641 48.9494 253.421 48.8843 253.167 48.8843C252.873 48.8843 252.597 48.9737 252.34 49.1523C252.086 49.328 251.896 49.5657 251.772 49.8655C251.651 50.1653 251.591 50.624 251.591 51.2418V53.3358H250.959V48.3937Z" fill="black"/>
<defs>
<linearGradient id="paint0_linear_1395_7179" x1="30.5441" y1="0" x2="30.5441" y2="62.0184" gradientUnits="userSpaceOnUse">
<stop stop-color="#29B85D"/>
<stop offset="1" stop-color="#00FFF0"/>
</linearGradient>
</defs>
</svg>
