<svg width="293" height="293" viewBox="0 0 293 293" fill="none" xmlns="http://www.w3.org/2000/svg">
<path d="M14.6694 62.8022C12.2584 62.8022 10.3047 60.8485 10.3047 58.4375V21.8978C10.3047 15.5056 15.5049 10.3054 21.8971 10.3054H58.4368C60.8478 10.3054 62.8015 12.2591 62.8015 14.6701C62.8015 17.081 60.8478 19.0348 58.4368 19.0348H21.8971C20.3188 19.0348 19.0346 20.3189 19.0346 21.8972V58.437C19.0346 60.8485 17.0803 62.8022 14.6694 62.8022Z" fill="#B4FFCF"/>
<path d="M278.329 62.8022C275.918 62.8022 273.964 60.8485 273.964 58.4376V21.8978C273.964 20.3195 272.68 19.0354 271.102 19.0354H234.562C232.151 19.0354 230.197 17.0817 230.197 14.6707C230.197 12.2597 232.151 10.306 234.562 10.306H271.102C277.494 10.306 282.694 15.5062 282.694 21.8984V58.4381C282.694 60.8485 280.739 62.8022 278.329 62.8022Z" fill="#B4FFCF"/>
<path d="M58.4368 282.695H21.8971C15.5049 282.695 10.3047 277.494 10.3047 271.102V234.563C10.3047 232.152 12.2584 230.198 14.6694 230.198C17.0803 230.198 19.034 232.152 19.034 234.563V271.102C19.034 272.681 20.3182 273.965 21.8965 273.965H58.4362C60.8472 273.965 62.8009 275.918 62.8009 278.329C62.8015 280.74 60.8478 282.695 58.4368 282.695Z" fill="#B4FFCF"/>
<path d="M271.102 282.695H234.562C232.151 282.695 230.197 280.741 230.197 278.33C230.197 275.919 232.151 273.965 234.562 273.965H271.102C272.68 273.965 273.964 272.681 273.964 271.103V234.563C273.964 232.152 275.918 230.198 278.329 230.198C280.74 230.198 282.694 232.152 282.694 234.563V271.103C282.694 277.495 277.494 282.695 271.102 282.695Z" fill="#B4FFCF"/>
<path d="M146.499 29.3406C144.088 29.3406 142.135 27.3869 142.135 24.976V4.36467C142.135 1.95371 144.088 0 146.499 0C148.91 0 150.864 1.95371 150.864 4.36467V24.976C150.864 27.3869 148.91 29.3406 146.499 29.3406Z" fill="#B4FFCF"/>
<path d="M146.499 293C144.088 293 142.135 291.046 142.135 288.635V268.024C142.135 265.613 144.088 263.659 146.499 263.659C148.91 263.659 150.864 265.613 150.864 268.024V288.635C150.864 291.046 148.91 293 146.499 293Z" fill="#B4FFCF"/>
<path d="M288.636 150.865H268.025C265.614 150.865 263.66 148.911 263.66 146.5C263.66 144.089 265.614 142.135 268.025 142.135H288.636C291.047 142.135 293.001 144.089 293.001 146.5C293.001 148.911 291.047 150.865 288.636 150.865Z" fill="#B4FFCF"/>
<path d="M24.976 150.865H4.36467C1.95371 150.865 0 148.911 0 146.5C0 144.089 1.95371 142.135 4.36467 142.135H24.976C27.3869 142.135 29.3406 144.089 29.3406 146.5C29.3406 148.911 27.3869 150.865 24.976 150.865Z" fill="#B4FFCF"/>
<path d="M16.548 29.9232C23.9354 29.9232 29.9242 23.9345 29.9242 16.547C29.9242 9.1596 23.9354 3.1709 16.548 3.1709C9.16058 3.1709 3.17188 9.1596 3.17188 16.547C3.17188 23.9345 9.16058 29.9232 16.548 29.9232Z" fill="#29B85D"/>
<path d="M276.454 289.829C283.842 289.829 289.83 283.84 289.83 276.453C289.83 269.065 283.842 263.077 276.454 263.077C269.067 263.077 263.078 269.065 263.078 276.453C263.078 283.84 269.067 289.829 276.454 289.829Z" fill="#29B85D"/>
<path d="M16.548 289.829C23.9354 289.829 29.9242 283.84 29.9242 276.453C29.9242 269.065 23.9354 263.077 16.548 263.077C9.16058 263.077 3.17188 269.065 3.17188 276.453C3.17188 283.84 9.16058 289.829 16.548 289.829Z" fill="#29B85D"/>
<path d="M276.454 29.9232C283.842 29.9232 289.83 23.9345 289.83 16.547C289.83 9.1596 283.842 3.1709 276.454 3.1709C269.067 3.1709 263.078 9.1596 263.078 16.547C263.078 23.9345 269.067 29.9232 276.454 29.9232Z" fill="#29B85D"/>
<path d="M177.885 68.4062C176.513 63.1005 170.658 55.5816 148.473 55.5816C114.197 55.5816 109.318 60.6569 100.196 51.8919C92.499 44.4948 87.9802 80.0901 98.2412 91.3944C93.9106 107.404 97.3748 123.44 97.3748 123.44H193.809C193.809 123.44 201.904 85.9816 177.885 68.4062Z" fill="#2F2E41"/>
<path d="M107.111 125.122C107.111 125.122 102.955 117.508 94.6406 117.508C86.3251 117.508 80.4353 154.063 107.111 147.969V125.122Z" fill="#FFC69D"/>
<path d="M184.07 125.122C184.07 125.122 188.227 117.508 196.543 117.508C204.857 117.508 210.747 154.063 184.07 147.969V125.122Z" fill="#FFC69D"/>
<path d="M145.591 76.1376C81.8884 76.1376 94.0689 180.613 145.591 180.613C197.113 180.613 209.294 76.1376 145.591 76.1376Z" fill="#FFD4B5"/>
<path d="M145.592 70.4505C145.592 70.4505 102.262 64.3384 102.262 119.933C102.262 119.933 107.718 96.9548 120.233 90.6885C126.063 87.7696 128.198 95.1635 145.592 95.1635C162.984 95.1635 165.119 87.7696 170.949 90.6885C183.465 96.9548 188.92 119.933 188.92 119.933C188.92 64.3384 145.592 70.4505 145.592 70.4505Z" fill="#2F2E41"/>
<path d="M170.353 186.529L170.213 170.722C163.668 176.612 155.524 180.263 146 180.347C136.476 180.431 128.269 176.923 121.621 171.15L121.756 186.404C121.792 190.352 119.267 193.868 115.516 195.097L76.3847 207.932C64.6651 211.776 56.7422 222.715 56.7422 235.048V240.571H235.363V235.036C235.363 222.708 227.445 211.774 215.733 207.925L176.588 195.062C172.895 193.85 170.387 190.416 170.353 186.529Z" fill="#29B85D"/>
<path d="M144.656 229.315C164.728 229.315 181.849 216.716 188.565 198.998L176.587 195.062C172.893 193.848 170.386 190.416 170.352 186.529L170.212 170.72C163.667 176.612 155.523 180.263 145.999 180.347C136.475 180.43 128.268 176.923 121.62 171.149L121.755 186.402C121.791 190.352 119.266 193.866 115.515 195.098L101.074 199.835C108.007 217.111 124.901 229.315 144.656 229.315Z" fill="#FFC69D"/>
<path d="M191.965 123.44C191.965 120.895 190.19 118.772 187.812 118.228L183.845 102.699C185.496 101.788 186.616 100.031 186.616 98.0111C186.616 95.0564 184.221 92.6616 181.266 92.6616C179.029 92.6616 177.114 94.0342 176.316 95.9845L150.039 93.4355C149.507 91.0423 147.375 89.251 144.821 89.251C142.265 89.251 140.132 91.0455 139.601 93.4404L113.749 95.9488C112.941 94.018 111.036 92.6616 108.812 92.6616C105.857 92.6616 103.462 95.0564 103.462 98.0111C103.462 99.8932 104.436 101.545 105.906 102.499L101.918 118.106C99.1236 118.285 96.9121 120.6 96.9121 123.438C96.9121 126.375 99.2794 128.757 102.21 128.786L106.349 141.945C105.099 142.925 104.293 144.443 104.293 146.154C104.293 149.011 106.532 151.336 109.351 151.488L112.159 160.416C110.804 161.386 109.917 162.971 109.917 164.764C109.917 167.719 112.312 170.114 115.268 170.114C116.715 170.114 118.026 169.538 118.99 168.603L139.554 179.434C139.504 179.73 139.471 180.034 139.471 180.345C139.471 183.3 141.866 185.695 144.821 185.695C147.776 185.695 150.17 183.3 150.17 180.345C150.17 180.044 150.14 179.75 150.093 179.461L171.143 168.373C172.122 169.44 173.524 170.114 175.086 170.114C178.041 170.114 180.436 167.719 180.436 164.764C180.436 162.739 179.31 160.975 177.65 160.068L180.345 151.498C180.376 151.498 180.405 151.503 180.434 151.503C183.39 151.503 185.785 149.108 185.785 146.154C185.785 144.304 184.847 142.675 183.421 141.714L187.513 128.706C190.04 128.281 191.965 126.088 191.965 123.44ZM176.623 142.404L150.753 132.307L182.032 126.188C182.547 127.045 183.295 127.746 184.189 128.202L180.222 140.815C178.815 140.871 177.546 141.464 176.623 142.404ZM181.291 122.946L149.489 129.167C148.84 128.005 147.769 127.111 146.484 126.691L146.503 99.6758C147.946 99.1972 149.116 98.123 149.719 96.7439L176.078 99.2994C176.602 101.41 178.373 103.025 180.569 103.31L184.463 118.543C182.723 119.309 181.471 120.972 181.291 122.946ZM143.176 163.104H120.35C119.655 160.982 117.674 159.445 115.325 159.419L112.563 150.633C113.96 149.722 114.898 148.174 114.979 146.4L140.807 135.307C141.433 136.016 142.239 136.559 143.159 136.86L143.176 163.104ZM107.569 122.784C107.371 121.163 106.449 119.769 105.135 118.931L109.118 103.346C111.504 103.21 113.467 101.516 114.009 99.2621L139.921 96.7487C140.533 98.1425 141.719 99.2231 143.181 99.6937L143.163 126.69C141.873 127.108 140.802 128.004 140.151 129.166L107.569 122.784ZM105.377 127.783C106.013 127.326 106.548 126.733 106.933 126.045L139.22 132.37L114.08 143.168C113.12 141.743 111.491 140.804 109.641 140.804C109.584 140.804 109.531 140.812 109.474 140.814L105.377 127.783ZM143.179 166.427L143.184 175.254C142.395 175.507 141.689 175.937 141.107 176.5L121.985 166.427H143.179ZM148.553 176.518C147.98 175.96 147.284 175.531 146.507 175.273L146.502 166.429H167.71L148.553 176.518ZM174.354 159.471C172.305 159.752 170.627 161.188 170.001 163.104H146.5L146.484 136.856C147.461 136.537 148.314 135.948 148.954 135.171L175.146 145.393C175.109 145.642 175.085 145.896 175.085 146.155C175.085 147.893 175.919 149.434 177.204 150.411L174.354 159.471Z" fill="#29B85D"/>
<path d="M235.352 234.756H56.7535C56.7519 234.853 56.7422 234.95 56.7422 235.048V240.571H235.363V235.036C235.363 234.942 235.353 234.85 235.352 234.756Z" fill="#156A34"/>
</svg>
