<svg width="77" height="77" viewBox="0 0 77 77" fill="none" xmlns="http://www.w3.org/2000/svg">
<path d="M62.6764 24.332C61.2904 23.87 60.3664 23.1 60.3664 22.176V21.56C62.2144 19.712 63.2924 16.632 63.2924 13.86C63.2924 9.548 60.5204 6.776 56.0544 6.776C51.7424 6.776 48.8164 9.548 48.8164 13.86C48.8164 16.632 49.8944 19.558 51.7424 21.56V22.022C51.7424 22.792 50.8184 23.716 49.4324 24.178C45.8904 25.41 43.7344 28.028 43.7344 30.954V33.264C43.7344 34.188 44.3504 34.804 45.2744 34.804H66.6804C67.6044 34.804 68.2204 34.188 68.2204 33.264V30.954C68.3744 28.028 66.2184 25.41 62.6764 24.332ZM56.2084 9.856C57.7484 9.856 60.3664 10.318 60.3664 13.86C60.3664 17.094 58.2104 20.482 56.2084 20.482C54.2064 20.482 52.0504 17.094 52.0504 13.86C52.0504 10.472 54.6684 9.856 56.2084 9.856ZM65.2944 31.724H46.9684V30.954C46.9684 29.414 48.3544 27.874 50.6644 27.104C52.8204 26.334 54.3604 24.948 54.8224 23.408C55.2844 23.562 55.7464 23.562 56.2084 23.562C56.6704 23.562 57.1324 23.562 57.5944 23.408C58.0564 25.102 59.5964 26.488 61.7524 27.104C63.9084 27.874 65.4484 29.414 65.4484 30.954V31.724H65.2944Z" fill="#C8CFD8"/>
<path d="M70.839 1.54004H41.5791C38.9611 1.54004 36.9591 3.54204 36.9591 6.16004V10.626C34.9571 9.85604 32.6471 9.39404 30.1831 9.39404C20.3271 9.39404 14.3211 15.4 14.3211 25.102C14.3211 32.032 17.4011 39.27 21.8671 43.428V45.738C21.8671 48.818 18.9411 51.898 14.6291 53.284C6.62106 56.056 1.53906 61.908 1.53906 68.222V73.92C1.53906 74.844 2.15506 75.46 3.07906 75.46H57.287C58.211 75.46 58.827 74.844 58.827 73.92V68.222C58.827 61.908 53.745 56.056 45.891 53.438C41.4251 51.898 38.6531 48.972 38.6531 45.892V43.582C39.7311 42.504 40.6551 41.426 41.5791 40.04H51.4351V44.968C51.4351 45.122 51.2811 45.276 51.1271 45.276H45.5831C44.6591 45.276 44.0431 45.892 44.0431 46.816C44.0431 47.74 44.6591 48.356 45.5831 48.356H51.1271C52.9751 48.356 54.5151 46.816 54.5151 44.968V40.04H70.839C73.457 40.04 75.459 38.038 75.459 35.42V6.16004C75.459 3.54204 73.457 1.54004 70.839 1.54004ZM44.8131 56.364C51.4351 58.52 55.7471 63.294 55.7471 68.222V72.38H4.61906V68.222C4.61906 63.14 8.93106 58.52 15.5531 56.364C21.4051 54.362 24.9471 50.358 24.9471 45.892C26.6411 46.816 28.4891 47.278 30.1831 47.278C31.8771 47.278 33.7251 46.816 35.4191 45.892C35.4191 50.358 39.1151 54.516 44.8131 56.364ZM36.0351 41.734C32.1851 44.968 28.1811 44.968 24.3311 41.734C20.1731 38.192 17.4011 31.416 17.4011 25.102C17.4011 17.248 22.1751 12.474 30.1831 12.474C32.8011 12.474 35.1111 13.09 36.9591 14.014V35.42C36.9591 36.806 37.5751 38.038 38.4991 38.962C37.7291 40.04 36.9591 40.964 36.0351 41.734ZM72.379 35.42C72.379 36.344 71.763 36.96 70.839 36.96H41.5791C40.6551 36.96 40.0391 36.344 40.0391 35.42V6.16004C40.0391 5.23604 40.6551 4.62004 41.5791 4.62004H70.839C71.763 4.62004 72.379 5.23604 72.379 6.16004V35.42Z" fill="#C8CFD8"/>
<path d="M7.3902 16.3241C8.3142 16.3241 8.9302 15.7081 8.9302 14.7841V9.24005C8.9302 9.08605 9.0842 8.93205 9.2382 8.93205H14.7822C15.7062 8.93205 16.3222 8.31605 16.3222 7.39205C16.3222 6.46805 15.7062 5.85205 14.7822 5.85205H9.3922C7.5442 5.85205 6.0042 7.39205 6.0042 9.24005V14.7841C5.8502 15.5541 6.6202 16.3241 7.3902 16.3241Z" fill="#C8CFD8"/>
<path d="M9.39276 48.51H14.9368C15.8608 48.51 16.4768 47.894 16.4768 46.97C16.4768 46.046 15.8608 45.43 14.9368 45.43H9.39276C9.23876 45.43 9.08476 45.276 9.08476 45.122V39.732C9.08476 38.808 8.46876 38.192 7.54476 38.192C6.62076 38.192 6.00476 38.808 6.00476 39.732V45.122C5.85076 46.97 7.39076 48.51 9.39276 48.51Z" fill="#C8CFD8"/>
</svg>
