<svg width="90" height="30" viewBox="0 0 90 30" fill="none" xmlns="http://www.w3.org/2000/svg">
<rect width="90" height="30" rx="2" fill="white"/>
<path d="M12.0748 17.9207L12.0665 17.929C11.954 17.6832 11.8832 17.404 11.854 17.0957C11.8832 17.3999 11.9623 17.6749 12.0748 17.9207Z" fill="#29B85D"/>
<path d="M14.75 14.3251C15.2976 14.3251 15.7416 13.8811 15.7416 13.3335C15.7416 12.7858 15.2976 12.3418 14.75 12.3418C14.2023 12.3418 13.7583 12.7858 13.7583 13.3335C13.7583 13.8811 14.2023 14.3251 14.75 14.3251Z" fill="#29B85D"/>
<path d="M17.746 10.8335H14.2543C12.7377 10.8335 11.8335 11.7377 11.8335 13.2543V16.746C11.8335 17.2002 11.9127 17.596 12.0668 17.9293C12.4252 18.721 13.1918 19.1668 14.2543 19.1668H17.746C19.2627 19.1668 20.1668 18.2627 20.1668 16.746V15.7918V13.2543C20.1668 11.7377 19.2627 10.8335 17.746 10.8335ZM19.4877 15.2085C19.1627 14.9293 18.6377 14.9293 18.3127 15.2085L16.5793 16.696C16.2543 16.9752 15.7293 16.9752 15.4043 16.696L15.2627 16.5793C14.9668 16.321 14.496 16.296 14.1627 16.521L12.6043 17.5668C12.5127 17.3335 12.4585 17.0627 12.4585 16.746V13.2543C12.4585 12.0793 13.0793 11.4585 14.2543 11.4585H17.746C18.921 11.4585 19.5418 12.0793 19.5418 13.2543V15.2543L19.4877 15.2085Z" fill="#29B85D"/>
<path d="M23.6392 18V12.1818H25.7131C26.1638 12.1818 26.5379 12.2595 26.8352 12.4148C27.1345 12.5701 27.358 12.785 27.5057 13.0597C27.6534 13.3324 27.7273 13.6477 27.7273 14.0057C27.7273 14.3617 27.6525 14.6752 27.5028 14.946C27.3551 15.215 27.1316 15.4242 26.8324 15.5739C26.535 15.7235 26.161 15.7983 25.7102 15.7983H24.1392V15.0426H25.6307C25.9148 15.0426 26.1458 15.0019 26.3239 14.9205C26.5038 14.839 26.6354 14.7206 26.7188 14.5653C26.8021 14.41 26.8438 14.2235 26.8438 14.0057C26.8438 13.786 26.8011 13.5956 26.7159 13.4347C26.6326 13.2737 26.5009 13.1506 26.321 13.0653C26.143 12.9782 25.9091 12.9347 25.6193 12.9347H24.517V18H23.6392ZM26.5114 15.375L27.9489 18H26.9489L25.5398 15.375H26.5114ZM29.9972 18.0966C29.7206 18.0966 29.4706 18.0455 29.2472 17.9432C29.0237 17.839 28.8466 17.6884 28.7159 17.4915C28.5871 17.2945 28.5227 17.053 28.5227 16.767C28.5227 16.5208 28.5701 16.3182 28.6648 16.1591C28.7595 16 28.8873 15.8741 29.0483 15.7812C29.2093 15.6884 29.3892 15.6184 29.5881 15.571C29.7869 15.5237 29.9896 15.4877 30.196 15.4631C30.4574 15.4328 30.6695 15.4081 30.8324 15.3892C30.9953 15.3684 31.1136 15.3352 31.1875 15.2898C31.2614 15.2443 31.2983 15.1705 31.2983 15.0682V15.0483C31.2983 14.8002 31.2282 14.608 31.0881 14.4716C30.9498 14.3352 30.7434 14.267 30.4688 14.267C30.1828 14.267 29.9574 14.3305 29.7926 14.4574C29.6297 14.5824 29.517 14.7216 29.4545 14.875L28.6562 14.6932C28.7509 14.428 28.8892 14.214 29.071 14.0511C29.2547 13.8864 29.4659 13.767 29.7045 13.6932C29.9432 13.6174 30.1941 13.5795 30.4574 13.5795C30.6316 13.5795 30.8163 13.6004 31.0114 13.642C31.2083 13.6818 31.392 13.7557 31.5625 13.8636C31.7348 13.9716 31.8759 14.1259 31.9858 14.3267C32.0956 14.5256 32.1506 14.7841 32.1506 15.1023V18H31.321V17.4034H31.2869C31.232 17.5133 31.1496 17.6212 31.0398 17.7273C30.9299 17.8333 30.7888 17.9214 30.6165 17.9915C30.4441 18.0616 30.2377 18.0966 29.9972 18.0966ZM30.1818 17.4148C30.4167 17.4148 30.6174 17.3684 30.7841 17.2756C30.9527 17.1828 31.0805 17.0616 31.1676 16.9119C31.2566 16.7604 31.3011 16.5985 31.3011 16.4261V15.8636C31.2708 15.8939 31.2121 15.9223 31.125 15.9489C31.0398 15.9735 30.9422 15.9953 30.8324 16.0142C30.7225 16.0312 30.6155 16.0473 30.5114 16.0625C30.4072 16.0758 30.3201 16.0871 30.25 16.0966C30.0852 16.1174 29.9347 16.1525 29.7983 16.2017C29.6638 16.2509 29.5559 16.322 29.4744 16.4148C29.3949 16.5057 29.3551 16.6269 29.3551 16.7784C29.3551 16.9886 29.4328 17.1477 29.5881 17.2557C29.7434 17.3617 29.9413 17.4148 30.1818 17.4148ZM36.5518 14.7017L35.782 14.8381C35.7498 14.7396 35.6986 14.6458 35.6286 14.5568C35.5604 14.4678 35.4676 14.3949 35.3501 14.3381C35.2327 14.2812 35.0859 14.2528 34.9098 14.2528C34.6693 14.2528 34.4685 14.3068 34.3075 14.4148C34.1465 14.5208 34.0661 14.6581 34.0661 14.8267C34.0661 14.9725 34.12 15.09 34.228 15.179C34.3359 15.268 34.5102 15.3409 34.7507 15.3977L35.4439 15.5568C35.8454 15.6496 36.1446 15.7926 36.3416 15.9858C36.5386 16.179 36.6371 16.4299 36.6371 16.7386C36.6371 17 36.5613 17.233 36.4098 17.4375C36.2602 17.6402 36.0509 17.7992 35.782 17.9148C35.5149 18.0303 35.2053 18.0881 34.853 18.0881C34.3643 18.0881 33.9657 17.9839 33.657 17.7756C33.3482 17.5653 33.1589 17.267 33.0888 16.8807L33.9098 16.7557C33.9609 16.9697 34.0661 17.1316 34.2251 17.2415C34.3842 17.3494 34.5916 17.4034 34.8473 17.4034C35.1257 17.4034 35.3482 17.3456 35.5149 17.2301C35.6816 17.1127 35.7649 16.9697 35.7649 16.8011C35.7649 16.6648 35.7138 16.5502 35.6115 16.4574C35.5111 16.3646 35.3568 16.2945 35.1484 16.2472L34.4098 16.0852C34.0026 15.9924 33.7015 15.8447 33.5064 15.642C33.3132 15.4394 33.2166 15.1828 33.2166 14.8722C33.2166 14.6146 33.2886 14.3892 33.4325 14.196C33.5765 14.0028 33.7753 13.8523 34.0291 13.7443C34.2829 13.6345 34.5736 13.5795 34.9013 13.5795C35.3729 13.5795 35.7441 13.6818 36.0149 13.8864C36.2857 14.089 36.4647 14.3608 36.5518 14.7017ZM37.571 18V13.6364H38.3864V14.3466H38.4403C38.5313 14.1061 38.6799 13.9186 38.8864 13.7841C39.0928 13.6477 39.34 13.5795 39.6278 13.5795C39.9195 13.5795 40.1638 13.6477 40.3608 13.7841C40.5597 13.9205 40.7064 14.108 40.8011 14.3466H40.8466C40.9508 14.1136 41.1165 13.928 41.3438 13.7898C41.571 13.6496 41.8419 13.5795 42.1562 13.5795C42.5521 13.5795 42.875 13.7036 43.125 13.9517C43.3769 14.1998 43.5028 14.5739 43.5028 15.0739V18H42.6534V15.1534C42.6534 14.858 42.5729 14.6439 42.4119 14.5114C42.2509 14.3788 42.0587 14.3125 41.8352 14.3125C41.5587 14.3125 41.3438 14.3977 41.1903 14.5682C41.0369 14.7367 40.9602 14.9536 40.9602 15.2188V18H40.1136V15.0994C40.1136 14.8627 40.0398 14.6723 39.892 14.5284C39.7443 14.3845 39.5521 14.3125 39.3153 14.3125C39.1544 14.3125 39.0057 14.3551 38.8693 14.4403C38.7348 14.5237 38.6259 14.6402 38.5426 14.7898C38.4612 14.9394 38.4205 15.1127 38.4205 15.3097V18H37.571ZM45.4908 15.4091V18H44.6413V13.6364H45.4567V14.3466H45.5107C45.611 14.1155 45.7682 13.9299 45.9822 13.7898C46.1982 13.6496 46.4699 13.5795 46.7976 13.5795C47.0949 13.5795 47.3554 13.642 47.5788 13.767C47.8023 13.8902 47.9756 14.0739 48.0987 14.3182C48.2218 14.5625 48.2834 14.8646 48.2834 15.2244V18H47.4339V15.3267C47.4339 15.0104 47.3516 14.7633 47.1868 14.5852C47.022 14.4053 46.7957 14.3153 46.5078 14.3153C46.3108 14.3153 46.1357 14.358 45.9822 14.4432C45.8307 14.5284 45.7105 14.6534 45.6214 14.8182C45.5343 14.9811 45.4908 15.178 45.4908 15.4091ZM49.4226 18V13.6364H50.272V18H49.4226ZM49.8516 12.9631C49.7038 12.9631 49.5769 12.9138 49.4709 12.8153C49.3667 12.715 49.3146 12.5956 49.3146 12.4574C49.3146 12.3172 49.3667 12.1979 49.4709 12.0994C49.5769 11.9991 49.7038 11.9489 49.8516 11.9489C49.9993 11.9489 50.1252 11.9991 50.2294 12.0994C50.3355 12.1979 50.3885 12.3172 50.3885 12.4574C50.3885 12.5956 50.3355 12.715 50.2294 12.8153C50.1252 12.9138 49.9993 12.9631 49.8516 12.9631ZM55.37 18.0881C54.9609 18.0881 54.6039 17.9943 54.299 17.8068C53.9941 17.6193 53.7573 17.357 53.5888 17.0199C53.4202 16.6828 53.3359 16.2888 53.3359 15.8381C53.3359 15.3854 53.4202 14.9896 53.5888 14.6506C53.7573 14.3116 53.9941 14.0483 54.299 13.8608C54.6039 13.6733 54.9609 13.5795 55.37 13.5795C55.7791 13.5795 56.1361 13.6733 56.4411 13.8608C56.746 14.0483 56.9827 14.3116 57.1513 14.6506C57.3198 14.9896 57.4041 15.3854 57.4041 15.8381C57.4041 16.2888 57.3198 16.6828 57.1513 17.0199C56.9827 17.357 56.746 17.6193 56.4411 17.8068C56.1361 17.9943 55.7791 18.0881 55.37 18.0881ZM55.3729 17.375C55.638 17.375 55.8577 17.3049 56.032 17.1648C56.2062 17.0246 56.335 16.8381 56.4183 16.6051C56.5036 16.3722 56.5462 16.1155 56.5462 15.8352C56.5462 15.5568 56.5036 15.3011 56.4183 15.0682C56.335 14.8333 56.2062 14.6449 56.032 14.5028C55.8577 14.3608 55.638 14.2898 55.3729 14.2898C55.1058 14.2898 54.8842 14.3608 54.7081 14.5028C54.5339 14.6449 54.4041 14.8333 54.3189 15.0682C54.2356 15.3011 54.1939 15.5568 54.1939 15.8352C54.1939 16.1155 54.2356 16.3722 54.3189 16.6051C54.4041 16.8381 54.5339 17.0246 54.7081 17.1648C54.8842 17.3049 55.1058 17.375 55.3729 17.375ZM60.1903 18.0881C59.768 18.0881 59.4044 17.9924 59.0994 17.8011C58.7964 17.608 58.5634 17.3419 58.4006 17.0028C58.2377 16.6638 58.1562 16.2756 58.1562 15.8381C58.1562 15.3949 58.2396 15.0038 58.4062 14.6648C58.5729 14.3239 58.8078 14.0578 59.1108 13.8665C59.4138 13.6752 59.7708 13.5795 60.1818 13.5795C60.5133 13.5795 60.8087 13.6411 61.0682 13.7642C61.3277 13.8854 61.5369 14.0559 61.696 14.2756C61.857 14.4953 61.9527 14.7519 61.983 15.0455H61.1562C61.1108 14.8409 61.0066 14.6648 60.8438 14.517C60.6828 14.3693 60.4669 14.2955 60.196 14.2955C59.9593 14.2955 59.7519 14.358 59.5739 14.483C59.3977 14.6061 59.2604 14.7822 59.1619 15.0114C59.0634 15.2386 59.0142 15.5076 59.0142 15.8182C59.0142 16.1364 59.0625 16.411 59.1591 16.642C59.2557 16.8731 59.392 17.0521 59.5682 17.179C59.7462 17.3059 59.9555 17.3693 60.196 17.3693C60.357 17.3693 60.5028 17.34 60.6335 17.2812C60.7661 17.2206 60.8769 17.1345 60.9659 17.0227C61.0568 16.911 61.1203 16.7765 61.1562 16.6193H61.983C61.9527 16.9015 61.8608 17.1534 61.7074 17.375C61.554 17.5966 61.3485 17.7708 61.0909 17.8977C60.8352 18.0246 60.535 18.0881 60.1903 18.0881ZM63.7408 15.4091V18H62.8913V12.1818H63.7294V14.3466H63.7834C63.8857 14.1117 64.0419 13.9252 64.2521 13.7869C64.4624 13.6487 64.737 13.5795 65.076 13.5795C65.3752 13.5795 65.6366 13.6411 65.8601 13.7642C66.0855 13.8873 66.2597 14.071 66.3828 14.3153C66.5078 14.5578 66.5703 14.8608 66.5703 15.2244V18H65.7209V15.3267C65.7209 15.0066 65.6385 14.7585 65.4737 14.5824C65.3089 14.4044 65.0798 14.3153 64.7862 14.3153C64.5855 14.3153 64.4055 14.358 64.2464 14.4432C64.0893 14.5284 63.9652 14.6534 63.8743 14.8182C63.7853 14.9811 63.7408 15.178 63.7408 15.4091ZM67.7038 18V13.6364H68.5533V18H67.7038ZM68.1328 12.9631C67.9851 12.9631 67.8582 12.9138 67.7521 12.8153C67.648 12.715 67.5959 12.5956 67.5959 12.4574C67.5959 12.3172 67.648 12.1979 67.7521 12.0994C67.8582 11.9991 67.9851 11.9489 68.1328 11.9489C68.2805 11.9489 68.4065 11.9991 68.5107 12.0994C68.6167 12.1979 68.6697 12.3172 68.6697 12.4574C68.6697 12.5956 68.6167 12.715 68.5107 12.8153C68.4065 12.9138 68.2805 12.9631 68.1328 12.9631ZM72.9659 14.7017L72.196 14.8381C72.1638 14.7396 72.1127 14.6458 72.0426 14.5568C71.9744 14.4678 71.8816 14.3949 71.7642 14.3381C71.6468 14.2812 71.5 14.2528 71.3239 14.2528C71.0833 14.2528 70.8826 14.3068 70.7216 14.4148C70.5606 14.5208 70.4801 14.6581 70.4801 14.8267C70.4801 14.9725 70.5341 15.09 70.642 15.179C70.75 15.268 70.9242 15.3409 71.1648 15.3977L71.858 15.5568C72.2595 15.6496 72.5587 15.7926 72.7557 15.9858C72.9527 16.179 73.0511 16.4299 73.0511 16.7386C73.0511 17 72.9754 17.233 72.8239 17.4375C72.6742 17.6402 72.465 17.7992 72.196 17.9148C71.929 18.0303 71.6193 18.0881 71.267 18.0881C70.7784 18.0881 70.3797 17.9839 70.071 17.7756C69.7623 17.5653 69.5729 17.267 69.5028 16.8807L70.3239 16.7557C70.375 16.9697 70.4801 17.1316 70.6392 17.2415C70.7983 17.3494 71.0057 17.4034 71.2614 17.4034C71.5398 17.4034 71.7623 17.3456 71.929 17.2301C72.0956 17.1127 72.179 16.9697 72.179 16.8011C72.179 16.6648 72.1278 16.5502 72.0256 16.4574C71.9252 16.3646 71.7708 16.2945 71.5625 16.2472L70.8239 16.0852C70.4167 15.9924 70.1155 15.8447 69.9205 15.642C69.7273 15.4394 69.6307 15.1828 69.6307 14.8722C69.6307 14.6146 69.7027 14.3892 69.8466 14.196C69.9905 14.0028 70.1894 13.8523 70.4432 13.7443C70.697 13.6345 70.9877 13.5795 71.3153 13.5795C71.7869 13.5795 72.1581 13.6818 72.429 13.8864C72.6998 14.089 72.8788 14.3608 72.9659 14.7017ZM74.8345 15.4091V18H73.9851V12.1818H74.8232V14.3466H74.8771C74.9794 14.1117 75.1357 13.9252 75.3459 13.7869C75.5561 13.6487 75.8307 13.5795 76.1697 13.5795C76.469 13.5795 76.7304 13.6411 76.9538 13.7642C77.1792 13.8873 77.3535 14.071 77.4766 14.3153C77.6016 14.5578 77.6641 14.8608 77.6641 15.2244V18H76.8146V15.3267C76.8146 15.0066 76.7322 14.7585 76.5675 14.5824C76.4027 14.4044 76.1735 14.3153 75.88 14.3153C75.6792 14.3153 75.4993 14.358 75.3402 14.4432C75.183 14.5284 75.0589 14.6534 74.968 14.8182C74.879 14.9811 74.8345 15.178 74.8345 15.4091Z" fill="black"/>
</svg>
