<svg width="20" height="22" viewBox="0 0 20 22" fill="none" xmlns="http://www.w3.org/2000/svg">
<path d="M19.3462 9.65479L17.6991 8.43727H17.6823V5.39647H17.6813L12.402 0.230469L12.3996 0.233109H2.31316V8.44495L0.65332 9.69919V16.5704H2.31316V21.7702H17.6823V16.5702H19.3421V14.425L19.3462 9.65479ZM6.0814 14.8275V11.7965H7.105C7.31236 11.7965 7.49164 11.8213 7.64284 11.8698C7.79404 11.9187 7.91812 11.9864 8.0158 12.0737C8.11324 12.1606 8.18524 12.2641 8.2318 12.3841C8.2786 12.5036 8.30188 12.6339 8.30188 12.7745C8.30188 12.9236 8.27764 13.0599 8.22868 13.1842C8.18094 13.3066 8.10505 13.4159 8.00716 13.5034C7.90828 13.5925 7.78372 13.6618 7.63324 13.711C7.483 13.7607 7.30684 13.7857 7.10476 13.7857H6.7078V14.828L6.0814 14.8275ZM8.83972 14.8275V11.7965H10.0052C10.2377 11.7965 10.4494 11.834 10.6402 11.9096C10.831 11.9847 10.9947 12.0896 11.13 12.2242C11.2654 12.3589 11.371 12.5185 11.4454 12.7037C11.52 12.8888 11.557 13.0911 11.557 13.3114C11.557 13.5327 11.52 13.7365 11.4454 13.9222C11.3745 14.1021 11.2672 14.2654 11.13 14.4017C10.9898 14.5384 10.8231 14.6451 10.6402 14.7152C10.4494 14.7903 10.2377 14.828 10.0052 14.828L8.83972 14.8275ZM14.0878 12.2876H12.7884V13.1249H13.879V13.6181H12.7884V14.8275H12.1577V11.7965H14.0878V12.2876ZM11.6595 0.973269L11.6544 6.12991L16.9419 6.13591V9.65863H3.05308V0.973269H11.6595ZM16.9421 21.0298H3.05308V16.5702H16.9421V21.0298Z" fill="#D9434D"/>
</svg>
