<svg width="18" height="12" viewBox="0 0 18 12" fill="none" xmlns="http://www.w3.org/2000/svg">
<path d="M8.85853 11.8297C9.09252 11.7034 9.2384 11.4634 9.2384 11.2023V7.13684H17.2657C17.671 7.13684 18 6.81551 18 6.41958C18 6.02365 17.671 5.70232 17.2657 5.70232H9.2384V1.63687C9.2384 1.37483 9.09252 1.13479 8.85853 1.0095C8.62453 0.882309 8.33865 0.890916 8.11248 1.02959L0.342671 5.8123C0.129236 5.94427 0 6.17284 0 6.41958C0 6.66632 0.129236 6.89489 0.342671 7.02686L8.11248 11.8096C8.23193 11.8823 8.36802 11.9196 8.50411 11.9196C8.62551 11.9196 8.74789 11.889 8.85853 11.8297Z" fill="black"/>
</svg>
