<svg width="89" height="100" viewBox="0 0 89 100" fill="none" xmlns="http://www.w3.org/2000/svg">
<g clip-path="url(#clip0_1201_1588)">
<path d="M50.4298 77.0517C71.707 77.0517 88.9556 59.8031 88.9556 38.5258C88.9556 17.2486 71.707 0 50.4298 0C29.1525 0 11.9039 17.2486 11.9039 38.5258C11.9039 59.8031 29.1525 77.0517 50.4298 77.0517Z" fill="#EBEBEB"/>
<path d="M75.6058 17.2287H5.03179C4.96013 17.2272 4.89191 17.1976 4.84177 17.1464C4.79163 17.0952 4.76355 17.0264 4.76355 16.9547C4.76355 16.883 4.79163 16.8142 4.84177 16.763C4.89191 16.7117 4.96013 16.6822 5.03179 16.6807H75.6058C75.6775 16.6822 75.7457 16.7117 75.7959 16.763C75.846 16.8142 75.8741 16.883 75.8741 16.9547C75.8741 17.0264 75.846 17.0952 75.7959 17.1464C75.7457 17.1976 75.6775 17.2272 75.6058 17.2287Z" fill="#CACACA"/>
<path d="M9.72234 15.2814C10.6092 15.2814 11.3282 14.5464 11.3282 13.6397C11.3282 12.733 10.6092 11.998 9.72234 11.998C8.83543 11.998 8.11646 12.733 8.11646 13.6397C8.11646 14.5464 8.83543 15.2814 9.72234 15.2814Z" fill="#3F3D56"/>
<path d="M15.2698 15.2814C16.1567 15.2814 16.8757 14.5464 16.8757 13.6397C16.8757 12.733 16.1567 11.998 15.2698 11.998C14.3829 11.998 13.6639 12.733 13.6639 13.6397C13.6639 14.5464 14.3829 15.2814 15.2698 15.2814Z" fill="#3F3D56"/>
<path d="M20.8174 15.2814C21.7043 15.2814 22.4233 14.5464 22.4233 13.6397C22.4233 12.733 21.7043 11.998 20.8174 11.998C19.9305 11.998 19.2115 12.733 19.2115 13.6397C19.2115 14.5464 19.9305 15.2814 20.8174 15.2814Z" fill="#3F3D56"/>
<path d="M72.2657 12.4053H68.325C68.2469 12.4068 68.1725 12.4389 68.1178 12.4947C68.0631 12.5505 68.0325 12.6255 68.0325 12.7037C68.0325 12.7818 68.0631 12.8568 68.1178 12.9126C68.1725 12.9684 68.2469 13.0005 68.325 13.002H72.2657C72.3438 13.0005 72.4182 12.9684 72.4729 12.9126C72.5276 12.8568 72.5583 12.7818 72.5583 12.7037C72.5583 12.6255 72.5276 12.5505 72.4729 12.4947C72.4182 12.4389 72.3438 12.4068 72.2657 12.4053Z" fill="#3F3D56"/>
<path d="M72.2657 13.5254H68.325C68.2469 13.5269 68.1725 13.5591 68.1178 13.6148C68.0631 13.6706 68.0325 13.7456 68.0325 13.8238C68.0325 13.9019 68.0631 13.9769 68.1178 14.0327C68.1725 14.0885 68.2469 14.1206 68.325 14.1222H72.2657C72.3438 14.1206 72.4182 14.0885 72.4729 14.0327C72.5276 13.9769 72.5583 13.9019 72.5583 13.8238C72.5583 13.7456 72.5276 13.6706 72.4729 13.6148C72.4182 13.5591 72.3438 13.5269 72.2657 13.5254Z" fill="#3F3D56"/>
<path d="M72.2657 14.6436H68.325C68.2469 14.6451 68.1725 14.6772 68.1178 14.733C68.0631 14.7888 68.0325 14.8638 68.0325 14.9419C68.0325 15.0201 68.0631 15.0951 68.1178 15.1509C68.1725 15.2067 68.2469 15.2388 68.325 15.2403H72.2657C72.3438 15.2388 72.4182 15.2067 72.4729 15.1509C72.5276 15.0951 72.5583 15.0201 72.5583 14.9419C72.5583 14.8638 72.5276 14.7888 72.4729 14.733C72.4182 14.6772 72.3438 14.6451 72.2657 14.6436Z" fill="#3F3D56"/>
<path d="M51.5543 26.4634H32.0449C30.5795 26.4634 29.3916 27.6513 29.3916 29.1167V29.1167C29.3916 30.5821 30.5795 31.77 32.0449 31.77H51.5543C53.0197 31.77 54.2076 30.5821 54.2076 29.1167C54.2076 27.6513 53.0197 26.4634 51.5543 26.4634Z" fill="white"/>
<path d="M64.1576 37.0767H19.4418C17.9764 37.0767 16.7885 38.2646 16.7885 39.73V39.73C16.7885 41.1954 17.9764 42.3833 19.4418 42.3833H64.1576C65.623 42.3833 66.8109 41.1954 66.8109 39.73C66.8109 38.2646 65.623 37.0767 64.1576 37.0767Z" fill="white"/>
<path d="M64.1576 47.6899H19.4418C17.9764 47.6899 16.7885 48.8779 16.7885 50.3432V50.3432C16.7885 51.8086 17.9764 52.9966 19.4418 52.9966H64.1576C65.623 52.9966 66.8109 51.8086 66.8109 50.3432C66.8109 48.8779 65.623 47.6899 64.1576 47.6899Z" fill="white"/>
<path d="M13.9003 99.7665L13.7951 99.7562C12.0309 99.5742 10.3276 99.0102 8.80349 98.1035C7.27935 97.1967 5.97095 95.9689 4.96923 94.5054C4.41389 93.6801 3.96468 92.7881 3.6322 91.8505L3.60024 91.761L3.69485 91.7534C4.82439 91.6625 5.98476 91.4708 6.50024 91.3796L3.17629 90.2534L3.15574 90.1548C3.05941 89.7022 3.10082 89.2312 3.2746 88.8024C3.44838 88.3736 3.74659 88.0067 4.13079 87.7489C4.51604 87.4787 4.97336 87.3301 5.44384 87.3221C5.91432 87.3142 6.37641 87.4472 6.77058 87.7042C7.13248 87.9354 7.51101 88.1643 7.87705 88.3858C9.13493 89.1467 10.4356 89.9334 11.4108 91.01C12.141 91.8321 12.6783 92.807 12.9835 93.8634C13.2887 94.9197 13.3541 96.0309 13.1748 97.1158L13.9003 99.7665Z" fill="#F2F2F2"/>
<path d="M25.9828 98.1137L27.6209 98.1136L28.4003 91.7944L25.9823 91.7946L25.9828 98.1137Z" fill="#A0616A"/>
<path d="M25.925 99.8225L30.9629 99.8223V99.7586C30.9628 99.2385 30.7562 98.7398 30.3885 98.3721C30.0208 98.0044 29.522 97.7978 29.002 97.7977H29.0019L28.0816 97.0996L26.3647 97.7978L25.9249 97.7979L25.925 99.8225Z" fill="#2F2E41"/>
<path d="M12.8539 93.5763L14.1642 94.5593L18.58 89.9724L16.6458 88.5215L12.8539 93.5763Z" fill="#A0616A"/>
<path d="M11.782 94.9086L15.8119 97.9318L15.8501 97.8808C16.1622 97.4648 16.2962 96.9419 16.2227 96.4271C16.1493 95.9123 15.8743 95.4477 15.4584 95.1356L15.4583 95.1355L15.1411 94.0248L13.3487 93.553L12.9969 93.2891L11.782 94.9086Z" fill="#2F2E41"/>
<path d="M18.2995 68.4597C18.2995 68.4597 18.39 70.9266 18.5041 72.9049C18.5228 73.2294 17.7626 73.5819 17.7823 73.9348C17.7954 74.169 17.9382 74.3967 17.9515 74.6408C17.9655 74.8985 17.7683 75.1266 17.7823 75.3931C17.796 75.6535 18.0211 75.9521 18.0347 76.2186C18.1807 79.0867 18.7103 82.5202 18.18 83.4801C17.9187 83.9531 14.5875 90.5064 14.5875 90.5064C14.5875 90.5064 16.4435 93.2904 16.9738 92.3624C17.6742 91.1367 23.0721 85.4024 23.0721 84.3073C23.0721 83.2136 24.321 75.0166 24.321 75.0166L25.1917 79.8675L25.591 80.8286L25.4656 81.3928L25.7236 82.1543L25.7375 82.9079L25.9887 84.3073C25.9887 84.3073 25.2331 95.2101 25.6586 95.5136C26.0855 95.8186 28.1523 96.3661 28.3962 95.8186C28.6389 95.271 30.218 84.4399 30.218 84.4399C30.218 84.4399 30.4725 79.4764 30.7483 74.8628C30.7642 74.595 30.9524 74.2716 30.967 74.0077C30.9843 73.7015 30.865 73.3038 30.8809 73.0068C30.8981 72.6661 31.0492 72.4262 31.0638 72.1C31.1765 69.5798 30.5439 66.5109 30.3424 66.2086C29.7339 65.2965 29.1864 64.5674 29.1864 64.5674C29.1864 64.5674 20.9905 61.8745 18.8004 64.6108L18.2995 68.4597Z" fill="#2F2E41"/>
<path d="M26.4739 43.0917L23.2249 42.4419L21.7086 44.4996C18.8795 47.2815 18.8368 49.7366 19.3419 53.6721V59.1955L18.9764 62.8982C18.9764 62.8982 17.6823 65.6049 19.017 66.2351C20.3517 66.8653 29.1184 66.8115 29.9555 66.56C30.7925 66.3084 30.067 65.9995 29.8472 64.8271C29.4343 62.6249 29.7105 63.6872 29.7389 62.986C30.1462 52.9278 29.1973 48.7985 29.101 47.7131L27.4486 44.7162L26.4739 43.0917Z" fill="#29B85D"/>
<path d="M43.5984 51.2015C43.5087 51.3714 43.383 51.5195 43.2299 51.6354C43.0768 51.7514 42.9002 51.8324 42.7124 51.8727C42.5247 51.913 42.3304 51.9117 42.1432 51.8688C41.956 51.8259 41.7805 51.7425 41.629 51.6244L34.6124 56.0796L34.6327 53.6539L41.4488 49.6984C41.664 49.4572 41.9602 49.3032 42.2813 49.2657C42.6025 49.2283 42.9262 49.3099 43.1912 49.4952C43.4561 49.6805 43.644 49.9565 43.719 50.271C43.794 50.5855 43.7511 50.9166 43.5984 51.2015Z" fill="#A0616A"/>
<path d="M23.9086 45.9011L23.1097 45.8165C22.7469 45.7788 22.3804 45.8357 22.0461 45.9817C21.7117 46.1276 21.4208 46.3576 21.2017 46.6493C21.031 46.8743 20.9084 47.132 20.8415 47.4064L20.841 47.4086C20.743 47.8126 20.7664 48.2365 20.9083 48.6272C21.0502 49.0179 21.3042 49.3581 21.6385 49.6051L24.3976 51.6392C26.3338 54.2555 29.9727 55.9912 34.2411 57.4014L40.8759 53.2808L38.5292 50.4386L33.9784 52.8776L27.2138 47.6411L27.2099 47.638L24.6354 45.9792L23.9086 45.9011Z" fill="#29B85D"/>
<path d="M25.376 41.4966C27.4685 41.4966 29.1649 39.8003 29.1649 37.7078C29.1649 35.6153 27.4685 33.9189 25.376 33.9189C23.2835 33.9189 21.5872 35.6153 21.5872 37.7078C21.5872 39.8003 23.2835 41.4966 25.376 41.4966Z" fill="#FFC69D"/>
<path d="M25.4636 41.4971C25.4331 41.4981 25.4025 41.4988 25.3719 41.4996C25.3588 41.5335 25.3447 41.5672 25.3284 41.6002L25.4636 41.4971Z" fill="#2F2E41"/>
<path d="M26.5034 37.8125C26.5094 37.8498 26.5185 37.8866 26.5306 37.9224C26.5256 37.8849 26.5165 37.848 26.5034 37.8125Z" fill="#2F2E41"/>
<path d="M29.2132 34.0808C29.0573 34.5651 28.9181 33.9508 28.4051 34.0613C27.7879 34.1942 27.0697 34.1486 26.5643 33.7703C26.1933 33.4981 25.762 33.3197 25.3071 33.2503C24.8522 33.181 24.3872 33.2228 23.952 33.3721C23.0872 33.678 21.6384 33.8938 21.413 34.783C21.3347 35.092 21.3036 35.4275 21.1138 35.6836C20.9478 35.9076 20.6858 36.0353 20.4667 36.2077C19.7269 36.7897 20.2923 38.4434 20.6425 39.3171C20.9926 40.1909 21.7957 40.8274 22.6788 41.1534C23.5331 41.4689 24.4604 41.5245 25.3718 41.4997C25.5303 41.0886 25.4619 40.6137 25.3311 40.1875C25.1895 39.7261 24.9798 39.2808 24.9206 38.8018C24.8615 38.3228 24.9914 37.7787 25.393 37.5111C25.7622 37.2651 26.3629 37.4149 26.5034 37.8127C26.4214 37.3154 26.9251 36.8342 27.4445 36.7496C28.0022 36.6587 28.5598 36.8601 29.1158 36.9603C29.6719 37.0605 29.4745 34.7196 29.2132 34.0808Z" fill="#2F2E41"/>
<path d="M42.6761 51.0895C46.9583 51.0895 50.4298 47.618 50.4298 43.3358C50.4298 39.0535 46.9583 35.582 42.6761 35.582C38.3938 35.582 34.9224 39.0535 34.9224 43.3358C34.9224 47.618 38.3938 51.0895 42.6761 51.0895Z" fill="black"/>
<path d="M44.7129 40.1047L42.6761 42.1414L40.6394 40.1047C40.481 39.9466 40.2663 39.8578 40.0425 39.8579C39.8188 39.858 39.6042 39.9469 39.4459 40.1052C39.2877 40.2634 39.1988 40.478 39.1987 40.7018C39.1986 40.9256 39.2873 41.1402 39.4454 41.2986L41.4822 43.3354L39.4454 45.3721C39.2871 45.5305 39.1981 45.7452 39.1981 45.9691C39.1981 46.193 39.2871 46.4078 39.4454 46.5661C39.6037 46.7244 39.8185 46.8134 40.0424 46.8134C40.2663 46.8134 40.481 46.7244 40.6394 46.5661L42.6761 44.5293L44.7129 46.5661C44.8712 46.7242 45.0859 46.8129 45.3097 46.8128C45.5335 46.8127 45.7481 46.7238 45.9063 46.5656C46.0645 46.4073 46.1535 46.1927 46.1536 45.969C46.1537 45.7452 46.0649 45.5305 45.9068 45.3721L43.8701 43.3354L45.9068 41.2986C46.0649 41.1402 46.1537 40.9256 46.1536 40.7018C46.1535 40.478 46.0645 40.2634 45.9063 40.1052C45.7481 39.947 45.5335 39.858 45.3097 39.8579C45.0859 39.8578 44.8712 39.9466 44.7129 40.1047V40.1047Z" fill="white"/>
<path d="M39.6206 36.8185C39.6811 37.0008 39.7009 37.1941 39.6786 37.3848C39.6563 37.5755 39.5925 37.7591 39.4916 37.9225C39.3907 38.0859 39.2552 38.2252 39.0946 38.3305C38.9341 38.4359 38.7524 38.5048 38.5623 38.5323L36.9196 46.68L35.1832 44.9861L37.0477 37.3291C37.0226 37.0067 37.1166 36.6864 37.3119 36.4287C37.5072 36.171 37.7902 35.994 38.1074 35.931C38.4245 35.8681 38.7537 35.9237 39.0326 36.0872C39.3115 36.2508 39.5207 36.511 39.6206 36.8185Z" fill="#A0616A"/>
<path d="M22.1644 47.3572L21.5503 47.875C21.2719 48.1108 21.0593 48.4147 20.9331 48.757C20.807 49.0993 20.7716 49.4684 20.8303 49.8285C20.8745 50.1074 20.9756 50.3743 21.1273 50.6126L21.1286 50.6144C21.3522 50.9648 21.6743 51.2414 22.0545 51.4095C22.4346 51.5776 22.856 51.6298 23.2656 51.5595L26.6436 50.9769C29.872 51.3909 33.6437 49.9667 37.6163 47.8628L39.2362 40.2225L35.5606 39.9482L34.17 44.9206L25.7083 46.1767L25.7033 46.1773L22.7239 46.8868L22.1644 47.3572Z" fill="#29B85D"/>
<path d="M41.3987 99.9535L0.180597 100C0.132699 100 0.0867668 99.9811 0.0528979 99.9472C0.0190291 99.9133 0 99.8674 0 99.8195C0 99.7716 0.0190291 99.7257 0.0528979 99.6918C0.0867668 99.6579 0.132699 99.6389 0.180597 99.6389L41.3987 99.5923C41.4466 99.5923 41.4925 99.6113 41.5264 99.6452C41.5603 99.6791 41.5793 99.725 41.5793 99.7729C41.5793 99.8208 41.5603 99.8667 41.5264 99.9006C41.4925 99.9345 41.4466 99.9535 41.3987 99.9535Z" fill="#CACACA"/>
</g>
<defs>
<clipPath id="clip0_1201_1588">
<rect width="88.9556" height="100" fill="white"/>
</clipPath>
</defs>
</svg>
