<svg width="62" height="63" viewBox="0 0 62 63" fill="none" xmlns="http://www.w3.org/2000/svg">
<path fill-rule="evenodd" clip-rule="evenodd" d="M30.3418 2.83744C30.9004 2.83744 31.3532 2.38374 31.3532 1.82407C31.3532 1.2644 30.9004 0.810698 30.3418 0.810698C29.7832 0.810698 29.3304 1.2644 29.3304 1.82407C29.3304 2.38374 29.7832 2.83744 30.3418 2.83744ZM32.1623 1.82407C32.1623 2.61828 31.6557 3.29394 30.9486 3.54435V16.0144C31.5307 16.0262 32.1045 16.072 32.668 16.1499V5.87756V5.26954H33.2748H49.508C49.7779 4.67195 50.3781 4.25616 51.0753 4.25616C52.0249 4.25616 52.7947 5.02746 52.7947 5.9789C52.7947 6.93034 52.0249 7.70163 51.0753 7.70163C50.3017 7.70163 49.6475 7.18974 49.4315 6.48558H33.8817V16.3703C34.7933 16.576 35.6727 16.8668 36.5113 17.2339V10.3364V9.72838H37.1181H43.97C44.186 9.02422 44.8402 8.51233 45.6138 8.51233C46.5634 8.51233 47.3332 9.28362 47.3332 10.2351C47.3332 11.1865 46.5634 11.9578 45.6138 11.9578C44.9166 11.9578 44.3163 11.542 44.0465 10.9444H37.7249V17.8338C39.9145 19.0455 41.762 20.8017 43.0853 22.9203V22.9022H50.5696V16.3409C49.8669 16.1245 49.356 15.469 49.356 14.6939C49.356 13.7425 50.1258 12.9712 51.0753 12.9712C52.0249 12.9712 52.7947 13.7425 52.7947 14.6939C52.7947 15.3925 52.3797 15.9939 51.7833 16.2643V23.5102V24.1183H51.1765H43.7579C44.2383 25.0764 44.6171 26.0945 44.8803 27.1584H54.4129V11.8821C53.7101 11.6657 53.1993 11.0102 53.1993 10.2351C53.1993 9.28362 53.969 8.51233 54.9186 8.51233C55.8682 8.51233 56.638 9.28362 56.638 10.2351C56.638 10.9336 56.223 11.5351 55.6266 11.8054V27.7664V28.3744H55.0198H45.1269C45.2477 29.1335 45.3104 29.912 45.3104 30.7052C45.3104 30.8748 45.3075 31.0437 45.3018 31.2119H57.8014C58.0713 30.6143 58.6716 30.1985 59.3687 30.1985C60.3183 30.1985 61.0881 30.9698 61.0881 31.9212C61.0881 32.8727 60.3183 33.644 59.3687 33.644C58.5952 33.644 57.9409 33.1321 57.725 32.4279H45.2107C45.1383 33.0486 45.0274 33.6574 44.8803 34.252H54.9186H55.5255V34.86V50.779C56.1756 51.0248 56.638 51.6539 56.638 52.3914C56.638 53.3428 55.8682 54.1141 54.9186 54.1141C53.969 54.1141 53.1993 53.3428 53.1993 52.3914C53.1993 51.6539 53.6617 51.0248 54.3118 50.779V35.468H44.5228C44.1554 36.5431 43.6671 37.5619 43.074 38.5082H50.9742H51.581V39.1162V46.6908C52.2838 46.9072 52.7947 47.5628 52.7947 48.3379C52.7947 49.2893 52.0249 50.0606 51.0753 50.0606C50.1257 50.0606 49.356 49.2893 49.356 48.3379C49.356 47.6393 49.7709 47.0379 50.3674 46.7675V39.7242H42.2237C41.1961 41.0467 39.9477 42.1886 38.5341 43.0942V51.074H44.4511C44.7209 50.4764 45.3212 50.0606 46.0184 50.0606C46.9679 50.0606 47.7377 50.8319 47.7377 51.7833C47.7377 52.7348 46.9679 53.5061 46.0184 53.5061C45.2448 53.5061 44.5905 52.9942 44.3746 52.29H37.9272H37.3204V51.682V43.7922C36.4563 44.2355 35.5425 44.5955 34.5896 44.8615V55.5328H49.4315C49.6475 54.8286 50.3017 54.3168 51.0753 54.3168C52.0249 54.3168 52.7947 55.0881 52.7947 56.0395C52.7947 56.9909 52.0249 57.7622 51.0753 57.7622C50.3781 57.7622 49.7779 57.3464 49.508 56.7489H33.9828H33.376V56.1408V45.1448C32.781 45.2571 32.1734 45.3333 31.5555 45.3712V58.474C32.2625 58.7244 32.7691 59.4001 32.7691 60.1943C32.7691 61.2017 31.9541 62.0184 30.9486 62.0184C29.9432 62.0184 29.1281 61.2017 29.1281 60.1943C29.1281 59.4001 29.6347 58.7244 30.3418 58.474V45.396C29.7597 45.3842 29.1859 45.3383 28.6224 45.2604V56.1408V56.7489H28.0156H11.7824C11.5125 57.3464 10.9123 57.7622 10.2151 57.7622C9.26548 57.7622 8.4957 56.9909 8.4957 56.0395C8.4957 55.0881 9.26548 54.3168 10.2151 54.3168C10.9887 54.3168 11.6429 54.8286 11.8589 55.5328H27.4087V45.0401C26.4971 44.8343 25.6177 44.5435 24.7791 44.1764V51.682V52.29H24.1723H17.3204C17.1044 52.9942 16.4502 53.5061 15.6766 53.5061C14.727 53.5061 13.9572 52.7348 13.9572 51.7833C13.9572 50.8319 14.727 50.0606 15.6766 50.0606C16.3738 50.0606 16.9741 50.4764 17.2439 51.074H23.5655V43.5765C21.8167 42.6088 20.2862 41.2938 19.0667 39.7242H10.5185V46.2855C11.2213 46.5019 11.7322 47.1574 11.7322 47.9325C11.7322 48.884 10.9624 49.6552 10.0128 49.6552C9.06321 49.6552 8.29342 48.884 8.29342 47.9325C8.29342 47.234 8.70839 46.6325 9.30481 46.3621V39.1162V38.5082H9.91165H18.2164C17.6233 37.5619 17.135 36.5431 16.7676 35.468H6.67519V50.7443C7.37797 50.9607 7.88886 51.6162 7.88886 52.3914C7.88886 53.3428 7.11908 54.1141 6.1695 54.1141C5.21991 54.1141 4.45013 53.3428 4.45013 52.3914C4.45013 51.6928 4.8651 51.0913 5.46152 50.821V34.86V34.252H6.06836H16.4101C16.1837 33.337 16.043 32.3882 15.9968 31.4145H3.28667C3.01684 32.0121 2.41656 32.4279 1.71937 32.4279C0.769787 32.4279 0 31.6566 0 30.7052C0 29.7537 0.769787 28.9825 1.71937 28.9825C2.49295 28.9825 3.14722 29.4943 3.36316 30.1985H15.9886C16.0095 29.58 16.0685 28.9712 16.1635 28.3744H6.1695H5.56266V27.7664V11.8474C4.91253 11.6017 4.45013 10.9725 4.45013 10.2351C4.45013 9.28362 5.21991 8.51233 6.1695 8.51233C7.11908 8.51233 7.88886 9.28362 7.88886 10.2351C7.88886 10.9725 7.42646 11.6017 6.77633 11.8474V27.1584H16.4101C16.6732 26.0945 17.0521 25.0764 17.5325 24.1183H10.1139H9.50709V23.5102V15.9356C8.80431 15.7192 8.29342 15.0637 8.29342 14.2886C8.29342 13.3371 9.06321 12.5658 10.0128 12.5658C10.9624 12.5658 11.7322 13.3371 11.7322 14.2886C11.7322 14.9871 11.3172 15.5886 10.7208 15.8589V22.9022H18.2164C19.3722 21.0578 20.9257 19.4889 22.7563 18.3162V10.9444H16.8393C16.5695 11.542 15.9692 11.9578 15.272 11.9578C14.3224 11.9578 13.5527 11.1865 13.5527 10.2351C13.5527 9.28362 14.3224 8.51233 15.272 8.51233C16.0456 8.51233 16.6999 9.02422 16.9158 9.72838H23.3632H23.97V10.3364V17.6182C24.8341 17.1748 25.7479 16.8149 26.7008 16.5489V6.48558H11.8589C11.6429 7.18974 10.9887 7.70163 10.2151 7.70163C9.26549 7.70163 8.4957 6.93034 8.4957 5.9789C8.4957 5.02746 9.26549 4.25616 10.2151 4.25616C10.9123 4.25616 11.5125 4.67195 11.7824 5.26954H27.3076H27.9144V5.87756V16.2656C28.5094 16.1533 29.117 16.077 29.7349 16.0391V3.54435C29.0279 3.29394 28.5213 2.61828 28.5213 1.82407C28.5213 0.816664 29.3363 0 30.3418 0C31.3472 0 32.1623 0.816664 32.1623 1.82407ZM46.5241 10.2351C46.5241 10.7388 46.1165 11.1471 45.6138 11.1471C45.1111 11.1471 44.7036 10.7388 44.7036 10.2351C44.7036 9.73136 45.1111 9.32303 45.6138 9.32303C46.1165 9.32303 46.5241 9.73136 46.5241 10.2351ZM15.272 11.1471C15.7747 11.1471 16.1823 10.7388 16.1823 10.2351C16.1823 9.73136 15.7747 9.32303 15.272 9.32303C14.7693 9.32303 14.3618 9.73136 14.3618 10.2351C14.3618 10.7388 14.7693 11.1471 15.272 11.1471ZM11.1253 5.9789C11.1253 6.4826 10.7178 6.89093 10.2151 6.89093C9.71235 6.89093 9.30481 6.4826 9.30481 5.9789C9.30481 5.47519 9.71235 5.06686 10.2151 5.06686C10.7178 5.06686 11.1253 5.47519 11.1253 5.9789ZM51.0753 6.89093C51.578 6.89093 51.9856 6.4826 51.9856 5.9789C51.9856 5.47519 51.578 5.06686 51.0753 5.06686C50.5726 5.06686 50.1651 5.47519 50.1651 5.9789C50.1651 6.4826 50.5726 6.89093 51.0753 6.89093ZM30.9486 59.181C30.39 59.181 29.9372 59.6347 29.9372 60.1943C29.9372 60.754 30.39 61.2077 30.9486 61.2077C31.5072 61.2077 31.96 60.754 31.96 60.1943C31.96 59.6347 31.5072 59.181 30.9486 59.181ZM14.7663 51.7833C14.7663 51.2796 15.1739 50.8713 15.6766 50.8713C16.1793 50.8713 16.5868 51.2796 16.5868 51.7833C16.5868 52.287 16.1793 52.6954 15.6766 52.6954C15.1739 52.6954 14.7663 52.287 14.7663 51.7833ZM46.0184 50.8713C45.5156 50.8713 45.1081 51.2796 45.1081 51.7833C45.1081 52.287 45.5156 52.6954 46.0184 52.6954C46.5211 52.6954 46.9286 52.287 46.9286 51.7833C46.9286 51.2796 46.5211 50.8713 46.0184 50.8713ZM50.1651 56.0395C50.1651 55.5358 50.5726 55.1275 51.0753 55.1275C51.578 55.1275 51.9856 55.5358 51.9856 56.0395C51.9856 56.5432 51.578 56.9515 51.0753 56.9515C50.5726 56.9515 50.1651 56.5432 50.1651 56.0395ZM10.2151 55.1275C9.71235 55.1275 9.30481 55.5358 9.30481 56.0395C9.30481 56.5432 9.71235 56.9515 10.2151 56.9515C10.7178 56.9515 11.1253 56.5432 11.1253 56.0395C11.1253 55.5358 10.7178 55.1275 10.2151 55.1275ZM6.1695 11.1471C6.67221 11.1471 7.07975 10.7388 7.07975 10.2351C7.07975 9.73136 6.67221 9.32303 6.1695 9.32303C5.66678 9.32303 5.25924 9.73136 5.25924 10.2351C5.25924 10.7388 5.66678 11.1471 6.1695 11.1471ZM10.923 14.2886C10.923 14.7923 10.5155 15.2006 10.0128 15.2006C9.51007 15.2006 9.10253 14.7923 9.10253 14.2886C9.10253 13.7848 9.51007 13.3765 10.0128 13.3765C10.5155 13.3765 10.923 13.7848 10.923 14.2886ZM2.62962 30.7052C2.62962 31.2089 2.22209 31.6172 1.71937 31.6172C1.21665 31.6172 0.809114 31.2089 0.809114 30.7052C0.809114 30.2015 1.21665 29.7931 1.71937 29.7931C2.22209 29.7931 2.62962 30.2015 2.62962 30.7052ZM9.10253 47.9325C9.10253 47.4288 9.51007 47.0205 10.0128 47.0205C10.5155 47.0205 10.923 47.4288 10.923 47.9325C10.923 48.4362 10.5155 48.8445 10.0128 48.8445C9.51007 48.8445 9.10253 48.4362 9.10253 47.9325ZM7.07975 52.3914C7.07975 51.8876 6.67221 51.4793 6.1695 51.4793C5.66678 51.4793 5.25924 51.8876 5.25924 52.3914C5.25924 52.8951 5.66678 53.3034 6.1695 53.3034C6.67221 53.3034 7.07975 52.8951 7.07975 52.3914ZM54.0084 52.3914C54.0084 51.8876 54.4159 51.4793 54.9186 51.4793C55.4213 51.4793 55.8289 51.8876 55.8289 52.3914C55.8289 52.8951 55.4213 53.3034 54.9186 53.3034C54.4159 53.3034 54.0084 52.8951 54.0084 52.3914ZM51.0753 47.4258C50.5726 47.4258 50.1651 47.8342 50.1651 48.3379C50.1651 48.8416 50.5726 49.2499 51.0753 49.2499C51.5781 49.2499 51.9856 48.8416 51.9856 48.3379C51.9856 47.8342 51.5781 47.4258 51.0753 47.4258ZM59.3687 31.0092C58.866 31.0092 58.4585 31.4175 58.4585 31.9212C58.4585 32.4249 58.866 32.8333 59.3687 32.8333C59.8715 32.8333 60.279 32.4249 60.279 31.9212C60.279 31.4175 59.8715 31.0092 59.3687 31.0092ZM51.0753 15.6059C51.5781 15.6059 51.9856 15.1976 51.9856 14.6939C51.9856 14.1902 51.5781 13.7819 51.0753 13.7819C50.5726 13.7819 50.1651 14.1902 50.1651 14.6939C50.1651 15.1976 50.5726 15.6059 51.0753 15.6059ZM54.9186 11.1471C54.4159 11.1471 54.0084 10.7388 54.0084 10.2351C54.0084 9.73136 54.4159 9.32303 54.9186 9.32303C55.4213 9.32303 55.8289 9.73136 55.8289 10.2351C55.8289 10.7388 55.4213 11.1471 54.9186 11.1471ZM30.6452 43.9804C37.9626 43.9804 43.8944 38.0369 43.8944 30.7052C43.8944 23.3735 37.9626 17.43 30.6452 17.43C23.3278 17.43 17.396 23.3735 17.396 30.7052C17.396 38.0369 23.3278 43.9804 30.6452 43.9804ZM35.3987 26.753C35.3987 28.8169 34.0601 30.5676 32.2052 31.1808L35.3987 38.9135H26.3974L29.3206 31.1916C27.4486 30.5884 26.0939 28.8292 26.0939 26.753C26.0939 24.1785 28.1769 22.0915 30.7463 22.0915C33.3158 22.0915 35.3987 24.1785 35.3987 26.753Z" fill="url(#paint0_linear_1457_3987)"/>
<defs>
<linearGradient id="paint0_linear_1457_3987" x1="30.5441" y1="0" x2="30.5441" y2="62.0184" gradientUnits="userSpaceOnUse">
<stop stop-color="#29B85D"/>
<stop offset="1" stop-color="#00FFF0"/>
</linearGradient>
</defs>
</svg>
