<svg width="16" height="16" viewBox="0 0 16 16" fill="none" xmlns="http://www.w3.org/2000/svg">
<path d="M8.66665 3.33329C8.66665 3.15648 8.59641 2.98691 8.47138 2.86189C8.34636 2.73686 8.17679 2.66663 7.99998 2.66663C7.82317 2.66663 7.6536 2.73686 7.52858 2.86189C7.40355 2.98691 7.33331 3.15648 7.33331 3.33329V3.99996C7.33331 4.17677 7.40355 4.34634 7.52858 4.47136C7.6536 4.59639 7.82317 4.66663 7.99998 4.66663C8.17679 4.66663 8.34636 4.59639 8.47138 4.47136C8.59641 4.34634 8.66665 4.17677 8.66665 3.99996V3.33329ZM6.01865 12.6666H1.99998C1.82317 12.6666 1.6536 12.5964 1.52858 12.4714C1.40355 12.3463 1.33331 12.1768 1.33331 12C1.33331 11.8231 1.40355 11.6536 1.52858 11.5286C1.6536 11.4035 1.82317 11.3333 1.99998 11.3333H4.53531C4.18446 10.7252 3.99983 10.0355 3.99998 9.33342C4.00013 8.63137 4.18505 7.94173 4.53616 7.33378C4.88727 6.72584 5.39221 6.22101 6.00022 5.87003C6.60824 5.51905 7.29793 5.33427 7.99998 5.33427C8.70203 5.33427 9.39172 5.51905 9.99973 5.87003C10.6078 6.22101 11.1127 6.72584 11.4638 7.33378C11.8149 7.94173 11.9998 8.63137 12 9.33342C12.0001 10.0355 11.8155 10.7252 11.4646 11.3333H14C14.1768 11.3333 14.3464 11.4035 14.4714 11.5286C14.5964 11.6536 14.6666 11.8231 14.6666 12C14.6666 12.1768 14.5964 12.3463 14.4714 12.4714C14.3464 12.5964 14.1768 12.6666 14 12.6666H6.01865ZM7.99998 6.66663C7.45831 6.66659 6.92947 6.83152 6.48384 7.13945C6.03822 7.44738 5.69693 7.88373 5.5054 8.39041C5.31388 8.89709 5.2812 9.45008 5.41171 9.97579C5.54221 10.5015 5.82973 10.975 6.23598 11.3333H9.76398C10.1702 10.975 10.4577 10.5015 10.5883 9.97579C10.7188 9.45008 10.6861 8.89709 10.4946 8.39041C10.303 7.88373 9.96174 7.44738 9.51612 7.13945C9.07049 6.83152 8.54165 6.66659 7.99998 6.66663ZM12.714 5.56196L12.2426 6.03329C12.1811 6.09697 12.1076 6.14775 12.0262 6.18269C11.9449 6.21763 11.8574 6.23602 11.7689 6.23679C11.6804 6.23756 11.5926 6.22069 11.5107 6.18717C11.4287 6.15365 11.3543 6.10415 11.2917 6.04156C11.2291 5.97896 11.1796 5.90453 11.1461 5.8226C11.1126 5.74066 11.0957 5.65288 11.0965 5.56436C11.0972 5.47584 11.1156 5.38836 11.1506 5.30702C11.1855 5.22569 11.2363 5.15212 11.3 5.09063L11.7713 4.61929C11.8328 4.55562 11.9064 4.50483 11.9877 4.46989C12.069 4.43495 12.1565 4.41656 12.245 4.41579C12.3336 4.41502 12.4214 4.43189 12.5033 4.46541C12.5852 4.49893 12.6596 4.54843 12.7222 4.61103C12.7848 4.67362 12.8343 4.74806 12.8679 4.82999C12.9014 4.91192 12.9183 4.99971 12.9175 5.08823C12.9167 5.17675 12.8983 5.26423 12.8634 5.34556C12.8284 5.4269 12.7777 5.50046 12.714 5.56196Z" fill="white"/>
<path d="M2.66665 10C2.84346 10 3.01303 9.92979 3.13805 9.80476C3.26307 9.67974 3.33331 9.51017 3.33331 9.33336C3.33331 9.15655 3.26307 8.98698 3.13805 8.86195C3.01303 8.73693 2.84346 8.66669 2.66665 8.66669H1.99998C1.82317 8.66669 1.6536 8.73693 1.52858 8.86195C1.40355 8.98698 1.33331 9.15655 1.33331 9.33336C1.33331 9.51017 1.40355 9.67974 1.52858 9.80476C1.6536 9.92979 1.82317 10 1.99998 10H2.66665ZM14.6666 9.33336C14.6666 9.51017 14.5964 9.67974 14.4714 9.80476C14.3464 9.92979 14.1768 10 14 10H13.3333C13.1565 10 12.9869 9.92979 12.8619 9.80476C12.7369 9.67974 12.6666 9.51017 12.6666 9.33336C12.6666 9.15655 12.7369 8.98698 12.8619 8.86195C12.9869 8.73693 13.1565 8.66669 13.3333 8.66669H14C14.1768 8.66669 14.3464 8.73693 14.4714 8.86195C14.5964 8.98698 14.6666 9.15655 14.6666 9.33336ZM3.75731 6.03336C3.88305 6.1548 4.05145 6.22199 4.22625 6.22047C4.40105 6.21896 4.56825 6.14884 4.69186 6.02524C4.81546 5.90163 4.88558 5.73442 4.8871 5.55963C4.88861 5.38483 4.82142 5.21643 4.69998 5.09069L4.22865 4.61936C4.1675 4.55424 4.09388 4.50207 4.01218 4.46596C3.93047 4.42985 3.84234 4.41053 3.75302 4.40914C3.6637 4.40775 3.57501 4.42433 3.49223 4.45789C3.40944 4.49144 3.33424 4.5413 3.2711 4.60449C3.20795 4.66767 3.15815 4.74291 3.12465 4.82572C3.09115 4.90853 3.07464 4.99723 3.07609 5.08655C3.07754 5.17587 3.09693 5.26398 3.1331 5.34566C3.16927 5.42734 3.22148 5.50092 3.28665 5.56202L3.75798 6.03336H3.75731Z" fill="white"/>
</svg>
