<svg width="193" height="44" viewBox="0 0 193 44" fill="none" xmlns="http://www.w3.org/2000/svg">
<path d="M23.1307 15.7205C23.1307 16.4977 23.0298 17.1992 22.8279 17.8251C22.6361 18.4408 22.3787 18.9859 22.0557 19.4603C21.7327 19.9348 21.3541 20.3385 20.9201 20.6716C20.486 21.0047 20.0368 21.2773 19.5725 21.4893C19.1082 21.7012 18.6338 21.8577 18.1492 21.9586C17.6748 22.0596 17.2256 22.11 16.8017 22.11H1.61504V18.1733H16.8017C17.5587 18.1733 18.1442 17.9513 18.5581 17.5071C18.982 17.063 19.194 16.4674 19.194 15.7205C19.194 15.3571 19.1385 15.024 19.0274 14.7211C18.9164 14.4183 18.7549 14.1559 18.5429 13.9338C18.341 13.7117 18.0887 13.5401 17.7859 13.419C17.4931 13.2979 17.1651 13.2373 16.8017 13.2373H7.74723C7.1113 13.2373 6.4249 13.1263 5.68803 12.9042C4.95116 12.672 4.26476 12.3036 3.62882 11.7989C3.00299 11.2942 2.47809 10.633 2.05414 9.81538C1.64028 8.99776 1.43335 7.99844 1.43335 6.81742C1.43335 5.63641 1.64028 4.64214 2.05414 3.83461C2.47809 3.01698 3.00299 2.35581 3.62882 1.85111C4.26476 1.33631 4.95116 0.96787 5.68803 0.745799C6.4249 0.513633 7.1113 0.397551 7.74723 0.397551H21.1472V4.33427H7.74723C7.00027 4.33427 6.41481 4.56138 5.99085 5.01562C5.57699 5.46986 5.37006 6.07046 5.37006 6.81742C5.37006 7.57448 5.57699 8.17509 5.99085 8.61923C6.41481 9.05328 7.00027 9.2703 7.74723 9.2703H16.8017H16.832C17.2559 9.28039 17.7051 9.34096 18.1795 9.45199C18.6539 9.55294 19.1233 9.71444 19.5877 9.93651C20.0621 10.1586 20.5113 10.4412 20.9352 10.7844C21.3592 11.1175 21.7327 11.5213 22.0557 11.9957C22.3888 12.4701 22.6512 13.0152 22.843 13.631C23.0348 14.2467 23.1307 14.9432 23.1307 15.7205Z" fill="black"/>
<path d="M49.1887 13.3281C49.1887 14.6505 48.9616 15.8668 48.5074 16.9772C48.0531 18.0875 47.4222 19.0465 46.6147 19.854C45.8072 20.6615 44.8482 21.2924 43.7379 21.7467C42.6376 22.1908 41.4364 22.4129 40.1343 22.4129H34.8046C33.5024 22.4129 32.2962 22.1908 31.1858 21.7467C30.0755 21.2924 29.1165 20.6615 28.309 19.854C27.5015 19.0465 26.8655 18.0875 26.4012 16.9772C25.947 15.8668 25.7198 14.6505 25.7198 13.3281V9.17945C25.7198 7.86721 25.947 6.65592 26.4012 5.54556C26.8655 4.42511 27.5015 3.46617 28.309 2.66873C29.1165 1.8612 30.0755 1.23032 31.1858 0.776081C32.2962 0.321845 33.5024 0.0947266 34.8046 0.0947266H40.1343C41.4364 0.0947266 42.6376 0.321845 43.7379 0.776081C44.8482 1.23032 45.8072 1.8612 46.6147 2.66873C47.4222 3.46617 48.0531 4.42511 48.5074 5.54556C48.9616 6.65592 49.1887 7.86721 49.1887 9.17945V13.3281ZM45.252 9.17945C45.252 8.4022 45.1258 7.70066 44.8735 7.07482C44.6312 6.43889 44.283 5.89886 43.8287 5.45471C43.3846 5.00048 42.8446 4.65223 42.2086 4.40997C41.5828 4.15762 40.8913 4.03144 40.1343 4.03144H34.8046C34.0374 4.03144 33.3359 4.15762 32.6999 4.40997C32.0741 4.65223 31.5341 5.00048 31.0798 5.45471C30.6256 5.89886 30.2723 6.43889 30.02 7.07482C29.7777 7.70066 29.6566 8.4022 29.6566 9.17945V13.3281C29.6566 14.1054 29.7777 14.812 30.02 15.4479C30.2723 16.0737 30.6256 16.6138 31.0798 17.068C31.5341 17.5122 32.0741 17.8604 32.6999 18.1128C33.3359 18.355 34.0374 18.4762 34.8046 18.4762H40.104C40.8712 18.4762 41.5676 18.355 42.1935 18.1128C42.8294 17.8604 43.3745 17.5122 43.8287 17.068C44.283 16.6138 44.6312 16.0737 44.8735 15.4479C45.1258 14.812 45.252 14.1054 45.252 13.3281V9.17945Z" fill="black"/>
<path d="M71.0375 13.2373H58.5914V9.2703H71.0375V13.2373ZM72.7939 4.33427H57.0167V22.11H53.08V2.38105C53.08 2.10851 53.1305 1.85111 53.2314 1.60885C53.3324 1.36659 53.4686 1.15461 53.6402 0.972917C53.8219 0.791222 54.0339 0.649904 54.2762 0.548963C54.5184 0.448021 54.7809 0.397551 55.0635 0.397551H72.7939V4.33427Z" fill="black"/>
<path d="M95.5965 4.33427H86.9206V22.11H82.9839V4.33427H74.2928V0.397551H95.5965V4.33427Z" fill="black"/>
<path d="M120.171 13.0253C120.171 14.3477 119.939 15.564 119.474 16.6744C119.02 17.7847 118.389 18.7437 117.582 19.5512C116.774 20.3486 115.815 20.9745 114.705 21.4287C113.594 21.8829 112.388 22.11 111.086 22.11H100.457C100.174 22.11 99.9118 22.0596 99.6695 21.9586C99.4272 21.8577 99.2153 21.7214 99.0336 21.5498C98.862 21.3681 98.7257 21.1561 98.6248 20.9139C98.5238 20.6716 98.4734 20.4092 98.4734 20.1265V2.38105C98.4734 2.10851 98.5238 1.85111 98.6248 1.60885C98.7257 1.36659 98.862 1.15461 99.0336 0.972917C99.2153 0.791222 99.4272 0.649904 99.6695 0.548963C99.9118 0.448021 100.174 0.397551 100.457 0.397551H111.086C112.388 0.397551 113.594 0.624669 114.705 1.07891C115.815 1.53314 116.774 2.16403 117.582 2.97156C118.389 3.76899 119.02 4.72794 119.474 5.84839C119.939 6.95874 120.171 8.17004 120.171 9.48228V13.0253ZM116.234 9.48228C116.234 8.71512 116.108 8.01358 115.855 7.37765C115.613 6.74172 115.265 6.20168 114.811 5.75754C114.356 5.3033 113.811 4.95505 113.175 4.7128C112.55 4.46044 111.853 4.33427 111.086 4.33427H102.41V18.1733H111.086C111.853 18.1733 112.55 18.0522 113.175 17.8099C113.811 17.5576 114.356 17.2093 114.811 16.7652C115.265 16.311 115.613 15.7709 115.855 15.1451C116.108 14.5092 116.234 13.8026 116.234 13.0253V9.48228Z" fill="black"/>
<path d="M145.335 22.11H141.399V16.7803H127.56V22.11H123.623V11.2538C123.623 9.66902 123.895 8.21041 124.441 6.87799C124.986 5.54556 125.743 4.39988 126.712 3.44093C127.681 2.48199 128.826 1.73502 130.149 1.20003C131.471 0.665045 132.915 0.397551 134.479 0.397551H143.352C143.624 0.397551 143.882 0.448021 144.124 0.548963C144.366 0.649904 144.578 0.791222 144.76 0.972917C144.942 1.15461 145.083 1.36659 145.184 1.60885C145.285 1.85111 145.335 2.10851 145.335 2.38105V22.11ZM127.56 12.8436H141.399V4.33427H134.479C134.358 4.33427 134.101 4.35445 133.707 4.39483C133.323 4.42511 132.874 4.51091 132.359 4.65223C131.855 4.79355 131.32 5.01057 130.754 5.3033C130.189 5.59603 129.669 5.9998 129.195 6.5146C128.72 7.0294 128.327 7.67543 128.014 8.45267C127.711 9.21983 127.56 10.1535 127.56 11.2538V12.8436Z" fill="black"/>
<path d="M169.546 4.33427H160.87V22.11H156.934V4.33427H148.243V0.397551H169.546V4.33427Z" fill="black"/>
<path d="M193 22.11H189.063V16.7803H175.224V22.11H171.287V11.2538C171.287 9.66902 171.56 8.21041 172.105 6.87799C172.65 5.54556 173.407 4.39988 174.376 3.44093C175.345 2.48199 176.491 1.73502 177.813 1.20003C179.136 0.665045 180.579 0.397551 182.144 0.397551H191.016C191.289 0.397551 191.546 0.448021 191.789 0.548963C192.031 0.649904 192.243 0.791222 192.425 0.972917C192.606 1.15461 192.748 1.36659 192.848 1.60885C192.949 1.85111 193 2.10851 193 2.38105V22.11ZM175.224 12.8436H189.063V4.33427H182.144C182.023 4.33427 181.765 4.35445 181.371 4.39483C180.988 4.42511 180.539 4.51091 180.024 4.65223C179.519 4.79355 178.984 5.01057 178.419 5.3033C177.854 5.59603 177.334 5.9998 176.859 6.5146C176.385 7.0294 175.991 7.67543 175.678 8.45267C175.376 9.21983 175.224 10.1535 175.224 11.2538V12.8436Z" fill="black"/>
<path d="M3.52286 34.654L6.63892 41.3358H5.92123L4.87194 39.1373H1.99208L0.94734 41.3358H0.202393L3.35933 34.654H3.52286ZM3.4411 36.0712L2.29188 38.4923H4.57669L3.4411 36.0712Z" fill="black"/>
<path d="M9.65959 36.3937H10.3091V37.116C10.503 36.8313 10.7074 36.6193 10.9224 36.48C11.1374 36.3377 11.3615 36.2666 11.5946 36.2666C11.7703 36.2666 11.958 36.3226 12.1579 36.4346L11.8263 36.9706C11.6931 36.9131 11.581 36.8843 11.4902 36.8843C11.2782 36.8843 11.0738 36.9721 10.8769 37.1478C10.6801 37.3204 10.5302 37.5899 10.4273 37.9563C10.3485 38.2379 10.3091 38.8073 10.3091 39.6642V41.3358H9.65959V36.3937Z" fill="black"/>
<path d="M15.5783 34.5586H16.2188V36.3937H17.2272V36.9388H16.2188V41.3358H15.5783V36.9388H14.7107V36.3937H15.5783V34.5586Z" fill="black"/>
<path d="M20.7248 34.3588C20.8701 34.3588 20.9943 34.4102 21.0973 34.5132C21.2002 34.6162 21.2517 34.7403 21.2517 34.8857C21.2517 35.028 21.2002 35.1506 21.0973 35.2536C20.9943 35.3566 20.8701 35.4081 20.7248 35.4081C20.5825 35.4081 20.4598 35.3566 20.3569 35.2536C20.2539 35.1506 20.2024 35.028 20.2024 34.8857C20.2024 34.7403 20.2539 34.6162 20.3569 34.5132C20.4598 34.4102 20.5825 34.3588 20.7248 34.3588ZM20.4068 36.3937H21.0473V41.3358H20.4068V36.3937Z" fill="black"/>
<path d="M26.7253 34.486V35.1083C26.4921 35.0083 26.2922 34.9584 26.1257 34.9584C26.0015 34.9584 25.8985 34.9841 25.8168 35.0356C25.735 35.084 25.6835 35.1416 25.6623 35.2082C25.6411 35.2718 25.6305 35.4444 25.6305 35.726V36.3937H26.6617V36.9388H25.626V41.3358H24.9901V36.9388H24.3405V36.3937H24.9901V35.6215C24.9901 35.2672 25.0219 35.0144 25.0855 34.863C25.1521 34.7116 25.2626 34.5904 25.417 34.4996C25.5745 34.4057 25.7638 34.3588 25.9848 34.3588C26.1908 34.3588 26.4376 34.4012 26.7253 34.486Z" fill="black"/>
<path d="M30.1638 34.3588C30.3092 34.3588 30.4333 34.4102 30.5363 34.5132C30.6393 34.6162 30.6907 34.7403 30.6907 34.8857C30.6907 35.028 30.6393 35.1506 30.5363 35.2536C30.4333 35.3566 30.3092 35.4081 30.1638 35.4081C30.0215 35.4081 29.8988 35.3566 29.7959 35.2536C29.6929 35.1506 29.6414 35.028 29.6414 34.8857C29.6414 34.7403 29.6929 34.6162 29.7959 34.5132C29.8988 34.4102 30.0215 34.3588 30.1638 34.3588ZM29.8459 36.3937H30.4863V41.3358H29.8459V36.3937Z" fill="black"/>
<path d="M38.926 37.4203L38.4218 37.7337C37.9858 37.1553 37.3907 36.8661 36.6367 36.8661C36.0341 36.8661 35.5329 37.06 35.1332 37.4476C34.7365 37.8352 34.5381 38.3061 34.5381 38.8602C34.5381 39.2206 34.629 39.5598 34.8107 39.8777C34.9954 40.1957 35.2467 40.4425 35.5647 40.6181C35.8857 40.7938 36.2445 40.8816 36.6412 40.8816C37.368 40.8816 37.9615 40.5924 38.4218 40.014L38.926 40.3456C38.6898 40.6999 38.3719 40.9755 37.9721 41.1723C37.5754 41.3661 37.1227 41.463 36.614 41.463C35.8327 41.463 35.1846 41.2147 34.6698 40.7181C34.155 40.2214 33.8976 39.6173 33.8976 38.9057C33.8976 38.4272 34.0173 37.9836 34.2565 37.5748C34.4987 37.1629 34.8303 36.8419 35.2513 36.6118C35.6722 36.3816 36.1431 36.2666 36.6639 36.2666C36.991 36.2666 37.3059 36.3165 37.6087 36.4165C37.9146 36.5164 38.1735 36.6466 38.3855 36.8071C38.5975 36.9676 38.7777 37.172 38.926 37.4203Z" fill="black"/>
<path d="M42.7007 34.3588C42.8461 34.3588 42.9703 34.4102 43.0732 34.5132C43.1762 34.6162 43.2277 34.7403 43.2277 34.8857C43.2277 35.028 43.1762 35.1506 43.0732 35.2536C42.9703 35.3566 42.8461 35.4081 42.7007 35.4081C42.5584 35.4081 42.4358 35.3566 42.3328 35.2536C42.2298 35.1506 42.1784 35.028 42.1784 34.8857C42.1784 34.7403 42.2298 34.6162 42.3328 34.5132C42.4358 34.4102 42.5584 34.3588 42.7007 34.3588ZM42.3828 36.3937H43.0232V41.3358H42.3828V36.3937Z" fill="black"/>
<path d="M51.5901 36.3937V41.3358H50.9633V40.4864C50.6968 40.8104 50.397 41.0542 50.0639 41.2177C49.7338 41.3813 49.372 41.463 48.9783 41.463C48.2788 41.463 47.6807 41.2102 47.1841 40.7044C46.6904 40.1957 46.4436 39.5779 46.4436 38.8512C46.4436 38.1395 46.6935 37.5308 47.1931 37.0251C47.6928 36.5194 48.2939 36.2666 48.9965 36.2666C49.4022 36.2666 49.7687 36.3529 50.0957 36.5255C50.4258 36.6981 50.715 36.957 50.9633 37.3022V36.3937H51.5901ZM49.0464 36.8798C48.6921 36.8798 48.3651 36.9676 48.0653 37.1432C47.7655 37.3158 47.5262 37.5596 47.3476 37.8746C47.1719 38.1895 47.0841 38.5226 47.0841 38.8739C47.0841 39.2221 47.1735 39.5552 47.3521 39.8732C47.5308 40.1912 47.77 40.4395 48.0698 40.6181C48.3726 40.7938 48.6967 40.8816 49.0419 40.8816C49.3901 40.8816 49.7202 40.7938 50.0321 40.6181C50.344 40.4425 50.5833 40.2048 50.7498 39.905C50.9194 39.6052 51.0042 39.2675 51.0042 38.892C51.0042 38.3197 50.8149 37.8412 50.4364 37.4567C50.0609 37.0721 49.5976 36.8798 49.0464 36.8798Z" fill="black"/>
<path d="M55.2558 34.486H55.8918V41.3358H55.2558V34.486Z" fill="black"/>
<path d="M64.4541 34.654H65.1218V41.3358H64.4541V34.654Z" fill="black"/>
<path d="M68.8784 36.3937H69.5143V37.2795C69.7687 36.9403 70.0503 36.6875 70.3592 36.5209C70.6681 36.3513 71.0042 36.2666 71.3676 36.2666C71.737 36.2666 72.0641 36.3604 72.3487 36.5482C72.6364 36.7359 72.8484 36.9888 72.9847 37.3068C73.1209 37.6247 73.1891 38.1198 73.1891 38.7921V41.3358H72.5577V38.9783C72.5577 38.409 72.5335 38.029 72.485 37.8382C72.4093 37.5112 72.267 37.2659 72.058 37.1024C71.8491 36.9358 71.5765 36.8525 71.2404 36.8525C70.8558 36.8525 70.5106 36.9797 70.2048 37.2341C69.9019 37.4885 69.7021 37.8034 69.6052 38.1789C69.5446 38.4242 69.5143 38.8724 69.5143 39.5234V41.3358H68.8784V36.3937Z" fill="black"/>
<path d="M77.4362 34.5586H78.0767V36.3937H79.0851V36.9388H78.0767V41.3358H77.4362V36.9388H76.5686V36.3937H77.4362V34.5586Z" fill="black"/>
<path d="M86.5209 39.696L87.0569 39.9777C86.8813 40.3229 86.6784 40.6015 86.4482 40.8135C86.2181 41.0254 85.9592 41.1874 85.6715 41.2995C85.3838 41.4085 85.0583 41.463 84.6949 41.463C83.8894 41.463 83.2595 41.1996 82.8053 40.6726C82.351 40.1427 82.1239 39.5446 82.1239 38.8784C82.1239 38.2516 82.3162 37.6929 82.7008 37.2023C83.1883 36.5785 83.8409 36.2666 84.6585 36.2666C85.5004 36.2666 86.1727 36.586 86.6754 37.225C87.0327 37.6762 87.2144 38.2395 87.2204 38.9148H82.778C82.7901 39.4901 82.9733 39.9625 83.3276 40.332C83.6819 40.6984 84.1195 40.8816 84.6404 40.8816C84.8917 40.8816 85.1355 40.8377 85.3717 40.7499C85.6109 40.662 85.8138 40.5455 85.9804 40.4001C86.1469 40.2548 86.3271 40.0201 86.5209 39.696ZM86.5209 38.3651C86.4361 38.026 86.312 37.7549 86.1484 37.552C85.9879 37.3492 85.7745 37.1856 85.508 37.0615C85.2415 36.9373 84.9614 36.8752 84.6676 36.8752C84.1831 36.8752 83.7667 37.0312 83.4185 37.3431C83.1641 37.5702 82.9718 37.9109 82.8416 38.3651H86.5209Z" fill="black"/>
<path d="M90.6408 34.486H91.2768V41.3358H90.6408V34.486Z" fill="black"/>
<path d="M94.8289 34.486H95.4648V41.3358H94.8289V34.486Z" fill="black"/>
<path d="M99.3349 34.3588C99.4803 34.3588 99.6044 34.4102 99.7074 34.5132C99.8104 34.6162 99.8618 34.7403 99.8618 34.8857C99.8618 35.028 99.8104 35.1506 99.7074 35.2536C99.6044 35.3566 99.4803 35.4081 99.3349 35.4081C99.1926 35.4081 99.0699 35.3566 98.967 35.2536C98.864 35.1506 98.8125 35.028 98.8125 34.8857C98.8125 34.7403 98.864 34.6162 98.967 34.5132C99.0699 34.4102 99.1926 34.3588 99.3349 34.3588ZM99.017 36.3937H99.6574V41.3358H99.017V36.3937Z" fill="black"/>
<path d="M107.557 36.3937H108.197V40.332C108.197 41.0254 108.137 41.5327 108.015 41.8537C107.849 42.3079 107.56 42.6577 107.148 42.9029C106.736 43.1482 106.241 43.2709 105.662 43.2709C105.238 43.2709 104.857 43.2103 104.518 43.0892C104.182 42.9711 103.908 42.8106 103.696 42.6077C103.484 42.4078 103.288 42.1141 103.11 41.7265H103.8C103.988 42.0535 104.23 42.2958 104.527 42.4533C104.824 42.6107 105.192 42.6895 105.631 42.6895C106.064 42.6895 106.429 42.6077 106.725 42.4442C107.025 42.2837 107.239 42.0808 107.366 41.8355C107.493 41.5902 107.557 41.195 107.557 40.6499V40.3956C107.317 40.6984 107.025 40.9316 106.68 41.0951C106.335 41.2556 105.968 41.3358 105.581 41.3358C105.126 41.3358 104.699 41.2238 104.3 40.9997C103.9 40.7726 103.591 40.4682 103.373 40.0867C103.155 39.7051 103.046 39.2857 103.046 38.8284C103.046 38.3712 103.16 37.9457 103.387 37.552C103.614 37.1553 103.927 36.8419 104.327 36.6118C104.73 36.3816 105.154 36.2666 105.599 36.2666C105.968 36.2666 106.312 36.3438 106.63 36.4982C106.951 36.6496 107.26 36.901 107.557 37.2522V36.3937ZM105.681 36.8798C105.32 36.8798 104.986 36.9676 104.677 37.1432C104.368 37.3158 104.126 37.5566 103.95 37.8655C103.774 38.1713 103.687 38.5029 103.687 38.8602C103.687 39.4023 103.868 39.8505 104.232 40.2048C104.595 40.5591 105.066 40.7362 105.644 40.7362C106.229 40.7362 106.698 40.5606 107.052 40.2093C107.41 39.8581 107.588 39.3962 107.588 38.8239C107.588 38.4514 107.507 38.1198 107.343 37.8291C107.18 37.5354 106.948 37.3037 106.648 37.1341C106.348 36.9646 106.026 36.8798 105.681 36.8798Z" fill="black"/>
<path d="M116.046 39.696L116.582 39.9777C116.407 40.3229 116.204 40.6015 115.974 40.8135C115.743 41.0254 115.485 41.1874 115.197 41.2995C114.909 41.4085 114.584 41.463 114.22 41.463C113.415 41.463 112.785 41.1996 112.331 40.6726C111.876 40.1427 111.649 39.5446 111.649 38.8784C111.649 38.2516 111.842 37.6929 112.226 37.2023C112.714 36.5785 113.366 36.2666 114.184 36.2666C115.026 36.2666 115.698 36.586 116.201 37.225C116.558 37.6762 116.74 38.2395 116.746 38.9148H112.303C112.315 39.4901 112.499 39.9625 112.853 40.332C113.207 40.6984 113.645 40.8816 114.166 40.8816C114.417 40.8816 114.661 40.8377 114.897 40.7499C115.136 40.662 115.339 40.5455 115.506 40.4001C115.672 40.2548 115.852 40.0201 116.046 39.696ZM116.046 38.3651C115.961 38.026 115.837 37.7549 115.674 37.552C115.513 37.3492 115.3 37.1856 115.033 37.0615C114.767 36.9373 114.487 36.8752 114.193 36.8752C113.708 36.8752 113.292 37.0312 112.944 37.3431C112.689 37.5702 112.497 37.9109 112.367 38.3651H116.046Z" fill="black"/>
<path d="M120.262 36.3937H120.898V37.2795C121.152 36.9403 121.434 36.6875 121.742 36.5209C122.051 36.3513 122.387 36.2666 122.751 36.2666C123.12 36.2666 123.447 36.3604 123.732 36.5482C124.02 36.7359 124.232 36.9888 124.368 37.3068C124.504 37.6247 124.572 38.1198 124.572 38.7921V41.3358H123.941V38.9783C123.941 38.409 123.917 38.029 123.868 37.8382C123.793 37.5112 123.65 37.2659 123.441 37.1024C123.232 36.9358 122.96 36.8525 122.624 36.8525C122.239 36.8525 121.894 36.9797 121.588 37.2341C121.285 37.4885 121.085 37.8034 120.988 38.1789C120.928 38.4242 120.898 38.8724 120.898 39.5234V41.3358H120.262V36.3937Z" fill="black"/>
<path d="M133.062 37.4203L132.558 37.7337C132.122 37.1553 131.527 36.8661 130.773 36.8661C130.17 36.8661 129.669 37.06 129.269 37.4476C128.872 37.8352 128.674 38.3061 128.674 38.8602C128.674 39.2206 128.765 39.5598 128.947 39.8777C129.131 40.1957 129.383 40.4425 129.701 40.6181C130.022 40.7938 130.38 40.8816 130.777 40.8816C131.504 40.8816 132.097 40.5924 132.558 40.014L133.062 40.3456C132.826 40.6999 132.508 40.9755 132.108 41.1723C131.711 41.3661 131.259 41.463 130.75 41.463C129.969 41.463 129.321 41.2147 128.806 40.7181C128.291 40.2214 128.034 39.6173 128.034 38.9057C128.034 38.4272 128.153 37.9836 128.392 37.5748C128.635 37.1629 128.966 36.8419 129.387 36.6118C129.808 36.3816 130.279 36.2666 130.8 36.2666C131.127 36.2666 131.442 36.3165 131.745 36.4165C132.051 36.5164 132.309 36.6466 132.521 36.8071C132.733 36.9676 132.914 37.172 133.062 37.4203Z" fill="black"/>
<path d="M140.775 39.696L141.311 39.9777C141.135 40.3229 140.932 40.6015 140.702 40.8135C140.472 41.0254 140.213 41.1874 139.925 41.2995C139.638 41.4085 139.312 41.463 138.949 41.463C138.143 41.463 137.513 41.1996 137.059 40.6726C136.605 40.1427 136.378 39.5446 136.378 38.8784C136.378 38.2516 136.57 37.6929 136.955 37.2023C137.442 36.5785 138.095 36.2666 138.913 36.2666C139.754 36.2666 140.427 36.586 140.929 37.225C141.287 37.6762 141.468 38.2395 141.474 38.9148H137.032C137.044 39.4901 137.227 39.9625 137.582 40.332C137.936 40.6984 138.374 40.8816 138.894 40.8816C139.146 40.8816 139.389 40.8377 139.626 40.7499C139.865 40.662 140.068 40.5455 140.234 40.4001C140.401 40.2548 140.581 40.0201 140.775 39.696ZM140.775 38.3651C140.69 38.026 140.566 37.7549 140.402 37.552C140.242 37.3492 140.028 37.1856 139.762 37.0615C139.495 36.9373 139.215 36.8752 138.922 36.8752C138.437 36.8752 138.021 37.0312 137.672 37.3431C137.418 37.5702 137.226 37.9109 137.096 38.3651H140.775Z" fill="black"/>
<path d="M149.31 40.0912L149.878 39.7505C150.278 40.4864 150.739 40.8543 151.263 40.8543C151.487 40.8543 151.698 40.8029 151.895 40.6999C152.091 40.5939 152.241 40.4531 152.344 40.2775C152.447 40.1018 152.499 39.9156 152.499 39.7188C152.499 39.4947 152.423 39.2751 152.272 39.0601C152.063 38.7633 151.681 38.406 151.127 37.9881C150.57 37.5672 150.223 37.2628 150.087 37.0751C149.851 36.7602 149.732 36.4195 149.732 36.0531C149.732 35.7624 149.802 35.4974 149.941 35.2582C150.081 35.0189 150.276 34.8312 150.527 34.6949C150.782 34.5556 151.057 34.486 151.354 34.486C151.669 34.486 151.963 34.5647 152.235 34.7222C152.511 34.8766 152.802 35.1628 153.107 35.5807L152.562 35.994C152.311 35.6609 152.096 35.4414 151.917 35.3354C151.742 35.2294 151.549 35.1764 151.34 35.1764C151.071 35.1764 150.85 35.2582 150.677 35.4217C150.508 35.5852 150.423 35.7866 150.423 36.0258C150.423 36.1712 150.453 36.312 150.514 36.4483C150.574 36.5845 150.685 36.7329 150.845 36.8934C150.933 36.9782 151.221 37.2008 151.708 37.5611C152.287 37.9881 152.683 38.3682 152.898 38.7013C153.113 39.0344 153.221 39.369 153.221 39.7051C153.221 40.1896 153.036 40.6106 152.667 40.9679C152.3 41.3252 151.854 41.5039 151.327 41.5039C150.921 41.5039 150.553 41.3964 150.223 41.1814C149.893 40.9634 149.589 40.6 149.31 40.0912Z" fill="black"/>
<path d="M156.323 36.3937H156.996L158.695 40.2002L160.343 36.3937H161.02L158.072 43.1437H157.4L158.354 40.9634L156.323 36.3937Z" fill="black"/>
<path d="M166.653 36.9343L166.244 37.3567C165.905 37.0266 165.573 36.8616 165.249 36.8616C165.043 36.8616 164.866 36.9297 164.718 37.066C164.572 37.2023 164.5 37.3613 164.5 37.543C164.5 37.7035 164.56 37.8564 164.681 38.0017C164.802 38.1501 165.057 38.3242 165.444 38.5241C165.917 38.7694 166.238 39.0056 166.407 39.2327C166.574 39.4629 166.657 39.7218 166.657 40.0095C166.657 40.4152 166.515 40.759 166.23 41.0406C165.946 41.3222 165.59 41.463 165.163 41.463C164.878 41.463 164.606 41.4009 164.345 41.2768C164.088 41.1526 163.874 40.9815 163.705 40.7635L164.104 40.3093C164.428 40.6757 164.772 40.8589 165.136 40.8589C165.39 40.8589 165.606 40.7771 165.785 40.6136C165.964 40.4501 166.053 40.2578 166.053 40.0367C166.053 39.855 165.994 39.693 165.876 39.5507C165.758 39.4114 165.491 39.2357 165.077 39.0238C164.631 38.7936 164.329 38.5665 164.168 38.3424C164.008 38.1183 163.927 37.8624 163.927 37.5748C163.927 37.1993 164.055 36.8873 164.309 36.639C164.566 36.3907 164.89 36.2666 165.281 36.2666C165.735 36.2666 166.192 36.4891 166.653 36.9343Z" fill="black"/>
<path d="M170.664 34.5586H171.304V36.3937H172.313V36.9388H171.304V41.3358H170.664V36.9388H169.796V36.3937H170.664V34.5586Z" fill="black"/>
<path d="M179.748 39.696L180.284 39.9777C180.109 40.3229 179.906 40.6015 179.676 40.8135C179.446 41.0254 179.187 41.1874 178.899 41.2995C178.611 41.4085 178.286 41.463 177.922 41.463C177.117 41.463 176.487 41.1996 176.033 40.6726C175.578 40.1427 175.351 39.5446 175.351 38.8784C175.351 38.2516 175.544 37.6929 175.928 37.2023C176.416 36.5785 177.068 36.2666 177.886 36.2666C178.728 36.2666 179.4 36.586 179.903 37.225C180.26 37.6762 180.442 38.2395 180.448 38.9148H176.005C176.018 39.4901 176.201 39.9625 176.555 40.332C176.909 40.6984 177.347 40.8816 177.868 40.8816C178.119 40.8816 178.363 40.8377 178.599 40.7499C178.838 40.662 179.041 40.5455 179.208 40.4001C179.374 40.2548 179.555 40.0201 179.748 39.696ZM179.748 38.3651C179.664 38.026 179.539 37.7549 179.376 37.552C179.215 37.3492 179.002 37.1856 178.735 37.0615C178.469 36.9373 178.189 36.8752 177.895 36.8752C177.411 36.8752 176.994 37.0312 176.646 37.3431C176.392 37.5702 176.199 37.9109 176.069 38.3651H179.748Z" fill="black"/>
<path d="M183.959 36.3937H184.591V37.2477C184.812 36.9328 185.039 36.7026 185.272 36.5573C185.593 36.3635 185.931 36.2666 186.285 36.2666C186.524 36.2666 186.751 36.3135 186.966 36.4074C187.181 36.5012 187.357 36.6269 187.493 36.7844C187.629 36.9388 187.747 37.1614 187.847 37.4521C188.059 37.0645 188.324 36.7708 188.642 36.5709C188.96 36.368 189.302 36.2666 189.669 36.2666C190.011 36.2666 190.312 36.3529 190.573 36.5255C190.836 36.6981 191.032 36.9388 191.159 37.2477C191.286 37.5566 191.35 38.0199 191.35 38.6377V41.3358H190.7V38.6377C190.7 38.1077 190.662 37.7443 190.586 37.5475C190.511 37.3476 190.381 37.1871 190.196 37.066C190.014 36.9449 189.796 36.8843 189.542 36.8843C189.233 36.8843 188.95 36.9752 188.692 37.1569C188.438 37.3386 188.252 37.5808 188.134 37.8836C188.015 38.1865 187.956 38.6922 187.956 39.4008V41.3358H187.325V38.8057C187.325 38.2092 187.287 37.8049 187.211 37.5929C187.139 37.3779 187.01 37.2068 186.825 37.0796C186.641 36.9494 186.421 36.8843 186.167 36.8843C185.873 36.8843 185.597 36.9737 185.34 37.1523C185.086 37.328 184.896 37.5657 184.772 37.8655C184.651 38.1653 184.591 38.624 184.591 39.2418V41.3358H183.959V36.3937Z" fill="black"/>
</svg>
