<svg width="32" height="32" viewBox="0 0 32 32" fill="none" xmlns="http://www.w3.org/2000/svg">
<path d="M29.8664 26.75L16.8664 4.25C16.6727 3.91563 16.3383 3.75 16.0008 3.75C15.6633 3.75 15.3258 3.91563 15.1352 4.25L2.13517 26.75C1.75079 27.4188 2.23204 28.25 3.00079 28.25H29.0008C29.7695 28.25 30.2508 27.4188 29.8664 26.75ZM15.0008 13C15.0008 12.8625 15.1133 12.75 15.2508 12.75H16.7508C16.8883 12.75 17.0008 12.8625 17.0008 13V18.75C17.0008 18.8875 16.8883 19 16.7508 19H15.2508C15.1133 19 15.0008 18.8875 15.0008 18.75V13ZM16.0008 24C15.6083 23.992 15.2345 23.8304 14.9598 23.55C14.685 23.2696 14.5311 22.8926 14.5311 22.5C14.5311 22.1074 14.685 21.7304 14.9598 21.45C15.2345 21.1696 15.6083 21.008 16.0008 21C16.3933 21.008 16.7671 21.1696 17.0418 21.45C17.3166 21.7304 17.4705 22.1074 17.4705 22.5C17.4705 22.8926 17.3166 23.2696 17.0418 23.55C16.7671 23.8304 16.3933 23.992 16.0008 24Z" fill="#BE0909"/>
</svg>
