<svg width="38" height="38" viewBox="0 0 38 38" fill="none" xmlns="http://www.w3.org/2000/svg">
<g opacity="0.4">
<path opacity="0.4" d="M31.6149 26.9569V3.79993C31.6149 2.32599 30.4173 1.12842 28.9433 1.12842H17.123V21.1993C17.123 24.3775 19.6967 26.9512 22.8749 26.9512H31.6149V26.9569Z" fill="white"/>
</g>
<g opacity="0.4">
<path opacity="0.4" d="M28.8233 25.2238V6.67285H15.7939V21.1589C15.7939 23.4044 17.6133 25.2238 19.8588 25.2238H28.8233Z" fill="white"/>
</g>
<g opacity="0.4">
<path opacity="0.4" d="M28.8233 25.2238V6.67285H15.7939V21.1589C15.7939 23.4044 17.6133 25.2238 19.8588 25.2238H28.8233Z" fill="white"/>
</g>
<g opacity="0.4">
<path opacity="0.4" d="M19.0693 6.67285V6.77649C19.0693 8.38285 20.3705 9.68406 21.9769 9.68406H25.9093V19.1035C25.9093 20.7098 27.2105 22.011 28.8169 22.011V6.67285H19.0693Z" fill="white"/>
</g>
<path d="M6.38563 27.7342C6.07472 27.7342 5.82715 27.4866 5.82715 27.1757V3.80568C5.82715 2.02659 7.2723 0.575684 9.05139 0.575684H28.9438C30.7229 0.575684 32.1738 2.02084 32.1738 3.80568V13.749C32.1738 14.0599 31.9263 14.3075 31.6153 14.3075C31.3044 14.3075 31.0569 14.0599 31.0569 13.749V3.80568C31.0569 2.64265 30.1126 1.69265 28.9438 1.69265H9.05139C7.88836 1.69265 6.94412 2.6369 6.94412 3.80568V27.1757C6.94412 27.4866 6.69654 27.7342 6.38563 27.7342Z" fill="#717F93"/>
<path d="M28.9438 37.4241H9.05139C7.2723 37.4241 5.82715 35.979 5.82715 34.1941V30.469C5.82715 30.158 6.07472 29.9105 6.38563 29.9105C6.69654 29.9105 6.94412 30.158 6.94412 30.469V34.1941C6.94412 35.3571 7.88836 36.3071 9.05139 36.3071H28.9438C30.1069 36.3071 31.0569 35.3629 31.0569 34.1941V17.0653C31.0569 16.7544 31.3044 16.5068 31.6153 16.5068C31.9263 16.5068 32.1738 16.7544 32.1738 17.0653V34.1941C32.1738 35.979 30.7287 37.4241 28.9438 37.4241Z" fill="#717F93"/>
<path d="M28.8225 26.0933C28.5116 26.0933 28.264 25.8457 28.264 25.5348V7.23147H9.73611V8.80329C9.73611 9.1142 9.48853 9.36177 9.17762 9.36177C8.86672 9.36177 8.61914 9.1142 8.61914 8.80329V6.67299C8.61914 6.36208 8.86672 6.1145 9.17762 6.1145H28.8225C29.1334 6.1145 29.3809 6.36208 29.3809 6.67299V25.5348C29.3809 25.84 29.1334 26.0933 28.8225 26.0933Z" fill="#717F93"/>
<path d="M28.8898 31.8854H9.24501C8.9341 31.8854 8.68652 31.6378 8.68652 31.3269V11.9181C8.68652 11.6072 8.9341 11.3596 9.24501 11.3596C9.55592 11.3596 9.80349 11.6072 9.80349 11.9181V30.7684H28.3314V28.6899C28.3314 28.379 28.5789 28.1314 28.8898 28.1314C29.2008 28.1314 29.4483 28.379 29.4483 28.6899V31.3269C29.4483 31.6378 29.2008 31.8854 28.8898 31.8854Z" fill="#717F93"/>
<path d="M21.1136 34.6548H16.8876C16.5767 34.6548 16.3291 34.4072 16.3291 34.0963C16.3291 33.7854 16.5767 33.5378 16.8876 33.5378H21.1136C21.4246 33.5378 21.6721 33.7854 21.6721 34.0963C21.6721 34.4072 21.4246 34.6548 21.1136 34.6548Z" fill="#717F93"/>
<path d="M21.1136 4.46194H16.8876C16.5767 4.46194 16.3291 4.21436 16.3291 3.90346C16.3291 3.59255 16.5767 3.34497 16.8876 3.34497H21.1136C21.4246 3.34497 21.6721 3.59255 21.6721 3.90346C21.6721 4.21436 21.4246 4.46194 21.1136 4.46194Z" fill="#717F93"/>
<g clip-path="url(#clip0_2301_4548)">
<path d="M25.2284 29.3612V31.1781C25.2284 31.348 25.0907 31.4857 24.9208 31.4857C24.7509 31.4857 24.6132 31.348 24.6132 31.1781V29.3612C24.6132 27.9465 23.4685 26.8017 22.0537 26.8017C21.3843 26.8017 20.7769 26.4607 20.4289 25.8895C20.3406 25.7444 20.3865 25.5551 20.5316 25.4668C20.6767 25.3784 20.8659 25.4244 20.9543 25.5695C21.1897 25.9559 21.6006 26.1866 22.0537 26.1866C23.8083 26.1865 25.2284 27.6064 25.2284 29.3612ZM19.8609 26.278C19.8971 26.444 19.7919 26.6079 19.6259 26.644C18.8164 26.8204 17.9931 26.6438 17.3376 26.1964C16.6887 26.8918 15.8314 26.8017 15.9462 26.8017C14.5315 26.8017 13.3866 27.9464 13.3866 29.3612V31.1781C13.3866 31.348 13.2489 31.4857 13.0791 31.4857C12.9092 31.4857 12.7715 31.348 12.7715 31.1781V29.3612C12.7715 27.6066 14.1913 26.1866 15.9461 26.1866C16.6559 26.1866 17.2314 25.6147 17.2314 24.9047V24.8237C15.8888 24.1817 14.9465 22.8327 14.889 21.2618C14.3366 21.129 13.9249 20.6344 13.9249 20.0461V18.4516C13.9081 17.6711 14.024 15.7163 15.4493 14.3424C17.2092 12.6459 20.0315 12.7537 22.1068 13.7527C22.3091 13.8502 22.3398 14.1235 22.1719 14.265C23.2232 14.5214 24.1298 15.1677 24.7122 16.0927C24.7423 16.1403 24.7974 16.2151 24.783 16.3344C24.7741 16.4087 24.7519 16.4715 24.6947 16.5295C24.3199 16.9097 24.1135 17.4135 24.1135 17.9481V20.0462C24.1135 20.216 23.9757 20.3537 23.8059 20.3537C23.636 20.3537 23.4983 20.216 23.4983 20.0462V17.9481C23.4983 17.3315 23.7089 16.7463 24.0958 16.2761C23.5061 15.4327 22.5861 14.8903 21.5456 14.7789L21.0049 14.721C20.6888 14.6872 20.6268 14.2517 20.9206 14.1308L21.1665 14.0295C17.9643 12.9132 14.54 14.1536 14.54 18.4482V20.0461C14.54 20.2901 14.6806 20.5023 14.8861 20.6088V18.6148C14.8861 17.4276 15.8519 16.4618 17.0391 16.4618H20.9607C22.1479 16.4618 23.1138 17.4276 23.1138 18.6147V21.1331C23.1138 23.808 20.4998 25.8398 17.84 25.0568C17.8227 25.2762 17.768 25.488 17.679 25.6848C18.1964 26.0402 18.8499 26.1835 19.4949 26.0429C19.6609 26.0068 19.8247 26.112 19.8609 26.278ZM18.9999 24.6084C20.9291 24.6084 22.4986 23.0389 22.4986 21.1097V18.6147C22.4986 17.7668 21.8087 17.0769 20.9607 17.0769H17.0391C16.1911 17.0769 15.5012 17.7668 15.5012 18.6148V21.1097C15.5012 23.0389 17.0707 24.6084 18.9999 24.6084ZM22.1142 29.9094H21.1914C21.0216 29.9094 20.8838 30.0471 20.8838 30.2169C20.8838 30.3868 21.0216 30.5245 21.1914 30.5245H22.1142C22.284 30.5245 22.4217 30.3868 22.4217 30.2169C22.4217 30.0471 22.284 29.9094 22.1142 29.9094Z" fill="#717F93"/>
<path d="M9.77148 21.7144H30.4001V31.4858H9.77148V21.7144Z" fill="url(#paint0_linear_2301_4548)"/>
</g>
<defs>
<linearGradient id="paint0_linear_2301_4548" x1="20.0858" y1="21.7144" x2="20.0858" y2="31.4858" gradientUnits="userSpaceOnUse">
<stop stop-opacity="0.25"/>
<stop offset="1" stop-color="#C20000" stop-opacity="0"/>
</linearGradient>
<clipPath id="clip0_2301_4548">
<rect width="18.4571" height="18.4571" fill="white" transform="translate(9.77148 13.0286)"/>
</clipPath>
</defs>
</svg>
