<svg width="26" height="26" viewBox="0 0 26 26" fill="none" xmlns="http://www.w3.org/2000/svg">
<path d="M24.145 9.95499C24.211 9.80489 24.2468 9.64325 24.2503 9.4793C24.2538 9.31536 24.225 9.15233 24.1654 8.99954C24.1059 8.84676 24.0168 8.70721 23.9032 8.58889C23.7897 8.47057 23.6539 8.3758 23.5037 8.30999L7.16 1.11499C5.91625 0.567492 4.385 1.17874 3.85375 2.41749L1.09125 8.85999C0.83136 9.4694 0.823859 10.157 1.07039 10.772C1.31693 11.3869 1.79736 11.8789 2.40625 12.14L9.95375 15.375L8.40375 19.25H3V15.5H0.5V25.5H3V21.75H8.40375C9.4325 21.75 10.3438 21.1325 10.7238 20.1775L12.2513 16.36L18.7575 19.1475C19.0605 19.2775 19.4026 19.2826 19.7093 19.1615C20.016 19.0405 20.2625 18.8032 20.395 18.5012L20.785 17.6137L22.9113 18.4637L25.4113 12.2137L23.4912 11.4475L24.145 9.95499ZM18.6025 16.3625L3.39125 9.84374L6.15125 3.40374L21.3538 10.0962L18.6025 16.3625Z" fill="#29B85D"/>
</svg>
