<svg width="139" height="96" viewBox="0 0 139 96" fill="none" xmlns="http://www.w3.org/2000/svg">
<path d="M30.1185 93.5835H32.2826L33.3122 85.2894L30.1182 85.2896L30.1185 93.5835Z" fill="#FFC69D"/>
<path d="M29.5664 92.8815L33.8282 92.8813H33.8284C34.5487 92.8814 35.2395 93.1657 35.7488 93.6718C36.2581 94.1779 36.5443 94.8643 36.5443 95.58V95.6677L29.5665 95.668L29.5664 92.8815Z" fill="#2F2E41"/>
<path d="M44.4144 93.5835H46.5785L47.608 85.2894L44.4141 85.2896L44.4144 93.5835Z" fill="#FFC69D"/>
<path d="M43.8623 92.8815L48.1241 92.8813H48.1243C48.8446 92.8814 49.5354 93.1657 50.0447 93.6718C50.554 94.1779 50.8402 94.8643 50.8402 95.58V95.6677L43.8624 95.668L43.8623 92.8815Z" fill="#2F2E41"/>
<path d="M97.3529 95.6808H0V96H97.3529V95.6808Z" fill="#E6E6E6"/>
<path d="M28.3066 91.7849H33.9125L37.4956 60.6108L44.0833 91.7849H47.8659V54.6108L29.8819 49.2628L28.3066 91.7849Z" fill="#2F2E41"/>
<path d="M37.8653 21.8339C40.5652 21.8339 42.754 19.659 42.754 16.9762C42.754 14.2934 40.5652 12.1185 37.8653 12.1185C35.1653 12.1185 32.9766 14.2934 32.9766 16.9762C32.9766 19.659 35.1653 21.8339 37.8653 21.8339Z" fill="#FFC69D"/>
<path d="M30.2761 50.0455C35.5217 54.1218 41.3119 56.1765 47.8662 55.3934C45.098 45.7356 44.277 36.151 46.9474 26.6975L41.434 24.2192L35.2367 23.8279L30.7324 25.1443C30.0988 25.3296 29.5441 25.7169 29.1537 26.2463C28.7633 26.7757 28.5588 27.4179 28.5719 28.0741C28.7309 36.1362 28.1915 43.6812 30.2761 50.0455Z" fill="#29B85D"/>
<path d="M33.1862 14.5334C33.6565 13.6517 34.2541 11.8944 35.2034 11.5685C35.7306 11.3948 36.2754 11.2795 36.8281 11.2246L38.4416 11.8412L37.5634 11.1626C37.7344 11.1524 37.9053 11.1442 38.0761 11.1377L39.1647 11.5538L38.6078 11.1233C39.6227 11.113 40.6703 11.2179 41.4568 11.8318C42.1272 12.3552 42.7915 14.3379 42.8989 15.1783C43.0137 15.9822 42.9735 16.8006 42.7805 17.5896L42.5048 17.8501C42.4083 17.6304 42.3358 17.401 42.2884 17.166C42.1896 16.7268 41.9998 16.3129 41.731 15.9506C41.4623 15.5883 41.1205 15.2857 40.7276 15.0619L40.7126 15.0535C40.2502 14.7949 39.6891 14.8068 39.1588 14.8258L36.6404 14.9158C36.0345 14.9375 35.382 14.9756 34.9096 15.3532C34.5906 15.6083 34.3994 15.9848 34.2176 16.3493C33.9829 16.8201 33.5242 18.5956 33.5242 18.5956C33.5242 18.5956 33.2647 18.2605 33.1403 18.5099C32.9409 17.8591 32.8196 17.1871 32.779 16.5079C32.7394 15.8257 32.8797 15.1451 33.1862 14.5334Z" fill="#2F2E41"/>
<path d="M135.36 45.9023H78.9229C77.9579 45.9012 77.0328 45.5198 76.3505 44.8418C75.6681 44.1638 75.2843 43.2446 75.2832 42.2857V3.61656C75.2843 2.65771 75.6681 1.73846 76.3505 1.06045C77.0328 0.382454 77.9579 0.00108014 78.9229 0H135.36C136.325 0.00108014 137.25 0.382454 137.933 1.06045C138.615 1.73846 138.999 2.65771 139 3.61656V42.2857C138.999 43.2446 138.615 44.1638 137.933 44.8418C137.25 45.5198 136.325 45.9012 135.36 45.9023ZM78.9229 0.319206C78.0431 0.320197 77.1996 0.66791 76.5775 1.28607C75.9554 1.90423 75.6055 2.74234 75.6044 3.61656V42.2857C75.6055 43.1599 75.9554 43.9981 76.5775 44.6162C77.1996 45.2344 78.0431 45.5821 78.9229 45.5831H135.36C136.24 45.5821 137.083 45.2344 137.706 44.6162C138.328 43.9981 138.678 43.1599 138.679 42.2857V3.61656C138.678 2.74234 138.328 1.90423 137.706 1.28607C137.083 0.66791 136.24 0.320197 135.36 0.319206H78.9229Z" fill="#D7D7D7"/>
<path d="M69.3398 49.1486V10.4794C69.3409 9.56292 69.7078 8.68422 70.36 8.03613C71.0122 7.38804 71.8965 7.0235 72.8189 7.02246H129.256C130.179 7.0235 131.063 7.38805 131.715 8.03613C132.367 8.68422 132.734 9.56292 132.735 10.4794V49.1486C132.734 50.0651 132.367 50.9438 131.715 51.5919C131.063 52.24 130.179 52.6046 129.256 52.6056H72.8189C71.8965 52.6046 71.0122 52.24 70.36 51.5919C69.7078 50.9438 69.3409 50.0651 69.3398 49.1486Z" fill="#4E5359"/>
<path d="M71.5596 49.2168V10.4115C71.5599 10.129 71.673 9.85808 71.874 9.65831C72.0751 9.45853 72.3477 9.34615 72.632 9.34583H129.443C129.727 9.34615 130 9.45853 130.201 9.65831C130.402 9.85808 130.515 10.129 130.516 10.4115V49.2168C130.515 49.4993 130.402 49.7702 130.201 49.9699C130 50.1697 129.727 50.2821 129.443 50.2824H72.6321C72.3477 50.2821 72.0751 50.1697 71.8741 49.9699C71.673 49.7702 71.5599 49.4993 71.5596 49.2168Z" fill="#EBEBEB"/>
<path d="M94.4501 60.6134C95.3233 60.6134 96.0312 59.91 96.0312 59.0424C96.0312 58.1748 95.3233 57.4714 94.4501 57.4714C93.577 57.4714 92.8691 58.1748 92.8691 59.0424C92.8691 59.91 93.577 60.6134 94.4501 60.6134Z" fill="#4E5359"/>
<path d="M101.038 60.6134C101.911 60.6134 102.619 59.91 102.619 59.0424C102.619 58.1748 101.911 57.4714 101.038 57.4714C100.165 57.4714 99.457 58.1748 99.457 59.0424C99.457 59.91 100.165 60.6134 101.038 60.6134Z" fill="#4E5359"/>
<path d="M107.626 60.6134C108.499 60.6134 109.207 59.91 109.207 59.0424C109.207 58.1748 108.499 57.4714 107.626 57.4714C106.753 57.4714 106.045 58.1748 106.045 59.0424C106.045 59.91 106.753 60.6134 107.626 60.6134Z" fill="#4E5359"/>
<path d="M101.038 41.2194C98.7676 41.2194 96.5484 40.5505 94.6609 39.2972C92.7733 38.044 91.3021 36.2627 90.4333 34.1787C89.5645 32.0946 89.3372 29.8014 89.7801 27.589C90.223 25.3766 91.3162 23.3443 92.9215 21.7493C94.5267 20.1542 96.5719 19.0679 98.7985 18.6278C101.025 18.1878 103.333 18.4136 105.43 19.2769C107.528 20.1401 109.32 21.602 110.582 23.4776C111.843 25.3532 112.516 27.5583 112.516 29.814V29.814C112.513 32.8379 111.302 35.7369 109.15 37.8751C106.998 40.0132 104.081 41.216 101.038 41.2194Z" fill="#29B85D"/>
<path d="M105.567 28.6891H102.171V25.3139C102.17 25.0158 102.051 24.7301 101.838 24.5195C101.626 24.309 101.338 24.1907 101.038 24.1907C100.738 24.1907 100.451 24.309 100.238 24.5195C100.026 24.7301 99.9065 25.0158 99.906 25.3139V28.6891H96.5093C96.2093 28.6896 95.9218 28.8083 95.7099 29.0193C95.4979 29.2302 95.3789 29.5161 95.3789 29.8141C95.3789 30.1122 95.4979 30.3981 95.7099 30.609C95.9218 30.8199 96.2093 30.9387 96.5093 30.9392H99.906V34.3144C99.9065 34.6125 100.026 34.8981 100.238 35.1087C100.451 35.3193 100.738 35.4376 101.038 35.4376C101.338 35.4376 101.626 35.3193 101.838 35.1087C102.051 34.8981 102.17 34.6125 102.171 34.3144V30.9392H105.567C105.716 30.9395 105.863 30.9107 106.001 30.8545C106.139 30.7982 106.264 30.7155 106.369 30.6112C106.474 30.5068 106.558 30.3829 106.615 30.2464C106.672 30.1099 106.702 29.9635 106.702 29.8157C106.702 29.6679 106.673 29.5214 106.617 29.3848C106.56 29.2481 106.476 29.1239 106.371 29.0193C106.266 28.9147 106.141 28.8317 106.004 28.775C105.867 28.7183 105.719 28.6891 105.57 28.6891H105.567Z" fill="white"/>
<path d="M17.4163 86.1566C17.1667 84.5572 16.6796 83.0035 15.9711 81.5462L15.8678 81.334L15.1006 82.1792L15.669 80.9202L15.6318 80.8471C15.1302 79.8604 14.5743 78.902 13.9666 77.9761L13.8539 77.8046L13.7035 77.9702L13.8088 77.737L13.7561 77.6584C13.0034 76.5366 12.4251 75.8272 12.4194 75.82L12.2559 75.6201L12.1507 75.8585C12.1314 75.9022 10.2202 80.2783 9.96699 84.6025L9.96299 84.6699L11.2493 86.2149L9.9375 85.3966L9.93977 85.6936C9.94376 86.2018 9.97857 86.7093 10.044 87.2134C10.1018 87.647 10.1698 88.0703 10.248 88.4834C10.372 88.4872 10.4926 88.5246 10.5968 88.5915C10.5062 88.1299 10.428 87.6556 10.3624 87.1684C10.3117 86.7795 10.2798 86.3844 10.2671 85.9905L12.8044 87.5734L10.2917 84.5554C10.5205 80.8994 11.9404 77.2159 12.3391 76.2437C12.553 76.5194 12.9566 77.0547 13.4394 77.7696L12.5617 79.7139L13.8131 78.3352C14.3556 79.1744 14.8553 80.0401 15.3104 80.9291L13.9588 83.9229L15.7862 81.9094C16.4245 83.2733 16.8663 84.7197 17.0986 86.2059C17.4185 88.6065 17.356 90.9126 16.9228 92.6996C16.5078 94.4113 15.7765 95.4634 14.9162 95.5864C14.7391 95.6106 14.559 95.6 14.3861 95.5551C14.2474 95.6529 14.0806 95.7035 13.9105 95.6993H13.8636C14.1305 95.8465 14.4296 95.9263 14.7348 95.9318C14.8102 95.9318 14.8855 95.9264 14.9601 95.9157C15.9715 95.7713 16.7792 94.6578 17.2344 92.7806C17.6774 90.9532 17.7422 88.6022 17.4163 86.1566Z" fill="#848484"/>
<path d="M14.5853 95.8057C13.2623 95.8057 11.3547 95.0825 9.46269 93.766C9.1842 93.5707 8.91828 93.3583 8.66648 93.13L8.45456 92.9376L9.25579 92.7084L8.18892 92.6695L8.14391 92.6226C6.14412 90.5416 4.89968 87.602 4.88729 87.5727L4.79004 87.3405L5.04289 87.3518C5.06807 87.3529 5.66923 87.3811 6.57273 87.5085L6.62905 87.5164V87.516L6.82716 87.5459C7.56495 87.6573 8.29584 87.8099 9.01635 88.003L9.09329 88.0238L9.33367 88.6121L9.29721 88.0844L9.51776 88.1477C10.5631 88.4475 11.5559 88.9048 12.4616 89.5038C15.3389 91.5059 16.931 94.0081 16.0894 95.2023C15.8017 95.6105 15.2722 95.8055 14.5853 95.8057ZM9.10112 93.0848C9.27688 93.2327 9.45978 93.3734 9.64738 93.5048C12.2827 95.3385 15.1123 96.032 15.8262 95.0193C16.54 94.0065 14.9162 91.6014 12.2805 89.7675C11.4673 89.23 10.5814 88.8101 9.64934 88.5203L9.79185 90.5819L8.85572 88.2907C8.23919 88.1282 7.60846 87.9945 6.97703 87.8924L7.08047 89.3886L6.43617 87.8118C5.93697 87.7437 5.53455 87.7067 5.28978 87.6879C5.62349 88.4161 6.72621 90.6647 8.33142 92.3553L11.2756 92.4624L9.10112 93.0848Z" fill="#848484"/>
<path d="M33.3505 53.2299C33.3494 52.9865 33.2946 52.7463 33.1899 52.5262C33.0852 52.3062 32.9333 52.1116 32.7447 51.9561C32.5562 51.8007 32.3356 51.6883 32.0986 51.6267C31.8616 51.5652 31.6139 51.556 31.3729 51.5999L28.439 46.4508L27.2285 48.9162L30.0324 53.6584C30.1334 54.0558 30.3775 54.4025 30.7186 54.633C31.0597 54.8634 31.474 54.9615 31.883 54.9087C32.292 54.8559 32.6673 54.6558 32.9378 54.3464C33.2083 54.037 33.3551 53.6398 33.3505 53.23V53.2299Z" fill="#FFC69D"/>
<path d="M46.4685 58.954C46.3527 58.7395 46.2857 58.5024 46.2721 58.2594C46.2585 58.0163 46.2987 57.7733 46.3899 57.5473C46.4811 57.3214 46.621 57.1181 46.7998 56.9517C46.9786 56.7853 47.192 56.6599 47.4248 56.5843L47.5333 50.6682L50.0851 52.4074L49.5909 57.7588C49.6928 58.1559 49.6445 58.5764 49.4553 58.9405C49.266 59.3046 48.9489 59.5871 48.564 59.7345C48.1792 59.8818 47.7533 59.8837 47.367 59.7399C46.9808 59.5961 46.6611 59.3164 46.4686 58.954H46.4685Z" fill="#FFC69D"/>
<path d="M28.7002 52.5238L30.8005 50.5673L29.7226 40.0019L30.9697 25.067C28.2607 25.913 25.352 28.1856 24.8729 30.9667L23.1592 40.915L28.7002 52.5238Z" fill="#29B85D"/>
<path opacity="0.2" d="M29.9205 34.3279L28.2139 41.1105L30.8013 50.7352L29.1328 41.6323L29.9205 34.3279Z" fill="black"/>
<path d="M46.8156 56.176L50.2286 56.5673L49.4294 31.3843C49.3937 30.2591 49.0327 29.1679 48.3894 28.2411C47.7462 27.3144 46.8479 26.5913 45.8021 26.1583L44.584 25.6539L44.9122 37.4584L46.8156 56.176Z" fill="#29B85D"/>
<path opacity="0.2" d="M45.5383 37.8441L46.8556 52.3779L44.625 37.9455L45.5383 37.8441Z" fill="black"/>
</svg>
