<svg width="24" height="24" viewBox="0 0 24 24" fill="none" xmlns="http://www.w3.org/2000/svg">
<path fill-rule="evenodd" clip-rule="evenodd" d="M3.1875 18H1V22H23V18H20.9653C20.9653 18.55 20.5208 19 19.9776 19H18.99C18.4468 19 18.0023 18.55 18.0023 18H6.15046C6.15046 18.55 5.70602 19 5.16281 19H4.17515C3.63194 19 3.1875 18.55 3.1875 18Z" fill="black"/>
<path fill-rule="evenodd" clip-rule="evenodd" d="M17.321 2C17.9728 2 18.5259 2.42 18.7235 3.01L20.7778 9V17C20.7778 17.55 20.3333 18 19.7901 18H18.8025C18.2593 18 17.8148 17.55 17.8148 17V16H5.96296V17C5.96296 17.55 5.51852 18 4.97531 18H3.98765C3.44444 18 3 17.55 3 17V9L5.05432 3.01C5.26173 2.42 5.80494 2 6.45679 2H17.321ZM16.9654 4H6.80247L5.7358 7.11H18.0321L16.9654 4ZM4.97531 14H18.8025V9H4.97531V14ZM6.27136 10H8.67888V12.4075H6.27136V10ZM15.0989 10H17.5065V12.4075H15.0989V10Z" fill="black"/>
</svg>
