<svg width="24" height="24" viewBox="0 0 24 24" fill="none" xmlns="http://www.w3.org/2000/svg">
<g clip-path="url(#clip0_1455_21671)">
<path fill-rule="evenodd" clip-rule="evenodd" d="M18 2C18 1.44772 17.5523 1 17 1H2C1.44772 1 1 1.44772 1 2V22C1 22.5523 1.44772 23 2 23H17C17.5523 23 18 22.5523 18 22V2ZM1 0C0.447715 0 0 0.447715 0 1V23C0 23.5523 0.447715 24 1 24H18C18.5523 24 19 23.5523 19 23V1C19 0.447716 18.5523 0 18 0H1Z" fill="#888D97"/>
<path d="M16.5 3.90909C16.5 3.26177 16.09 2.71022 15.5154 2.5H16C16.2761 2.5 16.5 2.72386 16.5 3V3.90909ZM3.48455 2.5C2.91004 2.71022 2.5 3.26177 2.5 3.90909V3C2.5 2.72386 2.72386 2.5 3 2.5H3.48455ZM2.5 20.0909C2.5 20.7382 2.91004 21.2898 3.48455 21.5H3C2.72386 21.5 2.5 21.2761 2.5 21V20.0909ZM16 21.5H15.5155C16.09 21.2898 16.5 20.7382 16.5 20.0909V21C16.5 21.2761 16.2761 21.5 16 21.5Z" fill="#888D97" stroke="#888D97"/>
<path fill-rule="evenodd" clip-rule="evenodd" d="M14.5 14C14.2239 14 14 13.7761 14 13.5V11.5C14 11.2239 14.2239 11 14.5 11C14.7761 11 15 11.2239 15 11.5V13.5C15 13.7761 14.7761 14 14.5 14Z" fill="#888D97"/>
<path d="M8.21378 9.82618C8.0031 10.0371 7.88477 10.3231 7.88477 10.6212C7.88477 10.9193 8.0031 11.2052 8.21378 11.4162C8.31836 11.5216 8.44279 11.6053 8.57988 11.6624C8.71697 11.7195 8.86401 11.749 9.01253 11.749C9.16104 11.749 9.30808 11.7195 9.44517 11.6624C9.58227 11.6053 9.70669 11.5216 9.81128 11.4162C10.022 11.2052 10.1403 10.9193 10.1403 10.6212C10.1403 10.3231 10.022 10.0371 9.81128 9.82618C9.70669 9.72074 9.58227 9.63704 9.44517 9.57993C9.30808 9.52281 9.16104 9.49341 9.01253 9.49341C8.86401 9.49341 8.71697 9.52281 8.57988 9.57993C8.44279 9.63704 8.31836 9.72074 8.21378 9.82618ZM9.28628 10.8837C9.2512 10.9211 9.2088 10.951 9.16172 10.9714C9.11463 10.9919 9.06385 11.0024 9.01253 11.0024C8.9612 11.0024 8.91042 10.9919 8.86334 10.9714C8.81625 10.951 8.77385 10.9211 8.73878 10.8837C8.67007 10.8136 8.63158 10.7193 8.63158 10.6212C8.63158 10.523 8.67007 10.4288 8.73878 10.3587C8.77385 10.3212 8.81625 10.2913 8.86334 10.2709C8.91042 10.2505 8.9612 10.24 9.01253 10.24C9.06385 10.24 9.11463 10.2505 9.16172 10.2709C9.2088 10.2913 9.2512 10.3212 9.28628 10.3587C9.35499 10.4288 9.39347 10.523 9.39347 10.6212C9.39347 10.7193 9.35499 10.8136 9.28628 10.8837Z" fill="#888D97"/>
<path d="M7.13745 8.7651L7.6662 9.2976C8.02356 8.94402 8.50598 8.7457 9.0087 8.7457C9.51142 8.7457 9.99384 8.94402 10.3512 9.2976L10.8875 8.7651C10.3888 8.27047 9.71484 7.99292 9.01245 7.99292C8.31006 7.99292 7.63613 8.27047 7.13745 8.7651Z" fill="#888D97"/>
<path d="M6.0686 7.70388L6.59735 8.23638C7.24085 7.60157 8.10843 7.24565 9.01235 7.24565C9.91628 7.24565 10.7839 7.60157 11.4274 8.23638L11.9561 7.70388C11.1716 6.93028 10.1141 6.49658 9.01235 6.49658C7.91059 6.49658 6.8531 6.93028 6.0686 7.70388Z" fill="#888D97"/>
<path d="M12.5 7.17494L13.025 6.64244C11.9547 5.58987 10.5137 5 9.0125 5C7.51135 5 6.0703 5.58987 5 6.64244L5.525 7.17494C6.45557 6.26068 7.70795 5.7484 9.0125 5.7484C10.3171 5.7484 11.5694 6.26068 12.5 7.17494Z" fill="#888D97"/>
<path fill-rule="evenodd" clip-rule="evenodd" d="M23 12H19V15H23V12ZM18 11V16H22C22.9428 16 23.4142 16 23.7071 15.7071C24 15.4142 24 14.9428 24 14V13C24 12.0572 24 11.5858 23.7071 11.2929C23.4142 11 22.9428 11 22 11H18Z" fill="#888D97"/>
<path d="M20.2352 13.6667H20.4704V13.8333H20.7055V13.6667H21.3146C21.3424 13.7779 21.397 13.8716 21.4687 13.9313C21.5405 13.991 21.6249 14.0127 21.7069 13.9928C21.7889 13.9729 21.8633 13.9125 21.9169 13.8223C21.9706 13.7321 22 13.6179 22 13.5C22 13.3821 21.9706 13.2679 21.9169 13.1777C21.8633 13.0875 21.7889 13.0271 21.7069 13.0072C21.6249 12.9873 21.5405 13.009 21.4687 13.0687C21.397 13.1284 21.3424 13.2221 21.3146 13.3333H20.1176C20.0864 13.3333 20.0565 13.3509 20.0344 13.3821C20.0124 13.4134 20 13.4558 20 13.5V14H20.2352V13.6667ZM21.6462 13.3333C21.6695 13.3333 21.6922 13.3431 21.7116 13.3614C21.7309 13.3797 21.746 13.4058 21.7549 13.4362C21.7638 13.4667 21.7661 13.5002 21.7616 13.5325C21.757 13.5648 21.7458 13.5945 21.7294 13.6179C21.7129 13.6412 21.692 13.657 21.6692 13.6635C21.6464 13.6699 21.6227 13.6666 21.6012 13.654C21.5798 13.6414 21.5614 13.62 21.5485 13.5926C21.5356 13.5652 21.5287 13.533 21.5287 13.5C21.5287 13.4558 21.541 13.4134 21.5631 13.3821C21.5851 13.3509 21.6151 13.3333 21.6462 13.3333Z" fill="#888D97"/>
</g>
<defs>
<clipPath id="clip0_1455_21671">
<rect width="24" height="24" fill="white"/>
</clipPath>
</defs>
</svg>
