<svg width="24" height="24" viewBox="0 0 24 24" fill="none" xmlns="http://www.w3.org/2000/svg">
<g clip-path="url(#clip0_1585_22432)">
<path d="M19.8239 12.576C19.7279 12.096 19.5359 11.856 19.2959 11.712C19.2959 11.424 19.2479 11.088 19.1999 10.8C19.2959 10.56 19.3439 10.32 19.3919 10.032C19.4879 9.55196 19.3919 9.02396 19.3439 8.49596C19.2479 7.72796 19.1519 6.91196 18.9119 6.19196C18.7679 5.71196 18.4799 5.18396 18.0479 4.94396C17.9039 4.84796 17.7119 4.79996 17.5679 4.70396C17.4719 4.60796 17.3759 4.51196 17.2799 4.41596C14.3519 1.00796 8.87989 2.01596 6.04789 4.99196C5.37589 5.71196 4.84789 6.52796 4.41589 7.39196C4.31989 7.63196 4.22389 7.91996 4.17589 8.20796C4.12789 8.54396 4.17589 8.87996 4.22389 9.16796C4.36789 10.032 4.60789 10.848 4.89589 11.664H4.94389C4.70389 11.808 4.51189 12.048 4.41589 12.528C4.17589 13.584 4.70389 14.352 5.37589 14.688C5.75989 16.224 6.43189 17.76 7.29589 19.056C8.11189 20.256 9.79189 21.216 11.0399 21.792C11.4239 21.936 11.8079 22.032 12.1919 22.032C12.5759 22.032 12.9599 21.936 13.3439 21.792C14.5919 21.216 16.2239 20.304 17.0399 19.104C17.9519 17.808 18.6239 16.272 19.0079 14.688C19.6319 14.448 20.0159 13.68 19.8239 12.576ZM16.2239 18.672C15.5039 19.728 13.8239 20.592 12.9119 21.024C12.4319 21.216 11.9039 21.216 11.4239 21.024C10.4639 20.592 8.78389 19.68 8.06389 18.624C7.00789 17.088 6.28789 15.12 6.04789 13.296H6.09589C6.04789 12.336 6.04789 11.328 6.14389 10.368C6.23989 9.79196 6.43189 9.26396 6.67189 8.78396C7.05589 8.44796 7.67989 8.49596 8.20789 8.54396C8.78389 8.63996 9.31189 8.78396 9.83989 8.97596C11.3279 9.40796 12.7679 9.98396 14.3039 9.74396C15.1679 9.59996 15.9839 9.21596 16.8479 9.31196C17.0399 9.31196 17.2319 9.35996 17.3279 9.50396C17.6159 9.83996 17.2799 10.368 17.3279 10.8C17.3759 10.992 17.4719 11.184 17.5679 11.328C17.9039 11.904 18.0959 12.576 18.0959 13.296H18.1439C18.0479 15.12 17.2799 17.088 16.2239 18.672Z" fill="#888D97"/>
<path d="M22.656 18.4319C22.176 18.4319 21.792 18.8159 21.792 19.2959V21.8399H19.248C18.768 21.8399 18.384 22.2239 18.384 22.7039C18.384 23.1839 18.768 23.5679 19.248 23.5679H22.656C23.136 23.5679 23.52 23.1839 23.52 22.7039V19.2959C23.52 18.8159 23.136 18.4319 22.656 18.4319Z" fill="#888D97"/>
<path d="M4.75198 21.792H2.20798V19.248C2.20798 18.768 1.82398 18.384 1.34398 18.384C0.86398 18.384 0.47998 18.816 0.47998 19.248V22.656C0.47998 23.136 0.86398 23.52 1.34398 23.52H4.75198C5.23198 23.52 5.61598 23.136 5.61598 22.656C5.56798 22.176 5.18398 21.792 4.75198 21.792Z" fill="#888D97"/>
<path d="M1.34398 5.56798C1.82398 5.56798 2.20798 5.18398 2.20798 4.70398V2.20798H4.75198C5.23198 2.20798 5.61598 1.82398 5.61598 1.34398C5.61598 0.86398 5.18398 0.47998 4.75198 0.47998H1.34398C0.86398 0.47998 0.47998 0.86398 0.47998 1.34398V4.75198C0.47998 5.18398 0.86398 5.56798 1.34398 5.56798Z" fill="#888D97"/>
<path d="M22.656 0.47998H19.248C18.768 0.47998 18.384 0.86398 18.384 1.34398C18.384 1.82398 18.768 2.20798 19.248 2.20798H21.792V4.75198C21.792 5.23198 22.176 5.61598 22.656 5.61598C23.136 5.61598 23.52 5.23198 23.52 4.75198V1.34398C23.52 0.86398 23.136 0.47998 22.656 0.47998Z" fill="#888D97"/>
</g>
<defs>
<clipPath id="clip0_1585_22432">
<rect width="24" height="24" fill="white"/>
</clipPath>
</defs>
</svg>
