<svg width="24" height="24" viewBox="0 0 24 24" fill="none" xmlns="http://www.w3.org/2000/svg">
<path d="M2 22H10V20H4V14H2V22Z" fill="black"/>
<path d="M14 22H22V14H20V20H14V22Z" fill="black"/>
<path d="M4 10V4H10V2H2V10H4Z" fill="black"/>
<path d="M22 10V2H14V4H20V10H22Z" fill="black"/>
<path d="M12.5833 13.1666V15.4999H11.4166V13.1666H12.5833Z" fill="black"/>
<path fill-rule="evenodd" clip-rule="evenodd" d="M15.5 10.2499V9.08325C15.5 7.15026 13.933 5.58325 12 5.58325C10.067 5.58325 8.49996 7.15026 8.49996 9.08325V10.2499H6.16663V18.4166H17.8333V10.2499H15.5ZM12 6.74992C10.7113 6.74992 9.66663 7.79459 9.66663 9.08325V10.2499H14.3333V9.08325C14.3333 7.79459 13.2886 6.74992 12 6.74992ZM7.33329 11.4166V17.2499H16.6666V11.4166H7.33329Z" fill="black"/>
</svg>
