<svg width="24" height="24" viewBox="0 0 24 24" fill="none" xmlns="http://www.w3.org/2000/svg">
<path d="M2 22H10V20H4V14H2V22Z" fill="black"/>
<path d="M14 22H22V14H20V20H14V22Z" fill="black"/>
<path d="M4 10V4H10V2H2V10H4Z" fill="black"/>
<path d="M22 10V2H14V4H20V10H22Z" fill="black"/>
<path fill-rule="evenodd" clip-rule="evenodd" d="M9.08329 8.49992C9.08329 6.88909 10.3891 5.58325 12 5.58325C13.6108 5.58325 14.9166 6.88909 14.9166 8.49992C14.9166 10.1107 13.6108 11.4166 12 11.4166C10.3891 11.4166 9.08329 10.1107 9.08329 8.49992ZM12 6.74992C11.0335 6.74992 10.25 7.53342 10.25 8.49992C10.25 9.46642 11.0335 10.2499 12 10.2499C12.9665 10.2499 13.75 9.46642 13.75 8.49992C13.75 7.53342 12.9665 6.74992 12 6.74992Z" fill="black"/>
<path fill-rule="evenodd" clip-rule="evenodd" d="M6.16663 17.8333C6.16663 14.6116 8.7783 11.9999 12 11.9999C15.2216 11.9999 17.8333 14.6116 17.8333 17.8333V18.4166H6.16663V17.8333ZM7.3694 17.2499H16.6305C16.3435 14.9479 14.3797 13.1666 12 13.1666C9.62018 13.1666 7.65645 14.9479 7.3694 17.2499Z" fill="black"/>
</svg>
