<svg width="24" height="24" viewBox="0 0 24 24" fill="none" xmlns="http://www.w3.org/2000/svg">
<path d="M2 22H10V20H4V14H2V22Z" fill="black"/>
<path d="M14 22H22V14H20V20H14V22Z" fill="black"/>
<path d="M4 10V4H10V2H2V10H4Z" fill="black"/>
<path d="M22 10V2H14V4H20V10H22Z" fill="black"/>
<path d="M16.9684 12.257C16.9073 11.9655 16.7852 11.8197 16.6325 11.7322C16.6325 11.5573 16.6019 11.3533 16.5714 11.1784C16.6325 11.0326 16.663 10.8868 16.6935 10.7119C16.7546 10.4204 16.6935 10.0997 16.663 9.77904C16.6019 9.3126 16.5408 8.81701 16.3881 8.37973C16.2965 8.08821 16.1133 7.76753 15.8384 7.62177C15.7468 7.56346 15.6247 7.53431 15.5331 7.47601C15.472 7.4177 15.4109 7.3594 15.3498 7.30109C13.4869 5.23128 10.0055 5.84348 8.20367 7.65092C7.77613 8.08821 7.4402 8.5838 7.16535 9.10854C7.10427 9.2543 7.04319 9.42921 7.01265 9.60413C6.98211 9.80819 7.01265 10.0123 7.04319 10.1872C7.13481 10.7119 7.2875 11.2075 7.47074 11.7031H7.50128C7.34858 11.7906 7.22642 11.9363 7.16535 12.2278C7.01265 12.8692 7.34858 13.3356 7.77613 13.5397C8.02044 14.4726 8.44799 15.4054 8.99769 16.1926C9.51685 16.9214 10.5857 17.5044 11.3797 17.8542C11.6241 17.9417 11.8684 18 12.1127 18C12.357 18 12.6013 17.9417 12.8456 17.8542C13.6396 17.5044 14.678 16.9505 15.1971 16.2217C15.7774 15.4346 16.2049 14.5017 16.4492 13.5397C16.8462 13.3939 17.0905 12.9275 16.9684 12.257ZM14.678 15.9593C14.2199 16.6007 13.151 17.1254 12.5708 17.3878C12.2654 17.5044 11.9294 17.5044 11.6241 17.3878C11.0133 17.1254 9.9444 16.5715 9.48632 15.9302C8.81446 14.9973 8.35637 13.8021 8.20367 12.6943H8.23421C8.20367 12.1112 8.20367 11.499 8.26475 10.916C8.32583 10.5662 8.44799 10.2455 8.60068 9.95396C8.84499 9.74989 9.242 9.77904 9.57793 9.80819C9.9444 9.8665 10.2803 9.95396 10.6163 10.0706C11.563 10.3329 12.4791 10.6828 13.4564 10.537C14.0061 10.4495 14.5253 10.2163 15.075 10.2746C15.1971 10.2746 15.3193 10.3038 15.3804 10.3912C15.5636 10.5953 15.3498 10.916 15.3804 11.1784C15.4109 11.295 15.472 11.4116 15.5331 11.499C15.7468 11.8489 15.869 12.257 15.869 12.6943H15.8995C15.8384 13.8021 15.3498 14.9973 14.678 15.9593Z" fill="black"/>
</svg>
