<svg width="24" height="24" viewBox="0 0 24 24" fill="none" xmlns="http://www.w3.org/2000/svg">
<path d="M21.216 2.78394H2.78396C1.77596 2.78394 0.959961 3.59994 0.959961 4.60794V19.3919C0.959961 20.3999 1.77596 21.2159 2.78396 21.2159H21.168C22.176 21.2159 22.992 20.3999 22.992 19.3919V4.60794C23.04 3.59994 22.224 2.78394 21.216 2.78394ZM21.216 19.3919H2.78396V4.60794H21.168V19.3919H21.216Z" fill="black"/>
<path d="M6.33607 8.30398C6.86407 8.30398 7.24807 7.87198 7.24807 7.39198C7.24807 6.86398 6.81607 6.47998 6.33607 6.47998C5.80807 6.47998 5.42407 6.91198 5.42407 7.39198C5.42407 7.87198 5.80807 8.30398 6.33607 8.30398Z" fill="black"/>
<path d="M17.664 8.30398C18.192 8.30398 18.576 7.87198 18.576 7.39198C18.576 6.86398 18.144 6.47998 17.664 6.47998C17.136 6.47998 16.752 6.91198 16.752 7.39198C16.752 7.87198 17.136 8.30398 17.664 8.30398Z" fill="black"/>
<path d="M6.81592 12.432C6.81592 12.528 6.86392 12.624 6.91192 12.72C7.05592 12.864 7.24792 12.864 7.39192 12.768C7.43992 12.72 7.48792 12.672 7.53592 12.576L7.77592 12H9.02392L9.26392 12.576C9.31192 12.624 9.35992 12.72 9.40792 12.72C9.45592 12.768 9.55192 12.768 9.59992 12.768C9.69592 12.768 9.79192 12.72 9.88792 12.672C9.93592 12.624 9.98392 12.528 9.98392 12.384C9.98392 12.336 9.98392 12.288 9.93592 12.24L8.83192 9.60001C8.78392 9.50401 8.73592 9.45601 8.68792 9.40801C8.59192 9.36001 8.54392 9.31201 8.39992 9.31201C8.30392 9.31201 8.20792 9.36001 8.11192 9.40801C8.06392 9.45601 8.01592 9.50401 7.96792 9.60001L6.86392 12.24C6.86392 12.336 6.81592 12.384 6.81592 12.432ZM8.44792 10.512L8.78392 11.28H8.15992L8.44792 10.512Z" fill="black"/>
<path d="M13.488 11.76C13.488 11.52 13.392 11.328 13.248 11.184C13.2 11.136 13.104 11.04 13.056 10.992C13.104 10.944 13.104 10.896 13.152 10.896C13.248 10.752 13.296 10.56 13.296 10.368C13.296 10.08 13.2 9.83996 12.96 9.64796C12.768 9.45596 12.48 9.40796 12.096 9.40796H11.04C10.944 9.40796 10.848 9.45596 10.752 9.50396C10.704 9.59996 10.656 9.64796 10.656 9.79196V12.48C10.656 12.576 10.704 12.672 10.752 12.768C10.8 12.864 10.896 12.864 11.04 12.864H12.096C12.528 12.864 12.864 12.768 13.056 12.576C13.392 12.336 13.488 12.096 13.488 11.76ZM11.52 10.08H12.144C12.288 10.08 12.432 10.128 12.48 10.176C12.528 10.224 12.576 10.272 12.576 10.368C12.576 10.512 12.528 10.56 12.48 10.608C12.432 10.656 12.336 10.704 12.048 10.704H11.52V10.08ZM12.672 11.952C12.624 12 12.48 12.048 12.192 12.048H11.52V11.424H12.144C12.72 11.424 12.72 11.664 12.72 11.76C12.768 11.856 12.72 11.904 12.672 11.952Z" fill="black"/>
<path d="M14.304 10.1759C14.16 10.4639 14.064 10.7519 14.064 11.0879C14.064 11.4239 14.16 11.7599 14.304 11.9999C14.448 12.2879 14.64 12.4799 14.928 12.6239C15.168 12.7679 15.504 12.8159 15.792 12.8159C16.032 12.8159 16.224 12.7679 16.368 12.7199C16.512 12.6719 16.704 12.5759 16.848 12.4799C16.992 12.4319 17.04 12.2879 17.04 12.1439C17.04 12.0479 16.992 11.9519 16.944 11.9039C16.896 11.8559 16.704 11.7599 16.512 11.8559C16.416 11.9039 16.272 11.9519 16.176 11.9999C16.08 12.0479 15.936 12.0479 15.792 12.0479C15.552 12.0479 15.408 11.9999 15.216 11.9039C15.072 11.8079 14.976 11.7119 14.88 11.5679C14.784 11.4239 14.784 11.2319 14.784 11.0399C14.784 10.8479 14.832 10.6559 14.88 10.5119C14.976 10.3679 15.072 10.2239 15.216 10.1759C15.36 10.0799 15.552 10.0319 15.792 10.0319C15.936 10.0319 16.08 10.0319 16.176 10.0799C16.272 10.1279 16.416 10.1759 16.512 10.2239C16.656 10.2719 16.848 10.2719 16.944 10.1759C16.992 10.1279 17.04 10.0319 17.04 9.93592C17.04 9.79192 16.992 9.69592 16.848 9.59992C16.704 9.50392 16.512 9.45592 16.32 9.35992C16.128 9.31192 15.936 9.26392 15.744 9.26392C15.408 9.26392 15.12 9.31192 14.88 9.45592C14.64 9.69592 14.448 9.88792 14.304 10.1759Z" fill="black"/>
<path d="M7.87189 16.9439H7.63189V14.6399C7.63189 14.5439 7.58389 14.4479 7.53589 14.3519C7.43989 14.2559 7.34389 14.2559 7.24789 14.2559H7.15189C7.10389 14.2559 7.00789 14.2559 6.95989 14.3039L6.38389 14.5919C6.23989 14.6399 6.19189 14.7839 6.19189 14.9279C6.19189 15.0239 6.23989 15.1199 6.28789 15.2159C6.38389 15.3119 6.52789 15.3599 6.71989 15.2639L6.91189 15.1679V16.9439H6.57589C6.47989 16.9439 6.38389 16.9919 6.33589 17.0399C6.28789 17.0879 6.23989 17.1839 6.23989 17.2799C6.23989 17.3759 6.28789 17.4719 6.33589 17.5199C6.38389 17.5679 6.47989 17.6159 6.57589 17.6159H7.91989C8.01589 17.6159 8.11189 17.5679 8.15989 17.5199C8.25589 17.4719 8.25589 17.3759 8.25589 17.2799C8.25589 17.1839 8.20789 17.0879 8.15989 17.0399C8.06389 16.9919 7.96789 16.9439 7.87189 16.9439Z" fill="black"/>
<path d="M10.992 16.32C11.136 16.176 11.28 16.032 11.376 15.888C11.52 15.696 11.568 15.504 11.568 15.312C11.568 15.12 11.52 14.928 11.424 14.736C11.328 14.592 11.184 14.448 10.992 14.352C10.8 14.256 10.608 14.208 10.416 14.208C10.032 14.208 9.69602 14.304 9.36002 14.448C9.21602 14.496 9.16802 14.64 9.16802 14.784C9.16802 14.88 9.21602 14.976 9.26402 15.024C9.36002 15.12 9.55202 15.168 9.64802 15.072C9.84002 14.976 10.08 14.928 10.32 14.928C10.512 14.928 10.656 14.976 10.752 15.024C10.848 15.072 10.848 15.168 10.848 15.264C10.848 15.312 10.848 15.408 10.8 15.456C10.752 15.552 10.656 15.6 10.56 15.696C10.464 15.792 10.32 15.888 10.128 15.984C9.93602 16.128 9.74402 16.224 9.60002 16.32C9.45602 16.416 9.31202 16.56 9.21602 16.704C9.12002 16.848 9.07202 17.04 9.07202 17.232C9.07202 17.328 9.12002 17.472 9.21602 17.52C9.31202 17.616 9.40802 17.616 9.50402 17.616H11.184C11.28 17.616 11.376 17.568 11.424 17.52C11.52 17.472 11.52 17.376 11.52 17.28C11.52 17.184 11.472 17.088 11.424 17.04C11.376 16.992 11.28 16.944 11.184 16.944H10.08C10.176 16.896 10.32 16.8 10.464 16.704C10.656 16.56 10.848 16.416 10.992 16.32Z" fill="black"/>
<path d="M14.3519 15.8879C14.3999 15.8399 14.4479 15.7919 14.4479 15.7919C14.5919 15.6479 14.6399 15.4559 14.6399 15.2159C14.6399 14.9279 14.5439 14.6399 14.3039 14.4959C14.1119 14.3519 13.7759 14.2559 13.3919 14.2559C13.0559 14.2559 12.7199 14.3519 12.4319 14.4959C12.3359 14.5439 12.2399 14.6879 12.2399 14.7839C12.2399 14.8799 12.2879 14.9759 12.3359 15.0239C12.4319 15.1199 12.5279 15.1679 12.7199 15.0719C12.9119 14.9759 13.1039 14.9279 13.3439 14.9279C13.5359 14.9279 13.6799 14.9759 13.7759 15.0239C13.8239 15.0719 13.8719 15.1199 13.8719 15.2159C13.8719 15.3119 13.8239 15.4079 13.7279 15.4559C13.5839 15.5519 13.3919 15.5519 13.1039 15.5519C13.0079 15.5519 12.9119 15.5999 12.8639 15.6479C12.8159 15.6959 12.7679 15.7919 12.7679 15.8879C12.7679 15.9839 12.8159 16.0799 12.8639 16.1279C12.9119 16.1759 13.0079 16.2239 13.1039 16.2239H13.1519C13.9199 16.2239 13.9199 16.5119 13.9199 16.6079C13.9199 16.7039 13.8719 16.7999 13.7759 16.7999C13.4879 16.9439 13.0079 16.9439 12.6239 16.7999C12.4799 16.7519 12.3359 16.7519 12.1919 16.8959C12.1439 16.9439 12.0959 17.0399 12.0959 17.1359C12.0959 17.2319 12.0959 17.2799 12.1439 17.3279L12.2879 17.4719C12.5759 17.6159 12.9119 17.6639 13.2959 17.6639C13.6799 17.6639 13.9679 17.5679 14.2079 17.4239C14.4479 17.2319 14.5919 16.9919 14.5919 16.6559C14.5919 16.3679 14.4959 16.1279 14.3519 15.9839C14.4479 15.9839 14.3999 15.9359 14.3519 15.8879Z" fill="black"/>
<path d="M17.7599 16.176H17.6159V14.64C17.6159 14.544 17.5679 14.4 17.4719 14.352C17.3759 14.256 17.2799 14.208 17.1359 14.208H17.0399C16.9919 14.208 16.8959 14.208 16.8479 14.256C16.7999 14.304 16.7039 14.352 16.7039 14.4L15.3599 16.176C15.3119 16.272 15.2639 16.368 15.2639 16.464C15.2639 16.56 15.3119 16.704 15.4079 16.752C15.5039 16.848 15.5999 16.896 15.6959 16.896H16.8479V17.328C16.8479 17.424 16.8959 17.52 16.9439 17.616C17.0399 17.664 17.0879 17.712 17.2319 17.712C17.3279 17.712 17.4239 17.664 17.5199 17.616C17.6159 17.568 17.6159 17.472 17.6159 17.328V16.896H17.7599C17.8559 16.896 17.9519 16.848 17.9999 16.8C18.0479 16.752 18.0959 16.656 18.0959 16.56C18.0959 16.464 18.0479 16.368 17.9999 16.32C17.9519 16.224 17.8559 16.176 17.7599 16.176ZM16.8479 16.176H16.2239L16.8479 15.36V16.176Z" fill="black"/>
<path d="M9.74392 7.82401H14.2079C14.4959 7.82401 14.6879 7.63201 14.6879 7.34401C14.6879 7.05601 14.4959 6.86401 14.2079 6.86401H9.74392C9.45592 6.86401 9.26392 7.05601 9.26392 7.34401C9.26392 7.63201 9.50392 7.82401 9.74392 7.82401Z" fill="black"/>
</svg>
