<svg width="24" height="24" viewBox="0 0 24 24" fill="none" xmlns="http://www.w3.org/2000/svg">
<path d="M0 1.84797C0 1.26922 0.469171 0.800049 1.04792 0.800049H9.4313C10.0101 0.800049 10.4792 1.26922 10.4792 1.84797V10.2314C10.4792 10.8101 10.0101 11.2793 9.4313 11.2793H1.04792C0.469171 11.2793 0 10.8101 0 10.2314V1.84797Z" fill="#26DF69"/>
<path d="M0 14.423C0 13.8443 0.469171 13.3751 1.04792 13.3751H9.4313C10.0101 13.3751 10.4792 13.8443 10.4792 14.423V22.8064C10.4792 23.3852 10.0101 23.8543 9.4313 23.8543H1.04792C0.469171 23.8543 0 23.3852 0 22.8064V14.423Z" fill="#29B85D"/>
<path d="M12.5752 1.84797C12.5752 1.26922 13.0444 0.800049 13.6231 0.800049H22.0065C22.5853 0.800049 23.0544 1.26922 23.0544 1.84797V10.2314C23.0544 10.8101 22.5853 11.2793 22.0065 11.2793H13.6231C13.0444 11.2793 12.5752 10.8101 12.5752 10.2314V1.84797Z" fill="#29B85D"/>
<path d="M12.5752 14.423C12.5752 13.8443 13.0444 13.3751 13.6231 13.3751H22.0065C22.5853 13.3751 23.0544 13.8443 23.0544 14.423V22.8064C23.0544 23.3852 22.5853 23.8543 22.0065 23.8543H13.6231C13.0444 23.8543 12.5752 23.3852 12.5752 22.8064V14.423Z" fill="#26DF69"/>
</svg>
