<svg width="24" height="24" viewBox="0 0 24 24" fill="none" xmlns="http://www.w3.org/2000/svg">
<path d="M0.916016 1.84797C0.916016 1.26922 1.38519 0.800049 1.96394 0.800049H10.3473C10.9261 0.800049 11.3952 1.26922 11.3952 1.84797V10.2314C11.3952 10.8101 10.9261 11.2793 10.3473 11.2793H1.96394C1.38519 11.2793 0.916016 10.8101 0.916016 10.2314V1.84797Z" fill="#26DF69"/>
<path d="M0.916016 14.423C0.916016 13.8443 1.38519 13.3751 1.96394 13.3751H10.3473C10.9261 13.3751 11.3952 13.8443 11.3952 14.423V22.8064C11.3952 23.3852 10.9261 23.8543 10.3473 23.8543H1.96394C1.38519 23.8543 0.916016 23.3852 0.916016 22.8064V14.423Z" fill="#29B85D"/>
<path d="M13.4912 1.84797C13.4912 1.26922 13.9604 0.800049 14.5391 0.800049H22.9225C23.5013 0.800049 23.9704 1.26922 23.9704 1.84797V10.2314C23.9704 10.8101 23.5013 11.2793 22.9225 11.2793H14.5391C13.9604 11.2793 13.4912 10.8101 13.4912 10.2314V1.84797Z" fill="#29B85D"/>
<path d="M13.4912 14.423C13.4912 13.8443 13.9604 13.3751 14.5391 13.3751H22.9225C23.5013 13.3751 23.9704 13.8443 23.9704 14.423V22.8064C23.9704 23.3852 23.5013 23.8543 22.9225 23.8543H14.5391C13.9604 23.8543 13.4912 23.3852 13.4912 22.8064V14.423Z" fill="#D4D4D4"/>
</svg>
