<svg width="24" height="24" viewBox="0 0 24 24" fill="none" xmlns="http://www.w3.org/2000/svg">
<path d="M0.430664 1.84797C0.430664 1.26922 0.899835 0.800049 1.47859 0.800049H9.86197C10.4407 0.800049 10.9099 1.26922 10.9099 1.84797V10.2314C10.9099 10.8101 10.4407 11.2793 9.86197 11.2793H1.47859C0.899835 11.2793 0.430664 10.8101 0.430664 10.2314V1.84797Z" fill="#26DF69"/>
<path d="M0.430664 14.423C0.430664 13.8443 0.899835 13.3751 1.47859 13.3751H9.86197C10.4407 13.3751 10.9099 13.8443 10.9099 14.423V22.8064C10.9099 23.3852 10.4407 23.8543 9.86197 23.8543H1.47859C0.899835 23.8543 0.430664 23.3852 0.430664 22.8064V14.423Z" fill="#D4D4D4"/>
<path d="M13.0059 1.84797C13.0059 1.26922 13.475 0.800049 14.0538 0.800049H22.4372C23.0159 0.800049 23.4851 1.26922 23.4851 1.84797V10.2314C23.4851 10.8101 23.0159 11.2793 22.4372 11.2793H14.0538C13.475 11.2793 13.0059 10.8101 13.0059 10.2314V1.84797Z" fill="#29B85D"/>
<path d="M13.0059 14.423C13.0059 13.8443 13.475 13.3751 14.0538 13.3751H22.4372C23.0159 13.3751 23.4851 13.8443 23.4851 14.423V22.8064C23.4851 23.3852 23.0159 23.8543 22.4372 23.8543H14.0538C13.475 23.8543 13.0059 23.3852 13.0059 22.8064V14.423Z" fill="#D4D4D4"/>
</svg>
