<svg width="64" height="64" viewBox="0 0 64 64" fill="none" xmlns="http://www.w3.org/2000/svg">
<rect width="64" height="64" rx="10" fill="#D8F9E1"/>
<path d="M42.7333 30.1733L36.5067 27.4933L35.12 26.9067C34.9067 26.8 34.72 26.52 34.72 26.28V22.2C34.72 20.92 33.7733 19.4 32.6267 18.8133C32.2267 18.6133 31.7467 18.6133 31.3467 18.8133C30.2133 19.4 29.2667 20.9333 29.2667 22.2133V26.2933C29.2667 26.5333 29.08 26.8133 28.8667 26.92L21.2667 30.1867C20.4267 30.5333 19.7467 31.5867 19.7467 32.4933V34.2533C19.7467 35.3867 20.6 35.9467 21.6533 35.4933L28.3333 32.6133C28.8533 32.3867 29.28 32.6667 29.28 33.24V34.72V37.12C29.28 37.4267 29.1067 37.8667 28.8933 38.08L25.8 41.1867C25.48 41.5067 25.3333 42.1333 25.48 42.5867L26.08 44.4C26.32 45.1867 27.2133 45.56 27.9467 45.1867L31.12 42.52C31.6 42.1067 32.3867 42.1067 32.8667 42.52L36.04 45.1867C36.7733 45.5467 37.6667 45.1867 37.9333 44.4L38.5333 42.5867C38.68 42.1467 38.5333 41.5067 38.2133 41.1867L35.12 38.08C34.8933 37.8667 34.72 37.4267 34.72 37.12V33.24C34.72 32.6667 35.1333 32.4 35.6667 32.6133L42.3467 35.4933C43.4 35.9467 44.2533 35.3867 44.2533 34.2533V32.4933C44.2533 31.5867 43.5733 30.5333 42.7333 30.1733Z" fill="#26BF56"/>
</svg>
