<svg width="64" height="64" viewBox="0 0 64 64" fill="none" xmlns="http://www.w3.org/2000/svg">
<rect width="64" height="64" rx="10" fill="#DFF1FD"/>
<path d="M28 18.6667C24.5067 18.6667 21.6667 21.5067 21.6667 25C21.6667 28.4267 24.3467 31.2 27.84 31.32C27.9467 31.3067 28.0534 31.3067 28.1334 31.32C28.16 31.32 28.1734 31.32 28.2 31.32C28.2134 31.32 28.2134 31.32 28.2267 31.32C31.64 31.2 34.32 28.4267 34.3334 25C34.3334 21.5067 31.4934 18.6667 28 18.6667Z" fill="#069CDF"/>
<path d="M34.7733 34.8667C31.0533 32.3867 24.9867 32.3867 21.24 34.8667C19.5467 36 18.6133 37.5333 18.6133 39.1733C18.6133 40.8133 19.5467 42.3333 21.2267 43.4533C23.0933 44.7067 25.5467 45.3333 28 45.3333C30.4533 45.3333 32.9067 44.7067 34.7733 43.4533C36.4533 42.32 37.3867 40.8 37.3867 39.1467C37.3733 37.5067 36.4533 35.9867 34.7733 34.8667Z" fill="#069CDF"/>
<path d="M42.6534 25.7867C42.8667 28.3733 41.0267 30.64 38.48 30.9467C38.4667 30.9467 38.4667 30.9467 38.4534 30.9467H38.4134C38.3334 30.9467 38.2534 30.9467 38.1867 30.9733C36.8934 31.04 35.7067 30.6267 34.8134 29.8667C36.1867 28.64 36.9734 26.8 36.8134 24.8C36.72 23.72 36.3467 22.7333 35.7867 21.8933C36.2934 21.64 36.88 21.48 37.48 21.4267C40.0934 21.2 42.4267 23.1467 42.6534 25.7867Z" fill="#069CDF"/>
<path d="M45.32 38.12C45.2133 39.4133 44.3867 40.5333 43 41.2933C41.6667 42.0267 39.9867 42.3733 38.32 42.3333C39.28 41.4667 39.84 40.3867 39.9467 39.24C40.08 37.5867 39.2933 36 37.72 34.7333C36.8267 34.0267 35.7867 33.4667 34.6533 33.0533C37.6 32.2 41.3067 32.7733 43.5867 34.6133C44.8133 35.6 45.44 36.84 45.32 38.12Z" fill="#069CDF"/>
</svg>
