<svg width="24" height="24" viewBox="0 0 24 24" fill="none" xmlns="http://www.w3.org/2000/svg">
<path fill-rule="evenodd" clip-rule="evenodd" d="M1 1H5.82993L6.57993 5H23.443L19.693 15H8.45493L8.82993 17H19V19H7.17007L4.17007 3H1V1ZM8.07993 13H18.307L20.557 7H6.95493L8.07993 13Z" fill="black"/>
<path d="M8 21.5C8 20.6716 8.67157 20 9.5 20C10.3284 20 11 20.6716 11 21.5C11 22.3284 10.3284 23 9.5 23C8.67157 23 8 22.3284 8 21.5Z" fill="black"/>
<path d="M15 21.5C15 20.6716 15.6716 20 16.5 20C17.3284 20 18 20.6716 18 21.5C18 22.3284 17.3284 23 16.5 23C15.6716 23 15 22.3284 15 21.5Z" fill="black"/>
</svg>
