<svg width="245" height="34" viewBox="0 0 245 34" fill="none" xmlns="http://www.w3.org/2000/svg">
<path d="M0 29.5652V3.76285H10.7594C12.6912 3.76285 14.3081 4.03582 15.6099 4.58177C16.9202 5.12772 17.9029 5.89205 18.5581 6.87475C19.2216 7.85746 19.5534 8.99556 19.5534 10.289C19.5534 11.2717 19.3476 12.1495 18.936 12.9222C18.5245 13.6865 17.9575 14.3207 17.2352 14.8246C16.5128 15.3286 15.6771 15.6813 14.728 15.8829V16.1349C15.7695 16.1853 16.7312 16.4667 17.6131 16.979C18.5035 17.4914 19.2174 18.2053 19.7549 19.1208C20.2925 20.0279 20.5613 21.103 20.5613 22.3461C20.5613 23.732 20.2085 24.9709 19.503 26.0627C18.7974 27.1462 17.7769 28.003 16.4415 28.6329C15.106 29.2544 13.4849 29.5652 11.5783 29.5652H0ZM6.23641 24.5383H10.0917C11.4439 24.5383 12.4392 24.2821 13.0776 23.7698C13.7243 23.2574 14.0477 22.5435 14.0477 21.628C14.0477 20.9644 13.8923 20.3933 13.5815 19.9145C13.2708 19.4274 12.8298 19.0536 12.2586 18.7932C11.6875 18.5245 11.003 18.3901 10.205 18.3901H6.23641V24.5383ZM6.23641 14.371H9.68849C10.3688 14.371 10.9736 14.2577 11.5027 14.0309C12.0319 13.8041 12.4434 13.4765 12.7374 13.0482C13.0398 12.6198 13.191 12.1033 13.191 11.4985C13.191 10.6334 12.8844 9.95307 12.2712 9.45751C11.6581 8.96196 10.8308 8.71418 9.78928 8.71418H6.23641V14.371Z" fill="black"/>
<path d="M29.7962 3.76285V29.5652H23.5598V3.76285H29.7962Z" fill="black"/>
<path d="M94.3777 13.1112H88.0783C87.9943 12.4644 87.8221 11.8807 87.5617 11.3599C87.3014 10.8392 86.957 10.394 86.5286 10.0245C86.1003 9.65491 85.5921 9.37353 85.0042 9.18035C84.4246 8.97877 83.7821 8.87798 83.0766 8.87798C81.8251 8.87798 80.7458 9.18455 79.8387 9.79769C78.9399 10.4108 78.247 11.297 77.7599 12.456C77.2811 13.6151 77.0417 15.0178 77.0417 16.664C77.0417 18.3775 77.2853 19.8138 77.7725 20.9728C78.268 22.1235 78.9609 22.9929 79.8513 23.5808C80.75 24.1603 81.8125 24.4501 83.0388 24.4501C83.7275 24.4501 84.3532 24.3619 84.916 24.1855C85.4871 24.0092 85.9869 23.753 86.4152 23.417C86.852 23.0726 87.209 22.6569 87.4861 22.1697C87.7717 21.6742 87.9691 21.1156 88.0783 20.4941L94.3777 20.5319C94.2685 21.6742 93.9367 22.7997 93.3824 23.9084C92.8364 25.0171 92.0847 26.0292 91.1272 26.9447C90.1697 27.8518 89.0022 28.5741 87.6247 29.1117C86.2557 29.6492 84.685 29.918 82.9128 29.918C80.5778 29.918 78.4864 29.4056 76.6386 28.3809C74.7991 27.3478 73.3461 25.8444 72.2794 23.8706C71.2127 21.8968 70.6793 19.4946 70.6793 16.664C70.6793 13.8251 71.2211 11.4187 72.3046 9.44493C73.3881 7.47111 74.8537 5.97185 76.7016 4.94715C78.5494 3.92245 80.6198 3.4101 82.9128 3.4101C84.475 3.4101 85.9197 3.62847 87.2468 4.06523C88.5738 4.49359 89.7413 5.12353 90.7492 5.95506C91.7571 6.77818 92.5761 7.79028 93.206 8.99137C93.8359 10.1925 94.2265 11.5657 94.3777 13.1112Z" fill="black"/>
<path d="M122.3 16.664C122.3 19.503 121.754 21.9094 120.662 23.8832C119.57 25.857 118.092 27.3562 116.227 28.3809C114.371 29.4056 112.288 29.918 109.978 29.918C107.66 29.918 105.573 29.4014 103.717 28.3683C101.86 27.3352 100.386 25.836 99.2944 23.8706C98.2109 21.8968 97.6691 19.4946 97.6691 16.664C97.6691 13.8251 98.2109 11.4187 99.2944 9.44493C100.386 7.47111 101.86 5.97185 103.717 4.94715C105.573 3.92245 107.66 3.4101 109.978 3.4101C112.288 3.4101 114.371 3.92245 116.227 4.94715C118.092 5.97185 119.57 7.47111 120.662 9.44493C121.754 11.4187 122.3 13.8251 122.3 16.664ZM115.925 16.664C115.925 14.9842 115.685 13.5647 115.207 12.4056C114.736 11.2466 114.056 10.3688 113.166 9.7725C112.284 9.17615 111.221 8.87798 109.978 8.87798C108.743 8.87798 107.681 9.17615 106.791 9.7725C105.9 10.3688 105.216 11.2466 104.737 12.4056C104.267 13.5647 104.032 14.9842 104.032 16.664C104.032 18.3439 104.267 19.7634 104.737 20.9224C105.216 22.0815 105.9 22.9593 106.791 23.5556C107.681 24.1519 108.743 24.4501 109.978 24.4501C111.221 24.4501 112.284 24.1519 113.166 23.5556C114.056 22.9593 114.736 22.0815 115.207 20.9224C115.685 19.7634 115.925 18.3439 115.925 16.664Z" fill="black"/>
<path d="M147.901 3.76286V29.5652H142.609L132.341 14.6734H132.177V29.5652H125.941V3.76286H131.308L141.463 18.6295H141.677V3.76286H147.901Z" fill="black"/>
<path d="M150.978 8.82759V3.76286H172.786V8.82759H164.963V29.5652H158.814V8.82759H150.978Z" fill="black"/>
<path d="M175.832 29.5652V3.76286H186.491C188.423 3.76286 190.09 4.11143 191.493 4.80856C192.904 5.4973 193.991 6.48841 194.756 7.78188C195.52 9.06696 195.902 10.5914 195.902 12.3553C195.902 14.1443 195.512 15.6645 194.73 16.916C193.949 18.1591 192.841 19.1082 191.404 19.7634C189.968 20.4101 188.267 20.7335 186.302 20.7335H179.561V15.8199H185.143C186.083 15.8199 186.869 15.6981 187.499 15.4546C188.137 15.2026 188.62 14.8246 188.948 14.3207C189.275 13.8083 189.439 13.1532 189.439 12.3553C189.439 11.5573 189.275 10.898 188.948 10.3772C188.62 9.84809 188.137 9.45333 187.499 9.19295C186.86 8.92418 186.075 8.78979 185.143 8.78979H182.069V29.5652H175.832ZM190.359 17.7727L196.784 29.5652H189.981L183.681 17.7727H190.359Z" fill="black"/>
<path d="M223.676 16.664C223.676 19.503 223.13 21.9094 222.038 23.8832C220.946 25.857 219.468 27.3562 217.604 28.3809C215.747 29.4056 213.664 29.918 211.355 29.918C209.036 29.918 206.949 29.4014 205.093 28.3683C203.237 27.3352 201.763 25.836 200.671 23.8706C199.587 21.8968 199.045 19.4946 199.045 16.664C199.045 13.8251 199.587 11.4187 200.671 9.44493C201.763 7.47111 203.237 5.97185 205.093 4.94715C206.949 3.92245 209.036 3.4101 211.355 3.4101C213.664 3.4101 215.747 3.92245 217.604 4.94715C219.468 5.97185 220.946 7.47111 222.038 9.44493C223.13 11.4187 223.676 13.8251 223.676 16.664ZM217.301 16.664C217.301 14.9842 217.062 13.5647 216.583 12.4056C216.113 11.2466 215.432 10.3688 214.542 9.7725C213.66 9.17615 212.598 8.87798 211.355 8.87798C210.12 8.87798 209.057 9.17615 208.167 9.7725C207.277 10.3688 206.592 11.2466 206.113 12.4056C205.643 13.5647 205.408 14.9842 205.408 16.664C205.408 18.3439 205.643 19.7634 206.113 20.9224C206.592 22.0815 207.277 22.9593 208.167 23.5556C209.057 24.1519 210.12 24.4501 211.355 24.4501C212.598 24.4501 213.66 24.1519 214.542 23.5556C215.432 22.9593 216.113 22.0815 216.583 20.9224C217.062 19.7634 217.301 18.3439 217.301 16.664Z" fill="black"/>
<path d="M227.317 29.5652V3.76286H233.554V24.5005H244.288V29.5652H227.317Z" fill="black"/>
<circle cx="50.5254" cy="17" r="17" fill="#26BF56"/>
</svg>
