<svg width="245" height="34" viewBox="0 0 245 34" fill="none" xmlns="http://www.w3.org/2000/svg">
<path d="M0 29.5652V3.76285H10.7594C12.6912 3.76285 14.3081 4.03582 15.6099 4.58177C16.9202 5.12772 17.9029 5.89205 18.5581 6.87475C19.2216 7.85746 19.5534 8.99556 19.5534 10.289C19.5534 11.2717 19.3476 12.1495 18.936 12.9222C18.5245 13.6865 17.9575 14.3207 17.2352 14.8246C16.5128 15.3286 15.6771 15.6813 14.728 15.8829V16.1349C15.7695 16.1853 16.7312 16.4667 17.6131 16.979C18.5035 17.4914 19.2174 18.2053 19.7549 19.1208C20.2925 20.0279 20.5613 21.103 20.5613 22.3461C20.5613 23.732 20.2085 24.9709 19.503 26.0627C18.7974 27.1462 17.7769 28.003 16.4415 28.6329C15.106 29.2544 13.4849 29.5652 11.5783 29.5652H0ZM6.23641 24.5383H10.0917C11.4439 24.5383 12.4392 24.2821 13.0776 23.7698C13.7243 23.2574 14.0477 22.5435 14.0477 21.628C14.0477 20.9644 13.8923 20.3933 13.5815 19.9145C13.2708 19.4274 12.8298 19.0536 12.2586 18.7932C11.6875 18.5245 11.003 18.3901 10.205 18.3901H6.23641V24.5383ZM6.23641 14.371H9.68849C10.3688 14.371 10.9736 14.2577 11.5027 14.0309C12.0319 13.8041 12.4434 13.4765 12.7374 13.0482C13.0398 12.6198 13.191 12.1033 13.191 11.4985C13.191 10.6334 12.8844 9.95307 12.2712 9.45751C11.6581 8.96196 10.8308 8.71418 9.78928 8.71418H6.23641V14.371Z" fill="black"/>
<path d="M29.7962 3.76285V29.5652H23.5598V3.76285H29.7962Z" fill="black"/>
<path d="M94.3777 13.1112H88.0783C87.9943 12.4644 87.8221 11.8807 87.5617 11.3599C87.3014 10.8392 86.957 10.394 86.5286 10.0245C86.1003 9.65491 85.5921 9.37353 85.0042 9.18035C84.4246 8.97877 83.7821 8.87798 83.0766 8.87798C81.8251 8.87798 80.7458 9.18455 79.8387 9.79769C78.9399 10.4108 78.247 11.297 77.7599 12.456C77.2811 13.6151 77.0417 15.0178 77.0417 16.664C77.0417 18.3775 77.2853 19.8138 77.7725 20.9728C78.268 22.1235 78.9609 22.9929 79.8513 23.5808C80.75 24.1603 81.8125 24.4501 83.0388 24.4501C83.7275 24.4501 84.3532 24.3619 84.916 24.1855C85.4871 24.0092 85.9869 23.753 86.4152 23.417C86.852 23.0726 87.209 22.6569 87.4861 22.1697C87.7717 21.6742 87.9691 21.1156 88.0783 20.4941L94.3777 20.5319C94.2685 21.6742 93.9367 22.7997 93.3824 23.9084C92.8364 25.0171 92.0847 26.0292 91.1272 26.9447C90.1697 27.8518 89.0022 28.5741 87.6247 29.1117C86.2557 29.6492 84.685 29.918 82.9128 29.918C80.5778 29.918 78.4864 29.4056 76.6386 28.3809C74.7991 27.3478 73.3461 25.8444 72.2794 23.8706C71.2127 21.8968 70.6793 19.4946 70.6793 16.664C70.6793 13.8251 71.2211 11.4187 72.3046 9.44493C73.3881 7.47111 74.8537 5.97185 76.7016 4.94715C78.5494 3.92245 80.6198 3.4101 82.9128 3.4101C84.475 3.4101 85.9197 3.62847 87.2468 4.06523C88.5738 4.49359 89.7413 5.12353 90.7492 5.95506C91.7571 6.77818 92.5761 7.79028 93.206 8.99137C93.8359 10.1925 94.2265 11.5657 94.3777 13.1112Z" fill="black"/>
<path d="M122.3 16.664C122.3 19.503 121.754 21.9094 120.662 23.8832C119.57 25.857 118.092 27.3562 116.227 28.3809C114.371 29.4056 112.288 29.918 109.978 29.918C107.66 29.918 105.573 29.4014 103.717 28.3683C101.86 27.3352 100.386 25.836 99.2944 23.8706C98.2109 21.8968 97.6691 19.4946 97.6691 16.664C97.6691 13.8251 98.2109 11.4187 99.2944 9.44493C100.386 7.47111 101.86 5.97185 103.717 4.94715C105.573 3.92245 107.66 3.4101 109.978 3.4101C112.288 3.4101 114.371 3.92245 116.227 4.94715C118.092 5.97185 119.57 7.47111 120.662 9.44493C121.754 11.4187 122.3 13.8251 122.3 16.664ZM115.925 16.664C115.925 14.9842 115.685 13.5647 115.207 12.4056C114.736 11.2466 114.056 10.3688 113.166 9.7725C112.284 9.17615 111.221 8.87798 109.978 8.87798C108.743 8.87798 107.681 9.17615 106.791 9.7725C105.9 10.3688 105.216 11.2466 104.737 12.4056C104.267 13.5647 104.032 14.9842 104.032 16.664C104.032 18.3439 104.267 19.7634 104.737 20.9224C105.216 22.0815 105.9 22.9593 106.791 23.5556C107.681 24.1519 108.743 24.4501 109.978 24.4501C111.221 24.4501 112.284 24.1519 113.166 23.5556C114.056 22.9593 114.736 22.0815 115.207 20.9224C115.685 19.7634 115.925 18.3439 115.925 16.664Z" fill="black"/>
<path d="M147.901 3.76286V29.5652H142.609L132.341 14.6734H132.177V29.5652H125.941V3.76286H131.308L141.463 18.6295H141.677V3.76286H147.901Z" fill="black"/>
<path d="M150.978 8.82759V3.76286H172.786V8.82759H164.963V29.5652H158.814V8.82759H150.978Z" fill="black"/>
<path d="M175.832 29.5652V3.76286H186.491C188.423 3.76286 190.09 4.11143 191.493 4.80856C192.904 5.4973 193.991 6.48841 194.756 7.78188C195.52 9.06696 195.902 10.5914 195.902 12.3553C195.902 14.1443 195.512 15.6645 194.73 16.916C193.949 18.1591 192.841 19.1082 191.404 19.7634C189.968 20.4101 188.267 20.7335 186.302 20.7335H179.561V15.8199H185.143C186.083 15.8199 186.869 15.6981 187.499 15.4546C188.137 15.2026 188.62 14.8246 188.948 14.3207C189.275 13.8083 189.439 13.1532 189.439 12.3553C189.439 11.5573 189.275 10.898 188.948 10.3772C188.62 9.84809 188.137 9.45333 187.499 9.19295C186.86 8.92418 186.075 8.78979 185.143 8.78979H182.069V29.5652H175.832ZM190.359 17.7727L196.784 29.5652H189.981L183.681 17.7727H190.359Z" fill="black"/>
<path d="M223.676 16.664C223.676 19.503 223.13 21.9094 222.038 23.8832C220.946 25.857 219.468 27.3562 217.604 28.3809C215.747 29.4056 213.664 29.918 211.355 29.918C209.036 29.918 206.949 29.4014 205.093 28.3683C203.237 27.3352 201.763 25.836 200.671 23.8706C199.587 21.8968 199.045 19.4946 199.045 16.664C199.045 13.8251 199.587 11.4187 200.671 9.44493C201.763 7.47111 203.237 5.97185 205.093 4.94715C206.949 3.92245 209.036 3.4101 211.355 3.4101C213.664 3.4101 215.747 3.92245 217.604 4.94715C219.468 5.97185 220.946 7.47111 222.038 9.44493C223.13 11.4187 223.676 13.8251 223.676 16.664ZM217.301 16.664C217.301 14.9842 217.062 13.5647 216.583 12.4056C216.113 11.2466 215.432 10.3688 214.542 9.7725C213.66 9.17615 212.598 8.87798 211.355 8.87798C210.12 8.87798 209.057 9.17615 208.167 9.7725C207.277 10.3688 206.592 11.2466 206.113 12.4056C205.643 13.5647 205.408 14.9842 205.408 16.664C205.408 18.3439 205.643 19.7634 206.113 20.9224C206.592 22.0815 207.277 22.9593 208.167 23.5556C209.057 24.1519 210.12 24.4501 211.355 24.4501C212.598 24.4501 213.66 24.1519 214.542 23.5556C215.432 22.9593 216.113 22.0815 216.583 20.9224C217.062 19.7634 217.301 18.3439 217.301 16.664Z" fill="black"/>
<path d="M227.317 29.5652V3.76286H233.554V24.5005H244.288V29.5652H227.317Z" fill="black"/>
<circle cx="50.5254" cy="17" r="17" fill="#26BF56"/>
<path d="M53.5156 29C53.4219 29 53.3281 28.9812 53.2391 28.9484C51.1859 28.4234 49.4703 27.3781 48.1391 25.8359C46.7891 24.275 46.1047 22.3578 46.1047 20.1359C46.1047 19.0953 46.4937 18.2094 47.2531 17.5016C48.0078 16.8031 48.9172 16.4516 49.9625 16.4516C51.0078 16.4516 51.9172 16.8078 52.6719 17.5016C53.4359 18.2094 53.8203 19.0953 53.8203 20.1359C53.8203 20.7219 54.0453 21.2 54.5 21.6078C54.95 22.0156 55.5359 22.2406 56.1453 22.2313C56.75 22.2313 57.2703 22.0297 57.725 21.6125C58.1703 21.2094 58.3812 20.7266 58.3812 20.1359C58.3812 17.9047 57.575 16.0859 55.9109 14.5766C54.2563 13.0766 52.2547 12.3172 49.9578 12.3172C47.6609 12.3172 45.6594 13.0766 44.0047 14.5766C42.3453 16.0859 41.5344 17.9047 41.5344 20.1359C41.5344 20.5719 41.5859 21.1531 41.6891 21.8656C41.7875 22.5641 42.0078 23.375 42.3359 24.275C42.4766 24.6266 42.35 24.8656 42.2609 24.9781C42.1859 25.0672 42.1016 25.1469 42.0031 25.2125L41.975 25.2313L41.9469 25.2453C41.8297 25.3062 41.6984 25.3344 41.5672 25.3344C41.5016 25.3344 41.4406 25.325 41.375 25.3109C41.1266 25.2547 40.925 25.0766 40.8359 24.8422L40.8313 24.8328L40.8266 24.8187C40.5687 24.0687 40.3672 23.3 40.2172 22.5219C40.0672 21.7391 39.9922 20.9422 39.9922 20.1406C39.9922 17.5344 40.9953 15.2797 42.9688 13.4375C44.9328 11.6047 47.2812 10.6719 49.9484 10.6719C52.6719 10.6719 55.0437 11.5859 56.9984 13.3906C58.9672 15.2047 59.9609 17.4781 59.9609 20.1406C59.9609 21.1625 59.5812 22.0344 58.8266 22.7422C58.0812 23.4406 57.1766 23.7969 56.1312 23.7969C55.0672 23.7969 54.1438 23.4453 53.3797 22.7469C52.6063 22.0391 52.2125 21.1625 52.2125 20.1406C52.2125 19.5312 51.9969 19.0391 51.5563 18.6359C51.1203 18.2281 50.5437 18.0078 49.9484 18.0172C49.3484 18.0078 48.7672 18.2281 48.3266 18.6406C47.8766 19.0437 47.6562 19.5359 47.6562 20.1406C47.6562 21.9969 48.2234 23.5672 49.3391 24.8C50.4781 26.0609 51.9219 26.9563 53.6281 27.4625L53.6422 27.4672C53.8859 27.5469 54.0547 27.6781 54.1437 27.8609C54.3078 28.2266 54.1953 28.6578 53.8766 28.8969C53.7781 28.9625 53.6469 29 53.5156 29ZM47.2719 28.7656C47.0563 28.7609 46.85 28.6625 46.7188 28.4891C45.5844 27.3125 44.6844 26.0562 44.0422 24.7531C43.3859 23.4266 43.0578 21.8703 43.0578 20.1359C43.0578 18.2937 43.7469 16.7188 45.1016 15.4578C46.4469 14.2063 48.0828 13.5688 49.9672 13.5688C51.8516 13.5688 53.4969 14.2016 54.8609 15.4531C56.2391 16.7141 56.9328 18.2891 56.9328 20.1312C56.9562 20.5437 56.6375 20.8906 56.2297 20.9141C56.2016 20.9141 56.1781 20.9141 56.15 20.9141C55.9531 20.9187 55.7563 20.8531 55.6016 20.7266C55.4281 20.5766 55.3297 20.3609 55.3391 20.1312C55.3391 18.7109 54.8234 17.5484 53.7594 16.5875C52.6813 15.6078 51.4437 15.1344 49.9625 15.1344C48.4812 15.1344 47.2531 15.6078 46.1984 16.5875C45.1531 17.5531 44.6469 18.7156 44.6469 20.1359C44.6469 21.6828 44.9141 23.0141 45.4438 24.0875C45.9828 25.1844 46.7984 26.3047 47.8719 27.4109C48.1063 27.65 48.1297 27.8844 48.1109 28.0438C48.0828 28.2219 47.9984 28.3859 47.8719 28.5125C47.7641 28.6156 47.6328 28.6906 47.4922 28.7328C47.4172 28.7562 47.3422 28.7656 47.2719 28.7656ZM55.8875 26.5531C54.0828 26.5531 52.4937 25.9438 51.1672 24.7438C49.8266 23.5297 49.1516 21.9781 49.1516 20.1359C49.1469 19.9391 49.2125 19.7422 49.3391 19.5875C49.6391 19.2594 50.1453 19.2359 50.4734 19.5312L50.5297 19.5875C50.6562 19.7422 50.7219 19.9344 50.7172 20.1359C50.7172 21.5516 51.2234 22.6906 52.2594 23.6047C53.3188 24.5375 54.5047 24.9922 55.8875 24.9922C56.0234 24.9922 56.1922 24.9828 56.3891 24.9641C56.5859 24.9453 56.8063 24.9172 57.0406 24.8844C57.0922 24.875 57.1484 24.8703 57.2047 24.8703C57.3734 24.8703 57.5422 24.9266 57.6734 25.0344C57.7953 25.1328 57.8891 25.2687 57.9406 25.4141L57.9453 25.4328L57.95 25.4516C57.9969 25.6344 57.9828 25.8266 57.8984 25.9953C57.8422 26.1078 57.7016 26.3 57.3875 26.3703C57.0594 26.4641 56.7219 26.525 56.3844 26.5438C56.0234 26.5531 55.9297 26.5531 55.8875 26.5531ZM39.8141 14.5438C39.6875 14.5438 39.5609 14.5109 39.4437 14.4547C39.2047 14.3375 39.0547 14.0938 39.0547 13.8266C39.0547 13.6672 39.0922 13.5078 39.1625 13.3625L39.1813 13.325L39.2047 13.2922C40.4188 11.6 42.0312 10.2312 43.9016 9.3125C45.7859 8.37969 47.8578 7.90156 49.9578 7.91094C52.0578 7.90156 54.1344 8.37031 56.0281 9.27969C57.9125 10.1844 59.5437 11.5391 60.7719 13.2313L60.7859 13.25L60.7953 13.2687C60.9172 13.4703 60.9594 13.6531 60.9313 13.8359C60.8984 14.0047 60.8188 14.1594 60.6922 14.2766C60.5422 14.4266 60.3406 14.5109 60.125 14.5063C59.9562 14.5063 59.7125 14.45 59.4922 14.1781L59.4828 14.1688L59.4734 14.1594C58.4094 12.6734 56.9844 11.4781 55.3297 10.6906C53.6516 9.88438 51.8141 9.46719 49.9484 9.47188C48.0594 9.47188 46.2641 9.88438 44.6141 10.7C42.9781 11.5062 41.5578 12.6922 40.4797 14.1594L40.475 14.1688L40.4703 14.1734C40.325 14.3516 40.175 14.4641 40.0062 14.5109C39.95 14.5297 39.8797 14.5391 39.8141 14.5438ZM43.0953 8.29531C42.9781 8.29531 42.8656 8.26719 42.7672 8.20625C42.6641 8.14062 42.575 8.06094 42.5047 7.95781C42.3922 7.82187 42.3359 7.65313 42.3406 7.47969C42.3359 7.24531 42.4531 7.025 42.6453 6.89375L42.6641 6.87969L42.6828 6.87031C43.8031 6.26094 44.9984 5.79219 46.2359 5.47344C47.45 5.16406 48.7063 5 49.9625 5C51.2422 5 52.5125 5.15938 53.7547 5.47344C54.9734 5.78281 56.1547 6.22813 57.2797 6.8C57.5281 6.90781 57.6875 7.10938 57.7203 7.3625C57.7484 7.55 57.7016 7.74219 57.5984 7.90156C57.5141 8.02344 57.4062 8.12656 57.275 8.20156C57.1672 8.2625 57.0453 8.29531 56.9188 8.29531C56.8109 8.29531 56.7031 8.27188 56.6 8.22969L56.5812 8.22031L56.5625 8.21094C55.5359 7.70937 54.4578 7.31094 53.3469 7.025C52.2406 6.73906 51.1016 6.59375 49.9625 6.59375C48.8281 6.59375 47.7031 6.725 46.6016 6.99687C45.5094 7.26406 44.4547 7.67188 43.4656 8.20625L43.4422 8.22031L43.4141 8.22969C43.3109 8.26719 43.2031 8.29063 43.0953 8.29531Z" fill="white"/>
</svg>
