<svg width="64" height="64" viewBox="0 0 64 64" fill="none" xmlns="http://www.w3.org/2000/svg">
<rect width="64" height="64" rx="10" fill="#FEF2C7"/>
<g clip-path="url(#clip0_2162_25406)">
<path d="M42.324 40.06L37.216 38.7827L36.7813 37.044C38.148 35.6907 39.084 33.832 39.3613 31.9253C40.1186 31.712 40.7053 31.0626 40.8066 30.248L41.1399 27.5813C41.2106 27.0186 41.0372 26.4493 40.6639 26.0226C40.4452 25.7719 40.1693 25.5826 39.8639 25.4666L39.9866 22.9559L40.4853 22.4559C41.236 21.6572 41.8586 20.2879 40.5573 18.3012C39.5573 16.7747 37.8587 16 35.5067 16C34.5787 16 32.4427 16 30.4534 17.336C24.7733 17.4547 24 20.0933 24 22.6667C24 23.2654 24.1453 24.6134 24.2413 25.4267C23.8986 25.5347 23.588 25.7347 23.3453 26.0107C22.9653 26.4414 22.7893 27.0134 22.86 27.5827L23.1933 30.2494C23.3026 31.1187 23.9626 31.8027 24.7973 31.9654C25.0733 33.7987 25.9613 35.5974 27.2493 36.9281L26.7853 38.7854L21.6773 40.0627C18.3333 40.896 16 43.8853 16 47.3333C16 47.7013 16.2987 48 16.6667 48H47.3334C47.7014 48 48.0001 47.6987 48.0001 47.3307C48 43.8853 45.6667 40.896 42.324 40.06Z" fill="#F6970A"/>
</g>
<defs>
<clipPath id="clip0_2162_25406">
<rect width="32" height="32" fill="white" transform="translate(16 16)"/>
</clipPath>
</defs>
</svg>
