<svg width="64" height="64" viewBox="0 0 64 64" fill="none" xmlns="http://www.w3.org/2000/svg">
<rect width="64" height="64" rx="10" fill="#FFE5E3"/>
<g clip-path="url(#clip0_2162_25399)">
<path d="M42.324 40.06L37.216 38.7827L36.9213 37.6027C40.4453 37.0094 42.2586 35.9534 42.3386 35.9067C42.5279 35.796 42.6453 35.5947 42.6613 35.376C42.676 35.1573 42.5786 34.9427 42.4066 34.8053C42.3827 34.7867 40 32.8187 40 26C40 20.2493 38.6547 17.3333 36 17.3333H35.6067C34.6493 16.408 33.9307 16 32 16C29.4947 16 24 18.5187 24 26C24 32.8187 21.6173 34.7867 21.6 34.8C21.4227 34.9333 21.3227 35.1453 21.3333 35.3667C21.3453 35.5894 21.4653 35.7894 21.656 35.904C21.736 35.952 23.532 37.0133 27.0773 37.6053L26.7826 38.7826L21.6747 40.06C18.3333 40.896 16 43.8853 16 47.3333C16 47.7013 16.2987 48 16.6667 48H47.3334C47.7014 48 48.0001 47.6987 48.0001 47.3307C48 43.8853 45.6667 40.896 42.324 40.06Z" fill="#EB4143"/>
</g>
<defs>
<clipPath id="clip0_2162_25399">
<rect width="32" height="32" fill="white" transform="translate(16 16)"/>
</clipPath>
</defs>
</svg>
