<svg width="64" height="64" viewBox="0 0 64 64" fill="none" xmlns="http://www.w3.org/2000/svg">
<rect width="64" height="64" rx="10" fill="#E0E7FF"/>
<path d="M44.12 25.3067C42.9867 24.0533 41.0933 23.4267 38.3467 23.4267H38.0267V23.3733C38.0267 21.1333 38.0267 18.36 33.0133 18.36H30.9867C25.9733 18.36 25.9733 21.1467 25.9733 23.3733V23.44H25.6533C22.8933 23.44 21.0133 24.0667 19.88 25.32C18.56 26.7867 18.6 28.76 18.7333 30.1067L18.7467 30.2L18.8575 31.3633C18.8717 31.513 18.9526 31.6484 19.0783 31.731C19.3853 31.9326 19.976 32.3155 20.32 32.5067C20.5067 32.6267 20.7067 32.7333 20.9067 32.84C23.1867 34.0933 25.6933 34.9333 28.24 35.3467C28.36 36.6 28.9067 38.0667 31.8267 38.0667C34.7467 38.0667 35.32 36.6133 35.4133 35.32C38.1333 34.88 40.76 33.9333 43.1333 32.5467C43.2133 32.5067 43.2667 32.4667 43.3333 32.4267C43.8832 32.1159 44.4545 31.7301 44.9703 31.3557C45.0831 31.2739 45.1554 31.1479 45.1708 31.0094L45.2 30.7467L45.2667 30.12C45.28 30.04 45.28 29.9733 45.2933 29.88C45.4 28.5333 45.3733 26.6933 44.12 25.3067ZM33.4533 34.44C33.4533 35.8533 33.4533 36.0667 31.8133 36.0667C30.1733 36.0667 30.1733 35.8133 30.1733 34.4533V32.7733H33.4533V34.44ZM27.88 23.4267V23.3733C27.88 21.1067 27.88 20.2667 30.9867 20.2667H33.0133C36.12 20.2667 36.12 21.12 36.12 23.3733V23.44H27.88V23.4267Z" fill="#6265F0"/>
<path d="M44.1028 34.1825C44.4558 34.013 44.861 34.2939 44.8256 34.6839L44.32 40.2533C44.04 42.92 42.9467 45.64 37.08 45.64H26.92C21.0533 45.64 19.96 42.92 19.68 40.2667L19.1993 34.9788C19.1642 34.5934 19.5609 34.3132 19.9131 34.4739C21.3707 35.139 24.4936 36.5169 26.3225 36.9779C26.4872 37.0195 26.6211 37.1371 26.69 37.2924C27.4817 39.0764 29.2522 40.0267 31.8267 40.0267C34.3757 40.0267 36.1694 39.0399 36.9632 37.2526C37.0322 37.0972 37.1666 36.9795 37.3314 36.9378C39.271 36.4474 42.5839 34.9116 44.1028 34.1825Z" fill="#6265F0"/>
</svg>
