<svg width="16" height="20" viewBox="0 0 16 20" fill="none" xmlns="http://www.w3.org/2000/svg">
<path d="M11.3333 9.16668H10.5V2.50001C10.5 1.58334 9.75 0.833344 8.83333 0.833344H7.16667C6.25 0.833344 5.5 1.58334 5.5 2.50001V9.16668H4.66667C2.36667 9.16668 0.5 11.0333 0.5 13.3333V19.1667H15.5V13.3333C15.5 11.0333 13.6333 9.16668 11.3333 9.16668ZM7.16667 2.50001H8.83333V9.16668H7.16667V2.50001ZM13.8333 17.5H12.1667V15C12.1667 14.5417 11.7917 14.1667 11.3333 14.1667C10.875 14.1667 10.5 14.5417 10.5 15V17.5H8.83333V15C8.83333 14.5417 8.45833 14.1667 8 14.1667C7.54167 14.1667 7.16667 14.5417 7.16667 15V17.5H5.5V15C5.5 14.5417 5.125 14.1667 4.66667 14.1667C4.20833 14.1667 3.83333 14.5417 3.83333 15V17.5H2.16667V13.3333C2.16667 11.9583 3.29167 10.8333 4.66667 10.8333H11.3333C12.7083 10.8333 13.8333 11.9583 13.8333 13.3333V17.5Z" fill="#888D97"/>
</svg>
