<svg width="18" height="18" viewBox="0 0 18 18" fill="none" xmlns="http://www.w3.org/2000/svg">
<path d="M2.33317 4.00002H0.666504V15.6667C0.666504 16.5834 1.4165 17.3334 2.33317 17.3334H13.9998V15.6667H2.33317V4.00002ZM15.6665 0.666687H5.6665C4.74984 0.666687 3.99984 1.41669 3.99984 2.33335V12.3334C3.99984 13.25 4.74984 14 5.6665 14H15.6665C16.5832 14 17.3332 13.25 17.3332 12.3334V2.33335C17.3332 1.41669 16.5832 0.666687 15.6665 0.666687ZM15.6665 12.3334H5.6665V2.33335H15.6665V12.3334ZM9.83317 10.6667H11.4998V8.16669H13.9998V6.50002H11.4998V4.00002H9.83317V6.50002H7.33317V8.16669H9.83317V10.6667Z" fill="#888D97"/>
</svg>
